<svg width="36" height="34" viewBox="0 0 36 34" fill="none" xmlns="http://www.w3.org/2000/svg">
<path d="M8.29344 33.1132C5.78213 33.1132 3.79645 32.4854 2.33639 31.2297C0.905524 29.9741 0.190093 28.2512 0.190093 26.0611C0.190093 23.7834 1.02233 21.9876 2.6868 20.6735C4.38047 19.3594 6.78958 18.7024 9.91411 18.7024H17.4918C17.4626 17.0963 16.9078 15.8699 15.8274 15.0231C14.7469 14.147 13.1846 13.709 11.1406 13.709C8.39564 13.709 5.27111 14.4974 1.76696 16.0743V11.2561C5.44632 9.91284 8.86286 9.24121 12.0166 9.24121C15.4623 9.24121 18.1197 10.1026 19.9885 11.8255C21.8574 13.5484 22.7919 16.0159 22.7919 19.228V32.5H17.4918L18.0613 25.9297H17.9737C17.302 28.2366 16.1194 30.0179 14.4257 31.2735C12.7612 32.5 10.7171 33.1132 8.29344 33.1132ZM9.7389 28.6892C11.0822 28.6892 12.3524 28.4118 13.5497 27.857C14.7469 27.3022 15.696 26.5721 16.3968 25.6669C17.1268 24.7325 17.4918 23.725 17.4918 22.6446V22.2504H10.0017C6.96478 22.2504 5.44632 23.287 5.44632 25.3603C5.44632 26.4407 5.81133 27.273 6.54136 27.857C7.2714 28.4118 8.33724 28.6892 9.7389 28.6892ZM29.5219 9.85443H34.822V32.5H29.5219V9.85443ZM32.1501 7.00731C31.1864 7.00731 30.3834 6.7153 29.741 6.13127C29.0985 5.54725 28.7773 4.81722 28.7773 3.94118C28.7773 3.09434 29.0985 2.37891 29.741 1.79489C30.3834 1.21086 31.1864 0.918852 32.1501 0.918852C33.1137 0.918852 33.9167 1.21086 34.5592 1.79489C35.2308 2.37891 35.5666 3.09434 35.5666 3.94118C35.5666 4.81722 35.2308 5.54725 34.5592 6.13127C33.9167 6.7153 33.1137 7.00731 32.1501 7.00731Z" fill="#782800"/>
</svg>
