<svg width="46" height="25" viewBox="0 0 46 25" fill="none" xmlns="http://www.w3.org/2000/svg">
<path d="M8.29344 24.1132C5.78213 24.1132 3.79645 23.4854 2.33639 22.2297C0.905524 20.9741 0.190093 19.2512 0.190093 17.0611C0.190093 14.7834 1.02233 12.9876 2.6868 11.6735C4.38047 10.3594 6.78958 9.70241 9.91411 9.70241H17.4918C17.4626 8.09634 16.9078 6.86989 15.8274 6.02305C14.7469 5.14702 13.1846 4.709 11.1406 4.709C8.39564 4.709 5.27111 5.49743 1.76696 7.0743V2.25609C5.44632 0.912836 8.86286 0.241207 12.0166 0.241207C15.4623 0.241207 18.1197 1.10264 19.9885 2.82552C21.8574 4.54839 22.7919 7.0159 22.7919 10.228V23.5H17.4918L18.0613 16.9297H17.9737C17.302 19.2366 16.1194 21.0179 14.4257 22.2735C12.7612 23.5 10.7171 24.1132 8.29344 24.1132ZM9.7389 19.6892C11.0822 19.6892 12.3524 19.4118 13.5497 18.857C14.7469 18.3022 15.696 17.5721 16.3968 16.6669C17.1268 15.7325 17.4918 14.725 17.4918 13.6446V13.2504H10.0017C6.96478 13.2504 5.44632 14.287 5.44632 16.3603C5.44632 17.4407 5.81133 18.273 6.54136 18.857C7.2714 19.4118 8.33724 19.6892 9.7389 19.6892ZM29.5219 0.854433H34.822L34.2087 7.42471H34.2964C34.9388 5.11782 36.0776 3.35114 37.7129 2.12469C39.3482 0.869034 41.3777 0.241207 43.8014 0.241207C44.5022 0.241207 45.203 0.29961 45.9038 0.416415V5.67264C45.3198 5.40983 44.6482 5.20542 43.889 5.05941C43.1589 4.91341 42.4581 4.8404 41.7865 4.8404C39.7132 4.8404 38.0341 5.46823 36.7493 6.72388C35.4644 7.97954 34.822 9.62941 34.822 11.6735V23.5H29.5219V0.854433Z" fill="#004178"/>
</svg>
