<svg width="1440" height="353" viewBox="0 0 1440 353" fill="none" xmlns="http://www.w3.org/2000/svg">
<g clip-path="url(#clip0_366_1386)">
<rect width="1440" height="353" fill="white"/>
<mask id="mask0_366_1386" style="mask-type:alpha" maskUnits="userSpaceOnUse" x="-361" y="24" width="2480" height="318">
<rect width="2480" height="318" transform="matrix(-1 0 0 1 2119 24)" fill="url(#paint0_linear_366_1386)"/>
<rect x="-0.10289" y="0.10289" width="2479.79" height="317.794" transform="matrix(-1 0 0 1 2118.79 24)" stroke="#5F00FF" stroke-opacity="0.4" stroke-width="0.20578"/>
</mask>
<g mask="url(#mask0_366_1386)">
<path d="M3532.28 964.912C3532.28 964.912 3481.37 849.195 3416.77 839.132C3354.77 829.5 3341.78 900.698 3262.89 897.686C3187.96 894.806 3145.69 881.566 3094.72 805.403C3090.81 799.578 3086.57 793.554 3082.34 787.198C3018.71 692.5 3024.96 707.428 2933.24 551.031C2841.69 394.865 2825.82 350.776 2661.08 332.307C2630.54 328.831 2602.12 330.056 2575.66 335.782C2470.25 358.654 2393.15 438.69 2325.62 546.099C2314.91 563.145 2303.94 581.152 2293.39 599.986C2202.82 762.605 2171.09 861.574 2085.78 890.04C2003.08 917.612 1989.66 863.262 1929.89 820.431C1876.65 782.531 1859.53 744.4 1789.93 736.622C1785.36 736.125 1780.58 735.894 1775.58 735.53C1689.3 729.307 1662.68 674.063 1582.1 563.145C1566.5 541.663 1551.67 521.969 1539.55 504.128C1484.19 422.504 1489.62 360.905 1402.58 385.531C1318.85 409.198 1334.82 395.428 1250.49 469.87C1221.75 495.257 1192.41 507.107 1154.86 556.128C1011.69 743.275 1004.95 775.911 897.154 854.987" stroke="url(#paint1_linear_366_1386)" stroke-opacity="0.5" stroke-width="2" stroke-miterlimit="10"/>
<path d="M3499.41 936.412C3499.41 936.412 3449.47 821.356 3385.41 810.665C3324.34 800.437 3311.19 870.278 3233.17 866.703C3158.84 863.294 3117 849.524 3065.44 774.487C3061.47 768.727 3057.18 762.803 3052.78 756.514C2987.68 663.04 2992.79 679.755 2901.07 525.774C2809.52 372.058 2793.06 327.671 2629.89 309.334C2599.57 305.892 2571.43 307.05 2545.13 312.81C2440.32 335.682 2363.43 414.956 2296.22 521.14C2285.52 538.021 2274.54 555.862 2264.05 574.563C2174.07 735.263 2142.18 833.57 2056.71 861.804C1974.07 889.112 1960.1 835.291 1900.39 792.46C1847.47 754.759 1830.08 716.628 1760.97 708.32C1756.46 707.791 1751.68 707.526 1746.68 707.129C1660.56 700.045 1634.1 644.272 1553.63 534.446C1537.92 512.998 1522.76 493.469 1510.38 475.86C1453.81 395.46 1458.92 334.953 1371.99 360.44C1288.26 385 1304.72 372.124 1219.14 445.308C1189.37 470.762 1159.59 480.758 1121.5 530.077C978.602 715.238 971.321 748.338 864.879 827.016" stroke="url(#paint2_linear_366_1386)" stroke-opacity="0.5" stroke-width="2" stroke-miterlimit="10"/>
<path d="M3464.96 907.518C3464.96 907.518 3415.95 793.158 3352.49 781.772C3292.34 770.981 3279.03 839.432 3201.87 835.294C3128.19 831.355 3086.68 817.056 3034.63 743.144C3030.61 737.451 3026.21 731.592 3021.75 725.436C2955.19 633.153 2959.1 651.656 2867.44 500.092C2775.94 348.825 2758.88 304.173 2597.29 285.902C2567.24 282.46 2539.26 283.618 2513.18 289.345C2408.91 312.25 2332.3 390.73 2265.41 495.689C2254.76 512.405 2243.79 530.08 2233.36 548.649C2144.03 707.429 2111.92 805.074 2026.29 833.11C1943.7 860.152 1929.3 806.795 1869.53 763.997C1817.04 726.396 1799.33 688.364 1730.65 679.559C1726.14 678.997 1721.41 678.732 1716.47 678.268C1630.51 670.324 1604.16 613.988 1523.8 505.288C1507.99 483.873 1492.5 464.509 1479.79 447.099C1421.97 367.957 1426.86 308.509 1339.93 334.923C1256.14 360.377 1273.1 348.428 1186.32 420.354C1155.52 445.907 1125.31 454.05 1086.67 503.633C944.1 686.841 936.276 720.371 831.192 798.686" stroke="url(#paint3_linear_366_1386)" stroke-opacity="0.5" stroke-width="2" stroke-miterlimit="10"/>
<path d="M3428.94 878.387C3428.94 878.387 3380.91 764.722 3317.99 752.674C3258.76 741.32 3245.23 808.381 3168.95 803.714C3095.92 799.245 3054.79 784.417 3002.14 711.63C2998.06 706.003 2993.55 700.21 2989.04 694.153C2921.02 603.095 2923.79 623.386 2832.12 474.237C2740.68 325.387 2722.97 280.471 2562.95 262.332C2533.12 258.889 2505.41 260.048 2479.49 265.774C2375.77 288.679 2299.48 366.398 2232.87 470.133C2222.27 486.683 2211.24 504.193 2200.86 522.596C2112.13 679.457 2079.86 776.406 1994.07 804.243C1911.58 830.988 1896.59 778.194 1836.93 735.396C1784.77 697.96 1766.84 659.961 1698.59 650.627C1694.14 650.031 1689.41 649.733 1684.52 649.237C1598.67 640.432 1572.48 583.566 1492.28 475.959C1476.36 454.576 1460.55 435.378 1447.51 418.199C1388.5 340.282 1393.07 281.927 1306.24 309.234C1222.46 335.549 1239.74 324.527 1151.88 395.195C1120.04 420.814 1089.39 427.103 1050.22 476.985C907.967 658.24 899.546 692.2 795.875 770.15" stroke="url(#paint4_linear_366_1386)" stroke-opacity="0.5" stroke-width="2" stroke-miterlimit="10"/>
<path d="M3391.61 849.36C3391.61 849.36 3344.56 736.39 3282.18 723.68C3223.88 711.797 3210.19 777.434 3134.82 772.204C3062.45 767.173 3021.64 751.848 2968.45 680.187C2964.32 674.626 2959.7 668.933 2955.08 662.941C2885.59 573.108 2887.22 595.153 2795.61 448.421C2704.22 302.02 2685.86 256.806 2527.41 238.766C2497.86 235.357 2470.31 236.482 2444.61 242.176C2341.43 265.081 2265.41 342.005 2199.12 444.548C2188.53 460.933 2177.55 478.277 2167.18 496.548C2079.04 651.456 2046.66 747.777 1960.7 775.382C1878.28 801.862 1862.74 749.597 1803.13 706.766C1751.24 669.495 1733.1 631.53 1665.34 621.666C1660.88 621.037 1656.21 620.706 1651.38 620.143C1565.69 610.445 1539.61 553.05 1459.52 446.567C1443.49 425.218 1427.41 406.186 1414.04 389.205C1353.84 312.546 1358.13 255.25 1271.3 283.451C1187.52 310.659 1205.12 300.531 1116.12 369.974C1083.2 395.66 1052.17 400.095 1012.45 450.275C870.585 629.577 861.511 663.935 759.253 741.521" stroke="url(#paint5_linear_366_1386)" stroke-opacity="0.5" stroke-width="2" stroke-miterlimit="10"/>
<path d="M3353.03 820.595C3353.03 820.595 3306.96 708.32 3245.12 694.915C3187.74 682.469 3173.89 746.683 3099.34 740.923C3027.62 735.363 2987.14 719.475 2933.46 648.972C2929.27 643.444 2924.6 637.85 2919.87 631.992C2848.86 543.35 2849.35 567.215 2757.79 422.866C2666.46 278.915 2647.49 233.436 2490.63 215.496C2461.29 212.086 2434.01 213.179 2408.53 218.872C2305.95 241.81 2230.15 317.94 2164.19 419.259C2153.65 435.444 2142.67 452.656 2132.29 470.795C2044.76 623.783 2012.21 719.409 1926.09 746.815C1843.72 773.03 1827.64 721.295 1768.09 678.464C1716.52 641.359 1698.16 603.426 1630.84 593.066C1626.44 592.404 1621.76 592.04 1616.98 591.444C1531.4 580.852 1505.49 522.961 1425.56 417.571C1409.37 396.254 1393.01 377.387 1379.32 360.639C1317.92 285.204 1321.89 229 1235.17 258.095C1151.33 286.197 1169.21 276.929 1079.23 345.148C1045.22 370.933 1013.81 373.515 973.549 423.959C832.061 601.308 822.335 636.096 721.49 713.318" stroke="url(#paint6_linear_366_1386)" stroke-opacity="0.5" stroke-width="2" stroke-miterlimit="10"/>
<path d="M3313.42 792.36C3313.42 792.36 3268.32 680.78 3207.03 666.713C3150.58 653.738 3136.56 716.528 3062.94 710.206C2991.81 704.082 2951.71 687.698 2897.49 618.321C2893.25 612.859 2888.47 607.332 2883.69 601.572C2811.2 514.122 2810.55 539.775 2719 397.875C2627.72 256.373 2608.1 210.596 2452.81 192.755C2423.74 189.346 2396.63 190.438 2371.36 196.132C2269.32 219.07 2193.8 294.438 2128.16 394.532C2117.62 410.553 2106.64 427.599 2096.32 445.572C2009.44 596.64 1976.68 691.604 1890.39 718.812C1808.13 744.762 1791.39 693.59 1731.95 650.692C1680.71 613.753 1662.08 575.854 1595.25 564.964C1590.9 564.269 1586.23 563.871 1581.5 563.242C1496.03 551.79 1470.22 493.369 1390.51 389.071C1374.21 367.788 1357.53 349.119 1343.57 332.569C1280.97 258.392 1284.67 203.248 1197.95 233.237C1114.11 262.232 1132.21 253.825 1041.25 320.819C1006.15 346.67 974.363 347.431 933.557 398.173C792.45 573.57 782.072 608.788 682.639 685.613" stroke="url(#paint7_linear_366_1386)" stroke-opacity="0.5" stroke-width="2" stroke-miterlimit="10"/>
<path d="M3272.83 764.889C3272.83 764.889 3228.71 654.037 3167.97 639.275C3112.44 625.77 3098.26 687.137 3025.5 680.252C2955.03 673.599 2915.26 656.685 2860.49 588.433C2856.14 583.038 2851.3 577.609 2846.41 571.916C2772.41 485.691 2770.67 513.131 2679.12 373.615C2587.84 234.562 2567.62 188.487 2413.96 170.779C2385.11 167.369 2358.27 168.462 2333.17 174.122C2231.67 197.093 2156.47 271.634 2091.11 370.537C2080.62 386.391 2069.65 403.272 2059.32 421.113C1973.04 570.261 1940.11 664.563 1853.66 691.539C1771.46 717.192 1754.18 666.582 1694.79 623.685C1643.88 586.911 1625.02 549.077 1558.63 537.625C1554.28 536.864 1549.66 536.466 1544.99 535.804C1459.63 523.458 1433.98 464.507 1354.38 361.335C1337.97 340.085 1320.97 321.582 1306.68 305.23C1242.89 232.311 1246.26 178.259 1159.59 209.141C1075.7 239.031 1093.96 231.451 1002.13 297.286C965.943 323.237 933.831 322.111 892.428 373.151C751.756 546.628 740.671 582.244 642.651 658.671" stroke="url(#paint8_linear_366_1386)" stroke-opacity="0.5" stroke-width="2" stroke-miterlimit="10"/>
<path d="M3231.48 738.442C3231.48 738.442 3188.34 628.319 3128.14 612.828C3073.59 598.827 3059.13 658.704 2987.3 651.29C2917.43 644.074 2877.98 626.631 2822.78 559.57C2818.38 554.241 2813.43 548.879 2808.49 543.285C2732.96 458.251 2730.08 487.479 2638.58 350.412C2547.36 213.809 2526.49 167.469 2374.41 149.827C2345.83 146.45 2319.15 147.51 2294.26 153.17C2193.36 176.141 2118.38 249.921 2053.34 347.599C2042.91 363.288 2031.94 380.003 2021.61 397.712C1935.93 544.94 1902.84 638.547 1816.23 665.324C1734.07 690.712 1716.25 640.632 1656.92 597.734C1606.28 561.126 1587.21 523.326 1521.3 511.344C1517.01 510.549 1512.44 510.119 1507.77 509.424C1422.52 496.151 1397.03 436.737 1317.6 334.656C1301.08 313.439 1283.75 295.102 1269.13 278.982C1204.2 207.321 1207.24 154.328 1120.63 186.104C1036.74 216.887 1055.11 210.135 962.356 274.779C925.028 300.795 892.59 297.849 850.644 349.154C710.406 520.678 698.615 556.724 601.953 632.787" stroke="url(#paint9_linear_366_1386)" stroke-opacity="0.5" stroke-width="2" stroke-miterlimit="10"/>
<path d="M3189.43 713.254C3189.43 713.254 3147.32 603.859 3087.61 587.673C3033.98 573.142 3019.36 631.597 2948.4 623.653C2879.18 615.907 2840.06 597.934 2784.31 531.999C2779.85 526.736 2774.8 521.474 2769.8 515.979C2692.76 432.137 2688.79 463.185 2597.29 328.501C2506.12 194.314 2484.54 147.908 2334.15 130.2C2305.78 126.857 2279.38 127.85 2254.65 133.51C2154.3 156.514 2079.59 229.499 2014.88 325.952C2004.44 341.476 1993.52 358.026 1983.2 375.602C1898.16 520.911 1864.86 613.855 1778.08 640.401C1696.04 665.524 1677.62 615.974 1618.34 573.043C1568.03 536.6 1548.74 498.833 1483.26 486.355C1478.97 485.527 1474.46 485.064 1469.84 484.302C1384.7 470.136 1359.33 410.225 1280.05 309.237C1263.43 288.053 1245.82 269.881 1230.88 253.96C1164.81 183.557 1167.47 131.623 1080.91 164.293C996.968 195.969 1015.44 190.044 921.877 253.53C883.408 279.646 850.644 274.813 808.154 326.416C668.405 496.02 655.908 532.463 560.605 608.162" stroke="url(#paint10_linear_366_1386)" stroke-opacity="0.5" stroke-width="2" stroke-miterlimit="10"/>
<path d="M3146.88 689.586C3146.88 689.586 3105.75 580.919 3046.58 564.038C2993.93 549.011 2979.04 605.975 2909.01 597.502C2840.38 589.194 2801.59 570.724 2745.41 505.915C2740.9 500.685 2735.79 495.521 2730.63 490.126C2652.06 407.475 2647 440.344 2555.51 308.043C2464.39 176.306 2442.22 129.602 2293.34 111.993C2265.25 108.65 2239.06 109.643 2214.55 115.303C2114.74 138.307 2040.3 210.498 1975.92 305.759C1965.54 321.118 1954.56 337.502 1944.29 354.913C1859.86 498.302 1826.39 590.584 1739.45 616.898C1657.46 641.757 1638.5 592.736 1579.27 549.805C1529.28 513.527 1509.78 475.794 1444.74 462.785C1440.5 461.925 1435.99 461.428 1431.43 460.634C1346.39 445.54 1321.13 385.133 1242.07 285.238C1225.34 264.087 1207.41 246.08 1192.14 230.391C1124.93 161.212 1127.26 110.371 1040.76 143.934C956.814 176.504 975.287 171.374 880.962 233.701C841.352 259.883 808.317 253.23 765.229 305.097C625.969 472.782 612.712 509.589 518.821 584.924" stroke="url(#paint11_linear_366_1386)" stroke-opacity="0.5" stroke-width="2" stroke-miterlimit="10"/>
<path d="M3104.01 667.641C3104.01 667.641 3063.91 559.735 3005.23 542.093C2953.51 526.569 2938.46 582.045 2869.29 573.042C2801.26 564.171 2762.74 545.171 2706.12 481.52C2701.56 476.357 2696.34 471.259 2691.12 465.963C2610.98 384.505 2604.89 419.193 2513.39 289.309C2422.33 160.021 2399.51 113.052 2252.21 95.5425C2224.33 92.2325 2198.36 93.1924 2174.07 98.8194C2074.8 121.857 2000.64 193.253 1936.58 287.29C1926.25 302.45 1915.28 318.702 1905.06 335.98C1821.28 477.416 1787.59 569.037 1700.55 595.185C1618.61 619.746 1599.05 571.287 1539.93 528.324C1490.27 492.212 1470.49 454.511 1405.94 440.973C1401.76 440.079 1397.25 439.583 1392.74 438.722C1307.76 422.702 1282.66 361.831 1203.82 263.028C1186.97 241.91 1168.72 224.069 1153.18 208.612C1084.82 140.691 1086.78 90.9085 1000.33 125.366C916.387 158.83 934.807 154.493 839.775 215.695C799.024 241.943 765.662 233.437 722.032 285.635C583.261 451.433 569.242 488.604 476.764 563.575" stroke="url(#paint12_linear_366_1386)" stroke-opacity="0.5" stroke-width="2" stroke-miterlimit="10"/>
<path d="M3060.87 647.682C3060.87 647.682 3021.8 540.504 2963.61 522.167C2912.86 506.146 2897.54 560.132 2829.3 550.6C2761.92 541.199 2723.67 521.67 2666.62 459.145C2661.95 454.047 2656.67 449.049 2651.4 443.819C2569.74 363.552 2562.51 400.028 2471.07 272.56C2380.06 145.722 2356.58 98.455 2210.91 81.0445C2183.31 77.7345 2157.56 78.6944 2133.43 84.3214C2034.76 107.359 1960.81 177.994 1897.13 270.773C1886.81 285.767 1875.88 301.854 1865.67 319C1782.54 458.516 1748.69 549.474 1661.43 575.391C1579.6 599.687 1559.44 551.758 1500.38 508.794C1451.04 472.848 1431.05 435.18 1366.93 421.113C1362.75 420.186 1358.29 419.623 1353.84 418.763C1268.96 401.782 1243.97 340.481 1165.29 242.771C1148.29 221.686 1129.81 204.011 1113.89 188.752C1044.4 122.088 1046.03 73.3984 959.637 108.749C875.636 143.107 894.055 139.532 798.263 199.608C756.317 225.923 722.738 215.596 678.455 268.059C540.227 431.936 525.394 469.505 434.329 544.079" stroke="url(#paint13_linear_366_1386)" stroke-opacity="0.5" stroke-width="2" stroke-miterlimit="10"/>
<path d="M3017.68 629.939C3017.68 629.939 2979.59 523.523 2921.89 504.458C2872.06 487.974 2856.58 540.437 2789.15 530.375C2722.37 520.412 2684.39 500.386 2626.9 438.986C2622.17 433.955 2616.8 429.023 2611.42 423.926C2528.18 344.85 2519.92 383.147 2428.47 258.095C2337.52 133.706 2313.44 86.1743 2169.29 68.863C2141.91 65.5862 2116.37 66.4798 2092.47 72.1068C1994.34 95.1774 1920.66 165.018 1857.3 256.606C1847.04 271.434 1836.06 287.355 1825.9 304.336C1743.36 441.932 1709.35 532.228 1621.93 557.914C1540.15 581.944 1519.45 534.578 1460.5 491.549C1411.43 455.801 1391.22 418.166 1327.59 403.569C1323.47 402.609 1319.01 402.047 1314.61 401.087C1229.85 383.18 1204.96 321.415 1126.5 224.797C1109.39 203.745 1090.59 186.235 1074.34 171.208C1003.76 105.803 1004.96 58.1718 918.617 94.4162C834.616 129.701 852.872 126.854 756.482 185.838C713.395 212.219 679.49 200.071 634.664 252.799C497.034 414.757 481.331 452.722 391.624 526.932" stroke="url(#paint14_linear_366_1386)" stroke-opacity="0.5" stroke-width="2" stroke-miterlimit="10"/>
<path d="M2974.54 614.648C2974.54 614.648 2937.48 509.026 2880.27 489.199C2831.42 472.252 2815.66 523.193 2749.16 512.601C2682.98 502.075 2645.32 481.52 2587.35 421.311C2582.57 416.346 2577.08 411.481 2571.64 406.483C2486.83 328.599 2477.54 368.716 2386.09 246.047C2295.19 124.107 2270.47 76.3112 2127.95 59.0662C2100.83 55.7893 2075.51 56.683 2051.82 62.3099C1954.24 85.3806 1880.83 154.427 1817.8 244.823C1807.59 259.486 1796.61 275.242 1786.45 292.089C1704.57 427.766 1670.34 517.367 1582.75 542.854C1501.09 566.62 1479.79 519.783 1420.89 476.754C1372.15 441.171 1351.72 403.57 1288.53 388.443C1284.4 387.45 1280 386.821 1275.65 385.861C1190.94 366.994 1166.22 304.8 1087.93 209.273C1070.7 188.255 1051.63 170.911 1035.06 156.115C963.39 91.9675 964.205 45.3959 877.921 82.534C793.865 118.712 812.068 116.594 715.026 174.485C670.743 200.932 636.621 186.931 591.197 239.957C454.11 400.028 437.593 438.358 349.299 512.171" stroke="url(#paint15_linear_366_1386)" stroke-opacity="0.5" stroke-width="2" stroke-miterlimit="10"/>
<path d="M2931.61 602.069C2931.61 602.069 2895.59 497.209 2838.86 476.621C2790.94 459.21 2774.96 508.628 2709.38 497.54C2643.8 486.418 2606.42 465.4 2548.06 406.317C2543.22 401.385 2537.63 396.618 2532.09 391.72C2445.69 315.027 2435.37 356.932 2343.92 236.713C2253.08 117.222 2227.7 69.1279 2086.76 52.0153C2059.86 48.7384 2034.76 49.6321 2011.29 55.226C1914.3 78.3297 1841.11 146.582 1778.41 235.72C1768.19 250.217 1757.27 265.808 1747.11 282.523C1665.88 416.28 1631.43 505.219 1543.68 530.507C1462.07 554.008 1440.23 507.702 1381.38 464.672C1332.97 429.255 1312.32 391.686 1249.57 376.03C1245.49 375.004 1241.09 374.342 1236.8 373.349C1152.2 353.522 1127.53 290.897 1049.51 196.463C1032.17 175.478 1012.78 158.332 995.879 143.702C923.125 80.8122 923.505 35.2999 837.276 73.3316C753.22 110.404 771.205 109.013 673.62 165.846C628.142 192.326 593.802 176.537 547.781 229.828C411.292 388.012 393.904 426.706 307.023 500.155" stroke="url(#paint16_linear_366_1386)" stroke-opacity="0.5" stroke-width="2" stroke-miterlimit="10"/>
<path d="M2889.01 592.437C2889.01 592.437 2854.02 488.371 2797.78 467.022C2750.78 449.181 2734.59 497.043 2669.93 485.425C2604.95 473.741 2567.78 452.226 2509.05 394.268C2504.1 389.402 2498.45 384.735 2492.86 379.903C2404.83 304.402 2393.53 348.127 2302.09 230.291C2211.29 113.25 2185.27 64.8909 2045.9 47.8445C2019.28 44.6007 1994.39 45.4613 1971.08 51.0221C1874.64 74.1258 1801.72 141.616 1739.34 229.53C1729.18 243.829 1718.21 259.287 1708.1 275.837C1627.52 407.673 1592.86 495.951 1504.94 521.008C1423.44 544.244 1400.95 498.466 1342.21 455.403C1294.07 420.152 1273.2 382.617 1210.94 366.464C1206.92 365.405 1202.52 364.71 1198.28 363.684C1113.73 342.897 1089.23 279.842 1011.42 186.5C993.978 165.548 974.309 148.567 957.085 134.169C883.298 72.537 883.244 28.117 797.069 67.0094C713.013 104.975 730.835 104.28 632.652 160.053C585.924 186.599 551.367 168.957 504.803 222.579C368.911 378.877 350.709 417.901 265.186 490.986" stroke="url(#paint17_linear_366_1386)" stroke-opacity="0.5" stroke-width="2" stroke-miterlimit="10"/>
<path d="M2846.85 586.015C2846.85 586.015 2812.84 482.743 2757.14 460.632C2711.12 442.328 2694.71 488.635 2630.92 476.52C2566.54 464.273 2529.64 442.229 2470.53 385.429C2465.53 380.63 2459.77 376.029 2454.12 371.329C2364.52 297.02 2352.19 342.565 2260.74 227.113C2170 112.521 2143.32 63.864 2005.58 46.95C1979.18 43.7062 1954.51 44.5668 1931.42 50.1276C1835.52 73.2644 1762.87 139.928 1700.82 226.649C1690.71 240.783 1679.74 256.075 1669.63 272.493C1589.71 402.41 1554.88 490.025 1466.75 514.85C1385.3 537.821 1362.26 492.574 1303.58 449.511C1255.76 414.425 1234.68 376.956 1172.85 360.24C1168.83 359.148 1164.48 358.42 1160.3 357.361C1075.86 335.581 1051.41 272.129 973.821 179.879C956.217 158.96 936.331 142.145 918.726 127.979C843.853 67.5712 843.364 24.2434 757.243 64.0295C673.133 102.889 690.738 102.889 592.011 157.636C544.088 184.215 509.314 164.786 462.151 218.672C326.912 373.083 307.786 412.472 223.676 485.193" stroke="url(#paint18_linear_366_1386)" stroke-opacity="0.5" stroke-width="2" stroke-miterlimit="10"/>
<path d="M2805.39 583.004C2805.39 583.004 2772.41 480.56 2717.21 457.621C2672.11 438.887 2655.48 483.638 2592.62 470.994C2528.83 458.184 2492.15 435.643 2432.65 379.969C2427.6 375.236 2421.79 370.734 2415.97 366.1C2324.75 292.983 2311.43 340.348 2219.99 227.312C2129.3 115.17 2102.03 66.2483 1965.81 49.4004C1939.68 46.1566 1915.22 46.9841 1892.3 52.578C1796.99 75.7149 1724.56 141.617 1662.84 227.114C1652.73 241.082 1641.81 256.209 1631.71 272.494C1552.43 400.491 1517.39 487.444 1429.15 512.038C1347.81 534.744 1324.17 490.026 1265.54 446.93C1218.06 412.01 1196.7 374.574 1135.36 357.329C1131.39 356.203 1127.1 355.442 1122.91 354.317C1038.59 331.544 1014.19 267.694 936.873 176.537C919.16 155.651 898.947 139.002 881.071 125.034C805.166 65.8842 804.242 23.6156 718.121 64.2954C634.011 104.048 651.398 104.743 552.128 158.431C502.956 185.044 468.019 163.827 420.258 217.978C285.671 370.502 265.622 410.255 182.87 482.579" stroke="url(#paint19_linear_366_1386)" stroke-opacity="0.5" stroke-width="2" stroke-miterlimit="10"/>
<path d="M2764.64 584.758C2764.64 584.758 2732.69 483.109 2677.97 459.409C2633.8 440.244 2616.96 483.407 2555.02 470.266C2491.82 456.86 2455.37 433.856 2395.54 379.307C2390.38 374.607 2384.51 370.205 2378.64 365.67C2285.79 293.744 2271.5 342.931 2180.11 232.278C2089.47 122.618 2061.55 73.3652 1926.96 56.6497C1901.04 53.439 1876.81 54.2334 1854.15 59.7942C1759.39 82.9641 1687.23 148.072 1625.84 232.344C1615.78 246.147 1604.81 261.108 1594.76 277.26C1516.13 403.338 1480.87 489.629 1392.47 514.024C1311.18 536.433 1287 492.277 1228.43 449.181C1181.27 414.426 1159.7 377.024 1098.79 359.249C1094.82 358.09 1090.58 357.296 1086.46 356.137C1002.18 332.372 977.894 268.125 900.793 178.027C882.971 157.174 862.487 140.69 844.231 126.954C767.293 69.0621 765.934 27.8859 679.868 69.4594C595.758 110.106 612.819 111.463 513.114 164.125C462.692 190.77 427.592 167.766 379.234 222.182C245.299 372.82 224.325 412.937 142.986 484.896" stroke="url(#paint20_linear_366_1386)" stroke-opacity="0.5" stroke-width="2" stroke-miterlimit="10"/>
<path d="M2724.81 590.783C2724.81 590.783 2693.84 489.961 2639.67 465.467C2596.42 445.905 2579.36 487.446 2518.34 473.808C2455.74 459.84 2419.45 436.306 2359.3 382.916C2354.08 378.282 2348.11 373.946 2342.19 369.511C2247.64 298.776 2232.43 349.783 2141.04 241.546C2050.52 134.336 2021.88 84.8185 1888.87 68.1692C1863.22 64.9585 1839.21 65.7529 1816.71 71.2806C1722.5 94.4505 1650.61 158.764 1589.54 241.844C1579.49 255.482 1568.57 270.277 1558.51 286.264C1480.54 410.422 1445.06 496.018 1356.5 520.214C1275.32 542.391 1250.55 498.766 1192.03 455.603C1145.14 421.014 1123.4 383.644 1062.93 365.373C1059.02 364.182 1054.78 363.354 1050.7 362.162C966.538 337.404 942.304 272.793 865.475 183.754C847.545 162.934 826.789 146.616 808.152 133.078C730.236 76.4111 728.334 36.3271 642.322 78.7943C558.158 120.335 575.001 122.321 474.808 174.023C423.136 200.701 387.927 175.876 338.917 230.59C205.688 379.374 183.737 419.822 103.81 491.384" stroke="url(#paint21_linear_366_1386)" stroke-opacity="0.5" stroke-width="2" stroke-miterlimit="10"/>
<path d="M2679.71 602.168C2679.71 602.168 2649.72 502.174 2596.09 476.852C2553.77 456.86 2536.54 496.811 2476.39 482.711C2414.4 468.147 2378.32 444.149 2317.79 391.885C2312.52 387.317 2306.44 383.08 2300.4 378.744C2204.23 309.201 2188.04 362.029 2096.65 256.175C2006.18 151.414 1976.89 101.599 1845.46 85.0817C1820.03 81.871 1796.29 82.6654 1773.95 88.1931C1680.28 111.396 1608.67 174.915 1547.92 256.771C1537.92 270.243 1527 284.873 1516.95 300.728C1439.69 422.965 1403.99 507.9 1315.21 531.864C1234.08 553.743 1208.71 510.68 1150.3 467.518C1103.74 433.094 1081.73 395.79 1021.74 376.957C1017.89 375.732 1013.65 374.871 1009.63 373.647C925.571 347.862 901.392 282.887 824.835 194.94C806.741 174.154 785.768 158.034 766.805 144.695C687.911 89.2854 685.521 50.2606 599.563 93.6215C515.398 136.089 531.862 138.67 431.234 189.379C378.257 216.058 342.94 189.479 293.332 244.491C160.81 391.421 137.88 432.2 59.3665 503.365" stroke="url(#paint22_linear_366_1386)" stroke-opacity="0.5" stroke-width="2" stroke-miterlimit="10"/>
<path d="M2634.13 616.07C2634.13 616.07 2605.17 516.936 2552.03 490.787C2510.62 470.398 2493.18 508.727 2434.01 494.13C2372.61 478.97 2336.7 454.51 2275.9 403.403C2270.52 398.869 2264.38 394.731 2258.29 390.494C2160.44 322.143 2143.32 376.791 2051.93 273.354C1961.52 171.042 1931.63 120.962 1801.77 104.511C1776.62 101.334 1753.03 102.095 1730.92 107.59C1637.84 130.793 1566.45 193.55 1506.03 274.181C1496.09 287.488 1485.16 301.952 1475.17 317.675C1398.55 437.993 1362.64 522.265 1273.69 545.998C1192.68 567.612 1166.71 525.079 1108.35 481.883C1062.11 447.658 1039.89 410.354 980.34 390.991C976.482 389.733 972.298 388.839 968.332 387.582C884.384 360.771 860.26 295.432 783.919 208.577C765.717 187.824 744.472 171.87 725.129 158.729C645.203 104.544 642.323 66.6451 556.474 110.867C472.31 154.227 488.447 157.438 387.384 207.187C333.158 233.899 297.678 205.532 247.418 260.809C115.602 405.853 91.6943 446.963 14.5933 517.797" stroke="url(#paint23_linear_366_1386)" stroke-opacity="0.5" stroke-width="2" stroke-miterlimit="10"/>
<path d="M1233.7 561.654C1152.74 583.003 1126.23 540.999 1067.93 497.804C1021.96 463.744 999.52 426.473 940.458 406.614C936.655 405.323 932.471 404.396 928.559 403.072C844.72 375.235 820.596 309.565 744.581 223.77C726.216 203.049 704.754 187.261 685.03 174.352C604.18 121.392 600.757 84.5846 514.908 129.7C430.744 173.954 446.5 177.761 345.057 226.55C289.527 253.262 253.938 223.141 203.081 278.682C72.0255 421.873 47.1402 463.314 -28.6024 533.783" stroke="url(#paint24_linear_366_1386)" stroke-opacity="0.5" stroke-width="2" stroke-miterlimit="10"/>
<path d="M1195.94 578.502C1115.09 599.619 1087.98 558.112 1029.79 514.917C984.145 481.022 961.487 443.818 902.86 423.395C899.056 422.071 894.927 421.112 891.069 419.755C807.339 390.858 783.269 324.857 707.472 240.155C688.998 219.467 667.264 203.844 647.215 191.167C565.386 139.432 561.475 103.717 475.626 149.759C391.407 194.907 406.838 199.309 305.014 247.172C248.18 273.883 212.537 242.008 161.027 297.815C30.6781 439.184 4.81483 480.923 -69.5695 550.996" stroke="url(#paint25_linear_366_1386)" stroke-opacity="0.5" stroke-width="2" stroke-miterlimit="10"/>
<path d="M1159.65 596.641C1078.85 617.494 1051.14 576.549 993.002 533.288C947.686 499.559 924.812 462.388 866.619 441.435C862.87 440.078 858.741 439.052 854.937 437.695C771.37 407.773 747.246 341.441 671.775 257.797C653.138 237.176 631.187 221.685 610.757 209.206C528.005 158.696 523.495 124.107 437.755 171.009C353.536 217.084 368.587 222.049 266.328 268.952C208.19 295.63 172.438 262.034 120.331 318.105C-9.20314 457.621 -36.153 499.691 -109.125 569.4" stroke="url(#paint26_linear_366_1386)" stroke-opacity="0.5" stroke-width="2" stroke-miterlimit="10"/>
<path d="M1124.93 615.475C1044.24 636.063 1015.93 595.648 957.901 552.387C912.857 518.823 889.765 481.685 832.062 460.203C828.312 458.813 824.292 457.754 820.488 456.364C737.03 425.349 712.905 358.719 637.76 276.168C619.015 255.58 596.792 240.255 576.036 228.008C492.306 178.722 487.308 145.225 401.567 193.021C317.348 239.99 332.019 245.517 229.38 291.526C169.938 318.172 134.132 282.854 81.3727 339.223C-47.4007 476.886 -75.3834 519.287 -146.942 588.598" stroke="url(#paint27_linear_366_1386)" stroke-opacity="0.5" stroke-width="2" stroke-miterlimit="10"/>
<path d="M1091.56 635.101C1010.93 655.425 982.08 615.539 924.105 572.245C879.387 538.847 856.078 501.775 798.754 479.763C795.06 478.34 791.039 477.248 787.29 475.792C703.995 443.718 679.816 376.79 604.942 295.298C586.034 274.743 563.594 259.583 542.457 247.568C457.804 199.507 452.262 167.102 366.576 215.792C282.303 263.654 296.592 269.745 193.628 314.827C132.827 341.439 96.9667 304.4 43.61 361.034C-84.3484 496.876 -113.417 539.542 -183.564 608.489" stroke="url(#paint28_linear_366_1386)" stroke-opacity="0.5" stroke-width="2" stroke-miterlimit="10"/>
<path d="M1059.51 655.129C978.982 675.188 949.532 635.832 891.612 592.537C847.22 559.305 823.639 522.266 766.859 499.725C763.218 498.269 759.198 497.143 755.503 495.654C672.371 462.521 648.137 395.295 573.59 314.862C554.573 294.34 531.915 279.346 510.344 267.529C424.821 220.66 418.627 189.414 332.996 238.964C248.723 287.72 262.578 294.34 159.287 338.562C97.1828 365.141 61.2677 326.381 7.25891 383.28C-119.939 517.268 -150.04 560.265 -218.774 628.848" stroke="url(#paint29_linear_366_1386)" stroke-opacity="0.5" stroke-width="2" stroke-miterlimit="10"/>
<path d="M1028.54 675.418C948.12 695.212 918.018 656.385 860.206 613.058C816.086 580.024 792.342 542.985 735.997 519.915C732.356 518.425 728.39 517.267 724.695 515.744C641.726 481.519 617.438 413.995 543.163 334.654C523.983 314.166 501.108 299.304 479.211 287.752C392.764 242.107 386.027 211.953 300.45 262.397C216.176 312.08 229.597 319.197 125.926 362.525C62.4629 389.071 26.5479 348.59 -28.1129 405.753C-154.441 537.921 -185.684 581.216 -253.059 649.434" stroke="url(#paint30_linear_366_1386)" stroke-opacity="0.5" stroke-width="2" stroke-miterlimit="10"/>
<path d="M998.489 695.676C918.128 715.205 887.483 676.942 829.725 633.581C785.931 600.712 761.915 563.74 706.059 540.14C702.473 538.617 698.507 537.392 694.921 535.87C612.114 500.552 587.718 432.764 513.823 354.482C494.534 334.027 471.387 319.33 449.11 307.977C361.794 263.524 354.459 234.528 268.882 285.866C184.609 336.443 197.54 344.089 93.5978 386.556C28.7764 413.036 -7.139 370.867 -62.4518 428.295C-187.965 558.643 -220.294 602.235 -286.257 670.057" stroke="url(#paint31_linear_366_1386)" stroke-opacity="0.5" stroke-width="2" stroke-miterlimit="10"/>
<path d="M969.365 715.701C889.113 734.965 857.87 697.232 800.167 653.838C756.699 621.135 732.466 584.195 677.044 560.066C673.458 558.51 669.546 557.252 665.96 555.696C583.317 519.287 558.866 451.233 485.297 373.978C465.845 353.555 442.535 339.025 419.878 327.903C331.692 284.641 323.76 256.771 238.237 309.003C153.963 360.473 166.46 368.616 62.192 410.222C-3.98773 436.636 -39.903 392.779 -95.8678 450.472C-220.512 578.999 -253.928 622.889 -318.532 690.347" stroke="url(#paint32_linear_366_1386)" stroke-opacity="0.5" stroke-width="2" stroke-miterlimit="10"/>
<path d="M2262.26 803.285C2262.26 803.285 2242.59 712.955 2195.37 678.233C2162.66 654.17 2143.81 675.751 2093.6 656.453C2038.24 635.17 2003.08 606.406 1940.05 566.422C1933.86 562.483 1926.85 559.206 1920.06 555.929C1804.87 499.792 1779.22 572.38 1687.62 492.874C1598.07 415.155 1561.45 362.129 1447.46 346.705C1424.74 343.626 1403.39 344.222 1383.23 349.617C1295.75 373.052 1226.8 427.832 1169.81 496.349C1160.19 507.934 1149.32 520.81 1139.49 535.109C1069.83 636.296 1031.47 713.882 940.839 735.363C860.64 754.363 828.8 717.159 771.205 673.765C728.009 641.227 703.558 604.354 648.626 579.662C645.094 578.073 641.237 576.782 637.651 575.16C555.225 537.658 530.611 469.34 457.368 393.144C437.807 372.787 414.226 358.389 391.188 347.499C302.133 305.396 293.549 278.684 208.08 331.81C123.753 384.174 135.869 392.813 31.2744 433.559C-36.2637 459.873 -72.1786 414.361 -128.795 472.352C-252.57 599.091 -287.127 643.247 -350.318 710.307" stroke="url(#paint33_linear_366_1386)" stroke-opacity="0.5" stroke-width="2" stroke-miterlimit="10"/>
<path d="M2230.42 822.05C2230.42 822.05 2211.62 732.648 2165.06 697.032C2133.11 672.637 2114.2 692.497 2064.92 672.77C2010.15 650.825 1974.99 621.73 1911.8 582.804C1905.5 578.932 1898.44 575.721 1891.59 572.543C1774.61 517.664 1748.2 592.039 1656.54 514.883C1567.16 439.647 1529.78 386.323 1417.41 370.998C1394.92 367.92 1373.78 368.516 1353.89 373.878C1267.01 397.346 1198.22 451.332 1141.61 518.624C1131.99 530.043 1121.18 542.754 1111.4 556.887C1042.5 656.154 1003.87 733.078 913.021 754.361C832.932 773.129 800.494 736.421 742.954 693.027C700.084 660.655 675.416 623.815 620.918 598.593C617.44 596.971 613.583 595.647 610.051 593.992C527.842 555.398 503.12 486.815 430.203 411.678C410.479 391.355 386.735 377.089 363.262 366.43C273.338 325.519 264.156 299.966 178.741 353.952C94.4139 407.243 106.042 416.312 1.12114 456.264C-67.7753 482.512 -103.691 435.344 -160.96 493.567C-283.865 618.486 -319.563 662.939 -381.341 729.635" stroke="url(#paint34_linear_366_1386)" stroke-opacity="0.5" stroke-width="2" stroke-miterlimit="10"/>
<path d="M2199.01 839.958C2199.01 839.958 2181.08 751.482 2135.17 714.939C2104.04 690.181 2085.07 708.319 2036.66 688.162C1982.54 665.588 1947.34 636.096 1884.04 598.262C1877.68 594.456 1870.51 591.344 1863.61 588.233C1744.78 534.611 1717.66 610.741 1625.95 536.001C1536.67 463.215 1498.64 409.593 1387.8 394.367C1365.57 391.322 1344.65 391.885 1324.93 397.247C1238.59 420.748 1170.08 473.906 1113.79 540.007C1104.22 551.227 1093.41 563.805 1083.63 577.807C1015.44 675.187 976.536 751.416 885.525 772.467C805.544 790.97 772.509 754.825 715.023 711.365C672.479 679.192 647.539 642.384 593.53 616.633C590.053 614.978 586.249 613.621 582.772 611.933C500.781 572.213 475.896 503.398 403.359 429.32C383.472 409.03 359.511 394.93 335.712 384.503C244.919 344.75 235.138 320.356 149.724 375.235C65.3963 429.42 76.5895 438.953 -28.6569 478.077C-98.9117 504.192 -134.827 455.403 -192.748 513.891C-314.784 636.989 -351.623 681.707 -412.043 748.039" stroke="url(#paint35_linear_366_1386)" stroke-opacity="0.5" stroke-width="2" stroke-miterlimit="10"/>
<path d="M1514.72 804.609C1514.72 804.609 1509.07 732.881 1478.21 680.021C1460.06 648.973 1442.51 635.766 1409.04 608.062C1367.31 573.439 1328.68 539.313 1264.62 519.453C1256.42 516.905 1247.94 515.283 1239.9 513.76C1087.92 484.5 1049.45 590.42 955.401 558.875C869.715 530.145 817.608 471.326 735.29 458.053C717.469 455.173 700.516 455.504 684.379 460.602C608.256 484.632 543.38 523.227 493.827 567.614C484.753 575.756 474.429 585.521 464.703 596.907C410.803 660.227 365.868 724.275 271.652 741.057C193.301 755.025 149.453 728.347 93.4339 684.456C56.3233 655.361 27.3629 619.316 -18.2783 583.899C-21.1581 581.648 -24.3095 579.53 -27.0805 577.279C-102.715 516.839 -133.848 444.78 -199.104 389.238C-221.925 369.809 -249.147 357.793 -280.063 351.935C-385.907 331.909 -406.989 329.89 -492.023 400.559C-576.188 471.128 -573.254 487.214 -684.314 513.231C-780.106 535.672 -813.305 459.741 -884.701 522.366C-988.969 613.788 -1048.36 662.677 -1083.62 722.256" stroke="url(#paint36_linear_366_1386)" stroke-opacity="0.5" stroke-width="2" stroke-miterlimit="10"/>
<path d="M1465.12 784.947C1465.12 784.947 1460.01 714.113 1430.12 660.359C1412.68 628.947 1395.3 614.019 1362.59 585.884C1321.62 550.6 1282.66 516.308 1218.65 497.342C1210.34 494.892 1201.81 493.337 1193.71 491.88C1039.89 464.076 1000.88 571.486 906.609 542.424C821.194 516.11 768.218 457.026 687.477 443.886C669.926 441.039 653.191 441.337 637.217 446.401C561.692 470.498 496.925 508.232 447.806 551.427C438.732 559.404 428.463 569.003 418.737 580.224C365.706 641.657 320.391 705.011 225.957 721.561C147.661 735.297 103.215 709.115 47.3044 665.224C10.5197 636.328 -18.7125 600.316 -63.8647 564.369C-66.7444 562.085 -69.787 559.934 -72.5581 557.65C-147.703 496.051 -179.38 423.86 -244.147 369.311C-267.185 349.948 -294.57 337.999 -325.867 332.438C-432.58 313.439 -454.26 312.711 -539.239 384.306C-623.458 455.768 -620.85 472.153 -732.291 497.507C-829.496 519.618 -862.477 442.363 -934.688 505.153C-1037.87 594.854 -1098.56 643.941 -1132.47 703.157" stroke="url(#paint37_linear_366_1386)" stroke-opacity="0.5" stroke-width="2" stroke-miterlimit="10"/>
<path d="M1416.21 765.184C1416.21 765.184 1411.65 695.277 1382.74 640.629C1365.96 608.853 1348.73 592.204 1316.84 563.639C1276.63 527.659 1237.4 493.235 1173.34 475.163C1164.92 472.779 1156.33 471.323 1148.18 469.933C992.567 443.585 952.957 552.484 858.469 525.872C773.38 501.94 719.535 442.658 640.369 429.584C623.036 426.737 606.518 427.035 590.761 432.1C515.779 456.229 451.229 493.136 402.491 535.14C393.472 542.918 383.202 552.385 373.531 563.473C321.369 623.053 275.619 685.711 181.023 702.029C102.835 715.501 57.7916 689.882 1.9355 645.925C-34.5775 617.194 -64.0271 581.215 -108.69 544.738C-111.516 542.421 -114.558 540.204 -117.275 537.92C-191.877 475.163 -224.097 402.806 -288.484 349.284C-311.685 329.986 -339.232 318.104 -370.91 312.808C-478.492 294.834 -500.77 295.397 -585.749 367.886C-669.968 440.242 -667.741 456.924 -779.561 481.617C-878.179 503.43 -910.889 424.784 -983.969 487.774C-1086.06 575.786 -1148.11 625.039 -1180.61 683.857" stroke="url(#paint38_linear_366_1386)" stroke-opacity="0.5" stroke-width="2" stroke-miterlimit="10"/>
<path d="M1368.4 745.524C1368.4 745.524 1364.38 676.51 1336.45 621.002C1320.26 588.829 1303.31 570.458 1272.17 541.496C1232.78 504.854 1193.17 470.265 1129.11 453.086C1120.58 450.802 1111.94 449.412 1103.68 448.088C946.219 423.197 906.12 533.552 811.36 509.455C726.543 487.874 671.828 428.36 594.238 415.452C577.177 412.605 560.877 412.903 545.283 417.934C470.898 442.097 406.512 478.176 358.154 518.988C349.134 526.601 338.919 535.935 329.248 546.858C278.01 604.551 231.825 666.514 137.011 682.601C58.9322 695.841 13.2364 670.718 -42.511 626.761C-78.698 598.196 -108.364 562.283 -152.593 525.244C-155.418 522.894 -158.352 520.643 -161.069 518.293C-235.182 454.377 -268 381.888 -331.844 329.359C-355.262 310.095 -382.918 298.311 -415.03 293.313C-523.482 276.366 -546.357 278.253 -631.282 351.602C-715.501 424.852 -713.654 441.832 -825.91 465.896C-925.994 487.378 -958.432 407.408 -1032.33 470.563C-1133.34 556.854 -1196.74 606.306 -1227.82 664.76" stroke="url(#paint39_linear_366_1386)" stroke-opacity="0.5" stroke-width="2" stroke-miterlimit="10"/>
<path d="M1321.89 726.127C1321.89 726.127 1318.36 658.041 1291.46 601.605C1275.92 569.068 1259.24 548.976 1228.81 519.617C1190.18 482.28 1150.3 447.592 1086.24 431.273C1077.6 429.089 1068.91 427.732 1060.59 426.54C901.338 403.105 860.641 514.917 765.664 493.302C681.173 474.071 625.534 414.392 549.52 401.55C532.676 398.703 516.647 399.001 501.216 404.032C427.43 428.228 363.152 463.479 315.228 503.1C306.209 510.548 296.103 519.716 286.377 530.507C236.008 586.346 189.389 647.614 94.4119 663.436C16.3872 676.444 -29.8517 651.818 -85.5448 607.861C-121.46 579.461 -151.344 543.581 -195.084 506.046C-197.855 503.663 -200.789 501.379 -203.451 498.996C-277.075 433.921 -310.436 361.3 -373.791 309.764C-397.372 290.566 -425.246 278.881 -457.738 274.148C-567.114 258.194 -590.587 261.405 -675.457 335.648C-759.676 409.791 -758.209 427.037 -870.845 450.471C-972.342 471.589 -1004.51 390.362 -1079.27 453.649C-1179.2 538.252 -1243.96 587.869 -1273.63 645.926" stroke="url(#paint40_linear_366_1386)" stroke-opacity="0.5" stroke-width="2" stroke-miterlimit="10"/>
<path d="M1277.12 707.194C1277.12 707.194 1274.13 640.001 1248.21 582.705C1233.32 549.771 1216.86 527.991 1187.19 498.201C1149.38 460.17 1109.17 425.382 1045.05 409.924C1036.31 407.839 1027.56 406.548 1019.19 405.422C858.141 383.477 816.847 496.679 721.652 477.613C637.433 460.732 580.98 400.821 506.541 388.144C489.969 385.298 474.103 385.562 458.944 390.594C385.701 414.823 321.64 449.213 274.097 487.642C265.132 494.891 255.025 503.928 245.3 514.553C195.855 568.539 148.801 629.111 53.6607 644.668C-24.2553 657.412 -71.1463 633.348 -126.731 589.325C-162.32 561.124 -192.476 525.277 -235.726 487.179C-238.443 484.763 -241.377 482.446 -244.039 480.03C-317.12 413.764 -351.079 341.043 -413.999 290.5C-437.797 271.368 -465.779 259.75 -498.652 255.281C-608.897 240.353 -632.968 244.855 -717.784 319.992C-802.003 395.029 -800.862 412.572 -913.933 435.378C-1016.84 456.164 -1048.74 373.613 -1124.37 437.066C-1223.21 519.948 -1289.33 569.73 -1317.64 627.456" stroke="url(#paint41_linear_366_1386)" stroke-opacity="0.5" stroke-width="2" stroke-miterlimit="10"/>
<path d="M1234.41 688.925C1234.41 688.925 1231.91 622.626 1207.03 564.47C1192.79 531.171 1176.54 507.67 1147.64 477.45C1110.64 438.756 1070.16 403.836 1005.99 389.239C997.13 387.22 988.328 386.028 979.852 384.969C817.011 364.513 775.173 479.105 679.707 462.555C595.814 447.991 538.436 387.948 465.573 375.337C449.218 372.523 433.625 372.755 418.628 377.786C345.983 402.082 282.03 435.612 234.976 472.849C226.011 479.932 215.959 488.803 206.233 499.296C157.712 551.428 110.17 611.306 14.8666 626.598C-62.9408 639.11 -110.43 615.543 -165.96 571.52C-201.277 543.484 -231.651 507.67 -274.412 469.043C-277.129 466.593 -279.954 464.21 -282.616 461.794C-355.153 394.369 -389.71 321.516 -452.141 271.966C-476.157 252.9 -504.302 241.348 -537.555 237.178C-648.724 223.243 -673.338 229.068 -758.154 305.099C-842.427 381.03 -841.558 398.838 -955.063 421.015C-1059.44 441.437 -1090.95 357.628 -1167.57 421.246C-1265.32 502.44 -1332.8 552.388 -1359.69 609.717" stroke="url(#paint42_linear_366_1386)" stroke-opacity="0.5" stroke-width="2" stroke-miterlimit="10"/>
<path d="M1194.09 671.481C1194.09 671.481 1192.08 606.076 1168.23 547.025C1154.59 513.33 1138.67 488.141 1110.47 457.49C1074.29 418.134 1033.48 383.115 969.257 369.378C960.292 367.458 951.381 366.333 942.905 365.34C778.27 346.374 735.835 462.323 640.151 448.355C556.53 436.108 498.283 375.866 426.996 363.42C410.913 360.607 395.482 360.839 380.703 365.837C308.601 390.165 244.812 422.868 198.192 458.914C189.227 465.831 179.284 474.57 169.504 484.897C121.852 535.176 73.9288 594.325 -21.5917 609.419C-99.2904 621.666 -147.594 598.727 -202.798 554.572C-237.899 526.768 -268.543 490.987 -310.707 451.764C-313.424 449.281 -316.195 446.865 -318.803 444.383C-390.797 375.8 -425.951 302.814 -487.947 254.257C-512.18 235.258 -540.489 223.772 -574.068 219.866C-686.16 206.924 -711.371 214.107 -796.079 291.031C-880.353 367.889 -879.809 385.928 -993.804 407.509C-1099.59 427.535 -1130.78 342.468 -1208.32 406.252C-1304.98 485.758 -1373.82 535.871 -1399.3 592.836" stroke="url(#paint43_linear_366_1386)" stroke-opacity="0.5" stroke-width="2" stroke-miterlimit="10"/>
<path d="M1156.55 655.063C1156.55 655.063 1155.03 590.551 1132.21 530.64C1119.22 496.547 1103.52 469.67 1076.08 438.589C1040.71 398.538 999.574 363.453 935.296 350.544C926.222 348.723 917.257 347.664 908.726 346.77C742.353 329.294 699.266 446.6 603.365 435.18C520.015 425.25 460.953 364.843 391.242 352.497C375.376 349.683 360.217 349.915 345.601 354.913C274.096 379.274 210.416 411.15 164.231 446.004C155.32 452.723 145.377 461.329 135.597 471.491C88.9232 519.949 40.4566 578.37 -55.2269 593.199C-132.871 605.214 -181.718 582.773 -236.868 538.617C-271.642 510.979 -302.504 475.264 -344.233 435.511C-346.896 432.996 -349.613 430.546 -352.221 428.031C-423.671 358.289 -459.478 285.204 -520.93 237.607C-545.327 218.707 -573.798 207.254 -607.811 203.646C-720.828 191.697 -746.582 200.204 -831.29 278.022C-915.564 355.773 -915.346 374.078 -1029.78 395.03C-1136.98 414.691 -1167.84 328.4 -1246.3 392.283C-1341.82 470.134 -1412.07 520.379 -1436.14 576.947" stroke="url(#paint44_linear_366_1386)" stroke-opacity="0.5" stroke-width="2" stroke-miterlimit="10"/>
<path d="M1122.1 639.837C1122.1 639.837 1121.07 576.186 1099.28 515.447C1086.89 480.957 1071.51 452.392 1044.78 420.881C1010.22 380.168 968.822 344.983 904.489 332.901C895.361 331.18 886.287 330.187 877.648 329.36C709.482 313.406 665.797 432.036 569.679 423.165C486.601 415.519 426.67 354.979 358.534 342.765C342.94 339.952 327.998 340.183 313.599 345.148C242.692 369.576 179.12 400.557 133.371 434.253C124.46 440.807 114.625 449.281 104.79 459.277C59.0405 505.881 10.1392 563.608 -85.7617 578.172C-163.297 589.955 -212.742 568.01 -267.837 523.821C-302.34 496.349 -333.419 460.667 -374.66 420.384C-377.268 417.836 -379.984 415.353 -382.538 412.804C-453.391 341.904 -489.849 268.688 -550.813 222.05C-575.427 203.216 -604.061 191.83 -638.455 188.52C-752.395 177.564 -778.693 187.394 -863.346 266.106C-947.62 344.751 -947.729 363.287 -1062.59 383.677C-1171.21 402.941 -1201.74 315.425 -1281.13 379.44C-1375.56 455.603 -1447.12 506.014 -1469.83 562.217" stroke="url(#paint45_linear_366_1386)" stroke-opacity="0.5" stroke-width="2" stroke-miterlimit="10"/>
</g>
</g>
<defs>
<linearGradient id="paint0_linear_366_1386" x1="1240" y1="0" x2="1240" y2="318" gradientUnits="userSpaceOnUse">
<stop offset="0.6" stop-color="white"/>
<stop offset="1" stop-color="white" stop-opacity="0"/>
</linearGradient>
<linearGradient id="paint1_linear_366_1386" x1="2214.72" y1="330.369" x2="2214.72" y2="964.912" gradientUnits="userSpaceOnUse">
<stop stop-color="#5F00FF"/>
<stop offset="0.25" stop-color="#5F00FF"/>
<stop offset="0.5" stop-color="#5F00FF"/>
<stop offset="0.75" stop-color="#5F00FF" stop-opacity="0"/>
<stop offset="1" stop-color="#5F00FF" stop-opacity="0"/>
</linearGradient>
<linearGradient id="paint2_linear_366_1386" x1="2182.14" y1="307.402" x2="2182.14" y2="936.412" gradientUnits="userSpaceOnUse">
<stop stop-color="#5F00FF"/>
<stop offset="0.25" stop-color="#5F00FF"/>
<stop offset="0.5" stop-color="#5F00FF"/>
<stop offset="0.75" stop-color="#5F00FF" stop-opacity="0"/>
<stop offset="1" stop-color="#5F00FF" stop-opacity="0"/>
</linearGradient>
<linearGradient id="paint3_linear_366_1386" x1="2148.08" y1="283.969" x2="2148.08" y2="907.518" gradientUnits="userSpaceOnUse">
<stop stop-color="#5F00FF"/>
<stop offset="0.25" stop-color="#5F00FF"/>
<stop offset="0.5" stop-color="#5F00FF"/>
<stop offset="0.75" stop-color="#5F00FF" stop-opacity="0"/>
<stop offset="1" stop-color="#5F00FF" stop-opacity="0"/>
</linearGradient>
<linearGradient id="paint4_linear_366_1386" x1="2112.41" y1="260.398" x2="2112.41" y2="878.387" gradientUnits="userSpaceOnUse">
<stop stop-color="#5F00FF"/>
<stop offset="0.25" stop-color="#5F00FF"/>
<stop offset="0.5" stop-color="#5F00FF"/>
<stop offset="0.75" stop-color="#5F00FF" stop-opacity="0"/>
<stop offset="1" stop-color="#5F00FF" stop-opacity="0"/>
</linearGradient>
<linearGradient id="paint5_linear_366_1386" x1="2075.43" y1="236.846" x2="2075.43" y2="849.36" gradientUnits="userSpaceOnUse">
<stop stop-color="#5F00FF"/>
<stop offset="0.25" stop-color="#5F00FF"/>
<stop offset="0.5" stop-color="#5F00FF"/>
<stop offset="0.75" stop-color="#5F00FF" stop-opacity="0"/>
<stop offset="1" stop-color="#5F00FF" stop-opacity="0"/>
</linearGradient>
<linearGradient id="paint6_linear_366_1386" x1="2037.26" y1="213.564" x2="2037.26" y2="820.595" gradientUnits="userSpaceOnUse">
<stop stop-color="#5F00FF"/>
<stop offset="0.25" stop-color="#5F00FF"/>
<stop offset="0.5" stop-color="#5F00FF"/>
<stop offset="0.75" stop-color="#5F00FF" stop-opacity="0"/>
<stop offset="1" stop-color="#5F00FF" stop-opacity="0"/>
</linearGradient>
<linearGradient id="paint7_linear_366_1386" x1="1998.03" y1="190.824" x2="1998.03" y2="792.36" gradientUnits="userSpaceOnUse">
<stop stop-color="#5F00FF"/>
<stop offset="0.25" stop-color="#5F00FF"/>
<stop offset="0.5" stop-color="#5F00FF"/>
<stop offset="0.75" stop-color="#5F00FF" stop-opacity="0"/>
<stop offset="1" stop-color="#5F00FF" stop-opacity="0"/>
</linearGradient>
<linearGradient id="paint8_linear_366_1386" x1="1957.74" y1="168.846" x2="1957.74" y2="764.889" gradientUnits="userSpaceOnUse">
<stop stop-color="#5F00FF"/>
<stop offset="0.25" stop-color="#5F00FF"/>
<stop offset="0.5" stop-color="#5F00FF"/>
<stop offset="0.75" stop-color="#5F00FF" stop-opacity="0"/>
<stop offset="1" stop-color="#5F00FF" stop-opacity="0"/>
</linearGradient>
<linearGradient id="paint9_linear_366_1386" x1="1916.72" y1="147.908" x2="1916.72" y2="738.442" gradientUnits="userSpaceOnUse">
<stop stop-color="#5F00FF"/>
<stop offset="0.25" stop-color="#5F00FF"/>
<stop offset="0.5" stop-color="#5F00FF"/>
<stop offset="0.75" stop-color="#5F00FF" stop-opacity="0"/>
<stop offset="1" stop-color="#5F00FF" stop-opacity="0"/>
</linearGradient>
<linearGradient id="paint10_linear_366_1386" x1="1875.02" y1="128.285" x2="1875.02" y2="713.254" gradientUnits="userSpaceOnUse">
<stop stop-color="#5F00FF"/>
<stop offset="0.25" stop-color="#5F00FF"/>
<stop offset="0.5" stop-color="#5F00FF"/>
<stop offset="0.75" stop-color="#5F00FF" stop-opacity="0"/>
<stop offset="1" stop-color="#5F00FF" stop-opacity="0"/>
</linearGradient>
<linearGradient id="paint11_linear_366_1386" x1="1832.85" y1="110.078" x2="1832.85" y2="689.586" gradientUnits="userSpaceOnUse">
<stop stop-color="#5F00FF"/>
<stop offset="0.25" stop-color="#5F00FF"/>
<stop offset="0.5" stop-color="#5F00FF"/>
<stop offset="0.75" stop-color="#5F00FF" stop-opacity="0"/>
<stop offset="1" stop-color="#5F00FF" stop-opacity="0"/>
</linearGradient>
<linearGradient id="paint12_linear_366_1386" x1="1790.39" y1="93.6406" x2="1790.39" y2="667.641" gradientUnits="userSpaceOnUse">
<stop stop-color="#5F00FF"/>
<stop offset="0.25" stop-color="#5F00FF"/>
<stop offset="0.5" stop-color="#5F00FF"/>
<stop offset="0.75" stop-color="#5F00FF" stop-opacity="0"/>
<stop offset="1" stop-color="#5F00FF" stop-opacity="0"/>
</linearGradient>
<linearGradient id="paint13_linear_366_1386" x1="1747.6" y1="79.1426" x2="1747.6" y2="647.682" gradientUnits="userSpaceOnUse">
<stop stop-color="#5F00FF"/>
<stop offset="0.25" stop-color="#5F00FF"/>
<stop offset="0.5" stop-color="#5F00FF"/>
<stop offset="0.75" stop-color="#5F00FF" stop-opacity="0"/>
<stop offset="1" stop-color="#5F00FF" stop-opacity="0"/>
</linearGradient>
<linearGradient id="paint14_linear_366_1386" x1="1704.65" y1="66.9648" x2="1704.65" y2="629.939" gradientUnits="userSpaceOnUse">
<stop stop-color="#5F00FF"/>
<stop offset="0.25" stop-color="#5F00FF"/>
<stop offset="0.5" stop-color="#5F00FF"/>
<stop offset="0.75" stop-color="#5F00FF" stop-opacity="0"/>
<stop offset="1" stop-color="#5F00FF" stop-opacity="0"/>
</linearGradient>
<linearGradient id="paint15_linear_366_1386" x1="1661.92" y1="57.168" x2="1661.92" y2="614.648" gradientUnits="userSpaceOnUse">
<stop stop-color="#5F00FF"/>
<stop offset="0.25" stop-color="#5F00FF"/>
<stop offset="0.5" stop-color="#5F00FF"/>
<stop offset="0.75" stop-color="#5F00FF" stop-opacity="0"/>
<stop offset="1" stop-color="#5F00FF" stop-opacity="0"/>
</linearGradient>
<linearGradient id="paint16_linear_366_1386" x1="1619.32" y1="50.1152" x2="1619.32" y2="602.069" gradientUnits="userSpaceOnUse">
<stop stop-color="#5F00FF"/>
<stop offset="0.25" stop-color="#5F00FF"/>
<stop offset="0.5" stop-color="#5F00FF"/>
<stop offset="0.75" stop-color="#5F00FF" stop-opacity="0"/>
<stop offset="1" stop-color="#5F00FF" stop-opacity="0"/>
</linearGradient>
<linearGradient id="paint17_linear_366_1386" x1="1577.1" y1="45.957" x2="1577.1" y2="592.437" gradientUnits="userSpaceOnUse">
<stop stop-color="#5F00FF"/>
<stop offset="0.25" stop-color="#5F00FF"/>
<stop offset="0.5" stop-color="#5F00FF"/>
<stop offset="0.75" stop-color="#5F00FF" stop-opacity="0"/>
<stop offset="1" stop-color="#5F00FF" stop-opacity="0"/>
</linearGradient>
<linearGradient id="paint18_linear_366_1386" x1="1535.26" y1="45.0625" x2="1535.26" y2="586.015" gradientUnits="userSpaceOnUse">
<stop stop-color="#5F00FF"/>
<stop offset="0.25" stop-color="#5F00FF"/>
<stop offset="0.5" stop-color="#5F00FF"/>
<stop offset="0.75" stop-color="#5F00FF" stop-opacity="0"/>
<stop offset="1" stop-color="#5F00FF" stop-opacity="0"/>
</linearGradient>
<linearGradient id="paint19_linear_366_1386" x1="1494.13" y1="47.5039" x2="1494.13" y2="583.004" gradientUnits="userSpaceOnUse">
<stop stop-color="#5F00FF"/>
<stop offset="0.25" stop-color="#5F00FF"/>
<stop offset="0.5" stop-color="#5F00FF"/>
<stop offset="0.75" stop-color="#5F00FF" stop-opacity="0"/>
<stop offset="1" stop-color="#5F00FF" stop-opacity="0"/>
</linearGradient>
<linearGradient id="paint20_linear_366_1386" x1="1453.81" y1="52.5488" x2="1453.81" y2="584.758" gradientUnits="userSpaceOnUse">
<stop stop-color="#5F00FF"/>
<stop offset="0.25" stop-color="#5F00FF"/>
<stop offset="0.5" stop-color="#5F00FF"/>
<stop offset="0.75" stop-color="#5F00FF" stop-opacity="0"/>
<stop offset="1" stop-color="#5F00FF" stop-opacity="0"/>
</linearGradient>
<linearGradient id="paint21_linear_366_1386" x1="1414.31" y1="61.0664" x2="1414.31" y2="590.783" gradientUnits="userSpaceOnUse">
<stop stop-color="#5F00FF"/>
<stop offset="0.25" stop-color="#5F00FF"/>
<stop offset="0.5" stop-color="#5F00FF"/>
<stop offset="0.75" stop-color="#5F00FF" stop-opacity="0"/>
<stop offset="1" stop-color="#5F00FF" stop-opacity="0"/>
</linearGradient>
<linearGradient id="paint22_linear_366_1386" x1="1369.54" y1="75.0586" x2="1369.54" y2="602.168" gradientUnits="userSpaceOnUse">
<stop stop-color="#5F00FF"/>
<stop offset="0.25" stop-color="#5F00FF"/>
<stop offset="0.5" stop-color="#5F00FF"/>
<stop offset="0.75" stop-color="#5F00FF" stop-opacity="0"/>
<stop offset="1" stop-color="#5F00FF" stop-opacity="0"/>
</linearGradient>
<linearGradient id="paint23_linear_366_1386" x1="1324.36" y1="91.4531" x2="1324.36" y2="616.07" gradientUnits="userSpaceOnUse">
<stop stop-color="#5F00FF"/>
<stop offset="0.25" stop-color="#5F00FF"/>
<stop offset="0.5" stop-color="#5F00FF"/>
<stop offset="0.75" stop-color="#5F00FF" stop-opacity="0"/>
<stop offset="1" stop-color="#5F00FF" stop-opacity="0"/>
</linearGradient>
<linearGradient id="paint24_linear_366_1386" x1="1280.92" y1="109.396" x2="1280.92" y2="631.494" gradientUnits="userSpaceOnUse">
<stop stop-color="#5F00FF"/>
<stop offset="0.25" stop-color="#5F00FF"/>
<stop offset="0.5" stop-color="#5F00FF"/>
<stop offset="0.75" stop-color="#5F00FF" stop-opacity="0"/>
<stop offset="1" stop-color="#5F00FF" stop-opacity="0"/>
</linearGradient>
<linearGradient id="paint25_linear_366_1386" x1="1239.52" y1="128.518" x2="1239.52" y2="648.21" gradientUnits="userSpaceOnUse">
<stop stop-color="#5F00FF"/>
<stop offset="0.25" stop-color="#5F00FF"/>
<stop offset="0.5" stop-color="#5F00FF"/>
<stop offset="0.75" stop-color="#5F00FF" stop-opacity="0"/>
<stop offset="1" stop-color="#5F00FF" stop-opacity="0"/>
</linearGradient>
<linearGradient id="paint26_linear_366_1386" x1="1199.64" y1="148.842" x2="1199.64" y2="666.051" gradientUnits="userSpaceOnUse">
<stop stop-color="#5F00FF"/>
<stop offset="0.25" stop-color="#5F00FF"/>
<stop offset="0.5" stop-color="#5F00FF"/>
<stop offset="0.75" stop-color="#5F00FF" stop-opacity="0"/>
<stop offset="1" stop-color="#5F00FF" stop-opacity="0"/>
</linearGradient>
<linearGradient id="paint27_linear_366_1386" x1="1161.41" y1="169.887" x2="1161.41" y2="684.753" gradientUnits="userSpaceOnUse">
<stop stop-color="#5F00FF"/>
<stop offset="0.25" stop-color="#5F00FF"/>
<stop offset="0.5" stop-color="#5F00FF"/>
<stop offset="0.75" stop-color="#5F00FF" stop-opacity="0"/>
<stop offset="1" stop-color="#5F00FF" stop-opacity="0"/>
</linearGradient>
<linearGradient id="paint28_linear_366_1386" x1="1124.46" y1="191.664" x2="1124.46" y2="704.148" gradientUnits="userSpaceOnUse">
<stop stop-color="#5F00FF"/>
<stop offset="0.25" stop-color="#5F00FF"/>
<stop offset="0.5" stop-color="#5F00FF"/>
<stop offset="0.75" stop-color="#5F00FF" stop-opacity="0"/>
<stop offset="1" stop-color="#5F00FF" stop-opacity="0"/>
</linearGradient>
<linearGradient id="paint29_linear_366_1386" x1="1088.87" y1="213.822" x2="1088.87" y2="723.944" gradientUnits="userSpaceOnUse">
<stop stop-color="#5F00FF"/>
<stop offset="0.25" stop-color="#5F00FF"/>
<stop offset="0.5" stop-color="#5F00FF"/>
<stop offset="0.75" stop-color="#5F00FF" stop-opacity="0"/>
<stop offset="1" stop-color="#5F00FF" stop-opacity="0"/>
</linearGradient>
<linearGradient id="paint30_linear_366_1386" x1="1054.29" y1="236.207" x2="1054.29" y2="744.001" gradientUnits="userSpaceOnUse">
<stop stop-color="#5F00FF"/>
<stop offset="0.25" stop-color="#5F00FF"/>
<stop offset="0.5" stop-color="#5F00FF"/>
<stop offset="0.75" stop-color="#5F00FF" stop-opacity="0"/>
<stop offset="1" stop-color="#5F00FF" stop-opacity="0"/>
</linearGradient>
<linearGradient id="paint31_linear_366_1386" x1="1020.74" y1="258.58" x2="1020.74" y2="764.027" gradientUnits="userSpaceOnUse">
<stop stop-color="#5F00FF"/>
<stop offset="0.25" stop-color="#5F00FF"/>
<stop offset="0.5" stop-color="#5F00FF"/>
<stop offset="0.75" stop-color="#5F00FF" stop-opacity="0"/>
<stop offset="1" stop-color="#5F00FF" stop-opacity="0"/>
</linearGradient>
<linearGradient id="paint32_linear_366_1386" x1="988.056" y1="280.602" x2="988.056" y2="783.887" gradientUnits="userSpaceOnUse">
<stop stop-color="#5F00FF"/>
<stop offset="0.25" stop-color="#5F00FF"/>
<stop offset="0.5" stop-color="#5F00FF"/>
<stop offset="0.75" stop-color="#5F00FF" stop-opacity="0"/>
<stop offset="1" stop-color="#5F00FF" stop-opacity="0"/>
</linearGradient>
<linearGradient id="paint33_linear_366_1386" x1="955.971" y1="302.254" x2="955.971" y2="803.285" gradientUnits="userSpaceOnUse">
<stop stop-color="#5F00FF"/>
<stop offset="0.25" stop-color="#5F00FF"/>
<stop offset="0.5" stop-color="#5F00FF"/>
<stop offset="0.75" stop-color="#5F00FF" stop-opacity="0"/>
<stop offset="1" stop-color="#5F00FF" stop-opacity="0"/>
</linearGradient>
<linearGradient id="paint34_linear_366_1386" x1="924.54" y1="323.234" x2="924.54" y2="822.05" gradientUnits="userSpaceOnUse">
<stop stop-color="#5F00FF"/>
<stop offset="0.25" stop-color="#5F00FF"/>
<stop offset="0.5" stop-color="#5F00FF"/>
<stop offset="0.75" stop-color="#5F00FF" stop-opacity="0"/>
<stop offset="1" stop-color="#5F00FF" stop-opacity="0"/>
</linearGradient>
<linearGradient id="paint35_linear_366_1386" x1="893.485" y1="343.301" x2="893.485" y2="839.958" gradientUnits="userSpaceOnUse">
<stop stop-color="#5F00FF"/>
<stop offset="0.25" stop-color="#5F00FF"/>
<stop offset="0.5" stop-color="#5F00FF"/>
<stop offset="0.75" stop-color="#5F00FF" stop-opacity="0"/>
<stop offset="1" stop-color="#5F00FF" stop-opacity="0"/>
</linearGradient>
<linearGradient id="paint36_linear_366_1386" x1="215.551" y1="339.859" x2="215.551" y2="804.609" gradientUnits="userSpaceOnUse">
<stop stop-color="#5F00FF"/>
<stop offset="0.25" stop-color="#5F00FF"/>
<stop offset="0.5" stop-color="#5F00FF"/>
<stop offset="0.75" stop-color="#5F00FF" stop-opacity="0"/>
<stop offset="1" stop-color="#5F00FF" stop-opacity="0"/>
</linearGradient>
<linearGradient id="paint37_linear_366_1386" x1="166.325" y1="321.518" x2="166.325" y2="784.947" gradientUnits="userSpaceOnUse">
<stop stop-color="#5F00FF"/>
<stop offset="0.25" stop-color="#5F00FF"/>
<stop offset="0.5" stop-color="#5F00FF"/>
<stop offset="0.75" stop-color="#5F00FF" stop-opacity="0"/>
<stop offset="1" stop-color="#5F00FF" stop-opacity="0"/>
</linearGradient>
<linearGradient id="paint38_linear_366_1386" x1="117.804" y1="302.988" x2="117.804" y2="765.184" gradientUnits="userSpaceOnUse">
<stop stop-color="#5F00FF"/>
<stop offset="0.25" stop-color="#5F00FF"/>
<stop offset="0.5" stop-color="#5F00FF"/>
<stop offset="0.75" stop-color="#5F00FF" stop-opacity="0"/>
<stop offset="1" stop-color="#5F00FF" stop-opacity="0"/>
</linearGradient>
<linearGradient id="paint39_linear_366_1386" x1="70.2881" y1="284.549" x2="70.2881" y2="745.524" gradientUnits="userSpaceOnUse">
<stop stop-color="#5F00FF"/>
<stop offset="0.25" stop-color="#5F00FF"/>
<stop offset="0.5" stop-color="#5F00FF"/>
<stop offset="0.75" stop-color="#5F00FF" stop-opacity="0"/>
<stop offset="1" stop-color="#5F00FF" stop-opacity="0"/>
</linearGradient>
<linearGradient id="paint40_linear_366_1386" x1="24.13" y1="266.363" x2="24.13" y2="726.127" gradientUnits="userSpaceOnUse">
<stop stop-color="#5F00FF"/>
<stop offset="0.25" stop-color="#5F00FF"/>
<stop offset="0.5" stop-color="#5F00FF"/>
<stop offset="0.75" stop-color="#5F00FF" stop-opacity="0"/>
<stop offset="1" stop-color="#5F00FF" stop-opacity="0"/>
</linearGradient>
<linearGradient id="paint41_linear_366_1386" x1="-20.2617" y1="248.436" x2="-20.2617" y2="707.194" gradientUnits="userSpaceOnUse">
<stop stop-color="#5F00FF"/>
<stop offset="0.25" stop-color="#5F00FF"/>
<stop offset="0.5" stop-color="#5F00FF"/>
<stop offset="0.75" stop-color="#5F00FF" stop-opacity="0"/>
<stop offset="1" stop-color="#5F00FF" stop-opacity="0"/>
</linearGradient>
<linearGradient id="paint42_linear_366_1386" x1="-62.6421" y1="231.201" x2="-62.6421" y2="688.925" gradientUnits="userSpaceOnUse">
<stop stop-color="#5F00FF"/>
<stop offset="0.25" stop-color="#5F00FF"/>
<stop offset="0.5" stop-color="#5F00FF"/>
<stop offset="0.75" stop-color="#5F00FF" stop-opacity="0"/>
<stop offset="1" stop-color="#5F00FF" stop-opacity="0"/>
</linearGradient>
<linearGradient id="paint43_linear_366_1386" x1="-102.605" y1="214.707" x2="-102.605" y2="671.481" gradientUnits="userSpaceOnUse">
<stop stop-color="#5F00FF"/>
<stop offset="0.25" stop-color="#5F00FF"/>
<stop offset="0.5" stop-color="#5F00FF"/>
<stop offset="0.75" stop-color="#5F00FF" stop-opacity="0"/>
<stop offset="1" stop-color="#5F00FF" stop-opacity="0"/>
</linearGradient>
<linearGradient id="paint44_linear_366_1386" x1="-139.799" y1="199.242" x2="-139.799" y2="655.063" gradientUnits="userSpaceOnUse">
<stop stop-color="#5F00FF"/>
<stop offset="0.25" stop-color="#5F00FF"/>
<stop offset="0.5" stop-color="#5F00FF"/>
<stop offset="0.75" stop-color="#5F00FF" stop-opacity="0"/>
<stop offset="1" stop-color="#5F00FF" stop-opacity="0"/>
</linearGradient>
<linearGradient id="paint45_linear_366_1386" x1="-173.865" y1="184.812" x2="-173.865" y2="639.837" gradientUnits="userSpaceOnUse">
<stop stop-color="#5F00FF"/>
<stop offset="0.25" stop-color="#5F00FF"/>
<stop offset="0.5" stop-color="#5F00FF"/>
<stop offset="0.75" stop-color="#5F00FF" stop-opacity="0"/>
<stop offset="1" stop-color="#5F00FF" stop-opacity="0"/>
</linearGradient>
<clipPath id="clip0_366_1386">
<rect width="1440" height="353" fill="white"/>
</clipPath>
</defs>
</svg>
