<svg width="209" height="47" viewBox="0 0 209 47" fill="none" xmlns="http://www.w3.org/2000/svg">
<path d="M14.6781 39.6132C9.68467 39.6132 6.57474 36.9413 6.57474 32.5611C6.57474 28.0495 9.94748 25.2024 16.2988 25.2024H23.8765C23.8327 22.0049 21.6426 20.209 17.5252 20.209C14.7219 20.209 11.5682 21.0412 8.1516 22.5743V17.7561C11.8748 16.3982 15.3351 15.7412 18.4012 15.7412C25.2343 15.7412 29.1765 19.2454 29.1765 25.728V39H23.8765L24.4459 32.4297H24.3583C23.0004 37.0289 19.4963 39.6132 14.6781 39.6132ZM16.1235 35.1892C20.2409 35.1892 23.8765 32.4297 23.8765 29.1446V28.7504H16.3864C13.5392 28.7504 11.831 29.6264 11.831 31.8603C11.831 34.0504 13.364 35.1892 16.1235 35.1892ZM35.9066 39V16.3544H41.2066V39H35.9066ZM38.5347 13.5073C36.6074 13.5073 35.162 12.1933 35.162 10.4412C35.162 8.73291 36.6074 7.41885 38.5347 7.41885C40.462 7.41885 41.9512 8.73291 41.9512 10.4412C41.9512 12.1933 40.462 13.5073 38.5347 13.5073Z" fill="#F4EDFF"/>
<path d="M185.448 39L198.106 8.33869H203.1L190.441 39H185.448Z" fill="#F4EDFF"/>
</svg>
