<svg width="209" height="47" viewBox="0 0 209 47" fill="none" xmlns="http://www.w3.org/2000/svg">
<path d="M22.6938 39.6132C17.7442 39.6132 14.0211 36.8975 12.6632 32.4297H12.5756L13.1888 39H7.88879V8.33869L13.1888 7.33125V18.9825C15.5979 16.9239 18.8831 15.7412 22.2558 15.7412C29.0889 15.7412 33.8195 20.647 33.8195 27.7867C33.8195 34.795 29.2641 39.6132 22.6938 39.6132ZM20.8103 35.014C25.5847 35.014 28.3881 32.2983 28.3881 27.6553C28.3881 23.0561 25.5847 20.3404 20.8103 20.3404C15.9921 20.3404 13.1888 23.0561 13.1888 27.6553C13.1888 32.2983 15.9921 35.014 20.8103 35.014ZM39.4997 39V16.3544H44.7997L44.1865 22.9247H44.2741C45.5444 18.2817 48.9171 15.7412 53.7791 15.7412C54.5676 15.7412 55.356 15.8288 55.8816 15.9164V21.1726C54.699 20.647 53.0783 20.3404 51.7642 20.3404C47.6031 20.3404 44.7997 23.0999 44.7997 27.1735V39H39.4997ZM67.2061 39.6132C62.2127 39.6132 59.1028 36.9413 59.1028 32.5611C59.1028 28.0495 62.4755 25.2024 68.8268 25.2024H76.4045C76.3607 22.0049 74.1706 20.209 70.0532 20.209C67.2499 20.209 64.0962 21.0412 60.6796 22.5743V17.7561C64.4028 16.3982 67.8631 15.7412 70.9293 15.7412C77.7624 15.7412 81.7045 19.2454 81.7045 25.728V39H76.4045L76.9739 32.4297H76.8863C75.5285 37.0289 72.0243 39.6132 67.2061 39.6132ZM68.6516 35.1892C72.7689 35.1892 76.4045 32.4297 76.4045 29.1446V28.7504H68.9144C66.0673 28.7504 64.359 29.6264 64.359 31.8603C64.359 34.0504 65.892 35.1892 68.6516 35.1892ZM92.771 39.6132C88.9164 39.6132 87.1206 37.0727 87.1206 33.4372C87.1206 29.933 88.9602 25.9032 91.6322 22.5305C90.7999 20.6032 89.7925 18.5445 88.6098 16.3544H94.0851L95.2677 18.8949C97.6768 16.9677 100.393 15.7412 103.021 15.7412C110.598 15.7412 113.664 21.4354 113.226 39H107.926C107.97 25.6404 107.182 20.1652 102.451 20.1652C100.612 20.1652 98.6405 21.2164 96.8446 22.8371C98.3776 26.8231 99.2099 30.1958 99.2099 32.6925C99.2099 37.0727 96.757 39.6132 92.771 39.6132ZM91.7636 32.9991C91.7636 34.6636 92.1578 35.1892 93.1652 35.1892C94.0851 35.1892 94.5669 34.5322 94.5669 32.6049C94.5669 31.2471 94.1727 29.4074 93.4718 27.1735C92.4206 29.057 91.7636 31.1157 91.7636 32.9991ZM129.901 39.6132C123.331 39.6132 118.731 34.8388 118.731 27.8743C118.731 20.6908 123.725 15.7412 130.908 15.7412C134.062 15.7412 136.778 16.661 139.406 18.6759V8.33869L144.706 7.33125V39H139.406L140.019 32.4297H139.932C138.574 36.9413 134.807 39.6132 129.901 39.6132ZM131.784 35.014C136.559 35.014 139.406 32.2545 139.406 27.6553C139.406 23.0999 136.559 20.3404 131.784 20.3404C126.966 20.3404 124.163 23.0999 124.163 27.6553C124.163 32.2545 126.966 35.014 131.784 35.014Z" fill="#F4EDFF"/>
<path d="M185.448 39L198.106 8.33869H203.1L190.441 39H185.448Z" fill="#F4EDFF"/>
</svg>
