<svg width="209" height="47" viewBox="0 0 209 47" fill="none" xmlns="http://www.w3.org/2000/svg">
<path d="M11.0425 39L5.43589 16.3544H11.0425L13.2764 26.5165L14.8971 34.795H14.9847L24.1831 15.7412H24.3583L33.6443 34.795H33.7319L35.3526 26.4727L37.5427 16.3544H43.1493L37.4989 39H30.7972L24.3145 25.8594H24.2269L17.7442 39H11.0425ZM59.9333 39.6132C51.3919 39.6132 46.3985 34.6636 46.3985 27.6553C46.3985 20.5594 51.3919 15.7412 58.9696 15.7412C66.7226 15.7412 71.0152 20.5156 71.0152 28.0495L52.3118 30.6338C53.2754 33.481 55.8597 35.1016 60.2837 35.1016C63.306 35.1016 66.3284 34.4446 69.3507 33.3496V37.905C66.5036 39 63.744 39.6132 59.9333 39.6132ZM51.8299 26.8669L65.6713 24.9396C65.2771 22.3115 63.3498 20.2528 59.1449 20.2528C54.5019 20.2528 52.0489 22.6181 51.8299 26.8669ZM91.3053 39.6132C86.3557 39.6132 82.6326 36.8975 81.2747 32.4297H81.1871L81.8003 39H76.5003V8.33869L81.8003 7.33125V18.9825C84.2094 16.9239 87.4946 15.7412 90.8673 15.7412C97.7004 15.7412 102.431 20.647 102.431 27.7867C102.431 34.795 97.8756 39.6132 91.3053 39.6132ZM89.4219 35.014C94.1963 35.014 96.9996 32.2983 96.9996 27.6553C96.9996 23.0561 94.1963 20.3404 89.4219 20.3404C84.6037 20.3404 81.8003 23.0561 81.8003 27.6553C81.8003 32.2983 84.6037 35.014 89.4219 35.014Z" fill="#F4EDFF"/>
<path d="M185.448 39L198.106 8.33869H203.1L190.441 39H185.448Z" fill="#F4EDFF"/>
</svg>
