<svg width="48" height="48" viewBox="0 0 48 48" fill="none" xmlns="http://www.w3.org/2000/svg">
<path fill-rule="evenodd" clip-rule="evenodd" d="M24 0C37.2548 0 48 10.7452 48 24C48 37.2548 37.2548 48 24 48C10.7452 48 0 37.2548 0 24C0 10.7452 10.7452 0 24 0ZM25.3359 16.5107C23.2458 10.3369 18.0961 9.03383 14.0498 9.47363C7.19235 10.2191 1.86987 15.7465 2.86133 25.9385C3.85294 36.1305 12.3788 43.8094 20.8613 44.9385C29.344 46.0674 35.9718 42.8238 40.8613 36.9385C44.0565 33.0926 44.8368 27.6047 44.9658 26.9385C45.2017 25.715 34.6697 38.4105 29.9521 35.1309C25.3203 31.9106 29.4499 27.072 36.5293 27.1113C36.6929 27.1122 36.7946 26.9286 36.7002 26.7949C34.6513 23.8932 32.3455 22.014 27.1807 22.5234C19.9465 23.237 19.2535 29.8588 13.2998 27.1182C7.38538 24.3954 10.188 15.985 25.1309 16.7734C25.271 16.7808 25.3809 16.6436 25.3359 16.5107Z" fill="#5F00FF"/>
<path d="M25.3359 16.5107C23.2458 10.3369 18.0961 9.03383 14.0498 9.47363C7.19235 10.2191 1.86987 15.7465 2.86133 25.9385C3.85294 36.1305 12.3788 43.8094 20.8613 44.9385C29.344 46.0674 35.9718 42.8238 40.8613 36.9385C44.0565 33.0926 44.8368 27.6047 44.9658 26.9385C45.2017 25.715 34.6697 38.4105 29.9521 35.1309C25.3203 31.9106 29.4499 27.072 36.5293 27.1113C36.6929 27.1122 36.7946 26.9286 36.7002 26.7949C34.6513 23.8932 32.3455 22.014 27.1807 22.5234C19.9465 23.237 19.2535 29.8588 13.2998 27.1182C7.38538 24.3954 10.188 15.985 25.1309 16.7734C25.271 16.7808 25.3809 16.6436 25.3359 16.5107Z" fill="white"/>
</svg>
