<svg width="23" height="15" viewBox="0 0 23 15" fill="none" xmlns="http://www.w3.org/2000/svg">
<path d="M5.07528 14.2521C4.29528 14.2521 3.56928 14.1861 2.89728 14.0541C2.23728 13.9221 1.55928 13.7121 0.863281 13.4241V11.3721C2.26728 12.0081 3.61128 12.3261 4.89528 12.3261C5.78328 12.3261 6.44328 12.1341 6.87528 11.7501C7.30728 11.3661 7.52328 10.7661 7.52328 9.95008C7.52328 9.19408 7.28928 8.64208 6.82128 8.29409C6.35328 7.94608 5.62128 7.77208 4.62528 7.77208C3.80928 7.77208 2.95728 7.88608 2.06928 8.11408L5.77728 3.38008H1.04328V1.40008H9.62928V1.47208L5.72328 6.44008L6.17328 6.42208C7.26528 6.42208 8.14728 6.72808 8.81928 7.34009C9.50328 7.95209 9.84528 8.84008 9.84528 10.0041C9.84528 11.3241 9.41328 12.3621 8.54928 13.1181C7.68528 13.8741 6.52728 14.2521 5.07528 14.2521Z" fill="white"/>
<path d="M16.6865 14.2521C15.7985 14.2521 15.0065 14.0481 14.3105 13.6401C13.6145 13.2321 13.0685 12.6681 12.6725 11.9481C12.2885 11.2161 12.0965 10.3761 12.0965 9.42808C12.0965 8.45608 12.3065 7.59208 12.7265 6.83608C13.1465 6.08008 13.7345 5.49208 14.4905 5.07208C15.2585 4.65208 16.1285 4.44208 17.1005 4.44208C17.7485 4.44208 18.3545 4.54408 18.9185 4.74809C19.4945 4.94008 20.0525 5.24008 20.5925 5.64808V1.40008L22.7705 0.986084V14.0001H20.5925L20.8445 11.3001H20.8085C20.5325 12.2241 20.0285 12.9501 19.2965 13.4781C18.5645 13.9941 17.6945 14.2521 16.6865 14.2521ZM17.4605 12.3621C18.4445 12.3621 19.2125 12.0981 19.7645 11.5701C20.3165 11.0301 20.5925 10.2861 20.5925 9.33809C20.5925 8.40209 20.3165 7.67008 19.7645 7.14208C19.2125 6.60208 18.4445 6.33208 17.4605 6.33208C16.4765 6.33208 15.7085 6.60208 15.1565 7.14208C14.6045 7.67008 14.3285 8.40209 14.3285 9.33809C14.3285 10.2861 14.6045 11.0301 15.1565 11.5701C15.7085 12.0981 16.4765 12.3621 17.4605 12.3621Z" fill="white"/>
</svg>
