<svg width="16" height="14" viewBox="0 0 16 14" fill="none" xmlns="http://www.w3.org/2000/svg">
<path d="M4.23039 13.252C2.17839 13.252 0.900391 12.154 0.900391 10.354C0.900391 8.49997 2.28639 7.32997 4.89639 7.32997H8.01039C7.99239 6.01597 7.09239 5.27797 5.40039 5.27797C4.24839 5.27797 2.95239 5.61997 1.54839 6.24997V4.26997C3.07839 3.71197 4.50039 3.44197 5.76039 3.44197C8.56839 3.44197 10.1884 4.88197 10.1884 7.54597V13H8.01039L8.24439 10.3H8.20839C7.65039 12.19 6.21039 13.252 4.23039 13.252ZM4.82439 11.434C6.51639 11.434 8.01039 10.3 8.01039 8.94997V8.78797H4.93239C3.76239 8.78797 3.06039 9.14797 3.06039 10.066C3.06039 10.966 3.69039 11.434 4.82439 11.434Z" fill="white"/>
<path d="M12.9541 13V3.69397H15.1321V13H12.9541ZM14.0341 2.52397C13.2421 2.52397 12.6481 1.98397 12.6481 1.26397C12.6481 0.561972 13.2421 0.0219727 14.0341 0.0219727C14.8261 0.0219727 15.4381 0.561972 15.4381 1.26397C15.4381 1.98397 14.8261 2.52397 14.0341 2.52397Z" fill="white"/>
</svg>
