<svg width="20" height="14" viewBox="0 0 20 14" fill="none" xmlns="http://www.w3.org/2000/svg">
<path d="M4.23039 13.2519C2.17839 13.2519 0.900391 12.1539 0.900391 10.3539C0.900391 8.4999 2.28639 7.32989 4.89639 7.32989H8.01039C7.99239 6.01589 7.09239 5.27789 5.40039 5.27789C4.24839 5.27789 2.95239 5.61989 1.54839 6.24989V4.26989C3.07839 3.71189 4.50039 3.44189 5.76039 3.44189C8.56839 3.44189 10.1884 4.88189 10.1884 7.54589V12.9999H8.01039L8.24439 10.2999H8.20839C7.65039 12.1899 6.21039 13.2519 4.23039 13.2519ZM4.82439 11.4339C6.51639 11.4339 8.01039 10.2999 8.01039 8.94989V8.7879H4.93239C3.76239 8.7879 3.06039 9.14789 3.06039 10.0659C3.06039 10.9659 3.69039 11.4339 4.82439 11.4339Z" fill="white"/>
<path d="M12.9541 12.9999V3.69389H15.1321L14.8801 6.39389H14.9161C15.4381 4.48589 16.8241 3.44189 18.8221 3.44189C19.1461 3.44189 19.4701 3.47789 19.6861 3.51389V5.67389C19.2001 5.45789 18.5341 5.33189 17.9941 5.33189C16.2841 5.33189 15.1321 6.46589 15.1321 8.13989V12.9999H12.9541Z" fill="white"/>
</svg>
