<svg width="7" height="20" viewBox="0 0 7 20" fill="none" xmlns="http://www.w3.org/2000/svg">
<path d="M3.10352 15.8975V10.6973H1.90332V9.09766H3.10352V3.89746L3.0918 3.67285C2.97928 2.56334 2.04251 1.69727 0.90332 1.69727V0.0976562C2.12319 0.0976562 3.20803 0.672872 3.90332 1.56641C4.59861 0.672872 5.68345 0.0976562 6.90332 0.0976562V1.69727C5.68829 1.69727 4.70312 2.68243 4.70312 3.89746V9.09766H5.90332V10.6973H4.70312V15.8975C4.70313 17.1125 5.68829 18.0977 6.90332 18.0977V19.6973C5.68317 19.6973 4.59859 19.1214 3.90332 18.2275C3.20805 19.1214 2.12347 19.6973 0.90332 19.6973V18.0977C2.11835 18.0977 3.10352 17.1125 3.10352 15.8975Z" fill="#1E1E1E"/>
</svg>
