<svg width="57" height="15" viewBox="0 0 57 15" fill="none" xmlns="http://www.w3.org/2000/svg">
<path d="M6.52345 14.2521C5.51545 14.2521 4.64545 13.9941 3.91345 13.4781C3.18145 12.9501 2.67745 12.2241 2.40145 11.3001H2.36545L2.61745 14.0001H0.439453V1.40008L2.61745 0.986084V5.77408C3.10945 5.35408 3.67945 5.03008 4.32745 4.80208C4.97545 4.56208 5.64745 4.44208 6.34345 4.44208C7.26745 4.44208 8.08945 4.65208 8.80945 5.07208C9.52945 5.48008 10.0875 6.06208 10.4835 6.81808C10.8915 7.56208 11.0955 8.42009 11.0955 9.39209C11.0955 10.3401 10.9035 11.1861 10.5195 11.9301C10.1355 12.6621 9.59545 13.2321 8.89945 13.6401C8.20345 14.0481 7.41145 14.2521 6.52345 14.2521ZM5.74945 12.3621C6.73345 12.3621 7.49545 12.0981 8.03545 11.5701C8.58745 11.0301 8.86345 10.2861 8.86345 9.33809C8.86345 8.39008 8.58745 7.65208 8.03545 7.12408C7.49545 6.59608 6.73345 6.33208 5.74945 6.33208C4.76545 6.33208 3.99745 6.59608 3.44545 7.12408C2.89345 7.65208 2.61745 8.39008 2.61745 9.33809C2.61745 10.2981 2.89345 11.0421 3.44545 11.5701C3.99745 12.0981 4.76545 12.3621 5.74945 12.3621Z" fill="white"/>
<path d="M13.4297 4.69408H15.6077L15.3557 7.39408H15.3917C15.6557 6.44608 16.1237 5.72008 16.7957 5.21608C17.4677 4.70008 18.3017 4.44208 19.2977 4.44208C19.5857 4.44208 19.8737 4.46608 20.1617 4.51408V6.67408C19.9217 6.56608 19.6457 6.48208 19.3337 6.42208C19.0337 6.36208 18.7457 6.33208 18.4697 6.33208C17.6177 6.33208 16.9277 6.59008 16.3997 7.10608C15.8717 7.62208 15.6077 8.30008 15.6077 9.14008V14.0001H13.4297V4.69408Z" fill="white"/>
<path d="M24.8154 14.2521C23.7834 14.2521 22.9674 13.9941 22.3674 13.4781C21.7794 12.9621 21.4854 12.2541 21.4854 11.3541C21.4854 10.4181 21.8274 9.68008 22.5114 9.14008C23.2074 8.60008 24.1974 8.33008 25.4814 8.33008H28.5954C28.5834 7.67008 28.3554 7.16608 27.9114 6.81808C27.4674 6.45808 26.8254 6.27808 25.9854 6.27808C24.8574 6.27808 23.5734 6.60208 22.1334 7.25008V5.27008C23.6454 4.71808 25.0494 4.44208 26.3454 4.44208C27.7614 4.44208 28.8534 4.79608 29.6214 5.50408C30.3894 6.21208 30.7734 7.22608 30.7734 8.54608V14.0001H28.5954L28.8294 11.3001H28.7934C28.5174 12.2481 28.0314 12.9801 27.3354 13.4961C26.6514 14.0001 25.8114 14.2521 24.8154 14.2521ZM25.4094 12.4341C25.9614 12.4341 26.4834 12.3201 26.9754 12.0921C27.4674 11.8641 27.8574 11.5641 28.1454 11.1921C28.4454 10.8081 28.5954 10.3941 28.5954 9.95008V9.78808H25.5174C24.2694 9.78808 23.6454 10.2141 23.6454 11.0661C23.6454 11.5101 23.7954 11.8521 24.0954 12.0921C24.3954 12.3201 24.8334 12.4341 25.4094 12.4341Z" fill="white"/>
<path d="M35.3211 14.2521C34.5531 14.2521 33.9711 14.0241 33.5751 13.5681C33.1911 13.1121 32.9991 12.4941 32.9991 11.7141C32.9991 11.0181 33.1671 10.2801 33.5031 9.50008C33.8391 8.70808 34.2891 7.95208 34.8531 7.23208C34.5171 6.44008 34.1031 5.59408 33.6111 4.69408H35.8611L36.3471 5.73808C36.8631 5.33008 37.3911 5.01208 37.9311 4.78408C38.4711 4.55608 39.0051 4.44208 39.5331 4.44208C40.5291 4.44208 41.3331 4.70608 41.9451 5.23408C42.5571 5.75008 43.0071 6.61408 43.2951 7.82608C43.5951 9.02608 43.7451 10.6581 43.7451 12.7221C43.7451 13.2741 43.7391 13.7001 43.7271 14.0001H41.5491C41.5611 12.0321 41.5071 10.5081 41.3871 9.42808C41.2791 8.34808 41.0631 7.55008 40.7391 7.03408C40.4151 6.51808 39.9351 6.26008 39.2991 6.26008C38.5791 6.26008 37.8111 6.62608 36.9951 7.35808C37.6431 9.03808 37.9671 10.3881 37.9671 11.4081C37.9671 12.3081 37.7331 13.0101 37.2651 13.5141C36.7971 14.0061 36.1491 14.2521 35.3211 14.2521ZM34.9071 11.5341C34.9071 11.8701 34.9491 12.1041 35.0331 12.2361C35.1171 12.3681 35.2671 12.4341 35.4831 12.4341C35.6751 12.4341 35.8191 12.3561 35.9151 12.2001C36.0111 12.0321 36.0591 11.7561 36.0591 11.3721C36.0591 10.8441 35.9091 10.1001 35.6091 9.14008C35.1411 9.98008 34.9071 10.7781 34.9071 11.5341Z" fill="white"/>
<path d="M50.5793 14.2521C49.6913 14.2521 48.8993 14.0481 48.2033 13.6401C47.5073 13.2321 46.9613 12.6681 46.5653 11.9481C46.1813 11.2161 45.9893 10.3761 45.9893 9.42808C45.9893 8.45608 46.1993 7.59208 46.6193 6.83608C47.0393 6.08008 47.6273 5.49208 48.3833 5.07208C49.1513 4.65208 50.0213 4.44208 50.9933 4.44208C51.6413 4.44208 52.2473 4.54408 52.8113 4.74809C53.3873 4.94008 53.9453 5.24008 54.4853 5.64808V1.40008L56.6633 0.986084V14.0001H54.4853L54.7373 11.3001H54.7013C54.4253 12.2241 53.9213 12.9501 53.1893 13.4781C52.4573 13.9941 51.5873 14.2521 50.5793 14.2521ZM51.3533 12.3621C52.3373 12.3621 53.1053 12.0981 53.6573 11.5701C54.2093 11.0301 54.4853 10.2861 54.4853 9.33809C54.4853 8.40209 54.2093 7.67008 53.6573 7.14208C53.1053 6.60208 52.3373 6.33208 51.3533 6.33208C50.3693 6.33208 49.6013 6.60208 49.0493 7.14208C48.4973 7.67008 48.2213 8.40209 48.2213 9.33809C48.2213 10.2861 48.4973 11.0301 49.0493 11.5701C49.6013 12.0981 50.3693 12.3621 51.3533 12.3621Z" fill="white"/>
</svg>
