<svg width="20" height="22" viewBox="0 0 20 22" fill="none" xmlns="http://www.w3.org/2000/svg">
<path d="M8.68264 1.09755C9.41045 0.873734 10.1892 0.873734 10.917 1.09755C11.3755 1.23863 11.7719 1.48612 12.1787 1.80653C12.5778 2.12087 13.0349 2.54458 13.5996 3.0663L17.2862 6.47157C18.0142 7.14416 18.4828 7.57022 18.8213 8.08974C19.11 8.53293 19.3235 9.02125 19.4531 9.53407C19.605 10.1353 19.5996 10.7694 19.5996 11.7606V15.66C19.5996 16.4865 19.6008 17.155 19.5567 17.6952C19.5117 18.2448 19.416 18.7331 19.1856 19.1854C18.8213 19.9 18.24 20.4814 17.5254 20.8456C17.073 21.0761 16.5848 21.1718 16.0352 21.2167C15.4949 21.2608 14.8267 21.2597 14 21.2597H13.5996V15.4599C13.5996 15.0052 13.6004 14.6237 13.5791 14.3114C13.5573 13.992 13.5098 13.6859 13.3867 13.3886C13.1026 12.7025 12.5571 12.1571 11.8711 11.8729C11.5737 11.7498 11.2678 11.7024 10.9483 11.6806C10.6359 11.6593 10.2547 11.66 9.79983 11.66C9.34501 11.66 8.96378 11.6593 8.65139 11.6806C8.33184 11.7024 8.02595 11.7498 7.72854 11.8729C7.04254 12.1571 6.49707 12.7025 6.21291 13.3886C6.08986 13.6859 6.04233 13.992 6.02053 14.3114C5.99926 14.6237 6.00002 15.0052 6.00002 15.4599V21.2597H5.59963C4.77297 21.2597 4.10478 21.2608 3.56448 21.2167C3.01481 21.1718 2.52664 21.0761 2.07424 20.8456C1.35963 20.4814 0.77837 19.9 0.414086 19.1854C0.18361 18.7331 0.0879201 18.2448 0.0429919 17.6952C-0.00113519 17.155 2.2689e-05 16.4865 2.31926e-05 15.66V11.7606C2.31926e-05 10.7694 -0.00532733 10.1353 0.146508 9.53407C0.276116 9.02126 0.489628 8.53292 0.778343 8.08974C1.11687 7.57023 1.5855 7.14414 2.3135 6.47157L6.00002 3.0663C6.56472 2.54459 7.02182 2.12087 7.42092 1.80653C7.82777 1.48613 8.22413 1.23863 8.68264 1.09755Z" fill="#1E1E1E"/>
<path d="M9.79983 13.2597C10.2767 13.2597 10.5945 13.2605 10.8399 13.2772C11.0778 13.2935 11.1888 13.3225 11.2588 13.3515C11.5528 13.4733 11.7865 13.7069 11.9082 14.0009C11.9372 14.0709 11.9662 14.1823 11.9824 14.4198C11.9992 14.6651 12 14.9832 12 15.4599V21.2597H7.59963V15.4599C7.59963 14.9832 7.6005 14.6651 7.61721 14.4198C7.63343 14.1823 7.66249 14.0709 7.69143 14.0009C7.8132 13.7069 8.04689 13.4733 8.34084 13.3515C8.41087 13.3225 8.5219 13.2935 8.75979 13.2772C9.00515 13.2605 9.32295 13.2597 9.79983 13.2597Z" fill="#1E1E1E"/>
</svg>
