<svg width="21" height="22" viewBox="0 0 21 22" fill="none" xmlns="http://www.w3.org/2000/svg">
<path d="M12.7217 15.2626C12.7217 14.7857 12.7209 14.4679 12.7041 14.2225C12.6879 13.9846 12.6589 13.8736 12.6299 13.8036C12.5081 13.5096 12.2745 13.276 11.9805 13.1542C11.9105 13.1252 11.7995 13.0962 11.5615 13.08C11.3162 13.0632 10.9984 13.0624 10.5215 13.0624C10.0446 13.0624 9.72684 13.0632 9.48147 13.08C9.24353 13.0962 9.13256 13.1252 9.06252 13.1542C8.76849 13.276 8.5349 13.5096 8.41311 13.8036C8.38412 13.8736 8.35513 13.9846 8.33889 14.2225C8.32215 14.4679 8.32131 14.7857 8.32131 15.2626V19.4628H12.7217V15.2626ZM14.3213 19.4628H14.7217C15.5749 19.4628 16.1669 19.4623 16.627 19.4247C17.0776 19.3879 17.3313 19.319 17.5205 19.2225C17.9343 19.0117 18.2706 18.6753 18.4815 18.2616C18.5779 18.0724 18.6468 17.8187 18.6836 17.3681C18.7212 16.908 18.7217 16.3159 18.7217 15.4628V11.5634C18.7217 10.4916 18.7158 10.0927 18.624 9.72938C18.5376 9.38741 18.3947 9.06203 18.2022 8.76649C17.9976 8.4525 17.7092 8.17742 16.9219 7.45009L13.2364 4.04481C12.6529 3.5058 12.2483 3.13338 11.9102 2.86708C11.5797 2.60683 11.3618 2.48919 11.168 2.42958C10.7467 2.30003 10.2963 2.30003 9.87502 2.42958C9.68118 2.48919 9.4633 2.60683 9.13284 2.86708C8.79472 3.13338 8.3901 3.5058 7.80666 4.04481L4.12112 7.45009C3.33385 8.17742 3.04543 8.4525 2.84084 8.76649C2.64831 9.06203 2.50538 9.3874 2.41897 9.72938C2.32724 10.0927 2.32131 10.4916 2.32131 11.5634V15.4628C2.32131 16.3159 2.32181 16.908 2.3594 17.3681C2.39623 17.8187 2.46512 18.0724 2.56155 18.2616C2.77243 18.6753 3.10877 19.0117 3.52249 19.2225C3.71175 19.319 3.96537 19.3879 4.41604 19.4247C4.87613 19.4623 5.46814 19.4628 6.32131 19.4628H6.7217V15.2626C6.7217 14.8078 6.72092 14.4265 6.74221 14.1141C6.76401 13.7946 6.81145 13.4887 6.93459 13.1913C7.21878 12.5052 7.76414 11.9599 8.45022 11.6757C8.74766 11.5525 9.05349 11.5051 9.37307 11.4833C9.68547 11.462 10.0667 11.4628 10.5215 11.4628C10.9763 11.4628 11.3575 11.462 11.6699 11.4833C11.9895 11.5051 12.2954 11.5525 12.5928 11.6757C13.2789 11.9599 13.8242 12.5052 14.1084 13.1913C14.2316 13.4887 14.279 13.7946 14.3008 14.1141C14.3221 14.4265 14.3213 14.8078 14.3213 15.2626V19.4628ZM20.3213 15.4628C20.3213 16.2895 20.3225 16.9576 20.2783 17.4979C20.2334 18.0477 20.1378 18.5357 19.9073 18.9882C19.543 19.7029 18.9618 20.2841 18.2471 20.6483C17.7947 20.8789 17.3066 20.9745 16.7569 21.0194C16.2166 21.0636 15.5484 21.0624 14.7217 21.0624H6.32131C5.49464 21.0624 4.82647 21.0636 4.28616 21.0194C3.73643 20.9745 3.24836 20.8789 2.79592 20.6483C2.0812 20.2841 1.50004 19.7029 1.13577 18.9882C0.905236 18.5357 0.809587 18.0477 0.764673 17.4979C0.720539 16.9576 0.721704 16.2895 0.721704 15.4628V11.5634C0.721704 10.5719 0.716255 9.93813 0.868188 9.33681C0.997826 8.82388 1.21121 8.33574 1.50002 7.89247C1.83858 7.37291 2.30706 6.94699 3.03518 6.27431L6.7217 2.86903C7.2865 2.34724 7.74345 1.92362 8.1426 1.60927C8.54949 1.28884 8.94576 1.04135 9.40432 0.900282C10.1321 0.676468 10.9109 0.676468 11.6387 0.900282C12.0973 1.04135 12.4935 1.28884 12.9004 1.60927C13.2996 1.92362 13.7565 2.34724 14.3213 2.86903L18.0078 6.27431C18.736 6.94699 19.2044 7.37291 19.543 7.89247C19.8318 8.33574 20.0452 8.82388 20.1748 9.33681C20.3268 9.93813 20.3213 10.5719 20.3213 11.5634V15.4628Z" fill="#1E1E1E"/>
</svg>
