<svg width="20" height="22" viewBox="0 0 20 22" fill="none" xmlns="http://www.w3.org/2000/svg">
<path d="M12 15.1376C12 14.6607 11.9992 14.3429 11.9824 14.0975C11.9662 13.8596 11.9372 13.7486 11.9082 13.6786C11.7864 13.3846 11.5528 13.151 11.2588 13.0292C11.1888 13.0002 11.0778 12.9712 10.8398 12.955C10.5945 12.9382 10.2767 12.9374 9.7998 12.9374C9.32292 12.9374 9.00513 12.9382 8.75977 12.955C8.52182 12.9712 8.41085 13.0002 8.34082 13.0292C8.04679 13.151 7.8132 13.3846 7.69141 13.6786C7.66242 13.7486 7.63343 13.8596 7.61719 14.0975C7.60045 14.3429 7.59961 14.6607 7.59961 15.1376V19.3378H12V15.1376ZM13.5996 19.3378H14C14.8532 19.3378 15.4452 19.3373 15.9053 19.2997C16.3559 19.2629 16.6096 19.194 16.7988 19.0975C17.2125 18.8867 17.5489 18.5503 17.7598 18.1366C17.8562 17.9474 17.9251 17.6937 17.9619 17.2431C17.9995 16.783 18 16.1909 18 15.3378V11.4384C18 10.3666 17.9941 9.96767 17.9023 9.60438C17.8159 9.26241 17.673 8.93703 17.4805 8.64149C17.2759 8.3275 16.9875 8.05242 16.2002 7.32509L12.5146 3.91981C11.9312 3.3808 11.5266 3.00838 11.1885 2.74208C10.858 2.48183 10.6401 2.36419 10.4463 2.30458C10.025 2.17503 9.57464 2.17503 9.15332 2.30458C8.95948 2.36419 8.74159 2.48183 8.41113 2.74208C8.07302 3.00838 7.66839 3.3808 7.08496 3.91981L3.39941 7.32509C2.61214 8.05242 2.32372 8.3275 2.11914 8.64149C1.9266 8.93703 1.78367 9.2624 1.69727 9.60438C1.60554 9.96767 1.59961 10.3666 1.59961 11.4384V15.3378C1.59961 16.1909 1.60011 16.783 1.6377 17.2431C1.67453 17.6937 1.74341 17.9474 1.83984 18.1366C2.05073 18.5503 2.38706 18.8867 2.80078 19.0975C2.99005 19.194 3.24367 19.2629 3.69434 19.2997C4.15442 19.3373 4.74643 19.3378 5.59961 19.3378H6V15.1376C6 14.6828 5.99922 14.3015 6.02051 13.9891C6.04231 13.6696 6.08974 13.3637 6.21289 13.0663C6.49707 12.3802 7.04244 11.8349 7.72852 11.5507C8.02595 11.4275 8.33179 11.3801 8.65137 11.3583C8.96376 11.337 9.34497 11.3378 9.7998 11.3378C10.2546 11.3378 10.6358 11.337 10.9482 11.3583C11.2678 11.3801 11.5737 11.4275 11.8711 11.5507C12.5572 11.8349 13.1025 12.3802 13.3867 13.0663C13.5099 13.3637 13.5573 13.6696 13.5791 13.9891C13.6004 14.3015 13.5996 14.6828 13.5996 15.1376V19.3378ZM19.5996 15.3378C19.5996 16.1645 19.6008 16.8326 19.5566 17.3729C19.5117 17.9227 19.4161 18.4107 19.1855 18.8632C18.8213 19.5779 18.2401 20.1591 17.5254 20.5233C17.0729 20.7539 16.5849 20.8495 16.0352 20.8944C15.4948 20.9386 14.8267 20.9374 14 20.9374H5.59961C4.77293 20.9374 4.10476 20.9386 3.56445 20.8944C3.01472 20.8495 2.52666 20.7539 2.07422 20.5233C1.3595 20.1591 0.778337 19.5779 0.414062 18.8632C0.183532 18.4107 0.0878834 17.9227 0.0429688 17.3729C-0.00116549 16.8326 -1.29124e-07 16.1645 0 15.3378V11.4384C0 10.4469 -0.00544921 9.81313 0.146484 9.21181C0.276122 8.69888 0.489508 8.21074 0.77832 7.76747C1.11688 7.24791 1.58536 6.82199 2.31348 6.14931L6 2.74403C6.5648 2.22224 7.02174 1.79862 7.4209 1.48427C7.82779 1.16384 8.22405 0.916355 8.68262 0.775282C9.41043 0.551468 10.1892 0.551468 10.917 0.775282C11.3756 0.916355 11.7718 1.16384 12.1787 1.48427C12.5779 1.79862 13.0348 2.22224 13.5996 2.74403L17.2861 6.14931C18.0143 6.82199 18.4827 7.24791 18.8213 7.76747C19.1101 8.21074 19.3235 8.69888 19.4531 9.21181C19.6051 9.81313 19.5996 10.4469 19.5996 11.4384V15.3378Z" fill="#1E1E1E"/>
</svg>
