<svg width="20" height="22" viewBox="0 0 20 22" fill="none" xmlns="http://www.w3.org/2000/svg">
<path d="M8.68264 0.763563C9.41045 0.53975 10.1892 0.53975 10.917 0.763563C11.3755 0.904641 11.7719 1.15214 12.1787 1.47255C12.5778 1.78688 13.0349 2.2106 13.5996 2.73231L17.2862 6.13759C18.0142 6.81017 18.4828 7.23624 18.8213 7.75575C19.11 8.19895 19.3235 8.68727 19.4531 9.20009C19.605 9.8013 19.5996 10.4354 19.5996 11.4266V15.3261C19.5996 16.1526 19.6008 16.821 19.5567 17.3612C19.5117 17.9108 19.416 18.3991 19.1856 18.8515C18.8213 19.566 18.24 20.1474 17.5254 20.5116C17.073 20.7421 16.5848 20.8378 16.0352 20.8827C15.4949 20.9268 14.8267 20.9257 14 20.9257H13.5996V15.1259C13.5996 14.6712 13.6004 14.2898 13.5791 13.9774C13.5573 13.658 13.5098 13.3519 13.3867 13.0546C13.1026 12.3685 12.5571 11.8232 11.8711 11.539C11.5737 11.4158 11.2678 11.3684 10.9483 11.3466C10.6359 11.3253 10.2547 11.3261 9.79983 11.3261C9.34501 11.3261 8.96378 11.3253 8.65139 11.3466C8.33184 11.3684 8.02595 11.4158 7.72854 11.539C7.04254 11.8232 6.49707 12.3686 6.21291 13.0546C6.08986 13.3519 6.04233 13.658 6.02053 13.9774C5.99926 14.2898 6.00002 14.6712 6.00002 15.1259V20.9257H5.59963C4.77297 20.9257 4.10478 20.9268 3.56448 20.8827C3.01481 20.8378 2.52664 20.7421 2.07424 20.5116C1.35963 20.1474 0.77837 19.566 0.414086 18.8515C0.18361 18.3991 0.0879201 17.9108 0.0429919 17.3612C-0.00113519 16.821 2.2689e-05 16.1526 2.31926e-05 15.3261V11.4266C2.31926e-05 10.4354 -0.00532733 9.8013 0.146508 9.20009C0.276116 8.68727 0.489628 8.19894 0.778343 7.75575C1.11687 7.23625 1.5855 6.81016 2.3135 6.13759L6.00002 2.73231C6.56472 2.21061 7.02182 1.78688 7.42092 1.47255C7.82777 1.15215 8.22413 0.904643 8.68264 0.763563Z" fill="#1E1E1E"/>
<path d="M9.79983 12.9257C10.2767 12.9257 10.5945 12.9265 10.8399 12.9433C11.0778 12.9595 11.1888 12.9885 11.2588 13.0175C11.5528 13.1393 11.7865 13.3729 11.9082 13.6669C11.9372 13.7369 11.9662 13.8483 11.9824 14.0858C11.9992 14.3311 12 14.6492 12 15.1259V20.9257H7.59963V15.1259C7.59963 14.6492 7.6005 14.3311 7.61721 14.0858C7.63343 13.8483 7.66249 13.7369 7.69143 13.6669C7.8132 13.3729 8.04689 13.1393 8.34084 13.0175C8.41087 12.9885 8.5219 12.9595 8.75979 12.9433C9.00515 12.9265 9.32295 12.9257 9.79983 12.9257Z" fill="#1E1E1E"/>
</svg>
