<svg width="19" height="18" viewBox="0 0 19 18" fill="none" xmlns="http://www.w3.org/2000/svg">
<path d="M9.35015 16.7763C13.7066 16.7763 17.2383 13.2446 17.2383 8.88813C17.2383 4.53164 13.7066 1 9.35015 1C4.99365 1 1.46201 4.53164 1.46201 8.88813C1.46201 9.77848 1.60952 10.6344 1.88143 11.4327C2.10619 12.0926 2.18036 12.8076 1.96241 13.4697L1.30593 15.4642C0.987648 16.4311 1.8418 17.3774 2.83619 17.1594L5.94821 16.4773C6.4309 16.3715 6.93093 16.4147 7.40999 16.5359C8.03068 16.6929 8.68068 16.7763 9.35015 16.7763Z" stroke="white" stroke-width="1.6"/>
<path d="M6.18994 9.32617H6.20046M9.34519 9.32617H9.35571M12.5004 9.32617H12.511" stroke="#F9F9F9" stroke-width="1.92023" stroke-linecap="round" stroke-linejoin="round"/>
</svg>
