<svg width="22" height="22" viewBox="0 0 22 22" fill="none" xmlns="http://www.w3.org/2000/svg">
<path fill-rule="evenodd" clip-rule="evenodd" d="M9.32073 0.955374C10.3685 0.0592666 11.9126 0.0593511 12.9604 0.955374C13.2338 1.18922 13.4826 1.5452 13.804 2.00498L13.8657 2.09307C14.0656 2.37879 14.1194 2.45151 14.1713 2.50616C14.4052 2.75224 14.7323 2.88784 15.0717 2.8792C15.147 2.87725 15.2366 2.86356 15.5795 2.80303L15.6817 2.78496C16.2358 2.68684 16.6644 2.61095 17.0239 2.63897C18.3984 2.74618 19.4908 3.83764 19.5981 5.21221C19.6259 5.5686 19.5506 5.99297 19.4536 6.54022L19.433 6.65655C19.3724 7.00001 19.3588 7.08997 19.3569 7.16534C19.3483 7.50457 19.4839 7.83195 19.7299 8.06573C19.7845 8.11758 19.8578 8.1708 20.143 8.37041L20.2308 8.43184C20.6907 8.75334 21.0468 9.00224 21.2807 9.27569C22.1769 10.3235 22.1768 11.8675 21.2807 12.9153C21.0468 13.1887 20.691 13.4375 20.2312 13.7589L20.143 13.8206C19.8573 14.0206 19.7846 14.0743 19.7299 14.1263C19.4839 14.3601 19.3482 14.6873 19.3569 15.0267C19.3588 15.102 19.3725 15.1915 19.433 15.5345L19.4536 15.6505C19.5506 16.1979 19.6258 16.6223 19.5981 16.9788C19.4909 18.3534 18.3985 19.4458 17.0239 19.553C16.6674 19.5808 16.243 19.5056 15.6956 19.4085L15.5795 19.388C15.2366 19.3275 15.147 19.3138 15.0717 19.3118C14.7324 19.3032 14.4052 19.4389 14.1713 19.6849C14.1194 19.7395 14.0656 19.8123 13.8657 20.098L13.804 20.1861C13.4826 20.6459 13.2338 21.0018 12.9604 21.2356C11.9126 22.1318 10.3685 22.1318 9.32073 21.2356C9.04729 21.0017 8.79838 20.6457 8.47689 20.1858L8.41546 20.098C8.21585 19.8128 8.16262 19.7395 8.11077 19.6849C7.877 19.4389 7.54961 19.3033 7.21038 19.3118C7.13501 19.3137 7.04505 19.3274 6.70159 19.388L6.58526 19.4086C6.03802 19.5056 5.61364 19.5808 5.25725 19.553C3.88269 19.4458 2.79122 18.3534 2.68401 16.9788C2.65599 16.6193 2.73188 16.1908 2.83001 15.6366L2.84807 15.5345C2.9086 15.1915 2.9223 15.102 2.92425 15.0267C2.93289 14.6873 2.79728 14.3601 2.5512 14.1263C2.49655 14.0743 2.42383 14.0206 2.13811 13.8206L2.05001 13.759C1.59024 13.4376 1.23426 13.1887 1.00042 12.9153C0.104395 11.8675 0.104311 10.3234 1.00042 9.27569C1.23426 9.00228 1.59015 8.75349 2.04991 8.4321L2.13811 8.37041C2.42319 8.17087 2.49659 8.11755 2.5512 8.06573C2.79719 7.83195 2.93277 7.50457 2.92425 7.16534C2.92233 7.08997 2.90869 7.00001 2.84807 6.65655L2.82999 6.55433C2.73188 6.00027 2.65598 5.57165 2.68401 5.21221C2.79129 3.83772 3.88277 2.74625 5.25725 2.63897C5.61669 2.61093 6.04532 2.68684 6.59937 2.78495L6.70159 2.80303C7.04506 2.86365 7.13501 2.87728 7.21038 2.8792C7.54961 2.88773 7.877 2.75214 8.11077 2.50616C8.16259 2.45155 8.21591 2.37814 8.41546 2.09307L8.47713 2.00488C8.79853 1.54512 9.04732 1.18922 9.32073 0.955374ZM15.0619 7.17608C14.7496 6.86382 14.2425 6.86383 13.9301 7.17608L7.22307 13.8831C6.9107 14.1955 6.91078 14.7025 7.22307 15.0149C7.53549 15.3274 8.04249 15.3274 8.35491 15.0149L15.0619 8.30791C15.3742 7.99548 15.3743 7.48845 15.0619 7.17608ZM15.2963 13.9495C15.2963 13.2315 14.7135 12.6487 13.9955 12.6487C13.3225 12.649 12.7689 13.1611 12.7026 13.8167L12.6957 13.9495L12.7026 14.0823C12.7692 14.7376 13.3227 15.2491 13.9955 15.2493C14.7134 15.2493 15.2961 14.6673 15.2963 13.9495ZM9.58929 8.24248C9.58929 7.56946 9.07773 7.01521 8.42229 6.94854L8.28948 6.94268C7.61626 6.94268 7.06194 7.45396 6.99554 8.10967L6.9887 8.24248L6.99554 8.3753C7.06216 9.03078 7.61642 9.54229 8.28948 9.54229C9.00721 9.54209 9.58916 8.96022 9.58929 8.24248Z" fill="#1E1E1E"/>
</svg>
