<svg width="23" height="22" viewBox="0 0 23 22" fill="none" xmlns="http://www.w3.org/2000/svg">
<path d="M14.6714 7.74207L7.96448 14.449M8.46448 8.24207H8.47448M14.1714 13.949H14.1814M6.73815 3.59094C7.0564 3.64711 7.21552 3.67519 7.36498 3.679C7.93061 3.6934 8.47586 3.46754 8.86563 3.05741C8.96863 2.94903 9.06129 2.81665 9.24661 2.5519C9.63097 2.0028 9.82315 1.72825 10.0161 1.56323C10.7645 0.923095 11.8676 0.923095 12.616 1.56323C12.8089 1.72825 13.0011 2.0028 13.3855 2.5519C13.5708 2.81665 13.6635 2.94903 13.7665 3.05741C14.1562 3.46754 14.7015 3.6934 15.2671 3.679C15.4166 3.67519 15.5757 3.64711 15.8939 3.59094C16.554 3.47445 16.884 3.4162 17.1371 3.43594C18.119 3.51252 18.899 4.2925 18.9756 5.27438C18.9953 5.52748 18.9371 5.85751 18.8206 6.51756C18.7644 6.83581 18.7363 6.99494 18.7325 7.1444C18.7181 7.71002 18.944 8.25528 19.3541 8.64505C19.4625 8.74805 19.5949 8.84071 19.8596 9.02603C20.4087 9.41039 20.6833 9.60257 20.8483 9.7955C21.4884 10.5439 21.4884 11.647 20.8483 12.3954C20.6833 12.5884 20.4087 12.7805 19.8596 13.1649C19.5949 13.3502 19.4625 13.4429 19.3541 13.5459C18.944 13.9357 18.7181 14.4809 18.7325 15.0465C18.7363 15.196 18.7644 15.3551 18.8206 15.6734C18.9371 16.3334 18.9953 16.6635 18.9756 16.9166C18.899 17.8984 18.119 18.6784 17.1371 18.755C16.884 18.7747 16.554 18.7165 15.8939 18.6C15.5757 18.5438 15.4166 18.5157 15.2671 18.5119C14.7015 18.4975 14.1562 18.7234 13.7665 19.1335C13.6635 19.2419 13.5708 19.3743 13.3855 19.639C13.0011 20.1881 12.8089 20.4627 12.616 20.6277C11.8676 21.2678 10.7645 21.2678 10.0161 20.6277C9.82315 20.4627 9.63097 20.1881 9.24661 19.639C9.06129 19.3743 8.96863 19.2419 8.86563 19.1335C8.47586 18.7234 7.93061 18.4975 7.36498 18.5119C7.21552 18.5157 7.0564 18.5438 6.73815 18.6C6.07809 18.7165 5.74806 18.7747 5.49496 18.755C4.51309 18.6784 3.7331 17.8984 3.65652 16.9166C3.63678 16.6635 3.69503 16.3334 3.81152 15.6734C3.86769 15.3551 3.89577 15.196 3.89958 15.0465C3.91398 14.4809 3.68812 13.9357 3.27799 13.5459C3.16961 13.4429 3.03723 13.3502 2.77248 13.1649C2.22338 12.7805 1.94883 12.5884 1.78382 12.3954C1.14368 11.647 1.14368 10.5439 1.78382 9.7955C1.94883 9.60257 2.22338 9.41039 2.77248 9.02603C3.03723 8.84071 3.16961 8.74805 3.27799 8.64505C3.68812 8.25528 3.91398 7.71003 3.89958 7.1444C3.89577 6.99494 3.86769 6.83581 3.81152 6.51757C3.69503 5.85751 3.63678 5.52748 3.65652 5.27438C3.7331 4.2925 4.51309 3.51252 5.49496 3.43594C5.74806 3.4162 6.07809 3.47445 6.73815 3.59094ZM8.96448 8.24207C8.96448 8.51821 8.74063 8.74207 8.46448 8.74207C8.18834 8.74207 7.96448 8.51821 7.96448 8.24207C7.96448 7.96593 8.18834 7.74207 8.46448 7.74207C8.74063 7.74207 8.96448 7.96593 8.96448 8.24207ZM14.6714 13.949C14.6714 14.2251 14.4475 14.449 14.1714 14.449C13.8952 14.449 13.6714 14.2251 13.6714 13.949C13.6714 13.6728 13.8952 13.449 14.1714 13.449C14.4475 13.449 14.6714 13.6728 14.6714 13.949Z" stroke="#1E1E1E" stroke-width="1.6" stroke-linecap="round" stroke-linejoin="round"/>
</svg>
