<svg width="20" height="20" viewBox="0 0 20 20" fill="none" xmlns="http://www.w3.org/2000/svg">
<path d="M9.1123 12.6221C12.9255 12.6221 15.1578 14.1987 16.415 15.8438C17.0321 16.6511 17.401 17.4561 17.6162 18.0596C17.7241 18.3622 17.7939 18.6176 17.8379 18.8008C17.8598 18.8922 17.8754 18.9661 17.8857 19.0195C17.8909 19.0463 17.8947 19.0688 17.8975 19.085C17.8988 19.0928 17.9005 19.0993 17.9014 19.1045C17.9018 19.107 17.9023 19.1113 17.9023 19.1113V19.1143L17.9033 19.1152C17.9033 19.1152 17.9031 19.1164 17.1123 19.2373C16.3497 19.3539 16.3213 19.3584 16.3213 19.3584V19.3564C16.3203 19.3506 16.3184 19.3397 16.3154 19.3242C16.3093 19.2926 16.2984 19.2411 16.2822 19.1738C16.2498 19.0391 16.1948 18.8399 16.1084 18.5977C15.9348 18.1108 15.6375 17.4617 15.1436 16.8154C14.1786 15.5529 12.4102 14.2217 9.1123 14.2217C5.81442 14.2217 4.046 15.5529 3.08105 16.8154C2.58711 17.4617 2.28985 18.1108 2.11621 18.5977C2.02981 18.8399 1.97477 19.0391 1.94238 19.1738C1.92622 19.2411 1.91531 19.2926 1.90918 19.3242C1.90618 19.3397 1.90433 19.3506 1.90332 19.3564L1.90234 19.3584C1.89553 19.357 1.82548 19.3463 1.1123 19.2373C0.32149 19.1164 0.321289 19.1152 0.321289 19.1152L0.322266 19.1143V19.1113C0.322266 19.1113 0.322833 19.107 0.323242 19.1045C0.324092 19.0993 0.325794 19.0928 0.327148 19.085C0.329943 19.0688 0.333682 19.0463 0.338867 19.0195C0.349227 18.9661 0.364765 18.8922 0.386719 18.8008C0.430731 18.6176 0.500464 18.3622 0.608398 18.0596C0.823643 17.4561 1.19254 16.6511 1.80957 15.8438C3.06685 14.1987 5.29908 12.6221 9.1123 12.6221ZM18.3213 15.5557C18.3209 15.5534 18.3212 15.5495 18.3203 15.5449C18.3176 15.5307 18.3117 15.5058 18.3037 15.4717C18.2876 15.4028 18.2603 15.2968 18.2158 15.166C18.1263 14.9028 17.9725 14.5469 17.7197 14.1816C17.2282 13.4716 16.3359 12.6836 14.6641 12.5039L14.749 11.708L14.835 10.9131C17.0199 11.1479 18.3095 12.2223 19.0352 13.2705C19.3907 13.7841 19.6046 14.2812 19.7305 14.6514C19.7937 14.8372 19.8357 14.9937 19.8623 15.1074C19.8756 15.1642 19.885 15.2106 19.8916 15.2451C19.8949 15.2624 19.8975 15.277 19.8994 15.2881C19.9004 15.2936 19.9007 15.2988 19.9014 15.3027L19.9023 15.3076V15.3096L19.9033 15.3105L18.3213 15.5557ZM12.8125 5.7373C12.8125 3.69385 11.1558 2.03711 9.1123 2.03711C7.06885 2.03711 5.41211 3.69385 5.41211 5.7373C5.41211 7.78076 7.06885 9.4375 9.1123 9.4375C11.1558 9.4375 12.8125 7.78076 12.8125 5.7373ZM16.9492 5.94238C16.9491 5.12002 16.4792 4.40579 15.79 4.05566L16.1533 3.34277L16.5156 2.62891C17.7207 3.24124 18.5487 4.49459 18.5488 5.94238C18.5488 7.63297 17.4202 9.05815 15.877 9.50879L15.4287 7.97266C16.308 7.71584 16.9492 6.9029 16.9492 5.94238ZM14.4121 5.7373C14.4121 8.66441 12.0394 11.0371 9.1123 11.0371C6.1852 11.0371 3.8125 8.66441 3.8125 5.7373C3.8125 2.8102 6.1852 0.4375 9.1123 0.4375C12.0394 0.4375 14.4121 2.8102 14.4121 5.7373Z" fill="#1E1E1E"/>
</svg>
