<svg width="20" height="20" viewBox="0 0 20 20" fill="none" xmlns="http://www.w3.org/2000/svg">
<path d="M18.1406 15.2158C18.1315 15.1648 17.9999 14.5077 17.5391 13.8418C17.0475 13.1317 16.1553 12.3438 14.4834 12.1641L14.5684 11.3686L14.6543 10.5732C16.8392 10.8081 18.1289 11.8824 18.8545 12.9307C19.21 13.4443 19.4239 13.9413 19.5498 14.3115C19.6167 14.5082 19.7217 14.7566 19.7217 14.9697L18.1406 15.2158ZM16.7686 5.60254C16.7685 4.78017 16.2985 4.06595 15.6094 3.71582L16.335 2.28906C17.54 2.9014 18.3681 4.15475 18.3682 5.60254C18.3682 7.29313 17.2396 8.71831 15.6963 9.16895L15.248 7.63281C16.1273 7.376 16.7686 6.56306 16.7686 5.60254ZM14.2314 5.39746C14.2314 8.32457 11.8587 10.6973 8.93164 10.6973C6.00453 10.6973 3.63184 8.32457 3.63184 5.39746C3.63184 2.47035 6.00453 0.0976562 8.93164 0.0976562C11.8587 0.0976562 14.2314 2.47035 14.2314 5.39746Z" fill="#1E1E1E"/>
<path d="M8.93164 12.2822C12.7449 12.2822 14.9771 13.8589 16.2344 15.5039C16.8514 16.3113 17.2203 17.1163 17.4355 17.7197C17.6508 18.3232 17.8633 19.6973 17.8633 19.6973H0C0.10656 18.9994 0.18865 18.3901 0.427734 17.7197C0.642979 17.1163 1.01188 16.3113 1.62891 15.5039C2.88619 13.8589 5.11842 12.2822 8.93164 12.2822Z" fill="#1E1E1E"/>
</svg>
