<svg width="41" height="15" viewBox="0 0 41 15" fill="none" xmlns="http://www.w3.org/2000/svg">
<path d="M2.73564 14.0001L0.431641 4.69408H2.73564L3.65364 8.87008L4.31964 12.2721H4.35564L8.13564 4.44208H8.20764L12.0236 12.2721H12.0596L12.7256 8.85208L13.6256 4.69408H15.9296L13.6076 14.0001H10.8536L8.18964 8.60008H8.15364L5.48964 14.0001H2.73564Z" fill="white"/>
<path d="M22.8269 14.2521C19.3169 14.2521 17.2649 12.2181 17.2649 9.33809C17.2649 6.42208 19.3169 4.44208 22.4309 4.44208C25.6169 4.44208 27.3809 6.40408 27.3809 9.50008L19.6949 10.5621C20.0909 11.7321 21.1529 12.3981 22.9709 12.3981C24.2129 12.3981 25.4549 12.1281 26.6969 11.6781V13.5501C25.5269 14.0001 24.3929 14.2521 22.8269 14.2521ZM19.4969 9.01408L25.1849 8.22208C25.0229 7.14208 24.2309 6.29608 22.5029 6.29608C20.5949 6.29608 19.5869 7.26808 19.4969 9.01408Z" fill="white"/>
<path d="M35.719 14.2521C33.685 14.2521 32.155 13.1361 31.597 11.3001H31.561L31.813 14.0001H29.635V1.40008L31.813 0.986084V5.77408C32.803 4.92808 34.153 4.44208 35.539 4.44208C38.347 4.44208 40.291 6.45808 40.291 9.39209C40.291 12.2721 38.419 14.2521 35.719 14.2521ZM34.945 12.3621C36.907 12.3621 38.059 11.2461 38.059 9.33809C38.059 7.44808 36.907 6.33208 34.945 6.33208C32.965 6.33208 31.813 7.44808 31.813 9.33809C31.813 11.2461 32.965 12.3621 34.945 12.3621Z" fill="white"/>
</svg>
