<svg width="22" height="22" viewBox="0 0 22 22" fill="none" xmlns="http://www.w3.org/2000/svg">
<path fill-rule="evenodd" clip-rule="evenodd" d="M10.8027 0.595703C13.6402 0.595703 16.629 1.85248 18.6426 3.75684C20.6622 5.6671 21.832 8.38521 20.5801 11.2002C19.5895 13.4275 17.6979 14.0498 16.0439 14.3203C15.6326 14.3876 15.2239 14.4352 14.8447 14.4785L14.8348 14.4797C14.4529 14.5233 14.1058 14.563 13.7812 14.6143C13.1041 14.7213 12.6749 14.8627 12.4141 15.0713C12.0526 15.3603 11.9051 15.5886 11.8457 15.7432C11.7915 15.8843 11.7883 16.0206 11.835 16.1865C11.8865 16.3697 11.9984 16.5819 12.1758 16.8389C12.3128 17.0373 12.4627 17.2265 12.6276 17.4347C12.6802 17.5011 12.7343 17.5695 12.79 17.6406C13.3792 18.3934 13.3646 19.3198 12.9443 20.0273C12.5299 20.7251 11.7396 21.1953 10.8027 21.1953C5.1142 21.1953 0.50293 16.584 0.50293 10.8955C0.50293 5.20697 5.1142 0.595703 10.8027 0.595703ZM15.6309 10.1069C16.3568 10.1069 16.9453 9.51845 16.9453 8.7925C16.9452 8.06665 16.3567 7.47804 15.6309 7.47804C14.905 7.47804 14.3165 8.06665 14.3164 8.7925C14.3164 9.51845 14.9049 10.1069 15.6309 10.1069ZM12.4316 6.063C12.4316 6.78896 11.8431 7.37746 11.1172 7.37746C10.3912 7.37746 9.80273 6.78896 9.80273 6.063C9.80273 5.33705 10.3912 4.74855 11.1172 4.74855C11.8431 4.74855 12.4316 5.33705 12.4316 6.063ZM6.45312 10.1069C7.17908 10.1069 7.76758 9.51845 7.76758 8.7925C7.76745 8.06665 7.179 7.47804 6.45312 7.47804C5.72725 7.47804 5.1388 8.06665 5.13867 8.7925C5.13867 9.51845 5.72717 10.1069 6.45312 10.1069Z" fill="#1E1E1E"/>
</svg>
