<svg width="22" height="22" viewBox="0 0 22 22" fill="none" xmlns="http://www.w3.org/2000/svg">
<path d="M7.76465 8.78874C7.76465 9.51469 7.17615 10.1032 6.4502 10.1032C5.72424 10.1032 5.13574 9.51469 5.13574 8.78874C5.13587 8.06289 5.72432 7.47429 6.4502 7.47429C7.17607 7.47429 7.76452 8.06289 7.76465 8.78874Z" fill="#1E1E1E"/>
<path d="M12.4287 6.05925C12.4287 6.7852 11.8402 7.3737 11.1143 7.3737C10.3883 7.3737 9.7998 6.7852 9.7998 6.05925C9.7998 5.3333 10.3883 4.74479 11.1143 4.74479C11.8402 4.74479 12.4287 5.3333 12.4287 6.05925Z" fill="#1E1E1E"/>
<path d="M16.9424 8.78874C16.9424 9.51469 16.3539 10.1032 15.6279 10.1032C14.902 10.1032 14.3135 9.51469 14.3135 8.78874C14.3136 8.06289 14.9021 7.47429 15.6279 7.47429C16.3538 7.47429 16.9423 8.06289 16.9424 8.78874Z" fill="#1E1E1E"/>
<path fill-rule="evenodd" clip-rule="evenodd" d="M10.7998 0.591947C13.6373 0.591947 16.6261 1.84873 18.6396 3.75308C20.6593 5.66335 21.8291 8.38145 20.5771 11.1964C19.5865 13.4237 17.6949 14.046 16.041 14.3166C15.6296 14.3838 15.2209 14.4314 14.8418 14.4748L14.8319 14.4759C14.45 14.5195 14.1029 14.5592 13.7783 14.6105C13.1011 14.7175 12.672 14.859 12.4111 15.0675C12.0497 15.3565 11.9021 15.5849 11.8428 15.7394C11.7886 15.8805 11.7853 16.0168 11.832 16.1828C11.8836 16.3659 11.9954 16.5781 12.1729 16.8351C12.3099 17.0336 12.4597 17.2228 12.6247 17.431C12.6773 17.4974 12.7314 17.5657 12.7871 17.6369C13.3763 18.3896 13.3617 19.316 12.9414 20.0236C12.5269 20.7214 11.7366 21.1916 10.7998 21.1916C5.11127 21.1916 0.5 16.5803 0.5 10.8918C0.5 5.20322 5.11127 0.591947 10.7998 0.591947ZM10.7998 19.5919C5.99493 19.5919 2.09961 15.6966 2.09961 10.8918C2.09961 6.08687 5.99493 2.19156 10.7998 2.19156C13.209 2.19156 15.8092 3.27822 17.54 4.91519C19.2644 6.54609 19.9951 8.56741 19.1152 10.546C18.4551 12.0302 17.2486 12.4977 15.7832 12.7375C15.4148 12.7977 15.0414 12.8423 14.6602 12.8859C14.286 12.9287 13.8971 12.9712 13.5283 13.0294C12.8128 13.1425 12.021 13.3317 11.4121 13.8185C10.9041 14.2247 10.5406 14.6684 10.3496 15.1652C10.1535 15.6756 10.1665 16.1706 10.292 16.6164C10.4126 17.0448 10.6353 17.4253 10.8555 17.7443C11.0725 18.0587 11.3315 18.3731 11.5273 18.6232C11.6768 18.8142 11.6766 19.0189 11.5654 19.2062C11.4483 19.4034 11.19 19.5919 10.7998 19.5919Z" fill="#1E1E1E"/>
</svg>
