<svg width="976" height="325" viewBox="0 0 976 325" fill="none" xmlns="http://www.w3.org/2000/svg">
<rect x="128" y="111" width="202" height="202" rx="101" fill="white"/>
<rect x="127.5" y="110.5" width="203" height="203" rx="101.5" stroke="#F7F2FF" stroke-opacity="0.5"/>
<path d="M178.095 218.27C176.799 218.27 175.689 217.988 174.765 217.424C173.841 216.854 173.13 216.062 172.632 215.048C172.14 214.034 171.894 212.858 171.894 211.52C171.894 210.182 172.14 209.006 172.632 207.992C173.13 206.978 173.841 206.189 174.765 205.625C175.689 205.055 176.799 204.77 178.095 204.77C179.391 204.77 180.501 205.055 181.425 205.625C182.355 206.189 183.066 206.978 183.558 207.992C184.056 209.006 184.305 210.182 184.305 211.52C184.305 212.858 184.056 214.034 183.558 215.048C183.066 216.062 182.355 216.854 181.425 217.424C180.501 217.988 179.391 218.27 178.095 218.27ZM178.095 216.227C178.965 216.233 179.688 216.041 180.264 215.651C180.846 215.261 181.281 214.712 181.569 214.004C181.863 213.296 182.01 212.468 182.01 211.52C182.01 210.572 181.863 209.75 181.569 209.054C181.281 208.352 180.846 207.806 180.264 207.416C179.688 207.026 178.965 206.825 178.095 206.813C177.225 206.807 176.502 206.999 175.926 207.389C175.35 207.779 174.915 208.328 174.621 209.036C174.333 209.744 174.189 210.572 174.189 211.52C174.189 212.468 174.333 213.293 174.621 213.995C174.909 214.691 175.341 215.234 175.917 215.624C176.499 216.014 177.225 216.215 178.095 216.227ZM190.768 218.27C189.82 218.27 189.025 218.045 188.383 217.595C187.741 217.145 187.258 216.533 186.934 215.759C186.61 214.979 186.448 214.106 186.448 213.14C186.448 212.162 186.61 211.286 186.934 210.512C187.258 209.738 187.732 209.129 188.356 208.685C188.986 208.235 189.763 208.01 190.687 208.01C191.605 208.01 192.4 208.235 193.072 208.685C193.75 209.129 194.275 209.738 194.647 210.512C195.019 211.28 195.205 212.156 195.205 213.14C195.205 214.112 195.022 214.985 194.656 215.759C194.29 216.533 193.774 217.145 193.108 217.595C192.442 218.045 191.662 218.27 190.768 218.27ZM186.079 222.32V208.28H187.996V215.102H188.266V222.32H186.079ZM190.435 216.326C190.999 216.326 191.464 216.185 191.83 215.903C192.196 215.621 192.466 215.24 192.64 214.76C192.82 214.274 192.91 213.734 192.91 213.14C192.91 212.552 192.82 212.018 192.64 211.538C192.46 211.052 192.181 210.668 191.803 210.386C191.425 210.098 190.945 209.954 190.363 209.954C189.811 209.954 189.361 210.089 189.013 210.359C188.665 210.623 188.407 210.995 188.239 211.475C188.077 211.949 187.996 212.504 187.996 213.14C187.996 213.77 188.077 214.325 188.239 214.805C188.407 215.285 188.668 215.66 189.022 215.93C189.382 216.194 189.853 216.326 190.435 216.326ZM202.886 218C202.244 218.12 201.614 218.171 200.996 218.153C200.384 218.141 199.835 218.03 199.349 217.82C198.863 217.604 198.494 217.265 198.242 216.803C198.02 216.383 197.903 215.954 197.891 215.516C197.879 215.078 197.873 214.583 197.873 214.031V205.58H200.033V213.905C200.033 214.295 200.036 214.637 200.042 214.931C200.054 215.225 200.117 215.465 200.231 215.651C200.447 216.011 200.792 216.212 201.266 216.254C201.74 216.296 202.28 216.272 202.886 216.182V218ZM196.109 209.981V208.28H202.886V209.981H196.109ZM205.156 206.804V204.815H207.325V206.804H205.156ZM205.156 218V208.28H207.325V218H205.156ZM221.694 218V212.096C221.694 211.43 221.529 210.911 221.199 210.539C220.869 210.161 220.422 209.972 219.858 209.972C219.51 209.972 219.198 210.053 218.922 210.215C218.646 210.371 218.427 210.605 218.265 210.917C218.103 211.223 218.022 211.589 218.022 212.015L217.059 211.448C217.053 210.776 217.203 210.185 217.509 209.675C217.821 209.159 218.241 208.757 218.769 208.469C219.297 208.181 219.885 208.037 220.533 208.037C221.607 208.037 222.429 208.361 222.999 209.009C223.575 209.651 223.863 210.497 223.863 211.547V218H221.694ZM210.003 218V208.28H211.92V211.295H212.19V218H210.003ZM215.862 218V212.123C215.862 211.445 215.697 210.917 215.367 210.539C215.037 210.161 214.587 209.972 214.017 209.972C213.465 209.972 213.021 210.161 212.685 210.539C212.355 210.917 212.19 211.409 212.19 212.015L211.218 211.367C211.218 210.737 211.374 210.17 211.686 209.666C211.998 209.162 212.418 208.766 212.946 208.478C213.48 208.184 214.077 208.037 214.737 208.037C215.463 208.037 216.069 208.193 216.555 208.505C217.047 208.811 217.413 209.231 217.653 209.765C217.899 210.293 218.022 210.89 218.022 211.556V218H215.862ZM226.39 206.804V204.815H228.559V206.804H226.39ZM226.39 218V208.28H228.559V218H226.39ZM230.355 218V217.703L235.503 210.179H230.877V208.28H238.878V208.586L233.748 216.101H238.662V218H230.355ZM243.026 218.27C242.324 218.27 241.73 218.138 241.244 217.874C240.758 217.604 240.389 217.247 240.137 216.803C239.891 216.359 239.768 215.87 239.768 215.336C239.768 214.868 239.846 214.448 240.002 214.076C240.158 213.698 240.398 213.374 240.722 213.104C241.046 212.828 241.466 212.603 241.982 212.429C242.372 212.303 242.828 212.189 243.35 212.087C243.878 211.985 244.448 211.892 245.06 211.808C245.678 211.718 246.323 211.622 246.995 211.52L246.221 211.961C246.227 211.289 246.077 210.794 245.771 210.476C245.465 210.158 244.949 209.999 244.223 209.999C243.785 209.999 243.362 210.101 242.954 210.305C242.546 210.509 242.261 210.86 242.099 211.358L240.119 210.737C240.359 209.915 240.815 209.255 241.487 208.757C242.165 208.259 243.077 208.01 244.223 208.01C245.087 208.01 245.846 208.151 246.5 208.433C247.16 208.715 247.649 209.177 247.967 209.819C248.141 210.161 248.246 210.512 248.282 210.872C248.318 211.226 248.336 211.613 248.336 212.033V218H246.437V215.894L246.752 216.236C246.314 216.938 245.801 217.454 245.213 217.784C244.631 218.108 243.902 218.27 243.026 218.27ZM243.458 216.542C243.95 216.542 244.37 216.455 244.718 216.281C245.066 216.107 245.342 215.894 245.546 215.642C245.756 215.39 245.897 215.153 245.969 214.931C246.083 214.655 246.146 214.34 246.158 213.986C246.176 213.626 246.185 213.335 246.185 213.113L246.851 213.311C246.197 213.413 245.636 213.503 245.168 213.581C244.7 213.659 244.298 213.734 243.962 213.806C243.626 213.872 243.329 213.947 243.071 214.031C242.819 214.121 242.606 214.226 242.432 214.346C242.258 214.466 242.123 214.604 242.027 214.76C241.937 214.916 241.892 215.099 241.892 215.309C241.892 215.549 241.952 215.762 242.072 215.948C242.192 216.128 242.366 216.272 242.594 216.38C242.828 216.488 243.116 216.542 243.458 216.542ZM256.376 218C255.734 218.12 255.104 218.171 254.486 218.153C253.874 218.141 253.325 218.03 252.839 217.82C252.353 217.604 251.984 217.265 251.732 216.803C251.51 216.383 251.393 215.954 251.381 215.516C251.369 215.078 251.363 214.583 251.363 214.031V205.58H253.523V213.905C253.523 214.295 253.526 214.637 253.532 214.931C253.544 215.225 253.607 215.465 253.721 215.651C253.937 216.011 254.282 216.212 254.756 216.254C255.23 216.296 255.77 216.272 256.376 216.182V218ZM249.599 209.981V208.28H256.376V209.981H249.599ZM258.646 206.804V204.815H260.815V206.804H258.646ZM258.646 218V208.28H260.815V218H258.646ZM267.804 218.27C266.832 218.27 265.983 218.051 265.257 217.613C264.531 217.175 263.967 216.572 263.565 215.804C263.169 215.03 262.971 214.142 262.971 213.14C262.971 212.12 263.175 211.226 263.583 210.458C263.991 209.69 264.558 209.09 265.284 208.658C266.01 208.226 266.85 208.01 267.804 208.01C268.782 208.01 269.634 208.229 270.36 208.667C271.086 209.105 271.65 209.711 272.052 210.485C272.454 211.253 272.655 212.138 272.655 213.14C272.655 214.148 272.451 215.039 272.043 215.813C271.641 216.581 271.077 217.184 270.351 217.622C269.625 218.054 268.776 218.27 267.804 218.27ZM267.804 216.236C268.668 216.236 269.31 215.948 269.73 215.372C270.15 214.796 270.36 214.052 270.36 213.14C270.36 212.198 270.147 211.448 269.721 210.89C269.295 210.326 268.656 210.044 267.804 210.044C267.222 210.044 266.742 210.176 266.364 210.44C265.992 210.698 265.716 211.061 265.536 211.529C265.356 211.991 265.266 212.528 265.266 213.14C265.266 214.082 265.479 214.835 265.905 215.399C266.337 215.957 266.97 216.236 267.804 216.236ZM281.361 218V213.32C281.361 213.014 281.34 212.675 281.298 212.303C281.256 211.931 281.157 211.574 281.001 211.232C280.851 210.884 280.623 210.599 280.317 210.377C280.017 210.155 279.609 210.044 279.093 210.044C278.817 210.044 278.544 210.089 278.274 210.179C278.004 210.269 277.758 210.425 277.536 210.647C277.32 210.863 277.146 211.163 277.014 211.547C276.882 211.925 276.816 212.411 276.816 213.005L275.529 212.456C275.529 211.628 275.688 210.878 276.006 210.206C276.33 209.534 276.804 209 277.428 208.604C278.052 208.202 278.82 208.001 279.732 208.001C280.452 208.001 281.046 208.121 281.514 208.361C281.982 208.601 282.354 208.907 282.63 209.279C282.906 209.651 283.11 210.047 283.242 210.467C283.374 210.887 283.458 211.286 283.494 211.664C283.536 212.036 283.557 212.339 283.557 212.573V218H281.361ZM274.62 218V208.28H276.555V211.295H276.816V218H274.62Z" fill="#5F00FF"/>
<rect x="270" y="12" width="176" height="176" rx="88" fill="#5F00FF"/>
<rect x="269.5" y="11.5" width="177" height="177" rx="88.5" stroke="#F7F2FF" stroke-opacity="0.5"/>
<path d="M328.942 107.27C327.646 107.27 326.536 106.988 325.612 106.424C324.688 105.854 323.977 105.062 323.479 104.048C322.987 103.034 322.741 101.858 322.741 100.52C322.741 99.182 322.987 98.006 323.479 96.992C323.977 95.978 324.688 95.189 325.612 94.625C326.536 94.055 327.646 93.77 328.942 93.77C330.436 93.77 331.681 94.145 332.677 94.895C333.673 95.639 334.372 96.644 334.774 97.91L332.587 98.513C332.335 97.667 331.906 97.007 331.3 96.533C330.694 96.053 329.908 95.813 328.942 95.813C328.072 95.813 327.346 96.008 326.764 96.398C326.188 96.788 325.753 97.337 325.459 98.045C325.171 98.747 325.024 99.572 325.018 100.52C325.018 101.468 325.162 102.296 325.45 103.004C325.744 103.706 326.182 104.252 326.764 104.642C327.346 105.032 328.072 105.227 328.942 105.227C329.908 105.227 330.694 104.987 331.3 104.507C331.906 104.027 332.335 103.367 332.587 102.527L334.774 103.13C334.372 104.396 333.673 105.404 332.677 106.154C331.681 106.898 330.436 107.27 328.942 107.27ZM341.043 107.27C340.071 107.27 339.222 107.051 338.496 106.613C337.77 106.175 337.206 105.572 336.804 104.804C336.408 104.03 336.21 103.142 336.21 102.14C336.21 101.12 336.414 100.226 336.822 99.458C337.23 98.69 337.797 98.09 338.523 97.658C339.249 97.226 340.089 97.01 341.043 97.01C342.021 97.01 342.873 97.229 343.599 97.667C344.325 98.105 344.889 98.711 345.291 99.485C345.693 100.253 345.894 101.138 345.894 102.14C345.894 103.148 345.69 104.039 345.282 104.813C344.88 105.581 344.316 106.184 343.59 106.622C342.864 107.054 342.015 107.27 341.043 107.27ZM341.043 105.236C341.907 105.236 342.549 104.948 342.969 104.372C343.389 103.796 343.599 103.052 343.599 102.14C343.599 101.198 343.386 100.448 342.96 99.89C342.534 99.326 341.895 99.044 341.043 99.044C340.461 99.044 339.981 99.176 339.603 99.44C339.231 99.698 338.955 100.061 338.775 100.529C338.595 100.991 338.505 101.528 338.505 102.14C338.505 103.082 338.718 103.835 339.144 104.399C339.576 104.957 340.209 105.236 341.043 105.236ZM354.6 107V102.32C354.6 102.014 354.579 101.675 354.537 101.303C354.495 100.931 354.396 100.574 354.24 100.232C354.09 99.884 353.862 99.599 353.556 99.377C353.256 99.155 352.848 99.044 352.332 99.044C352.056 99.044 351.783 99.089 351.513 99.179C351.243 99.269 350.997 99.425 350.775 99.647C350.559 99.863 350.385 100.163 350.253 100.547C350.121 100.925 350.055 101.411 350.055 102.005L348.768 101.456C348.768 100.628 348.927 99.878 349.245 99.206C349.569 98.534 350.043 98 350.667 97.604C351.291 97.202 352.059 97.001 352.971 97.001C353.691 97.001 354.285 97.121 354.753 97.361C355.221 97.601 355.593 97.907 355.869 98.279C356.145 98.651 356.349 99.047 356.481 99.467C356.613 99.887 356.697 100.286 356.733 100.664C356.775 101.036 356.796 101.339 356.796 101.573V107H354.6ZM347.859 107V97.28H349.794V100.295H350.055V107H347.859ZM364.842 107C364.2 107.12 363.57 107.171 362.952 107.153C362.34 107.141 361.791 107.03 361.305 106.82C360.819 106.604 360.45 106.265 360.198 105.803C359.976 105.383 359.859 104.954 359.847 104.516C359.835 104.078 359.829 103.583 359.829 103.031V94.58H361.989V102.905C361.989 103.295 361.992 103.637 361.998 103.931C362.01 104.225 362.073 104.465 362.187 104.651C362.403 105.011 362.748 105.212 363.222 105.254C363.696 105.296 364.236 105.272 364.842 105.182V107ZM358.065 98.981V97.28H364.842V98.981H358.065ZM370.859 107.27C369.875 107.27 369.011 107.057 368.267 106.631C367.523 106.205 366.941 105.614 366.521 104.858C366.107 104.102 365.9 103.232 365.9 102.248C365.9 101.186 366.104 100.265 366.512 99.485C366.92 98.699 367.487 98.09 368.213 97.658C368.939 97.226 369.779 97.01 370.733 97.01C371.741 97.01 372.596 97.247 373.298 97.721C374.006 98.189 374.531 98.852 374.873 99.71C375.215 100.568 375.344 101.579 375.26 102.743H373.109V101.951C373.103 100.895 372.917 100.124 372.551 99.638C372.185 99.152 371.609 98.909 370.823 98.909C369.935 98.909 369.275 99.185 368.843 99.737C368.411 100.283 368.195 101.084 368.195 102.14C368.195 103.124 368.411 103.886 368.843 104.426C369.275 104.966 369.905 105.236 370.733 105.236C371.267 105.236 371.726 105.119 372.11 104.885C372.5 104.645 372.8 104.3 373.01 103.85L375.152 104.498C374.78 105.374 374.204 106.055 373.424 106.541C372.65 107.027 371.795 107.27 370.859 107.27ZM367.511 102.743V101.105H374.198V102.743H367.511ZM383.727 107V102.32C383.727 102.014 383.706 101.675 383.664 101.303C383.622 100.931 383.523 100.574 383.367 100.232C383.217 99.884 382.989 99.599 382.683 99.377C382.383 99.155 381.975 99.044 381.459 99.044C381.183 99.044 380.91 99.089 380.64 99.179C380.37 99.269 380.124 99.425 379.902 99.647C379.686 99.863 379.512 100.163 379.38 100.547C379.248 100.925 379.182 101.411 379.182 102.005L377.895 101.456C377.895 100.628 378.054 99.878 378.372 99.206C378.696 98.534 379.17 98 379.794 97.604C380.418 97.202 381.186 97.001 382.098 97.001C382.818 97.001 383.412 97.121 383.88 97.361C384.348 97.601 384.72 97.907 384.996 98.279C385.272 98.651 385.476 99.047 385.608 99.467C385.74 99.887 385.824 100.286 385.86 100.664C385.902 101.036 385.923 101.339 385.923 101.573V107H383.727ZM376.986 107V97.28H378.921V100.295H379.182V107H376.986ZM393.969 107C393.327 107.12 392.697 107.171 392.079 107.153C391.467 107.141 390.918 107.03 390.432 106.82C389.946 106.604 389.577 106.265 389.325 105.803C389.103 105.383 388.986 104.954 388.974 104.516C388.962 104.078 388.956 103.583 388.956 103.031V94.58H391.116V102.905C391.116 103.295 391.119 103.637 391.125 103.931C391.137 104.225 391.2 104.465 391.314 104.651C391.53 105.011 391.875 105.212 392.349 105.254C392.823 105.296 393.363 105.272 393.969 105.182V107ZM387.192 98.981V97.28H393.969V98.981H387.192Z" fill="white"/>
<rect x="647.725" y="132" width="164.586" height="164.586" rx="82.2932" fill="#5F00FF"/>
<rect x="647.225" y="131.5" width="165.586" height="165.586" rx="82.7932" stroke="#F7F2FF" stroke-opacity="0.5"/>
<path d="M698.453 221L694.664 208.04H696.941L699.524 217.4L702.098 208.058L704.375 208.04L706.958 217.4L709.532 208.04H711.809L708.029 221H705.887L703.232 211.784L700.595 221H698.453ZM716.624 221.27C715.64 221.27 714.776 221.057 714.032 220.631C713.288 220.205 712.706 219.614 712.286 218.858C711.872 218.102 711.665 217.232 711.665 216.248C711.665 215.186 711.869 214.265 712.277 213.485C712.685 212.699 713.252 212.09 713.978 211.658C714.704 211.226 715.544 211.01 716.498 211.01C717.506 211.01 718.361 211.247 719.063 211.721C719.771 212.189 720.296 212.852 720.638 213.71C720.98 214.568 721.109 215.579 721.025 216.743H718.874V215.951C718.868 214.895 718.682 214.124 718.316 213.638C717.95 213.152 717.374 212.909 716.588 212.909C715.7 212.909 715.04 213.185 714.608 213.737C714.176 214.283 713.96 215.084 713.96 216.14C713.96 217.124 714.176 217.886 714.608 218.426C715.04 218.966 715.67 219.236 716.498 219.236C717.032 219.236 717.491 219.119 717.875 218.885C718.265 218.645 718.565 218.3 718.775 217.85L720.917 218.498C720.545 219.374 719.969 220.055 719.189 220.541C718.415 221.027 717.56 221.27 716.624 221.27ZM713.276 216.743V215.105H719.963V216.743H713.276ZM727.704 221.27C726.756 221.27 725.961 221.045 725.319 220.595C724.677 220.145 724.194 219.533 723.87 218.759C723.546 217.979 723.384 217.106 723.384 216.14C723.384 215.162 723.546 214.286 723.87 213.512C724.194 212.738 724.668 212.129 725.292 211.685C725.922 211.235 726.699 211.01 727.623 211.01C728.541 211.01 729.336 211.235 730.008 211.685C730.686 212.129 731.211 212.738 731.583 213.512C731.955 214.28 732.141 215.156 732.141 216.14C732.141 217.112 731.958 217.985 731.592 218.759C731.226 219.533 730.71 220.145 730.044 220.595C729.378 221.045 728.598 221.27 727.704 221.27ZM723.015 221V208.04H725.202V214.178H724.932V221H723.015ZM727.371 219.326C727.935 219.326 728.4 219.185 728.766 218.903C729.132 218.621 729.402 218.24 729.576 217.76C729.756 217.274 729.846 216.734 729.846 216.14C729.846 215.552 729.756 215.018 729.576 214.538C729.396 214.052 729.117 213.668 728.739 213.386C728.361 213.098 727.881 212.954 727.299 212.954C726.747 212.954 726.297 213.089 725.949 213.359C725.601 213.623 725.343 213.995 725.175 214.475C725.013 214.949 724.932 215.504 724.932 216.14C724.932 216.77 725.013 217.325 725.175 217.805C725.343 218.285 725.604 218.66 725.958 218.93C726.318 219.194 726.789 219.326 727.371 219.326ZM737.65 221.27C736.45 221.27 735.475 221 734.725 220.46C733.975 219.92 733.519 219.161 733.357 218.183L735.571 217.841C735.685 218.321 735.937 218.699 736.327 218.975C736.717 219.251 737.209 219.389 737.803 219.389C738.325 219.389 738.727 219.287 739.009 219.083C739.297 218.873 739.441 218.588 739.441 218.228C739.441 218.006 739.387 217.829 739.279 217.697C739.177 217.559 738.949 217.427 738.595 217.301C738.241 217.175 737.698 217.016 736.966 216.824C736.15 216.608 735.502 216.377 735.022 216.131C734.542 215.879 734.197 215.582 733.987 215.24C733.777 214.898 733.672 214.484 733.672 213.998C733.672 213.392 733.831 212.864 734.149 212.414C734.467 211.964 734.911 211.619 735.481 211.379C736.051 211.133 736.723 211.01 737.497 211.01C738.253 211.01 738.922 211.127 739.504 211.361C740.092 211.595 740.566 211.928 740.926 212.36C741.286 212.792 741.508 213.299 741.592 213.881L739.378 214.277C739.324 213.863 739.135 213.536 738.811 213.296C738.493 213.056 738.067 212.921 737.533 212.891C737.023 212.861 736.612 212.939 736.3 213.125C735.988 213.305 735.832 213.56 735.832 213.89C735.832 214.076 735.895 214.235 736.021 214.367C736.147 214.499 736.399 214.631 736.777 214.763C737.161 214.895 737.731 215.057 738.487 215.249C739.261 215.447 739.879 215.675 740.341 215.933C740.809 216.185 741.145 216.488 741.349 216.842C741.559 217.196 741.664 217.625 741.664 218.129C741.664 219.107 741.307 219.875 740.593 220.433C739.885 220.991 738.904 221.27 737.65 221.27ZM743.815 209.804V207.815H745.984V209.804H743.815ZM743.815 221V211.28H745.984V221H743.815ZM754.377 221C753.735 221.12 753.105 221.171 752.487 221.153C751.875 221.141 751.326 221.03 750.84 220.82C750.354 220.604 749.985 220.265 749.733 219.803C749.511 219.383 749.394 218.954 749.382 218.516C749.37 218.078 749.364 217.583 749.364 217.031V208.58H751.524V216.905C751.524 217.295 751.527 217.637 751.533 217.931C751.545 218.225 751.608 218.465 751.722 218.651C751.938 219.011 752.283 219.212 752.757 219.254C753.231 219.296 753.771 219.272 754.377 219.182V221ZM747.6 212.981V211.28H754.377V212.981H747.6ZM760.394 221.27C759.41 221.27 758.546 221.057 757.802 220.631C757.058 220.205 756.476 219.614 756.056 218.858C755.642 218.102 755.435 217.232 755.435 216.248C755.435 215.186 755.639 214.265 756.047 213.485C756.455 212.699 757.022 212.09 757.748 211.658C758.474 211.226 759.314 211.01 760.268 211.01C761.276 211.01 762.131 211.247 762.833 211.721C763.541 212.189 764.066 212.852 764.408 213.71C764.75 214.568 764.879 215.579 764.795 216.743H762.644V215.951C762.638 214.895 762.452 214.124 762.086 213.638C761.72 213.152 761.144 212.909 760.358 212.909C759.47 212.909 758.81 213.185 758.378 213.737C757.946 214.283 757.73 215.084 757.73 216.14C757.73 217.124 757.946 217.886 758.378 218.426C758.81 218.966 759.44 219.236 760.268 219.236C760.802 219.236 761.261 219.119 761.645 218.885C762.035 218.645 762.335 218.3 762.545 217.85L764.687 218.498C764.315 219.374 763.739 220.055 762.959 220.541C762.185 221.027 761.33 221.27 760.394 221.27ZM757.046 216.743V215.105H763.733V216.743H757.046Z" fill="white"/>
<rect x="506" y="23" width="188.526" height="188.526" rx="94.2632" fill="white"/>
<rect x="505.5" y="22.5" width="189.526" height="189.526" rx="94.7632" stroke="#F7F2FF" stroke-opacity="0.5"/>
<path d="M544.403 124V111.04H546.356L550.838 120.22L555.32 111.04H557.273V124H555.248V115.693L551.27 124H550.406L546.437 115.693V124H544.403ZM562.519 124.27C561.817 124.27 561.223 124.138 560.737 123.874C560.251 123.604 559.882 123.247 559.63 122.803C559.384 122.359 559.261 121.87 559.261 121.336C559.261 120.868 559.339 120.448 559.495 120.076C559.651 119.698 559.891 119.374 560.215 119.104C560.539 118.828 560.959 118.603 561.475 118.429C561.865 118.303 562.321 118.189 562.843 118.087C563.371 117.985 563.941 117.892 564.553 117.808C565.171 117.718 565.816 117.622 566.488 117.52L565.714 117.961C565.72 117.289 565.57 116.794 565.264 116.476C564.958 116.158 564.442 115.999 563.716 115.999C563.278 115.999 562.855 116.101 562.447 116.305C562.039 116.509 561.754 116.86 561.592 117.358L559.612 116.737C559.852 115.915 560.308 115.255 560.98 114.757C561.658 114.259 562.57 114.01 563.716 114.01C564.58 114.01 565.339 114.151 565.993 114.433C566.653 114.715 567.142 115.177 567.46 115.819C567.634 116.161 567.739 116.512 567.775 116.872C567.811 117.226 567.829 117.613 567.829 118.033V124H565.93V121.894L566.245 122.236C565.807 122.938 565.294 123.454 564.706 123.784C564.124 124.108 563.395 124.27 562.519 124.27ZM562.951 122.542C563.443 122.542 563.863 122.455 564.211 122.281C564.559 122.107 564.835 121.894 565.039 121.642C565.249 121.39 565.39 121.153 565.462 120.931C565.576 120.655 565.639 120.34 565.651 119.986C565.669 119.626 565.678 119.335 565.678 119.113L566.344 119.311C565.69 119.413 565.129 119.503 564.661 119.581C564.193 119.659 563.791 119.734 563.455 119.806C563.119 119.872 562.822 119.947 562.564 120.031C562.312 120.121 562.099 120.226 561.925 120.346C561.751 120.466 561.616 120.604 561.52 120.76C561.43 120.916 561.385 121.099 561.385 121.309C561.385 121.549 561.445 121.762 561.565 121.948C561.685 122.128 561.859 122.272 562.087 122.38C562.321 122.488 562.609 122.542 562.951 122.542ZM576.895 124V119.32C576.895 119.014 576.874 118.675 576.832 118.303C576.79 117.931 576.691 117.574 576.535 117.232C576.385 116.884 576.157 116.599 575.851 116.377C575.551 116.155 575.143 116.044 574.627 116.044C574.351 116.044 574.078 116.089 573.808 116.179C573.538 116.269 573.292 116.425 573.07 116.647C572.854 116.863 572.68 117.163 572.548 117.547C572.416 117.925 572.35 118.411 572.35 119.005L571.063 118.456C571.063 117.628 571.222 116.878 571.54 116.206C571.864 115.534 572.338 115 572.962 114.604C573.586 114.202 574.354 114.001 575.266 114.001C575.986 114.001 576.58 114.121 577.048 114.361C577.516 114.601 577.888 114.907 578.164 115.279C578.44 115.651 578.644 116.047 578.776 116.467C578.908 116.887 578.992 117.286 579.028 117.664C579.07 118.036 579.091 118.339 579.091 118.573V124H576.895ZM570.154 124V114.28H572.089V117.295H572.35V124H570.154ZM584.158 124.27C583.456 124.27 582.862 124.138 582.376 123.874C581.89 123.604 581.521 123.247 581.269 122.803C581.023 122.359 580.9 121.87 580.9 121.336C580.9 120.868 580.978 120.448 581.134 120.076C581.29 119.698 581.53 119.374 581.854 119.104C582.178 118.828 582.598 118.603 583.114 118.429C583.504 118.303 583.96 118.189 584.482 118.087C585.01 117.985 585.58 117.892 586.192 117.808C586.81 117.718 587.455 117.622 588.127 117.52L587.353 117.961C587.359 117.289 587.209 116.794 586.903 116.476C586.597 116.158 586.081 115.999 585.355 115.999C584.917 115.999 584.494 116.101 584.086 116.305C583.678 116.509 583.393 116.86 583.231 117.358L581.251 116.737C581.491 115.915 581.947 115.255 582.619 114.757C583.297 114.259 584.209 114.01 585.355 114.01C586.219 114.01 586.978 114.151 587.632 114.433C588.292 114.715 588.781 115.177 589.099 115.819C589.273 116.161 589.378 116.512 589.414 116.872C589.45 117.226 589.468 117.613 589.468 118.033V124H587.569V121.894L587.884 122.236C587.446 122.938 586.933 123.454 586.345 123.784C585.763 124.108 585.034 124.27 584.158 124.27ZM584.59 122.542C585.082 122.542 585.502 122.455 585.85 122.281C586.198 122.107 586.474 121.894 586.678 121.642C586.888 121.39 587.029 121.153 587.101 120.931C587.215 120.655 587.278 120.34 587.29 119.986C587.308 119.626 587.317 119.335 587.317 119.113L587.983 119.311C587.329 119.413 586.768 119.503 586.3 119.581C585.832 119.659 585.43 119.734 585.094 119.806C584.758 119.872 584.461 119.947 584.203 120.031C583.951 120.121 583.738 120.226 583.564 120.346C583.39 120.466 583.255 120.604 583.159 120.76C583.069 120.916 583.024 121.099 583.024 121.309C583.024 121.549 583.084 121.762 583.204 121.948C583.324 122.128 583.498 122.272 583.726 122.38C583.96 122.488 584.248 122.542 584.59 122.542ZM595.897 128.59C595.357 128.59 594.838 128.506 594.34 128.338C593.848 128.17 593.404 127.927 593.008 127.609C592.612 127.297 592.288 126.919 592.036 126.475L594.034 125.485C594.22 125.839 594.481 126.1 594.817 126.268C595.159 126.442 595.522 126.529 595.906 126.529C596.356 126.529 596.758 126.448 597.112 126.286C597.466 126.13 597.739 125.896 597.931 125.584C598.129 125.278 598.222 124.894 598.21 124.432V121.669H598.48V114.28H600.379V124.468C600.379 124.714 600.367 124.948 600.343 125.17C600.325 125.398 600.292 125.62 600.244 125.836C600.1 126.466 599.824 126.982 599.416 127.384C599.008 127.792 598.501 128.095 597.895 128.293C597.295 128.491 596.629 128.59 595.897 128.59ZM595.708 124.27C594.814 124.27 594.034 124.045 593.368 123.595C592.702 123.145 592.186 122.533 591.82 121.759C591.454 120.985 591.271 120.112 591.271 119.14C591.271 118.156 591.454 117.28 591.82 116.512C592.192 115.738 592.717 115.129 593.395 114.685C594.073 114.235 594.871 114.01 595.789 114.01C596.713 114.01 597.487 114.235 598.111 114.685C598.741 115.129 599.218 115.738 599.542 116.512C599.866 117.286 600.028 118.162 600.028 119.14C600.028 120.106 599.866 120.979 599.542 121.759C599.218 122.533 598.735 123.145 598.093 123.595C597.451 124.045 596.656 124.27 595.708 124.27ZM596.041 122.326C596.623 122.326 597.091 122.194 597.445 121.93C597.805 121.66 598.066 121.285 598.228 120.805C598.396 120.325 598.48 119.77 598.48 119.14C598.48 118.504 598.396 117.949 598.228 117.475C598.066 116.995 597.811 116.623 597.463 116.359C597.115 116.089 596.665 115.954 596.113 115.954C595.531 115.954 595.051 116.098 594.673 116.386C594.295 116.668 594.016 117.052 593.836 117.538C593.656 118.018 593.566 118.552 593.566 119.14C593.566 119.734 593.653 120.274 593.827 120.76C594.007 121.24 594.28 121.621 594.646 121.903C595.012 122.185 595.477 122.326 596.041 122.326ZM607.322 124.27C606.338 124.27 605.474 124.057 604.73 123.631C603.986 123.205 603.404 122.614 602.984 121.858C602.57 121.102 602.363 120.232 602.363 119.248C602.363 118.186 602.567 117.265 602.975 116.485C603.383 115.699 603.95 115.09 604.676 114.658C605.402 114.226 606.242 114.01 607.196 114.01C608.204 114.01 609.059 114.247 609.761 114.721C610.469 115.189 610.994 115.852 611.336 116.71C611.678 117.568 611.807 118.579 611.723 119.743H609.572V118.951C609.566 117.895 609.38 117.124 609.014 116.638C608.648 116.152 608.072 115.909 607.286 115.909C606.398 115.909 605.738 116.185 605.306 116.737C604.874 117.283 604.658 118.084 604.658 119.14C604.658 120.124 604.874 120.886 605.306 121.426C605.738 121.966 606.368 122.236 607.196 122.236C607.73 122.236 608.189 122.119 608.573 121.885C608.963 121.645 609.263 121.3 609.473 120.85L611.615 121.498C611.243 122.374 610.667 123.055 609.887 123.541C609.113 124.027 608.258 124.27 607.322 124.27ZM603.974 119.743V118.105H610.661V119.743H603.974ZM625.14 124V118.096C625.14 117.43 624.975 116.911 624.645 116.539C624.315 116.161 623.868 115.972 623.304 115.972C622.956 115.972 622.644 116.053 622.368 116.215C622.092 116.371 621.873 116.605 621.711 116.917C621.549 117.223 621.468 117.589 621.468 118.015L620.505 117.448C620.499 116.776 620.649 116.185 620.955 115.675C621.267 115.159 621.687 114.757 622.215 114.469C622.743 114.181 623.331 114.037 623.979 114.037C625.053 114.037 625.875 114.361 626.445 115.009C627.021 115.651 627.309 116.497 627.309 117.547V124H625.14ZM613.449 124V114.28H615.366V117.295H615.636V124H613.449ZM619.308 124V118.123C619.308 117.445 619.143 116.917 618.813 116.539C618.483 116.161 618.033 115.972 617.463 115.972C616.911 115.972 616.467 116.161 616.131 116.539C615.801 116.917 615.636 117.409 615.636 118.015L614.664 117.367C614.664 116.737 614.82 116.17 615.132 115.666C615.444 115.162 615.864 114.766 616.392 114.478C616.926 114.184 617.523 114.037 618.183 114.037C618.909 114.037 619.515 114.193 620.001 114.505C620.493 114.811 620.859 115.231 621.099 115.765C621.345 116.293 621.468 116.89 621.468 117.556V124H619.308ZM633.917 124.27C632.933 124.27 632.069 124.057 631.325 123.631C630.581 123.205 629.999 122.614 629.579 121.858C629.165 121.102 628.958 120.232 628.958 119.248C628.958 118.186 629.162 117.265 629.57 116.485C629.978 115.699 630.545 115.09 631.271 114.658C631.997 114.226 632.837 114.01 633.791 114.01C634.799 114.01 635.654 114.247 636.356 114.721C637.064 115.189 637.589 115.852 637.931 116.71C638.273 117.568 638.402 118.579 638.318 119.743H636.167V118.951C636.161 117.895 635.975 117.124 635.609 116.638C635.243 116.152 634.667 115.909 633.881 115.909C632.993 115.909 632.333 116.185 631.901 116.737C631.469 117.283 631.253 118.084 631.253 119.14C631.253 120.124 631.469 120.886 631.901 121.426C632.333 121.966 632.963 122.236 633.791 122.236C634.325 122.236 634.784 122.119 635.168 121.885C635.558 121.645 635.858 121.3 636.068 120.85L638.21 121.498C637.838 122.374 637.262 123.055 636.482 123.541C635.708 124.027 634.853 124.27 633.917 124.27ZM630.569 119.743V118.105H637.256V119.743H630.569ZM646.786 124V119.32C646.786 119.014 646.765 118.675 646.723 118.303C646.681 117.931 646.582 117.574 646.426 117.232C646.276 116.884 646.048 116.599 645.742 116.377C645.442 116.155 645.034 116.044 644.518 116.044C644.242 116.044 643.969 116.089 643.699 116.179C643.429 116.269 643.183 116.425 642.961 116.647C642.745 116.863 642.571 117.163 642.439 117.547C642.307 117.925 642.241 118.411 642.241 119.005L640.954 118.456C640.954 117.628 641.113 116.878 641.431 116.206C641.755 115.534 642.229 115 642.853 114.604C643.477 114.202 644.245 114.001 645.157 114.001C645.877 114.001 646.471 114.121 646.939 114.361C647.407 114.601 647.779 114.907 648.055 115.279C648.331 115.651 648.535 116.047 648.667 116.467C648.799 116.887 648.883 117.286 648.919 117.664C648.961 118.036 648.982 118.339 648.982 118.573V124H646.786ZM640.045 124V114.28H641.98V117.295H642.241V124H640.045ZM657.027 124C656.385 124.12 655.755 124.171 655.137 124.153C654.525 124.141 653.976 124.03 653.49 123.82C653.004 123.604 652.635 123.265 652.383 122.803C652.161 122.383 652.044 121.954 652.032 121.516C652.02 121.078 652.014 120.583 652.014 120.031V111.58H654.174V119.905C654.174 120.295 654.177 120.637 654.183 120.931C654.195 121.225 654.258 121.465 654.372 121.651C654.588 122.011 654.933 122.212 655.407 122.254C655.881 122.296 656.421 122.272 657.027 122.182V124ZM650.25 115.981V114.28H657.027V115.981H650.25Z" fill="#5F00FF"/>
<rect x="384" y="119" width="164.586" height="164.586" rx="82.2932" fill="#5F00FF"/>
<rect x="383.5" y="118.5" width="165.586" height="165.586" rx="82.7932" stroke="#F7F2FF" stroke-opacity="0.5"/>
<path d="M446.694 208V195.04H450.825C450.933 195.04 451.146 195.043 451.464 195.049C451.788 195.055 452.1 195.076 452.4 195.112C453.426 195.244 454.293 195.61 455.001 196.21C455.715 196.804 456.255 197.563 456.621 198.487C456.987 199.411 457.17 200.422 457.17 201.52C457.17 202.618 456.987 203.629 456.621 204.553C456.255 205.477 455.715 206.239 455.001 206.839C454.293 207.433 453.426 207.796 452.4 207.928C452.106 207.964 451.797 207.985 451.473 207.991C451.149 207.997 450.933 208 450.825 208H446.694ZM448.899 205.957H450.825C451.005 205.957 451.233 205.951 451.509 205.939C451.791 205.927 452.04 205.9 452.256 205.858C452.868 205.744 453.366 205.471 453.75 205.039C454.134 204.607 454.416 204.082 454.596 203.464C454.782 202.846 454.875 202.198 454.875 201.52C454.875 200.818 454.782 200.158 454.596 199.54C454.41 198.922 454.122 198.403 453.732 197.983C453.348 197.563 452.856 197.296 452.256 197.182C452.04 197.134 451.791 197.107 451.509 197.101C451.233 197.089 451.005 197.083 450.825 197.083H448.899V205.957ZM462.015 208.27C461.313 208.27 460.719 208.138 460.233 207.874C459.747 207.604 459.378 207.247 459.126 206.803C458.88 206.359 458.757 205.87 458.757 205.336C458.757 204.868 458.835 204.448 458.991 204.076C459.147 203.698 459.387 203.374 459.711 203.104C460.035 202.828 460.455 202.603 460.971 202.429C461.361 202.303 461.817 202.189 462.339 202.087C462.867 201.985 463.437 201.892 464.049 201.808C464.667 201.718 465.312 201.622 465.984 201.52L465.21 201.961C465.216 201.289 465.066 200.794 464.76 200.476C464.454 200.158 463.938 199.999 463.212 199.999C462.774 199.999 462.351 200.101 461.943 200.305C461.535 200.509 461.25 200.86 461.088 201.358L459.108 200.737C459.348 199.915 459.804 199.255 460.476 198.757C461.154 198.259 462.066 198.01 463.212 198.01C464.076 198.01 464.835 198.151 465.489 198.433C466.149 198.715 466.638 199.177 466.956 199.819C467.13 200.161 467.235 200.512 467.271 200.872C467.307 201.226 467.325 201.613 467.325 202.033V208H465.426V205.894L465.741 206.236C465.303 206.938 464.79 207.454 464.202 207.784C463.62 208.108 462.891 208.27 462.015 208.27ZM462.447 206.542C462.939 206.542 463.359 206.455 463.707 206.281C464.055 206.107 464.331 205.894 464.535 205.642C464.745 205.39 464.886 205.153 464.958 204.931C465.072 204.655 465.135 204.34 465.147 203.986C465.165 203.626 465.174 203.335 465.174 203.113L465.84 203.311C465.186 203.413 464.625 203.503 464.157 203.581C463.689 203.659 463.287 203.734 462.951 203.806C462.615 203.872 462.318 203.947 462.06 204.031C461.808 204.121 461.595 204.226 461.421 204.346C461.247 204.466 461.112 204.604 461.016 204.76C460.926 204.916 460.881 205.099 460.881 205.309C460.881 205.549 460.941 205.762 461.061 205.948C461.181 206.128 461.355 206.272 461.583 206.38C461.817 206.488 462.105 206.542 462.447 206.542ZM475.365 208C474.723 208.12 474.093 208.171 473.475 208.153C472.863 208.141 472.314 208.03 471.828 207.82C471.342 207.604 470.973 207.265 470.721 206.803C470.499 206.383 470.382 205.954 470.37 205.516C470.358 205.078 470.352 204.583 470.352 204.031V195.58H472.512V203.905C472.512 204.295 472.515 204.637 472.521 204.931C472.533 205.225 472.596 205.465 472.71 205.651C472.926 206.011 473.271 206.212 473.745 206.254C474.219 206.296 474.759 206.272 475.365 206.182V208ZM468.588 199.981V198.28H475.365V199.981H468.588ZM480.173 208.27C479.471 208.27 478.877 208.138 478.391 207.874C477.905 207.604 477.536 207.247 477.284 206.803C477.038 206.359 476.915 205.87 476.915 205.336C476.915 204.868 476.993 204.448 477.149 204.076C477.305 203.698 477.545 203.374 477.869 203.104C478.193 202.828 478.613 202.603 479.129 202.429C479.519 202.303 479.975 202.189 480.497 202.087C481.025 201.985 481.595 201.892 482.207 201.808C482.825 201.718 483.47 201.622 484.142 201.52L483.368 201.961C483.374 201.289 483.224 200.794 482.918 200.476C482.612 200.158 482.096 199.999 481.37 199.999C480.932 199.999 480.509 200.101 480.101 200.305C479.693 200.509 479.408 200.86 479.246 201.358L477.266 200.737C477.506 199.915 477.962 199.255 478.634 198.757C479.312 198.259 480.224 198.01 481.37 198.01C482.234 198.01 482.993 198.151 483.647 198.433C484.307 198.715 484.796 199.177 485.114 199.819C485.288 200.161 485.393 200.512 485.429 200.872C485.465 201.226 485.483 201.613 485.483 202.033V208H483.584V205.894L483.899 206.236C483.461 206.938 482.948 207.454 482.36 207.784C481.778 208.108 481.049 208.27 480.173 208.27ZM480.605 206.542C481.097 206.542 481.517 206.455 481.865 206.281C482.213 206.107 482.489 205.894 482.693 205.642C482.903 205.39 483.044 205.153 483.116 204.931C483.23 204.655 483.293 204.34 483.305 203.986C483.323 203.626 483.332 203.335 483.332 203.113L483.998 203.311C483.344 203.413 482.783 203.503 482.315 203.581C481.847 203.659 481.445 203.734 481.109 203.806C480.773 203.872 480.476 203.947 480.218 204.031C479.966 204.121 479.753 204.226 479.579 204.346C479.405 204.466 479.27 204.604 479.174 204.76C479.084 204.916 479.039 205.099 479.039 205.309C479.039 205.549 479.099 205.762 479.219 205.948C479.339 206.128 479.513 206.272 479.741 206.38C479.975 206.488 480.263 206.542 480.605 206.542Z" fill="white"/>
</svg>
