<svg width="968" height="480" viewBox="0 0 968 480" fill="none" xmlns="http://www.w3.org/2000/svg">
<g clip-path="url(#clip0_12_1134)">
<rect width="968" height="480" fill="#5F00FF"/>
<g opacity="0.2">
<path d="M1165.64 452.745L968.464 357.097C899.011 323.406 817.949 323.406 748.496 357.097L661.3 399.394C591.847 433.084 510.784 433.084 441.332 399.394L364.395 362.074C289.193 325.594 200.797 328.776 128.412 370.568L112.076 379.999C34.1065 425.015 -61.9554 425.015 -139.924 379.999L-272 303.745" stroke="white" stroke-width="4"/>
<path d="M1202.54 478.745L1005.36 383.097C935.907 349.406 854.844 349.406 785.391 383.097L698.195 425.394C628.742 459.084 547.679 459.084 478.227 425.394L401.29 388.074C326.088 351.594 237.692 354.776 165.307 396.568L148.971 405.999C71.0015 451.015 -25.0604 451.015 -103.029 405.999L-235.105 329.745" stroke="white" stroke-width="4"/>
<path d="M1239.43 504.745L1042.25 409.097C972.802 375.406 891.739 375.406 822.286 409.097L735.09 451.394C665.637 485.084 584.575 485.084 515.122 451.394L438.185 414.074C362.983 377.594 274.587 380.776 202.202 422.568L185.866 431.999C107.897 477.015 11.8347 477.015 -66.1344 431.999L-198.21 355.745" stroke="white" stroke-width="4"/>
<path d="M1276.33 530.745L1079.15 435.097C1009.7 401.406 928.634 401.406 859.181 435.097L771.985 477.394C702.532 511.084 621.47 511.084 552.017 477.394L475.08 440.074C399.878 403.594 311.482 406.776 239.097 448.568L222.761 457.999C144.792 503.015 48.7297 503.015 -29.2394 457.999L-161.315 381.745" stroke="white" stroke-width="4"/>
<path d="M1313.22 556.745L1116.04 461.097C1046.59 427.406 965.529 427.406 896.076 461.097L808.88 503.394C739.427 537.084 658.365 537.084 588.912 503.394L511.975 466.074C436.773 429.594 348.377 432.776 275.992 474.568L259.656 483.999C181.687 529.015 85.6247 529.015 7.65563 483.999L-124.42 407.745" stroke="white" stroke-width="4"/>
<path d="M1350.12 582.745L1152.94 487.097C1083.49 453.406 1002.42 453.406 932.971 487.097L845.775 529.394C776.322 563.084 695.26 563.084 625.807 529.394L548.871 492.074C473.668 455.594 385.272 458.776 312.887 500.568L296.551 509.999C218.582 555.015 122.52 555.015 44.5507 509.999L-87.5249 433.745" stroke="white" stroke-width="4"/>
</g>
<g opacity="0.2">
<path d="M45.1583 151.297C41.3816 153.938 40.0488 155.005 38.8488 155.952C37.6968 156.861 37.3406 158.339 37.1495 161.214C37.082 162.229 37.3975 163.477 38.413 164.508C42.8678 169.03 46.9555 167.481 48.3738 167.578C48.7071 167.633 49.0354 167.688 49.0404 167.689C49.0454 167.689 48.717 167.635 48.3788 167.578" stroke="white" stroke-width="3" stroke-linecap="round"/>
<path d="M54.5257 147.233C54.8332 151.873 55.5505 157.797 56.4822 163.352C56.8924 165.798 57.2982 166.807 57.475 167.588C57.7941 168.998 57.325 163.587 57.2763 162.248C57.2157 160.579 57.6077 158.596 58.1048 156.951C58.6608 155.112 60.9228 154.403 62.6456 153.7C63.4552 153.369 64.4857 153.084 65.5593 153.074C67.1136 153.06 67.3852 155.739 67.9702 157.049C68.5376 158.32 68.8691 160.344 69.0145 161.937C69.0554 162.386 68.7218 162.108 68.6084 161.748C68.495 161.388 68.5332 160.956 68.6239 160.509C68.7147 160.062 68.8568 159.613 69.0033 159.151" stroke="white" stroke-width="3" stroke-linecap="round"/>
<path d="M77.953 142.236C79.1268 150.333 79.9703 157.035 81.2114 160.821C81.7457 162.45 82.7745 163.211 83.3533 163.819C83.8308 164.32 85.3864 163.454 87.0737 162.22C87.8584 161.342 88.0764 160.658 88.1263 159.953C88.1216 159.576 88.0558 159.16 87.9881 158.732" stroke="white" stroke-width="3" stroke-linecap="round"/>
<path d="M72.7819 152.418C72.9898 152.385 76.7296 150.409 82.9367 147.169C85.5111 145.888 86.9172 145.346 87.7892 144.99C88.6613 144.634 88.9567 144.481 89.8911 144.224" stroke="white" stroke-width="3" stroke-linecap="round"/>
<path d="M95.6614 143.957C96.5491 149.57 97.2365 153.918 97.6563 155.898C97.9701 157.379 98.7183 150.383 99.1398 147.934C99.4452 146.159 99.7787 144.817 99.9843 144.085C100.077 143.755 100.447 143.633 100.684 143.753C102.122 144.486 102.717 146.386 104.065 147.788C105.611 149.394 106.997 150.34 107.866 151.386C108.337 151.952 108.876 154.011 109.266 156.481C109.376 157.174 109.46 153.625 109.645 151.066C109.872 147.915 109.334 145.353 109.293 143.049C109.28 142.324 109.693 141.538 109.927 140.957C110.161 140.375 110.32 140.031 110.591 141.049C112.261 147.327 112.607 149.02 113.767 150.934C114.415 152.289 115.03 153.48 115.705 154.667C115.809 154.975 115.858 155.287 115.909 155.608" stroke="white" stroke-width="3" stroke-linecap="round"/>
<path d="M123.846 134.333C124.35 136.172 124.795 137.622 125.628 141.867C126.359 145.594 127.376 152.574 128.099 156.138C128.823 159.701 129.135 159.652 129.487 159.489C130.222 159.054 130.912 158.618 131.559 158.301C131.911 158.137 132.31 157.968 133.352 157.693" stroke="white" stroke-width="3" stroke-linecap="round"/>
<path d="M163.124 127.477C163.813 127.794 165 127.826 166.397 127.818C166.975 127.815 167.236 128.325 167.453 128.67C169.019 131.151 169.218 136.083 169.685 138.002C170.674 142.07 171.206 147.939 170.559 148.256C169.821 148.618 168.668 148.88 167.782 149.073C168.813 149.18 170.31 149.156 173.796 148.768C174.549 148.702 174.877 148.757 175.531 148.763" stroke="white" stroke-width="3" stroke-linecap="round"/>
<path d="M186.205 132.545C189.12 129.93 191.529 130.192 193.373 130.279C194.629 130.339 195.98 131.102 197.214 131.766C199.011 132.733 199.271 134.883 200.063 138.841C200.233 139.688 200.091 140.029 199.924 140.327C198.908 142.131 196.692 143.692 195.495 144.634C194.147 145.694 192.721 146.471 191.122 147.265C190.339 147.653 189.178 147.897 187.903 147.992C186.996 148.059 186.295 147.387 185.715 146.781C184.631 145.65 184.717 143.555 184.583 141.694C184.531 140.977 184.908 140.719 185.199 140.51C186.529 139.556 188.539 139.176 190.02 138.669C190.378 138.547 190.677 138.405 191.002 138.406C192.417 138.407 193.769 140.274 194.779 141.517C195.844 142.827 196.902 144.408 197.42 145.62C197.574 145.92 197.831 146.199 198.041 146.49C198.25 146.782 198.403 147.077 198.876 147.332" stroke="white" stroke-width="3" stroke-linecap="round"/>
<path d="M205.471 129.821C207.017 134.843 208.054 140.029 208.807 142.424C209.286 143.947 209.558 138.022 209.976 135.52C210.424 132.837 210.981 128.646 211.683 126.583C211.905 125.93 212.253 125.093 212.956 124.443C213.243 124.177 213.653 124.433 214.02 124.698C215.764 125.959 216.213 128.329 217.265 130.581C218.912 134.105 219.706 136.165 220.699 138.33C220.88 138.789 221.05 139.188 221.203 139.81C221.356 140.431 221.488 141.263 221.623 142.12" stroke="white" stroke-width="3" stroke-linecap="round"/>
<path d="M238.564 122.65C236.635 123.275 232.592 124.99 231.364 126.098C229.081 128.158 231.094 131.891 231.631 135.305C231.905 137.052 234.1 137.344 235.593 137.596C237.75 137.959 239.551 135.1 241.88 131.769C242.881 130.339 242.43 128.72 242.108 127.694C241.999 127.348 241.605 127.549 241.426 127.792C240.547 128.982 240.96 130.983 240.99 132.54C241.083 137.373 242.153 145.328 241.608 145.952C240.655 147.042 238.808 146.616 237.428 146.403C236.611 146.318 235.733 146.24 234.95 146.043C234.598 145.884 234.341 145.605 233.976 144.687" stroke="white" stroke-width="3" stroke-linecap="round"/>
<path d="M248.729 123.626L262.904 121.385" stroke="white" stroke-width="3" stroke-linecap="round"/>
<path d="M251.83 128.948C255.043 128.869 257.373 128.717 260.15 128.546C262.142 128.286 263.648 128.154 264.405 128.196C264.834 128.183 265.354 128.101 265.89 128.016" stroke="white" stroke-width="3" stroke-linecap="round"/>
<path d="M274.393 114.401C274.251 114.85 274.123 115.41 274.106 116.323C274.143 116.908 274.275 117.74 274.419 118.316C274.564 118.892 274.717 119.187 275.24 119.757" stroke="white" stroke-width="3" stroke-linecap="round"/>
<path d="M280.975 111.1C282.102 112.84 282.836 114.032 283.153 114.679C283.487 115.43 283.815 116.137 284.217 116.984C284.466 117.536 284.805 118.335 285.52 119.423" stroke="white" stroke-width="3" stroke-linecap="round"/>
<path d="M294.904 119.553C298.544 119.623 304.859 117.879 305.499 116.488C305.762 115.918 305.79 115.578 305.681 115.217C305.207 113.644 303.25 113.073 301.271 112.468C298.561 111.638 293.502 113.956 291.479 114.872C291.023 115.078 290.662 115.8 290.409 116.275C290.005 117.033 290.358 119.391 290.968 122.575C291.286 124.236 292.423 124.999 293.62 125.777C296.012 127.332 299.76 126.535 302.314 126.667C303.221 126.633 304.572 126.42 305.408 126.181C306.244 125.942 306.523 125.685 306.76 125.105" stroke="white" stroke-width="3" stroke-linecap="round"/>
<path d="M314.468 112.585C317.834 119.582 318.34 121.433 318.774 123.145C318.948 123.832 319.442 125.667 319.783 127.821C319.873 128.392 319.811 125.954 320.103 121.024C320.259 118.389 320.407 116.818 320.905 114.857C321.337 113.158 321.865 111.744 322.542 110.236C322.682 109.923 323.083 109.931 323.38 110.097C324.822 110.902 325.56 112.652 326.364 113.981C327.313 115.548 328.272 116.853 328.84 118.057C328.993 118.677 329.197 119.294 329.511 120.261C329.672 120.933 329.837 121.972 329.956 122.728" stroke="white" stroke-width="3" stroke-linecap="round"/>
<path d="M338.822 103.244C338.904 103.764 338.986 104.284 339.127 105.175C339.268 106.067 339.465 107.314 340.083 109.18" stroke="white" stroke-width="3" stroke-linecap="round"/>
<path d="M345.205 98.6831C345.851 100.073 346.353 101.188 346.687 101.941C347.004 102.59 347.332 103.293 347.74 104.514C347.978 105.335 348.279 106.566 349.319 108.365" stroke="white" stroke-width="3" stroke-linecap="round"/>
<path d="M360.907 102.012C362.943 102.656 365.022 103.615 366.83 104.784C367.45 105.185 368.112 105.39 368.63 105.952C369.149 106.514 369.496 107.322 369.473 108.186C369.433 109.674 366.782 111.19 365.261 112.836C364.129 114.063 362.706 115.392 361.308 116.422C360.668 116.793 360.084 117.208 359.582 117.771C359.359 118.075 359.201 118.42 359.087 119.09" stroke="white" stroke-width="3" stroke-linecap="round"/>
<path d="M40.6885 108.736C37.6739 110.072 36.2323 111.798 35.1556 113.534C33.7669 115.774 32.0411 117.311 31.0434 118.169C30.8079 118.372 30.9899 118.872 31.2481 119.157C32.4752 120.513 34.7571 120.969 36.4935 121.72C37.1105 122.211 37.9611 122.832 39.0124 123.365C39.4782 123.564 39.8065 123.619 40.7748 123.576" stroke="white" stroke-width="3" stroke-linecap="round"/>
<path d="M54.9624 100.99C55.5871 104.94 56.0622 107.27 56.3519 108.082C56.4884 108.598 56.6035 109.325 56.7476 109.9C56.8918 110.475 57.0615 110.874 57.2364 111.285" stroke="white" stroke-width="3" stroke-linecap="round"/>
<path d="M59.5602 121.897C59.1062 122.395 58.6522 122.893 58.6864 123.16C58.7206 123.427 59.2569 123.449 59.6561 123.228C60.0554 123.006 60.3015 122.541 60.4037 122.146C60.5058 121.75 60.4565 121.438 60.2751 121.302C60.0938 121.166 59.7819 121.216 59.4606 121.266" stroke="white" stroke-width="3" stroke-linecap="round"/>
<path d="M70.1832 99.2287C70.1645 101.153 71.3112 105.708 72.4931 112.131C72.7387 115.389 73.2257 117.795 73.5073 118.555C73.6356 119.019 73.7342 119.642 73.8358 120.285" stroke="white" stroke-width="3" stroke-linecap="round"/>
<path d="M73.4212 119.705C76.2861 119.465 78.4414 119.557 80.5755 118.044C84.5242 115.245 83.8927 112.456 84.0835 111.243C84.4638 108.823 82.9516 105.075 82.2446 103.677C81.1044 101.423 78.8622 100.982 77.1541 100.39C75.4428 99.7981 74.3981 99.3175 73.2521 99.1758C72.4507 99.1927 71.2032 99.39 69.918 99.5933" stroke="white" stroke-width="3" stroke-linecap="round"/>
<path d="M96.5787 96.669C91.98 103.628 90.8649 107.46 91.2149 110.745C91.5542 113.93 98.4585 113.375 100.249 113.47C100.939 113.506 101.978 113.252 102.62 112.83C104.749 111.434 104.618 108.753 104.918 106.874C105.255 104.77 103.578 102.789 102.578 100.893C101.538 98.9235 99.405 98.1659 98.0016 97.4692C97.6599 97.3601 97.3316 97.3055 96.7466 97.3431C96.1617 97.3807 95.33 97.5122 94.4732 97.6477" stroke="white" stroke-width="3" stroke-linecap="round"/>
<path d="M127.384 93.4119C126.11 92.1088 122.694 92.2162 120 92.9103C116.937 93.6992 114.795 94.1079 114.581 94.7859C114.074 96.3901 113.488 98.0763 113.177 99.5285C112.895 100.845 113.503 105.681 114.644 108.501C115.124 109.686 117.541 109.492 119.052 110.172C120.296 110.732 122.718 110.295 124.474 109.749C124.784 109.652 125.094 109.596 125.282 109.406C125.47 109.217 125.524 108.889 125.692 108.591C125.86 108.293 126.139 108.036 126.426 107.771" stroke="white" stroke-width="3" stroke-linecap="round"/>
<path d="M132.873 95.4499C132.708 94.404 132.684 92.9031 133.125 91.2722C133.231 90.8784 133.28 90.5485 133.448 90.2508C134.54 88.3099 138.619 88.9423 140.513 89.0204C142.706 89.1109 146.957 88.7022 149.273 88.9252C149.63 88.9596 149.943 89.0889 150.145 89.3249C150.347 89.561 150.413 89.9768 150.419 90.3552C150.426 90.7335 150.371 91.0619 150.365 91.7151" stroke="white" stroke-width="3" stroke-linecap="round"/>
<path d="M141.461 90.54C141.592 91.3717 141.724 92.2033 142.181 94.7546C142.637 97.306 143.415 101.552 144.217 105.926" stroke="white" stroke-width="3" stroke-linecap="round"/>
<path d="M157.063 87.1043C157.585 89.0624 158.24 90.4636 159.014 91.6343C159.395 92.2096 160.016 92.8756 161.074 93.4607C162.194 94.0802 163.919 93.7696 165.528 93.4086C167.854 92.8867 169.37 90.1178 170.157 88.5903C170.827 87.2893 170.569 85.4076 170.565 84.0037C170.565 83.8513 170.166 84.1668 170.012 84.5674C169.278 86.4683 169.43 88.3712 169.064 90.1501C168.574 92.5303 167.599 93.8269 166.687 95.5324C165.965 96.8836 165.777 98.6357 165.649 100.216C165.818 101.632 165.899 102.817 165.857 103.575C165.87 104.004 165.952 104.523 166.037 105.059" stroke="white" stroke-width="3" stroke-linecap="round"/>
<path d="M159.321 105.475C161.121 105.404 162.922 105.332 164.94 105.123C166.959 104.913 169.142 104.568 171.392 104.212" stroke="white" stroke-width="3" stroke-linecap="round"/>
<path d="M139.89 109.194C140.098 109.161 141.557 108.93 143.752 108.53C144.891 108.19 145.595 107.862 146.408 107.572C146.822 107.452 147.238 107.386 147.666 107.318" stroke="white" stroke-width="3" stroke-linecap="round"/>
<path d="M179.113 83.6172C180.511 91.7849 181.229 93.6088 181.797 95.8294C182.009 96.4981 182.332 97.1929 182.531 97.7588C182.731 98.3246 182.796 98.7404 182.864 99.1689" stroke="white" stroke-width="3" stroke-linecap="round"/>
<path d="M180.639 83.053C181.578 82.9045 186.127 83.2507 188.333 84.4147C189.793 85.1854 190.36 86.6789 190.565 87.2906C190.973 88.5095 189.102 89.5675 187.982 90.6601C186.878 91.8598 185.031 92.3682 183.608 93.2892C183.385 93.5941 183.226 93.9388 183.112 94.609" stroke="white" stroke-width="3" stroke-linecap="round"/>
<path d="M180.163 102.502C180.371 102.469 180.578 102.436 182.141 102.189C183.703 101.942 186.614 101.482 190.293 101.223" stroke="white" stroke-width="3" stroke-linecap="round"/>
<path d="M199.109 81.4238C199.909 85.1334 200.995 91.3065 202.093 97.9121C202.483 100.261 202.67 100.551 202.921 100.782C204.127 101.893 206.419 101.146 208.204 100.867C209.671 100.638 210.714 99.7181 212.212 99.3181C213.548 98.9615 214.797 98.3169 215.927 97.9784C216.242 95.8409 215.88 92.8759 215.872 91.8051C215.826 91.1666 215.695 90.335 215.559 89.4781" stroke="white" stroke-width="3" stroke-linecap="round"/>
<path d="M201.996 87.4253C205.355 87.1072 207.502 86.8776 208.189 87.1418C208.588 87.2951 208.576 88.1994 208.594 88.3144C208.53 87.9096 208.292 87.0787 208.002 86.2672C207.866 85.7512 207.751 85.0235 207.632 84.2737" stroke="white" stroke-width="3" stroke-linecap="round"/>
<path d="M198.346 78.6384C202.9 76.9496 208.197 76.3251 209.591 76.2677C210.246 76.2408 210.91 76.4352 211.572 76.5453C211.905 76.6008 212.233 76.6554 212.526 77.4632C212.818 78.2711 213.065 79.8304 213.319 81.437" stroke="white" stroke-width="3" stroke-linecap="round"/>
<path d="M240.524 69.7083C242.398 76.8161 244.249 81.7057 244.881 84.6669C245.384 87.0301 245.925 88.2215 246.284 89.458C246.467 90.0876 246.779 90.8859 246.488 91.7392C246.326 92.2131 245.283 92.2043 245.071 92.2911C243.589 92.8973 248.867 91.8539 249.186 91.4822C249.953 90.5879 246.871 89.3829 245.298 86.9371C244.236 85.2865 244.45 82.9784 244.682 81.3806C244.905 79.8446 246.142 78.7264 247.339 77.7815C248.562 76.816 250.262 76.8867 251.65 76.8269C253.27 76.7572 254.023 78.8685 254.539 80.4015C255.061 81.9565 256.014 83.2874 256.863 88.9524C257.028 90.0559 256.253 90.1467 256.609 90.0904C256.964 90.0341 258.212 89.8369 258.778 89.5875C259.344 89.3382 259.191 89.0428 258.353 88.523" stroke="white" stroke-width="3" stroke-linecap="round"/>
<path d="M268.794 68.7898C268.904 72.1821 269.701 78.6077 270.978 85.671C271.413 88.0769 271.827 88.0069 272.151 88.0088C273.515 88.0168 276.682 88.2077 278.858 87.5423C279.158 87.3867 279.454 87.2335 279.677 86.9301C279.9 86.6268 280.042 86.1781 280.404 85.036" stroke="white" stroke-width="3" stroke-linecap="round"/>
<path d="M262.826 73.9312C263.57 73.92 264.314 73.9089 265.945 73.7059C267.576 73.5029 270.071 73.1084 272.642 72.7019" stroke="white" stroke-width="3" stroke-linecap="round"/>
<path d="M283.983 70.9084C284.775 75.9203 286.082 82.8336 286.399 85.1567C286.461 85.6111 286.031 85.8639 286.407 85.9142C286.783 85.9645 287.823 85.8001 288.276 85.1957C290.083 82.7871 287.833 80.9616 287.053 79.4188C286.266 77.8617 286.559 76.3164 286.669 75.6548C287.045 73.3944 289.501 71.1142 290.184 70.6833C290.556 70.4488 291.107 70.4275 291.512 70.5767C293.12 71.1692 293.558 72.9396 293.917 74.1761C294.316 75.5511 295.699 81.7002 294.98 84.6151C294.918 84.8644 296.395 84.1217 297.657 83.9222C298.285 83.8229 295.665 83.488 294.587 82.4751C293.319 81.2848 294.035 78.6893 294.044 77.0201C294.054 75.1193 294.34 73.7976 294.561 72.4695C294.616 72.1362 294.671 71.8079 294.847 71.5621C295.595 70.5169 297.108 70.2341 298.411 70.2929C299.889 70.3597 300.779 72.3337 301.807 74.0537C302.863 75.8221 302.592 77.6493 302.745 78.2693C303.092 79.6783 301.625 81.028 301.244 82.3813C301.045 83.0899 300.76 83.7511 300.806 84.388C300.829 84.7117 301.164 84.9756 301.764 85.0454C302.365 85.1151 303.3 84.9671 303.314 84.9649C303.328 84.9627 302.393 85.1106 301.938 85.0227C301.484 84.9347 301.538 84.6064 301.646 84.2649C301.912 83.5787 302.234 82.8787 302.433 82.0965C302.473 81.659 302.391 81.1392 302.887 80.1891" stroke="white" stroke-width="3" stroke-linecap="round"/>
<path d="M308.138 60.3079C309.611 59.4293 311.973 59.482 314.343 59.4332C314.785 59.4242 315.128 59.6288 315.38 60.1783C316.554 62.7436 315.583 64.5037 315.875 68.048C316.694 77.9715 318.505 80.2897 318.946 82.7014C319.166 83.9052 316.158 82.3979 314.087 82.5624C313.603 82.6009 313.274 82.5313 312.637 82.5771C312 82.6229 311.064 82.7709 312.765 82.5019C314.466 82.2329 318.832 81.5424 323.331 80.8311" stroke="white" stroke-width="3" stroke-linecap="round"/>
<path d="M329.246 63.1052C329.869 63.0065 333.572 64.1258 339.224 65.8685C344.223 67.41 346.753 67.0076 347.731 67.3891C349.322 68.0102 345.592 69.7743 343.117 71.7738C337.524 75.248 334.789 76.9655 331.948 78.7645C331.353 79.1298 330.97 79.4034 330.311 80.0502" stroke="white" stroke-width="3" stroke-linecap="round"/>
</g>
<g opacity="0.2">
<path d="M445.614 89.9294L445.708 89.9823L445.72 89.9857L446.211 90.183L446.339 90.5278C446.614 90.9411 446.7 91.4678 446.484 91.9547L446.445 92.0411L445.355 94.4782C445.317 94.5815 445.285 94.6906 445.245 94.8002L443.03 100.839C442.306 102.82 441.616 104.944 440.95 107.201L438.928 114.058C438.332 116.081 438.303 118.052 438.834 120.003L440.657 126.699C441.25 128.877 441.978 131.044 442.821 133.192L445.411 139.776C446.233 141.868 447.27 143.852 448.536 145.726L450.533 148.68L452.519 151.63C453.897 153.669 455.693 156.821 457.892 161.038L461.19 167.346L461.205 167.375C461.614 168.094 461.366 169.012 460.648 169.423C459.929 169.832 459.011 169.584 458.601 168.866L458.538 168.749L458.519 168.731L455.233 162.426C453.045 158.232 451.321 155.199 450.042 153.305L448.041 150.363L446.056 147.413C444.665 145.356 443.51 143.176 442.607 140.876L441.315 137.572L440.02 134.28C439.139 132.035 438.384 129.772 437.761 127.489L435.939 120.794C435.256 118.287 435.303 115.744 436.053 113.202L437.064 109.774L438.071 106.356C438.752 104.046 439.469 101.864 440.216 99.8186L441.313 96.7956L442.421 93.7759C442.788 92.771 443.072 92.0087 443.268 91.4977C443.364 91.2445 443.453 91.0314 443.513 90.8864C443.541 90.8198 443.569 90.7388 443.604 90.6688C443.618 90.6403 443.656 90.5636 443.709 90.4804C443.73 90.448 443.804 90.3326 443.924 90.2148C443.982 90.1581 444.125 90.0265 444.342 89.9248C444.573 89.8173 445.045 89.6781 445.573 89.9046L445.614 89.9294Z" fill="white"/>
<path d="M461.874 53.4634L465.235 54.5762C467.462 55.3115 469.714 56.0242 471.984 56.712L478.827 58.7783C481.135 59.4778 483.42 60.2474 485.684 61.0815L492.406 63.5518C494.628 64.3704 496.864 65.1592 499.113 65.9075L502.504 67.0416L505.91 68.1679C508.134 68.9078 510.397 69.5556 512.69 70.1174L519.687 71.8383C522.19 72.4515 524.283 73.7093 524.661 76.0823L525 78.2413L525.348 80.415C525.631 82.2039 525.282 84.3222 524.484 86.679L523.339 90.0668L522.197 93.4433C521.427 95.7193 520.603 97.9838 519.732 100.228L518.441 103.571L517.139 106.912C516.62 108.244 515.82 109.342 514.674 110.048C513.525 110.755 512.188 110.965 510.77 110.815L507.245 110.449L503.734 110.074C501.26 109.813 498.847 109.25 496.512 108.371L493.195 107.112L489.864 105.861C488.892 105.496 488.34 105.435 488.088 105.46L487.669 107.292L487.237 109.169C487.073 109.878 487.255 111.152 488.312 113.191L491.607 119.547C492.676 121.608 493.875 123.591 495.195 125.503L497.233 128.444L499.267 131.396C500.654 133.406 501.587 135.231 501.868 136.809L502.204 138.697L502.543 140.575C502.631 141.075 502.628 141.7 502.317 142.294C501.986 142.927 501.431 143.286 500.879 143.451C499.916 143.738 498.713 143.537 497.546 143.216L494.086 142.269L490.641 141.314C488.313 140.674 486.014 139.976 483.749 139.209L480.387 138.059L477.032 136.924C475.07 136.259 474.019 136.57 473.381 137.18L471.576 138.9L469.768 140.631C468.855 141.504 468.093 142.929 467.615 145.085L466.84 148.585L466.068 152.073C465.545 154.436 464.672 157.918 463.448 162.495L461.632 169.279L461.605 169.369C461.432 170.177 460.644 170.693 459.836 170.524C459.027 170.352 458.5 169.56 458.669 168.752L458.7 168.651L458.699 168.614L458.712 168.569L460.549 161.717C461.769 157.154 462.631 153.73 463.14 151.434L464.69 144.434C465.244 141.939 466.204 139.887 467.693 138.462L469.501 136.731L471.306 135.011C473.074 133.321 475.474 133.227 477.989 134.079L481.351 135.229L484.705 136.364C486.917 137.113 489.167 137.797 491.441 138.422L494.886 139.377L498.346 140.324C498.813 140.452 499.189 140.508 499.48 140.543L499.256 139.215L498.917 137.338C498.753 136.408 498.117 135.013 496.795 133.098L494.757 130.157L492.723 127.204C491.332 125.19 490.078 123.095 488.951 120.924L487.304 117.746L485.653 114.579C484.514 112.384 483.893 110.284 484.308 108.493L485.172 104.738C485.297 104.202 485.555 103.673 486.001 103.25C486.45 102.825 486.999 102.597 487.548 102.506C488.573 102.336 489.745 102.617 490.918 103.058L494.25 104.309L497.57 105.557C499.667 106.346 501.826 106.861 504.046 107.096L507.571 107.462L511.081 107.837C512.01 107.935 512.651 107.774 513.107 107.494C513.563 107.212 514.001 106.71 514.346 105.823L515.637 102.48L516.936 99.1506C517.792 96.9464 518.596 94.7221 519.352 92.4864L521.643 85.7109C522.371 83.5583 522.566 81.978 522.391 80.8812L521.69 76.5562C521.608 76.0423 521.143 75.2769 518.98 74.7465L515.478 73.8972L511.969 73.0334C509.596 72.4522 507.255 71.7788 504.953 71.0127L501.561 69.8786L498.167 68.7557C495.888 67.9971 493.612 67.1995 491.359 66.3695L488.01 65.1378L484.652 63.8914C482.443 63.0777 480.211 62.3326 477.96 61.6503L471.105 59.5805C468.814 58.8861 466.542 58.1558 464.293 57.4132L460.939 56.315L458.937 55.6492L459.283 56.0842L461.002 58.2559C462.142 59.7028 463.445 61.368 464.918 63.2455L467.127 66.0668L469.35 68.8803C470.894 70.8477 472.184 72.9608 473.23 75.2055L474.734 78.4139L476.227 81.619C477.268 83.852 478.08 86.1936 478.662 88.6342L479.497 92.1546L480.342 95.6784C480.502 96.3491 480.581 97.0216 480.521 97.6419C480.458 98.2738 480.232 98.9552 479.672 99.4789C479.11 100.004 478.413 100.187 477.776 100.204C477.152 100.22 476.489 100.082 475.832 99.8739L472.39 98.7857L468.959 97.7008C466.69 96.9802 464.413 96.3049 462.136 95.6895L455.232 93.8251C452.897 93.1938 450.839 92.5337 449.073 91.843L446.524 90.8406L443.96 89.846C443.699 89.7442 443.459 89.6615 443.244 89.5809L443.215 90.123L441.476 89.7203L441.383 89.7044C440.577 89.5191 440.066 88.7113 440.249 87.9054C440.266 87.8286 440.322 87.7621 440.35 87.6912L440.347 87.58L440.459 87.2098C440.74 86.2813 441.615 86.1494 441.752 86.1312C441.99 86.1004 442.201 86.1231 442.3 86.1378C442.529 86.1718 442.783 86.2456 443.017 86.3176C443.509 86.4684 444.2 86.7205 445.059 87.0564L447.612 88.0476L450.173 89.0535C451.813 89.6946 453.762 90.3188 456.021 90.9295L459.473 91.8617L462.914 92.7905C465.233 93.4175 467.549 94.1053 469.86 94.8391L473.302 95.9273L476.732 97.0121C477.079 97.1222 477.341 97.1454 477.519 97.1639C477.513 96.9835 477.503 96.7168 477.418 96.3623L476.581 92.8531L475.746 89.3327C475.21 87.0838 474.459 84.937 473.505 82.8903L472.012 79.6853L470.512 76.4657C469.564 74.4341 468.392 72.525 466.989 70.7382L464.77 67.9135L462.561 65.0922C461.089 63.2163 459.78 61.5588 458.642 60.1138L456.934 57.9455L455.218 55.7626C454.908 55.3688 454.593 54.9065 454.435 54.4244C454.353 54.1751 454.274 53.7991 454.36 53.3736C454.459 52.8897 454.747 52.4857 455.147 52.2279C455.499 52.0017 455.869 51.9321 456.124 51.9109C456.388 51.8896 456.649 51.9124 456.885 51.9448C457.364 52.0109 457.928 52.1571 458.524 52.3541L461.874 53.4634Z" fill="white"/>
</g>
<g opacity="0.2">
<path d="M898.855 134.923C898.744 134.899 898.633 134.875 894.854 133.306C891.074 131.737 883.629 128.624 864.1 123.171C844.572 117.718 813.186 110.02 794.852 105.877C776.518 101.734 772.189 101.38 769.368 101.244C766.548 101.108 765.368 101.202 761.606 101.091C757.844 100.981 751.535 100.663 747.093 100.649C737.013 100.615 733.544 102.651 730.514 104.165C727.078 105.882 722.389 111.46 720.525 116.759C719.496 119.687 722.467 123.445 726.773 128.643C728.88 131.187 733.097 134.599 738.171 138.287C743.245 141.975 749.304 145.601 760.639 150.516C771.973 155.431 788.4 161.526 806.351 166.364C824.303 171.203 843.282 174.601 860.627 176.477C877.972 178.353 893.108 178.603 903.669 178.284C914.23 177.966 919.756 177.071 923.352 176.365C928.485 175.358 930.93 174.059 932.652 172.853C934.123 171.822 934.876 170.459 935.301 169.033C935.791 167.39 935.471 165.552 934.798 163.539C933.862 160.74 931.089 157.702 927.718 154.113C925.834 152.236 923.596 150.246 919.161 147.237C914.726 144.228 908.16 140.261 901.396 136.174" stroke="white" stroke-width="3" stroke-linecap="round"/>
<path d="M758.351 107.818C757.714 114.122 757.078 120.425 756.669 124.053C756.172 128.451 755.934 130.53 755.978 132.694C756.138 134.677 756.423 136.052 756.611 137.228C756.628 137.489 756.652 137.712 756.677 137.941" stroke="white" stroke-width="3" stroke-linecap="round"/>
<path d="M760.085 109.946C760.114 109.808 763.311 110.423 768.323 111.576C771.377 112.279 772.294 113.308 773.866 114.814C774.849 115.755 774.749 117.197 774.469 118.159C774.101 119.425 772.512 120.149 770.132 121.206C764.656 123.639 763.226 124.217 762.175 124.504C760.997 124.826 760.227 124.89 759.849 124.772C758.477 124.345 763.751 124.773 766.052 125.087C768.898 125.476 772.095 126.715 774.596 127.984C776.375 128.886 777.706 130.553 779.119 132.462C780.354 134.13 780.552 135.702 780.566 136.654C780.578 137.443 780.281 137.986 779.99 138.324C779.379 139.034 778.066 139.48 776.808 139.868C775.019 140.421 772.371 139.791 769.752 139.59C763.149 139.084 761.96 137.545 760.232 136.408C759.585 136.011 759.138 135.695 758.822 135.299C758.684 135.086 758.59 134.849 758.375 134.14" stroke="white" stroke-width="3" stroke-linecap="round"/>
<path d="M787.831 132.032C787.314 134.126 787.016 135.652 787.003 136.695C786.973 139.095 787.632 140.079 788.27 141.069C788.482 141.399 789.084 141.543 789.879 141.649C791.004 141.8 791.732 140.97 793.184 139.927C794.765 138.791 795.191 137.85 795.648 137.031C796.321 135.825 796.82 134.564 796.801 134.652C796.421 136.413 796.154 137.954 796.164 138.511C796.195 140.109 796.288 141.125 796.431 141.831C796.537 142.352 796.726 142.894 796.87 143.743C796.897 144.078 796.937 144.35 797.033 144.583C797.095 144.68 797.181 144.731 797.364 144.803" stroke="white" stroke-width="3" stroke-linecap="round"/>
<path d="M809.926 131.686C809.327 133.094 809.177 134.692 808.968 136.275C808.882 136.932 808.809 137.926 808.655 139.396C808.352 142.28 808.889 142.864 809.128 143.505C809.535 144.598 810.943 144.882 811.941 145.179C813.863 145.75 814.918 145.739 816.015 145.813C817.45 146.089 818.427 146.202 818.468 146.015C818.458 145.914 818.385 145.801 818.216 145.664" stroke="white" stroke-width="3" stroke-linecap="round"/>
<path d="M803.123 134.053C803.918 134.127 804.713 134.201 805.96 134.42C807.206 134.638 808.88 135 809.984 135.27C812.223 135.917 812.741 136.094 813.297 136.312C813.65 136.422 814.146 136.529 814.792 136.471" stroke="white" stroke-width="3" stroke-linecap="round"/>
<path d="M826.545 135.762C826.518 135.886 826.491 136.01 826.212 137.38C825.933 138.749 825.402 141.359 825.103 142.974C824.563 145.893 824.802 146.721 825.201 147.676C825.43 148.222 825.937 148.443 826.811 148.78C828.878 149.576 829.582 149.166 830.528 149.107C831.524 149.046 832.277 148.829 832.766 148.689C832.939 148.645 833.176 148.598 833.355 148.538C833.533 148.478 833.646 148.405 833.991 148.182" stroke="white" stroke-width="3" stroke-linecap="round"/>
<path d="M820.374 137.479C822.385 137.783 824.041 138.073 825.116 138.321C825.853 138.491 826.342 138.668 826.791 138.781C827.273 138.902 828.567 139.246 830.264 139.58C831.466 139.675 831.881 139.732 832.125 139.735C832.269 139.75 832.455 139.79 832.647 139.831" stroke="white" stroke-width="3" stroke-linecap="round"/>
<path d="M847.846 141.832C847.797 141.757 846.366 141.771 844.084 141.95C842.868 142.045 842.395 142.653 841.937 143.109C840.699 144.343 840.283 145.604 840.074 146.493C839.87 147.36 840.733 148.357 841.391 148.958C842.006 149.52 842.819 149.922 843.831 150.321C844.333 150.519 844.844 150.72 845.403 150.857C845.964 150.994 847.328 151.322 849.274 151.628C850.699 151.852 851.553 151.677 852.175 151.518C853.1 151.28 854.098 150.657 854.865 149.988C855.734 149.228 855.991 147.368 856.056 146.538C856.096 146.027 855.574 145.664 854.575 144.696C853.24 143.402 852.262 143.408 850.651 142.684C849.311 142.082 848.036 141.578 847.332 141.345C847.085 141.275 846.713 141.195 846.472 141.159C846.23 141.123 846.131 141.134 845.914 141.219" stroke="white" stroke-width="3" stroke-linecap="round"/>
<path d="M863.923 145.91C863.68 147.665 863.323 151.433 863.254 152.287C863.229 152.605 863.185 153.138 863.093 153.666C863.021 154.085 863.759 152.584 864.206 151.996C864.646 151.418 865.072 150.724 865.795 150.013C867.158 148.675 868.339 148.688 869.007 148.559C869.188 148.523 869.407 148.598 869.569 148.701C870.831 149.502 871.195 152.581 871.539 153.64C871.698 154.703 871.742 155.349 871.813 156.073C871.824 156.236 871.797 156.366 871.768 156.499" stroke="white" stroke-width="3" stroke-linecap="round"/>
<path d="M901.248 163.196C903.965 161.072 905.689 159.731 907.008 158.972C909.563 157.503 911.612 156.81 912.086 156.616C913.084 156.21 914.165 155.538 914.693 155.011C914.939 154.766 915.286 154.591 915.469 154.38C915.542 154.295 915.384 154.156 915.235 154.1C914.544 153.839 913.595 153.995 912.064 153.803C910.648 153.625 909.839 153.641 908.334 153.749C907.358 153.819 906.805 153.945 906.225 154.094C906.088 154.129 905.955 154.082 906.022 154.074C907.172 153.937 908.671 153.94 909.477 153.907C910.762 153.855 912.057 153.893 912.961 153.724C913.615 153.603 914.138 153.567 914.422 153.514C914.556 153.489 914.679 153.59 914.813 153.71C916.1 154.86 916.284 158.626 916.561 159.993C916.816 161.253 916.766 162.114 916.815 162.63C916.932 163.873 917.268 160.002 917.362 157.986C917.427 157.152 917.49 156.436 917.496 155.776C917.485 155.613 917.47 155.474 917.483 155.2" stroke="white" stroke-width="3" stroke-linecap="round"/>
</g>
<g opacity="0.2">
<path d="M579.586 61.499C578.074 61.8405 576.562 62.182 575.099 62.7116C573.637 63.2413 572.271 63.9486 570.775 64.8985C569.279 65.8483 567.693 67.0192 566.791 67.7321C565.676 68.6134 565.396 69.0127 565.052 69.356C564.137 70.2704 564.065 71.1541 564.002 72.4462C563.981 72.8803 564.137 73.1277 564.309 73.3365C564.513 73.5844 564.826 73.7929 565.487 74.0871C565.97 74.3019 566.782 74.5764 568.173 74.898C569.563 75.2195 571.515 75.561 573.105 75.7979C574.696 76.0348 575.867 76.1568 576.738 76.2196C577.61 76.2825 578.146 76.2825 578.472 76.2946C578.797 76.3068 578.894 76.3312 578.995 76.3564" stroke="white" stroke-width="3" stroke-linecap="round"/>
<path d="M587.717 62.3862C589.278 60.7275 590.741 59.6779 591.848 59.37C592.294 59.246 592.517 59.2329 593.447 59.2081C594.377 59.1834 596.012 59.159 597.049 59.1708C598.477 59.1871 599.342 59.4768 600.142 59.8335C600.692 60.0788 601.069 60.4621 601.414 60.9289C601.753 61.3889 602.005 62.7698 602.411 64.4566C602.614 65.2982 602.844 65.7103 603.078 66.177C603.327 66.6746 603.387 67.6764 603.375 68.8336C603.364 69.9102 602.871 70.6383 602.637 71.0822C602.372 71.5822 601.64 71.9688 601.233 72.2408C600.992 72.4017 599.85 73.0495 598.224 73.887C597.073 74.4803 595.926 74.4347 594.773 74.2761C591.881 73.8785 591.636 73.2284 591.389 72.9575C590.965 72.4921 590.601 71.1897 590.55 69.4512C590.527 68.6702 591.09 68.2523 591.448 67.8575C591.896 67.3636 593.031 67.0947 594.555 66.652C596.146 66.1894 597.323 66.156 597.828 66.1926C598.418 66.2354 598.704 66.8434 599.147 67.6181C599.556 68.331 599.74 69.0853 599.899 69.7846C600.134 70.8128 600.625 71.9651 601.178 72.9981C601.978 74.4926 602.548 74.9743 602.967 75.8114C603.092 76.2811 603.14 76.6515 603.214 76.8233C603.239 76.922 603.239 77.044 603.239 77.1696" stroke="white" stroke-width="3" stroke-linecap="round"/>
<path d="M619.797 51.7419C619.772 51.8151 619.748 51.8883 619.76 53.4993C619.772 55.1103 619.821 58.257 620.102 60.8659C620.383 63.4748 620.895 65.4506 621.22 66.7978C621.702 68.7954 621.866 69.7016 622.001 70.205C622.166 70.8183 622.162 71.2797 622.174 71.4641C622.185 71.6279 622.407 70.6019 622.714 68.7558C622.839 68.0054 622.949 67.6415 623.292 65.8431C623.635 64.0447 624.22 60.8249 624.583 59.0442C624.998 57.0043 625.364 56.5732 625.695 56.2165C626.233 55.639 627.28 55.3166 627.975 55.2648C628.086 55.2566 628.148 55.4112 628.478 56.1932C628.809 56.9753 629.394 58.4388 629.757 59.3026C630.439 60.9268 630.981 61.8893 631.265 62.6052C631.476 63.2959 631.5 63.8377 631.537 64.8774C631.55 65.7219 631.55 67.2098 631.55 68.7429" stroke="white" stroke-width="3" stroke-linecap="round"/>
<path d="M640.937 54.0334C640.937 54.1066 640.937 54.1798 641.059 55.8274C641.181 57.475 641.425 60.6948 641.575 62.4755C641.725 64.2562 641.774 64.5001 641.799 64.9673C641.917 67.1607 641.972 68.0999 641.984 68.5182C641.989 68.693 642.021 68.7902 642.033 68.5112C642.046 68.2322 642.046 67.5736 642.131 66.2342C642.217 64.8948 642.387 62.8946 642.536 61.5349C642.685 60.1752 642.807 59.5166 642.955 58.9578C643.224 57.9452 643.548 57.3368 643.732 56.9805C643.922 56.6138 644.187 56.0817 644.581 55.5402C645.257 54.6102 646.698 53.9122 647.513 53.6524C647.711 53.5907 647.906 53.5175 648.055 53.4676C648.205 53.4177 648.302 53.3933 648.403 53.516" stroke="white" stroke-width="3" stroke-linecap="round"/>
<path d="M650.177 57.3598C651.226 57.6037 652.275 57.8476 653.376 57.9733C654.477 58.0989 655.599 58.0989 657.007 57.8916C658.414 57.6843 660.073 57.2696 661.464 56.7876C662.855 56.3057 663.928 55.7691 664.554 55.4194C665.692 54.7841 666.116 54.1843 666.352 53.5678C666.608 52.8968 666.267 52.2624 665.825 51.4741C665.414 50.7425 664.839 50.6348 663.882 50.2164C663.433 50.0205 662.684 49.8734 661.929 49.7729C661.173 49.6724 660.417 49.6724 659.772 49.7334C658.605 49.8436 657.671 50.1883 656.982 50.4467C656.262 50.7166 655.357 51.3193 654.553 51.9372C654.252 52.1682 653.704 52.6498 652.796 53.6924C652.248 54.3205 651.643 55.2472 651.134 56.0536C650.211 57.5141 649.808 58.4419 649.673 58.8961C649.356 59.9598 649.609 60.7319 649.978 61.5819C650.197 62.0862 650.74 62.7757 651.501 63.7462C652.355 64.8345 653.278 65.6355 653.966 66.14C654.514 66.5411 655.029 66.7214 655.568 67.0159C655.906 67.2005 656.401 67.4081 657.42 67.7163C658.44 68.0245 659.977 68.4148 661.134 68.6403C663.024 68.9145 663.9 68.916 664.121 68.8055C664.22 68.7437 664.294 68.6706 664.369 68.5952" stroke="white" stroke-width="3" stroke-linecap="round"/>
<path d="M669.691 49.2289C669.715 49.2289 669.74 49.2289 670.46 49.241C671.18 49.2532 672.594 49.2776 673.872 49.1804C675.15 49.0832 676.247 48.8637 676.947 48.7506C677.909 48.5951 678.387 48.6131 678.877 48.5762C679.563 48.5636 680.307 48.6124 680.91 48.7107C681.171 48.7602 681.342 48.809 681.444 48.9332" stroke="white" stroke-width="3" stroke-linecap="round"/>
<path d="M679.67 39.1023C677.626 39.4963 677.134 39.5458 676.396 39.9013C676.069 40.0585 675.779 40.455 675.349 41.1539C675.081 41.5899 674.846 42.2674 674.537 43.4605C674.228 44.6535 673.887 46.361 673.637 48.6432C673.388 50.9253 673.242 53.7305 673.252 55.9927C673.262 58.255 673.433 59.8893 673.643 61.1947C673.853 62.5 674.096 63.427 674.454 64.4899C674.811 65.5528 675.275 66.7237 675.513 67.6561C675.752 68.5886 675.752 69.2472 675.752 69.9257" stroke="white" stroke-width="3" stroke-linecap="round"/>
<path d="M686.914 51.6682C686.962 51.6682 687.011 51.6682 687.963 51.412C688.915 51.1559 690.769 50.6437 691.797 50.3676C692.968 50.0532 693.415 49.9444 694.42 49.7112C695.132 49.5756 696.254 49.4048 697.21 49.3169C698.166 49.2289 698.922 49.2289 699.775 49.3028" stroke="white" stroke-width="3" stroke-linecap="round"/>
<path d="M688.097 59.6511C688.926 59.4072 689.755 59.1633 690.866 58.8791C691.976 58.5949 693.342 58.2778 694.204 58.1022C695.066 57.9266 695.383 57.9023 696.169 57.7677C696.954 57.6332 698.198 57.3893 698.985 57.2148C699.773 57.0404 700.065 56.9428 700.515 56.8423" stroke="white" stroke-width="3" stroke-linecap="round"/>
<path d="M708.719 37.55C708.622 39.6478 708.498 41.3627 708.388 42.7871C708.35 44.5042 708.374 45.5324 708.423 45.6798C708.448 45.7541 708.473 45.8273 708.645 45.9027" stroke="white" stroke-width="3" stroke-linecap="round"/>
<path d="M715.963 35.7759C715.524 37.5322 715.274 38.6808 715.041 39.8554C714.857 40.7908 714.443 42.3959 714.242 43.2862C714.041 44.2985 713.993 44.5705 713.919 44.8655C713.894 45.014 713.894 45.1604 713.894 45.3112" stroke="white" stroke-width="3" stroke-linecap="round"/>
<path d="M731.339 43.0938C729.68 42.0693 728.606 41.4928 728.017 41.4189C726.425 41.219 725.675 41.5652 724.984 41.7012C724.276 41.8406 723.459 42.3517 723.036 42.8085C722.738 43.1303 722.764 43.8049 722.825 44.4199C722.875 44.9205 723.744 45.5774 724.765 46.3532C725.328 46.7803 725.915 46.9848 726.627 47.3659C727.928 48.0617 728.503 48.3892 729.695 49.3354C730.443 49.9299 730.918 50.5572 731.238 50.9508C731.854 51.7098 732.471 52.5774 732.73 53.0216C733.018 53.5171 732.965 54.3484 732.879 54.9191C732.816 55.3404 732.572 55.6583 732.325 56.0522C732.132 56.3611 731.662 56.6436 731.17 56.9389C730.792 57.1659 729.965 57.5779 728.858 58.1932C727.692 58.8413 726.932 58.7391 726.082 58.7399C724.543 58.4945 723.26 58.2468 722.693 58.1855C722.496 58.1729 722.228 58.1729 721.951 58.1729" stroke="white" stroke-width="3" stroke-linecap="round"/>
<path d="M739.764 48.3418C739.764 48.3662 739.764 48.3906 740.545 48.5007C741.325 48.6109 742.886 48.806 744.142 48.8211C745.397 48.8363 746.3 48.6656 747.375 48.3825C748.449 48.0993 749.669 47.7091 750.529 47.3982C751.87 46.9136 752.55 46.4953 752.968 46.2004C753.808 45.6075 754.25 44.6489 754.461 44.0568C754.685 43.4246 754.45 42.3604 754.24 41.6911C754.04 41.0522 753.05 40.338 752.332 39.9042C752.035 39.7243 751.399 39.4488 750.391 39.1291C749.876 38.9656 749.335 38.8582 748.51 38.8076C747.684 38.757 746.587 38.7814 745.887 38.8427C745.187 38.9041 744.919 39.0016 744.561 39.186C744.204 39.3705 743.765 39.6388 742.611 40.6673C741.458 41.6959 739.605 43.4766 738.576 44.4915C737.376 45.6761 737.202 46.0977 737.092 46.4909C736.979 46.8911 736.906 47.5243 736.992 48.3115C737.058 48.9209 737.763 49.8135 738.869 51.1041C739.433 51.7624 740.12 52.3215 740.862 52.8792C741.604 53.4369 742.409 53.9492 743.531 54.5057C744.653 55.0623 746.068 55.6478 747.114 55.9981C748.16 56.3485 748.794 56.4461 749.499 56.4963C750.957 56.6003 751.983 56.4978 752.413 56.3995C753.034 56.2578 753.609 55.9567 754.311 55.4153C754.449 55.2907 754.497 55.2176 754.547 55.1067C754.596 54.9958 754.645 54.8495 754.695 54.6987" stroke="white" stroke-width="3" stroke-linecap="round"/>
<path d="M761.127 39.5456C761.127 39.57 761.127 39.5944 760.968 41.1193C760.809 42.6442 760.492 45.6689 760.329 47.9101C760.166 50.1513 760.166 51.5173 760.141 52.2575C760.117 52.9978 760.068 53.071 760.043 53.0477C760.018 53.0244 760.018 52.9025 760.262 51.7786C760.506 50.6546 760.994 48.5325 761.452 46.8416C761.911 45.1508 762.326 43.9555 762.661 43.0837C762.997 42.2118 763.241 41.6996 763.549 41.2162C764.164 40.2529 765.113 39.4022 766.121 38.615C767.009 37.9212 767.753 37.6984 768.158 37.5754C769.14 37.2771 770.264 37.5247 770.796 37.7092C771.371 37.9089 771.573 38.9994 771.83 40.2741C772.003 41.1315 772.21 42.4269 772.396 43.3368C772.684 44.7445 772.928 45.5544 773.087 46.2788C773.289 47.1951 773.569 47.8717 773.63 48.2527C773.766 49.2487 773.669 50.7751 773.545 51.5672C773.52 51.7161 773.496 51.8381 773.471 52.1116" stroke="white" stroke-width="3" stroke-linecap="round"/>
<path d="M779.679 35.6282C779.679 37.2869 779.679 38.9456 779.679 40.4952C779.679 42.0449 779.679 43.4353 779.691 44.2491C779.713 45.6585 779.901 46.5871 780.024 47.6852C780.102 48.3895 780.245 48.8327 780.283 49.8288C780.319 50.1145 780.369 50.263 780.418 50.4105C780.443 50.4848 780.467 50.558 780.566 50.4855" stroke="white" stroke-width="3" stroke-linecap="round"/>
<path d="M779.606 28.68C779.655 28.4604 779.704 28.2409 779.729 28.079C779.754 27.9171 779.754 27.8196 779.606 27.793" stroke="white" stroke-width="3" stroke-linecap="round"/>
<path d="M787.515 37.2544C787.808 38.5228 788.101 39.7912 788.52 41.1642C788.939 42.5372 789.475 43.9764 789.849 44.9251C790.736 47.1739 791.382 48.0455 791.567 48.1686C791.65 48.2242 791.727 48.2429 791.801 48.231C792.176 48.1713 792.589 47.826 793.142 47.5303C794.368 46.8758 795.176 46.0032 795.85 45.2197C796.344 44.6446 797.084 43.6556 797.523 43.0676C797.961 42.4796 798.059 42.3088 798.426 41.7452C798.793 41.1816 799.428 40.2303 799.828 39.5572C800.427 38.5482 800.573 37.7267 800.647 36.8667C800.685 36.4222 800.672 35.9578 800.709 35.8411C800.759 35.6808 800.992 36.3903 801.164 36.7587C801.348 37.1529 801.533 38.1584 801.877 39.426C802.086 40.193 802.347 40.8962 802.629 41.8302C803.109 43.417 803.602 43.8552 803.924 44.2136C804.233 44.5595 804.466 44.8663 804.859 45.2729C805.012 45.4308 805.205 45.4592 805.389 45.447C805.553 45.4361 806.259 44.7022 807.293 43.6064C807.818 43.0504 808.454 42.3849 809.241 41.3885C809.787 40.6979 810.083 40.1393 810.524 39.2945C810.84 38.6905 811.161 37.6446 811.374 36.9339C811.845 35.3628 811.834 34.7929 811.957 34.2995C811.982 34.0537 812.03 33.7817 812.117 33.5112C812.154 33.387 812.178 33.2894 812.203 33.115" stroke="white" stroke-width="3" stroke-linecap="round"/>
<path d="M819.521 32.3757C819.619 32.3269 820.742 31.9603 822.441 31.4307C823.624 31.0621 824.593 31.2906 825.088 31.488C825.632 31.7052 826.219 32.0047 826.763 32.2885C827.257 32.5463 827.699 32.9405 828.143 33.286C828.587 33.6316 828.833 34.1231 829.117 34.5914C829.417 35.0864 829.671 35.699 830.421 37.1992C830.765 37.8889 830.953 38.3364 831.162 38.7311C831.385 39.1516 831.397 39.9116 831.47 41.0148C831.593 42.8459 831.447 44.0783 831.361 44.2871C831.185 44.713 830.955 45.1117 830.622 45.642C830.325 46.1167 828.944 47.1518 828.036 47.6145C827.645 47.8132 826.698 47.8244 825.217 47.5424C824.258 47.3597 822.952 46.3505 822.331 45.7688C822.122 45.5725 821.741 44.9956 821.225 44.1226C820.798 43.4021 820.606 42.6539 820.458 41.7702C820.132 39.8203 820.679 39.3506 820.912 38.9558C821.027 38.7616 821.122 38.5855 821.269 38.4259C821.804 37.8448 822.943 38.1901 823.989 38.6321C824.377 38.7963 824.864 39.1739 825.845 39.7504C826.441 40.1003 827.217 40.5953 828.632 41.6516C830.046 42.7079 832.071 44.3178 833.309 45.3179C834.547 46.318 834.937 46.6595 835.163 46.872C835.388 47.0845 835.437 47.1577 835.487 47.3809" stroke="white" stroke-width="3" stroke-linecap="round"/>
<path d="M837.112 30.3061C837.088 30.3061 837.064 30.3061 837.234 31.355C837.404 32.4039 837.77 34.5016 838.069 35.8506C838.491 37.7599 838.935 38.5087 839.205 38.9267C839.47 39.3364 839.992 39.8865 840.668 40.7465C841.926 42.3493 842.359 42.5749 842.582 42.8709C842.688 43.0126 842.828 43.1913 843.061 43.3392C843.323 43.5054 843.787 43.1943 844.23 42.8254C844.592 42.5241 845.165 41.696 846.184 39.9785C846.8 38.9403 847.471 37.4805 848.043 36.1537C848.615 34.8269 849.029 33.656 849.304 32.5772C849.814 30.5726 849.875 29.4206 849.949 29.1256C849.998 28.5336 850.072 28.1632 850.134 28.0036C850.171 27.9171 850.219 27.8195 850.27 27.719" stroke="white" stroke-width="3" stroke-linecap="round"/>
<path d="M858.771 32.5975C859.99 33.0854 860.887 33.4099 861.525 33.5451C862.348 33.7194 863.519 33.7063 864.664 33.6819C865.349 33.6673 865.815 33.534 866.465 33.3751C867.474 33.1285 868.181 32.6478 868.586 32.3536C869.61 31.6097 869.88 30.8767 870.264 30.3079C870.409 30.0918 870.376 29.717 870.327 29.3234C870.253 28.7303 869.688 28.3621 869.219 28.0036C868.796 27.6802 868.235 27.3021 866.747 26.6128C866.183 26.3513 865.258 26.1926 863.906 26.0078C862.613 25.8311 861.778 25.9694 861.422 26.0307C860.477 26.1934 859.415 26.7315 858.797 27.1262C858.296 27.4461 857.91 27.9629 857.282 29.1186C857.015 29.6097 856.899 30.6431 856.751 32.1673C856.613 33.5881 856.774 34.6635 856.922 35.3033C857.101 36.0822 857.61 36.83 858.545 38.0999C858.872 38.5436 859.408 38.9026 860.096 39.3698C860.762 39.8221 861.477 40.1356 862.08 40.4061C862.996 40.8173 863.819 41.1712 864.799 41.3064C865.534 41.3685 866.754 41.4173 867.821 41.3693C868.888 41.3212 869.767 41.1749 870.671 41.0241" stroke="white" stroke-width="3" stroke-linecap="round"/>
<path d="M880.133 39.7675C880.133 39.8651 880.377 40.1349 880.783 40.3821C880.924 40.4677 881.018 40.2391 881.056 40.1023C881.094 39.9656 881.094 39.868 881.045 39.769C880.996 39.6699 880.899 39.5723 880.812 39.5465C880.725 39.5206 880.652 39.5694 880.576 39.6196" stroke="white" stroke-width="3" stroke-linecap="round"/>
<path d="M899.425 23.3579C898.01 22.8701 896.595 22.3822 895.452 22.1187C894.308 21.8552 893.479 21.8308 892.918 21.8548C892.083 21.8905 891.104 22.3689 889.801 23.0571C888.683 23.6469 887.898 24.5118 887.148 25.506C886.73 26.0609 886.374 26.8172 886.112 27.4991C885.629 28.757 885.578 29.785 885.578 30.5223C885.577 31.266 885.848 31.8074 886.032 32.1515C886.211 32.4859 886.56 33.013 887.345 33.8353C887.821 34.3331 888.521 34.926 889.263 35.5328C890.005 36.1397 890.785 36.7251 891.322 37.0999C892.107 37.649 892.866 37.8937 893.788 38.1029C894.673 38.3038 895.601 38.2648 896.438 38.2034C897.083 38.1561 897.965 37.8479 898.962 37.4787C899.858 37.1471 900.872 36.6172 901.861 36.2328C902.133 36.1219 902.331 36.0717 902.54 36.0473C902.651 36.0229 902.773 35.9741 903.047 35.776" stroke="white" stroke-width="3" stroke-linecap="round"/>
<path d="M918.422 19.8099C918.397 19.7856 918.373 19.7612 917.714 19.6022C917.055 19.4433 915.762 19.1506 914.755 18.9876C913.076 18.716 912.092 18.7995 911.588 18.8609C910.764 18.9611 910.195 19.4138 909.713 19.7349C909.501 19.877 909.038 20.3237 908.459 20.9268C908.165 21.2335 907.854 21.8013 907.362 22.5641C907.038 23.0665 906.818 23.5036 906.474 24.2265C905.891 25.4526 905.733 26.6074 905.659 27.3436C905.556 28.3677 905.683 29.244 905.854 29.9432C906.108 30.9775 906.641 31.9774 907.304 32.8985C908.133 34.0504 909.031 34.8129 909.572 35.2431C910.043 35.6172 910.924 36.2646 912.155 36.9539C912.965 37.408 913.809 37.5981 914.902 37.7951C916.197 38.0286 917.236 37.8709 917.826 37.7482C918.427 37.6231 918.986 37.3542 919.673 36.9986C920.098 36.7783 920.652 36.4236 921.368 35.8696C922.084 35.3155 922.938 34.5594 923.622 33.9137C924.305 33.268 924.793 32.7558 925.276 32.126C925.759 31.4962 926.223 30.7645 926.523 30.2167C926.995 29.3534 927.094 28.4146 927.119 27.4304C927.136 26.7387 926.948 26.1942 926.653 25.6413C926.325 25.0253 925.498 24.2989 924.539 23.4992C924.124 23.1532 923.823 22.9677 923.295 22.6842C922.766 22.4007 922.01 22.0349 920.925 21.6512C919.84 21.2676 918.45 20.8773 917.233 20.6153C916.017 20.3532 915.017 20.2313 913.987 20.1056" stroke="white" stroke-width="3" stroke-linecap="round"/>
<path d="M931.062 17.9621C931.086 20.0598 931.11 22.1576 931.318 24.0066C931.526 25.8557 931.916 27.3924 932.154 28.2572C932.533 29.6388 932.859 30.352 933.118 30.81C933.17 30.9029 933.229 30.97 933.266 30.9467C933.303 30.9234 933.328 30.8015 933.401 29.1775C933.475 27.5535 933.597 24.4313 933.721 22.5789C933.845 20.7266 933.966 20.2387 934.127 19.7435C934.449 18.7489 934.781 18.1602 934.953 17.9757C935.091 17.828 935.273 17.6915 935.544 17.6298C936.079 17.5077 936.604 18.2562 937.228 19.0634C937.727 19.7085 938.511 20.8951 939.206 22.0349C939.901 23.1747 940.462 24.248 940.837 25.1424C941.211 26.0368 941.382 26.7198 941.506 27.3155C941.867 29.0405 941.927 29.7844 941.952 30.352C941.956 30.4509 942.148 29.9625 942.576 28.2532C942.971 26.6753 943.565 23.6167 944.014 21.7411C944.463 19.8654 944.707 19.2556 944.918 18.8073C945.263 18.0726 945.89 17.3508 946.75 16.4656C948.123 15.0527 949.068 14.9329 949.625 14.8819C949.869 14.8597 950.082 15.0785 950.352 15.3724C950.838 15.9021 951.263 16.8969 951.767 18.43C952.081 19.3858 952.295 20.768 952.458 21.7522C952.712 23.2909 952.792 24.0462 952.916 24.4025C953.112 25.2525 953.408 25.9924 953.581 26.9012C953.606 27.2704 953.606 27.7827 953.754 28.3105" stroke="white" stroke-width="3" stroke-linecap="round"/>
<path d="M957.894 7.53979C958.238 10.223 958.338 11.0597 958.399 11.6647C958.436 12.1707 958.485 13.638 958.596 14.4625C958.657 14.5124 958.754 14.5368 959.077 14.5619" stroke="white" stroke-width="3" stroke-linecap="round"/>
<path d="M964.621 5.396C964.867 7.48933 964.916 8.1265 964.99 8.68346C965.015 8.8191 965.039 8.98985 965.125 9.17538C965.21 9.36091 965.357 9.55605 965.655 9.90494" stroke="white" stroke-width="3" stroke-linecap="round"/>
</g>
</g>
<defs>
<clipPath id="clip0_12_1134">
<rect width="968" height="480" fill="white"/>
</clipPath>
</defs>
</svg>
