<svg width="1041" height="471" viewBox="0 0 1041 471" fill="none" xmlns="http://www.w3.org/2000/svg">
<g opacity="0.25">
<path d="M220.959 316.923C220.848 316.899 220.737 316.875 216.958 315.306C213.178 313.737 205.733 310.624 186.204 305.171C166.676 299.718 135.29 292.02 116.956 287.877C98.6223 283.734 94.2925 283.38 91.4722 283.244C88.6518 283.108 87.4721 283.202 83.7099 283.091C79.9477 282.981 73.6387 282.663 69.1969 282.649C59.1168 282.615 55.6483 284.651 52.6178 286.165C49.1816 287.882 44.4927 293.46 42.6293 298.759C41.6 301.687 44.5709 305.445 48.8766 310.643C50.9844 313.187 55.2007 316.599 60.275 320.287C65.3492 323.975 71.4083 327.601 82.7428 332.516C94.0773 337.431 110.504 343.526 128.455 348.364C146.407 353.203 165.386 356.601 182.731 358.477C200.076 360.353 215.212 360.603 225.773 360.284C236.334 359.966 241.86 359.071 245.456 358.365C250.589 357.358 253.034 356.059 254.756 354.853C256.227 353.822 256.98 352.459 257.405 351.033C257.895 349.39 257.575 347.552 256.902 345.539C255.966 342.74 253.193 339.702 249.822 336.113C247.938 334.236 245.7 332.246 241.265 329.237C236.83 326.228 230.264 322.261 223.5 318.174" stroke="#5F00FF" stroke-width="3" stroke-linecap="round"/>
<path d="M80.4541 289.817C79.818 296.121 79.1819 302.425 78.7722 306.053C78.2754 310.451 78.0374 312.53 78.0815 314.694C78.2415 316.677 78.526 318.052 78.7144 319.228C78.7314 319.489 78.7558 319.711 78.781 319.94" stroke="#5F00FF" stroke-width="3" stroke-linecap="round"/>
<path d="M82.1895 291.946C82.2194 291.808 85.4158 292.423 90.4282 293.577C93.482 294.279 94.3992 295.308 95.9714 296.814C96.9539 297.755 96.8542 299.198 96.5744 300.159C96.2061 301.425 94.6165 302.149 92.2371 303.206C86.7609 305.639 85.3308 306.217 84.2797 306.504C83.1017 306.827 82.3324 306.89 81.9542 306.772C80.5822 306.345 85.8556 306.773 88.1574 307.087C91.0028 307.476 94.2002 308.716 96.7008 309.984C98.4796 310.887 99.8113 312.553 101.224 314.462C102.459 316.13 102.657 317.702 102.671 318.654C102.683 319.443 102.386 319.986 102.094 320.325C101.484 321.034 100.171 321.48 98.9126 321.869C97.1238 322.421 94.4763 321.791 91.8572 321.59C85.2541 321.084 84.0654 319.545 82.3369 318.408C81.6901 318.011 81.2429 317.695 80.927 317.299C80.7887 317.086 80.6951 316.849 80.4796 316.14" stroke="#5F00FF" stroke-width="3" stroke-linecap="round"/>
<path d="M109.934 314.032C109.417 316.126 109.12 317.652 109.107 318.695C109.077 321.095 109.736 322.079 110.373 323.069C110.586 323.399 111.187 323.543 111.982 323.649C113.108 323.8 113.836 322.97 115.287 321.927C116.869 320.791 117.294 319.85 117.751 319.031C118.424 317.825 118.923 316.564 118.905 316.652C118.525 318.413 118.257 319.954 118.268 320.511C118.298 322.109 118.391 323.125 118.535 323.831C118.64 324.352 118.829 324.894 118.974 325.743C119.001 326.078 119.04 326.35 119.137 326.583C119.198 326.68 119.284 326.731 119.467 326.803" stroke="#5F00FF" stroke-width="3" stroke-linecap="round"/>
<path d="M132.029 313.686C131.431 315.094 131.281 316.692 131.072 318.275C130.985 318.931 130.912 319.926 130.758 321.396C130.455 324.28 130.992 324.864 131.231 325.505C131.639 326.598 133.046 326.882 134.045 327.179C135.966 327.75 137.022 327.739 138.118 327.813C139.553 328.089 140.531 328.202 140.572 328.015C140.561 327.914 140.488 327.801 140.319 327.664" stroke="#5F00FF" stroke-width="3" stroke-linecap="round"/>
<path d="M125.227 316.053C126.022 316.127 126.817 316.201 128.064 316.42C129.311 316.638 130.984 317 132.088 317.27C134.327 317.917 134.845 318.094 135.401 318.312C135.754 318.422 136.25 318.529 136.896 318.471" stroke="#5F00FF" stroke-width="3" stroke-linecap="round"/>
<path d="M148.649 317.762C148.623 317.886 148.596 318.01 148.317 319.38C148.038 320.749 147.507 323.359 147.208 324.974C146.667 327.893 146.907 328.721 147.306 329.676C147.534 330.222 148.042 330.443 148.916 330.78C150.982 331.576 151.686 331.166 152.632 331.107C153.629 331.046 154.381 330.829 154.87 330.689C155.044 330.645 155.281 330.598 155.459 330.538C155.638 330.478 155.751 330.405 156.096 330.182" stroke="#5F00FF" stroke-width="3" stroke-linecap="round"/>
<path d="M142.479 319.479C144.49 319.783 146.146 320.073 147.221 320.321C147.958 320.492 148.447 320.668 148.896 320.781C149.378 320.902 150.672 321.246 152.369 321.58C153.571 321.675 153.986 321.732 154.23 321.735C154.374 321.75 154.56 321.79 154.752 321.831" stroke="#5F00FF" stroke-width="3" stroke-linecap="round"/>
<path d="M169.95 323.832C169.901 323.757 168.469 323.771 166.188 323.949C164.972 324.044 164.498 324.653 164.041 325.109C162.802 326.343 162.386 327.603 162.177 328.493C161.973 329.36 162.836 330.357 163.494 330.958C164.11 331.52 164.923 331.922 165.935 332.321C166.437 332.519 166.948 332.72 167.507 332.857C168.067 332.994 169.431 333.322 171.377 333.628C172.803 333.852 173.656 333.677 174.278 333.517C175.204 333.28 176.201 332.657 176.968 331.988C177.838 331.228 178.094 329.368 178.16 328.537C178.2 328.027 177.678 327.664 176.678 326.696C175.343 325.402 174.366 325.408 172.755 324.684C171.414 324.082 170.14 323.578 169.435 323.345C169.189 323.275 168.817 323.194 168.575 323.159C168.334 323.123 168.234 323.134 168.017 323.219" stroke="#5F00FF" stroke-width="3" stroke-linecap="round"/>
<path d="M186.026 327.909C185.783 329.665 185.426 333.433 185.358 334.287C185.332 334.605 185.288 335.137 185.197 335.666C185.125 336.085 185.862 334.584 186.309 333.996C186.749 333.417 187.175 332.723 187.899 332.013C189.262 330.674 190.442 330.688 191.11 330.558C191.291 330.523 191.51 330.598 191.672 330.7C192.935 331.501 193.298 334.581 193.642 335.64C193.801 336.703 193.846 337.349 193.917 338.072C193.928 338.236 193.9 338.365 193.871 338.499" stroke="#5F00FF" stroke-width="3" stroke-linecap="round"/>
<path d="M223.351 345.196C226.068 343.072 227.792 341.732 229.111 340.972C231.666 339.503 233.715 338.81 234.189 338.616C235.187 338.21 236.268 337.539 236.796 337.011C237.042 336.766 237.389 336.591 237.572 336.38C237.645 336.295 237.487 336.156 237.338 336.1C236.647 335.839 235.698 335.995 234.167 335.803C232.751 335.625 231.942 335.642 230.437 335.75C229.461 335.819 228.908 335.946 228.328 336.094C228.191 336.129 228.058 336.082 228.125 336.074C229.275 335.937 230.774 335.94 231.58 335.907C232.865 335.855 234.16 335.893 235.064 335.725C235.718 335.603 236.241 335.567 236.525 335.514C236.659 335.489 236.782 335.591 236.916 335.711C238.203 336.861 238.387 340.626 238.664 341.993C238.919 343.254 238.869 344.114 238.918 344.63C239.035 345.873 239.371 342.002 239.465 339.986C239.53 339.152 239.593 338.436 239.599 337.776C239.588 337.613 239.573 337.474 239.586 337.2" stroke="#5F00FF" stroke-width="3" stroke-linecap="round"/>
</g>
<g opacity="0.25">
<path d="M655.263 400.555C651.487 403.196 650.154 404.262 648.954 405.209C647.802 406.118 647.446 407.597 647.254 410.471C647.187 411.486 647.503 412.734 648.518 413.765C652.973 418.288 657.06 416.738 658.479 416.835C658.812 416.891 659.14 416.945 659.145 416.946C659.15 416.947 658.822 416.892 658.484 416.836" stroke="#5F00FF" stroke-width="3" stroke-linecap="round"/>
<path d="M664.629 396.489C664.937 401.129 665.654 407.054 666.586 412.609C666.996 415.055 667.402 416.064 667.579 416.845C667.898 418.255 667.429 412.844 667.38 411.505C667.319 409.836 667.711 407.852 668.208 406.208C668.764 404.368 671.026 403.66 672.749 402.956C673.559 402.626 674.589 402.341 675.663 402.331C677.217 402.317 677.489 404.995 678.074 406.306C678.641 407.576 678.973 409.601 679.118 411.194C679.159 411.643 678.825 411.364 678.712 411.005C678.598 410.645 678.637 410.212 678.727 409.765C678.818 409.318 678.96 408.87 679.107 408.407" stroke="#5F00FF" stroke-width="3" stroke-linecap="round"/>
<path d="M688.057 391.494C689.231 399.591 690.075 406.293 691.316 410.078C691.85 411.707 692.879 412.469 693.458 413.076C693.935 413.578 695.491 412.711 697.178 411.477C697.963 410.599 698.181 409.916 698.231 409.211C698.226 408.833 698.16 408.418 698.093 407.989" stroke="#5F00FF" stroke-width="3" stroke-linecap="round"/>
<path d="M682.886 401.676C683.094 401.643 686.834 399.666 693.041 396.426C695.616 395.145 697.022 394.603 697.894 394.248C698.766 393.892 699.061 393.738 699.996 393.481" stroke="#5F00FF" stroke-width="3" stroke-linecap="round"/>
<path d="M705.767 393.214C706.655 398.828 707.342 403.175 707.762 405.156C708.076 406.637 708.824 399.641 709.246 397.191C709.551 395.416 709.885 394.074 710.09 393.343C710.183 393.013 710.553 392.89 710.79 393.011C712.228 393.743 712.823 395.644 714.171 397.045C715.717 398.651 717.103 399.597 717.972 400.643C718.443 401.209 718.982 403.269 719.372 405.738C719.482 406.432 719.566 402.882 719.751 400.323C719.978 397.173 719.44 394.61 719.399 392.307C719.386 391.582 719.799 390.795 720.033 390.214C720.267 389.633 720.426 389.288 720.697 390.306C722.367 396.584 722.713 398.278 723.873 400.191C724.521 401.547 725.136 402.738 725.811 403.924C725.915 404.232 725.964 404.544 726.015 404.866" stroke="#5F00FF" stroke-width="3" stroke-linecap="round"/>
<path d="M733.952 383.591C734.455 385.429 734.901 386.88 735.734 391.125C736.465 394.851 737.482 401.832 738.205 405.395C738.929 408.959 739.24 408.909 739.593 408.747C740.328 408.311 741.018 407.876 741.665 407.559C742.017 407.395 742.416 407.225 743.458 406.951" stroke="#5F00FF" stroke-width="3" stroke-linecap="round"/>
<path d="M773.229 376.734C773.918 377.052 775.105 377.083 776.502 377.076C777.081 377.072 777.341 377.582 777.559 377.927C779.124 380.409 779.324 385.341 779.79 387.26C780.779 391.328 781.312 397.197 780.664 397.514C779.926 397.875 778.774 398.137 777.887 398.331C778.918 398.437 780.416 398.414 783.901 398.026C784.655 397.96 784.983 398.014 785.636 398.021" stroke="#5F00FF" stroke-width="3" stroke-linecap="round"/>
<path d="M796.312 381.802C799.227 379.187 801.636 379.449 803.48 379.537C804.736 379.597 806.087 380.36 807.321 381.024C809.118 381.991 809.378 384.14 810.17 388.098C810.34 388.946 810.198 389.287 810.031 389.585C809.015 391.389 806.799 392.95 805.602 393.892C804.254 394.951 802.828 395.728 801.229 396.522C800.446 396.911 799.285 397.154 798.01 397.249C797.103 397.317 796.402 396.644 795.822 396.039C794.738 394.907 794.824 392.813 794.69 390.951C794.638 390.234 795.015 389.976 795.306 389.767C796.636 388.813 798.646 388.434 800.127 387.927C800.485 387.804 800.784 387.663 801.109 387.663C802.524 387.665 803.876 389.531 804.886 390.774C805.951 392.084 807.009 393.666 807.527 394.877C807.681 395.177 807.938 395.456 808.148 395.748C808.357 396.039 808.51 396.335 808.983 396.589" stroke="#5F00FF" stroke-width="3" stroke-linecap="round"/>
<path d="M815.578 379.078C817.124 384.1 818.161 389.286 818.914 391.681C819.393 393.204 819.664 387.279 820.082 384.777C820.531 382.094 821.088 377.903 821.79 375.84C822.012 375.187 822.36 374.35 823.063 373.7C823.35 373.434 823.76 373.69 824.127 373.955C825.871 375.216 826.32 377.586 827.372 379.838C829.018 383.362 829.813 385.422 830.806 387.587C830.987 388.046 831.157 388.445 831.31 389.067C831.463 389.688 831.595 390.52 831.73 391.377" stroke="#5F00FF" stroke-width="3" stroke-linecap="round"/>
<path d="M848.671 371.907C846.742 372.532 842.699 374.246 841.471 375.354C839.188 377.415 841.201 381.148 841.738 384.561C842.012 386.308 844.207 386.601 845.7 386.852C847.857 387.216 849.658 384.357 851.987 381.026C852.988 379.596 852.537 377.976 852.215 376.95C852.106 376.604 851.712 376.806 851.533 377.049C850.654 378.239 851.067 380.24 851.097 381.796C851.189 386.63 852.26 394.585 851.715 395.209C850.762 396.298 848.915 395.872 847.535 395.66C846.718 395.574 845.84 395.497 845.057 395.299C844.705 395.14 844.448 394.861 844.083 393.944" stroke="#5F00FF" stroke-width="3" stroke-linecap="round"/>
<path d="M858.835 372.884L873.011 370.642" stroke="#5F00FF" stroke-width="3" stroke-linecap="round"/>
<path d="M861.937 378.205C865.15 378.126 867.48 377.974 870.257 377.803C872.249 377.543 873.755 377.411 874.513 377.453C874.942 377.44 875.462 377.358 875.997 377.273" stroke="#5F00FF" stroke-width="3" stroke-linecap="round"/>
<path d="M884.499 363.658C884.357 364.107 884.229 364.666 884.212 365.58C884.25 366.165 884.381 366.996 884.526 367.572C884.67 368.149 884.823 368.444 885.346 369.014" stroke="#5F00FF" stroke-width="3" stroke-linecap="round"/>
<path d="M891.082 360.357C892.209 362.097 892.943 363.289 893.26 363.936C893.594 364.687 893.922 365.394 894.324 366.241C894.573 366.793 894.912 367.592 895.627 368.68" stroke="#5F00FF" stroke-width="3" stroke-linecap="round"/>
<path d="M905.011 368.811C908.652 368.881 914.966 367.136 915.607 365.745C915.869 365.175 915.897 364.835 915.789 364.475C915.314 362.902 913.357 362.331 911.379 361.725C908.668 360.895 903.61 363.214 901.586 364.129C901.13 364.336 900.769 365.058 900.516 365.532C900.112 366.29 900.465 368.648 901.075 371.832C901.393 373.493 902.531 374.256 903.727 375.034C906.12 376.589 909.867 375.792 912.421 375.924C913.328 375.891 914.68 375.677 915.515 375.438C916.351 375.199 916.63 374.942 916.868 374.362" stroke="#5F00FF" stroke-width="3" stroke-linecap="round"/>
<path d="M924.584 361.843C927.951 368.84 928.457 370.691 928.891 372.403C929.065 373.09 929.559 374.924 929.9 377.079C929.99 377.649 929.927 375.212 930.22 370.282C930.376 367.646 930.523 366.076 931.022 364.115C931.454 362.416 931.981 361.002 932.658 359.494C932.799 359.18 933.199 359.189 933.497 359.355C934.939 360.16 935.677 361.91 936.481 363.239C937.429 364.806 938.388 366.111 938.956 367.315C939.109 367.935 939.313 368.551 939.628 369.519C939.789 370.191 939.953 371.23 940.073 371.986" stroke="#5F00FF" stroke-width="3" stroke-linecap="round"/>
<path d="M948.947 352.501C949.029 353.021 949.111 353.541 949.252 354.432C949.393 355.324 949.59 356.571 950.208 358.437" stroke="#5F00FF" stroke-width="3" stroke-linecap="round"/>
<path d="M955.33 347.941C955.976 349.33 956.478 350.445 956.812 351.198C957.129 351.847 957.457 352.551 957.865 353.772C958.103 354.593 958.404 355.824 959.444 357.623" stroke="#5F00FF" stroke-width="3" stroke-linecap="round"/>
<path d="M971.032 351.27C973.068 351.913 975.147 352.873 976.955 354.041C977.575 354.442 978.237 354.647 978.755 355.21C979.274 355.772 979.621 356.579 979.598 357.443C979.558 358.931 976.907 360.447 975.386 362.094C974.254 363.32 972.831 364.65 971.433 365.68C970.793 366.051 970.209 366.466 969.707 367.028C969.484 367.333 969.326 367.678 969.212 368.348" stroke="#5F00FF" stroke-width="3" stroke-linecap="round"/>
<path d="M650.791 357.993C647.777 359.329 646.335 361.055 645.259 362.792C643.87 365.031 642.144 366.568 641.146 367.426C640.911 367.629 641.093 368.129 641.351 368.414C642.578 369.77 644.86 370.226 646.597 370.977C647.214 371.469 648.064 372.09 649.115 372.622C649.581 372.822 649.91 372.876 650.878 372.833" stroke="#5F00FF" stroke-width="3" stroke-linecap="round"/>
<path d="M665.067 350.247C665.692 354.197 666.167 356.528 666.456 357.339C666.593 357.855 666.708 358.583 666.852 359.158C666.996 359.732 667.166 360.132 667.341 360.543" stroke="#5F00FF" stroke-width="3" stroke-linecap="round"/>
<path d="M669.665 371.154C669.211 371.652 668.757 372.15 668.791 372.417C668.826 372.685 669.362 372.707 669.761 372.485C670.16 372.264 670.407 371.799 670.509 371.403C670.611 371.008 670.561 370.696 670.38 370.56C670.199 370.424 669.887 370.473 669.566 370.524" stroke="#5F00FF" stroke-width="3" stroke-linecap="round"/>
<path d="M680.287 348.486C680.269 350.41 681.415 354.966 682.597 361.388C682.843 364.646 683.33 367.052 683.611 367.812C683.74 368.276 683.838 368.9 683.94 369.542" stroke="#5F00FF" stroke-width="3" stroke-linecap="round"/>
<path d="M683.525 368.962C686.39 368.722 688.545 368.814 690.679 367.301C694.628 364.502 693.997 361.714 694.187 360.5C694.568 358.08 693.056 354.332 692.349 352.935C691.208 350.681 688.966 350.239 687.258 349.647C685.547 349.056 684.502 348.575 683.356 348.433C682.555 348.45 681.307 348.647 680.022 348.851" stroke="#5F00FF" stroke-width="3" stroke-linecap="round"/>
<path d="M706.683 345.926C702.085 352.885 700.969 356.717 701.319 360.002C701.659 363.187 708.563 362.633 710.354 362.727C711.044 362.764 712.082 362.509 712.725 362.088C714.854 360.691 714.723 358.01 715.023 356.132C715.359 354.027 713.683 352.046 712.682 350.15C711.643 348.181 709.51 347.423 708.106 346.726C707.764 346.617 707.436 346.563 706.851 346.6C706.266 346.638 705.435 346.769 704.578 346.905" stroke="#5F00FF" stroke-width="3" stroke-linecap="round"/>
<path d="M737.489 342.669C736.214 341.366 732.799 341.474 730.104 342.168C727.041 342.957 724.9 343.365 724.685 344.043C724.179 345.648 723.593 347.334 723.282 348.786C723 350.102 723.607 354.939 724.749 357.758C725.229 358.943 727.646 358.75 729.156 359.43C730.4 359.99 732.823 359.552 734.578 359.006C734.889 358.91 735.198 358.853 735.386 358.664C735.574 358.474 735.629 358.146 735.797 357.848C735.964 357.551 736.243 357.293 736.531 357.028" stroke="#5F00FF" stroke-width="3" stroke-linecap="round"/>
<path d="M742.98 344.707C742.815 343.661 742.791 342.161 743.232 340.53C743.338 340.136 743.387 339.806 743.555 339.508C744.647 337.567 748.726 338.2 750.62 338.278C752.813 338.368 757.063 337.96 759.38 338.183C759.737 338.217 760.05 338.346 760.252 338.582C760.454 338.818 760.52 339.234 760.526 339.613C760.533 339.991 760.478 340.319 760.472 340.973" stroke="#5F00FF" stroke-width="3" stroke-linecap="round"/>
<path d="M751.567 339.797C751.698 340.628 751.83 341.46 752.287 344.011C752.743 346.563 753.521 350.808 754.323 355.183" stroke="#5F00FF" stroke-width="3" stroke-linecap="round"/>
<path d="M767.168 336.362C767.691 338.32 768.345 339.721 769.12 340.892C769.5 341.467 770.121 342.133 771.179 342.718C772.3 343.338 774.025 343.027 775.634 342.666C777.96 342.144 779.476 339.375 780.262 337.848C780.933 336.547 780.675 334.665 780.67 333.261C780.67 333.109 780.272 333.424 780.117 333.825C779.384 335.726 779.535 337.629 779.169 339.408C778.679 341.788 777.705 343.084 776.793 344.79C776.07 346.141 775.882 347.893 775.754 349.473C775.923 350.89 776.004 352.075 775.963 352.832C775.976 353.261 776.058 353.781 776.142 354.316" stroke="#5F00FF" stroke-width="3" stroke-linecap="round"/>
<path d="M769.428 354.732C771.228 354.661 773.028 354.589 775.047 354.38C777.066 354.17 779.249 353.825 781.499 353.469" stroke="#5F00FF" stroke-width="3" stroke-linecap="round"/>
<path d="M749.997 358.45C750.205 358.417 751.663 358.187 753.858 357.786C754.998 357.446 755.701 357.119 756.515 356.829C756.928 356.708 757.344 356.643 757.772 356.575" stroke="#5F00FF" stroke-width="3" stroke-linecap="round"/>
<path d="M789.219 332.874C790.617 341.042 791.335 342.866 791.903 345.086C792.115 345.755 792.438 346.45 792.637 347.016C792.837 347.581 792.902 347.997 792.97 348.426" stroke="#5F00FF" stroke-width="3" stroke-linecap="round"/>
<path d="M790.745 332.31C791.683 332.162 796.233 332.508 798.438 333.672C799.898 334.443 800.466 335.936 800.671 336.548C801.079 337.767 799.208 338.825 798.087 339.918C796.984 341.117 795.137 341.626 793.713 342.547C793.49 342.852 793.331 343.196 793.218 343.867" stroke="#5F00FF" stroke-width="3" stroke-linecap="round"/>
<path d="M790.268 351.76C790.476 351.727 790.684 351.694 792.246 351.447C793.809 351.2 796.72 350.739 800.398 350.481" stroke="#5F00FF" stroke-width="3" stroke-linecap="round"/>
<path d="M809.216 330.681C810.016 334.39 811.102 340.563 812.2 347.169C812.59 349.518 812.777 349.808 813.028 350.039C814.234 351.15 816.526 350.403 818.311 350.124C819.778 349.895 820.821 348.975 822.319 348.575C823.655 348.218 824.904 347.574 826.034 347.235C826.349 345.098 825.987 342.133 825.979 341.062C825.933 340.423 825.802 339.592 825.666 338.735" stroke="#5F00FF" stroke-width="3" stroke-linecap="round"/>
<path d="M812.102 336.683C815.462 336.365 817.608 336.135 818.296 336.399C818.695 336.553 818.682 337.457 818.701 337.572C818.637 337.167 818.399 336.336 818.109 335.525C817.972 335.009 817.857 334.281 817.739 333.531" stroke="#5F00FF" stroke-width="3" stroke-linecap="round"/>
<path d="M808.453 327.895C813.006 326.206 818.303 325.582 819.697 325.524C820.352 325.498 821.017 325.692 821.678 325.802C822.012 325.858 822.34 325.912 822.632 326.72C822.925 327.528 823.171 329.087 823.425 330.694" stroke="#5F00FF" stroke-width="3" stroke-linecap="round"/>
<path d="M850.632 318.966C852.505 326.074 854.357 330.963 854.988 333.924C855.492 336.288 856.033 337.479 856.392 338.715C856.574 339.345 856.887 340.143 856.596 340.997C856.434 341.471 855.391 341.462 855.179 341.549C853.697 342.155 858.975 341.111 859.294 340.74C860.061 339.845 856.979 338.64 855.406 336.195C854.344 334.544 854.558 332.236 854.79 330.638C855.013 329.102 856.25 327.984 857.447 327.039C858.67 326.074 860.369 326.144 861.758 326.084C863.378 326.015 864.131 328.126 864.647 329.659C865.169 331.214 866.122 332.545 866.971 338.21C867.136 339.313 866.36 339.404 866.716 339.348C867.072 339.292 868.32 339.094 868.886 338.845C869.452 338.596 869.299 338.3 868.461 337.78" stroke="#5F00FF" stroke-width="3" stroke-linecap="round"/>
<path d="M878.902 318.047C879.012 321.439 879.808 327.865 881.085 334.928C881.52 337.334 881.934 337.264 882.259 337.266C883.622 337.274 886.79 337.465 888.966 336.799C889.266 336.644 889.561 336.49 889.784 336.187C890.008 335.884 890.15 335.435 890.512 334.293" stroke="#5F00FF" stroke-width="3" stroke-linecap="round"/>
<path d="M872.933 323.188C873.677 323.177 874.421 323.166 876.052 322.963C877.683 322.76 880.178 322.366 882.748 321.959" stroke="#5F00FF" stroke-width="3" stroke-linecap="round"/>
<path d="M894.09 320.166C894.883 325.178 896.189 332.091 896.506 334.414C896.569 334.869 896.139 335.121 896.515 335.172C896.891 335.222 897.93 335.058 898.384 334.453C900.19 332.045 897.94 330.219 897.16 328.676C896.373 327.119 896.666 325.574 896.777 324.912C897.153 322.652 899.609 320.372 900.291 319.941C900.663 319.706 901.215 319.685 901.619 319.834C903.227 320.427 903.666 322.197 904.024 323.434C904.423 324.809 905.807 330.958 905.087 333.873C905.026 334.122 906.503 333.379 907.764 333.18C908.392 333.08 905.773 332.746 904.694 331.733C903.426 330.542 904.142 327.947 904.151 326.278C904.161 324.377 904.447 323.055 904.668 321.727C904.724 321.394 904.778 321.065 904.954 320.82C905.702 319.775 907.216 319.492 908.518 319.551C909.996 319.617 910.887 321.591 911.914 323.311C912.971 325.08 912.699 326.907 912.852 327.527C913.2 328.936 911.732 330.286 911.352 331.639C911.153 332.347 910.868 333.009 910.914 333.646C910.937 333.969 911.271 334.233 911.872 334.303C912.472 334.373 913.408 334.225 913.422 334.222C913.436 334.22 912.5 334.368 912.046 334.28C911.591 334.192 911.646 333.864 911.753 333.523C912.019 332.836 912.341 332.136 912.54 331.354C912.581 330.917 912.499 330.397 912.994 329.447" stroke="#5F00FF" stroke-width="3" stroke-linecap="round"/>
<path d="M918.251 309.565C919.723 308.687 922.085 308.739 924.456 308.691C924.897 308.681 925.24 308.886 925.492 309.436C926.666 312.001 925.695 313.761 925.987 317.305C926.806 327.229 928.617 329.547 929.059 331.959C929.279 333.163 926.271 331.655 924.2 331.82C923.715 331.858 923.386 331.789 922.749 331.834C922.112 331.88 921.176 332.028 922.877 331.759C924.579 331.49 928.945 330.8 933.443 330.088" stroke="#5F00FF" stroke-width="3" stroke-linecap="round"/>
<path d="M939.368 312.362C939.991 312.264 943.694 313.383 949.346 315.126C954.345 316.667 956.875 316.265 957.853 316.646C959.444 317.267 955.715 319.031 953.239 321.031C947.646 324.505 944.911 326.223 942.07 328.022C941.475 328.387 941.092 328.661 940.433 329.307" stroke="#5F00FF" stroke-width="3" stroke-linecap="round"/>
</g>
<g opacity="0.25">
<path d="M70.5863 444.499C69.0739 444.841 67.5616 445.182 66.0995 445.712C64.6374 446.241 63.2714 446.949 61.775 447.898C60.2785 448.848 58.693 450.019 57.7908 450.732C56.6756 451.613 56.3957 452.013 56.0519 452.356C55.1366 453.27 55.0651 454.154 55.0019 455.446C54.9807 455.88 55.1368 456.128 55.3087 456.336C55.5127 456.584 55.8257 456.793 56.4869 457.087C56.9697 457.302 57.7823 457.576 59.1727 457.898C60.5631 458.22 62.5145 458.561 64.1052 458.798C65.6959 459.035 66.8668 459.157 67.7382 459.22C68.6097 459.282 69.1464 459.282 69.4716 459.295C69.7968 459.307 69.8944 459.331 69.9949 459.356" stroke="#5F00FF" stroke-width="3" stroke-linecap="round"/>
<path d="M78.7168 445.386C80.2779 443.728 81.7407 442.678 82.8484 442.37C83.2945 442.246 83.517 442.233 84.4472 442.208C85.3775 442.184 87.0118 442.159 88.0488 442.171C89.4774 442.187 90.3417 442.477 91.1415 442.834C91.6916 443.079 92.0692 443.462 92.4136 443.929C92.7531 444.389 93.005 445.77 93.4112 447.457C93.6138 448.298 93.8439 448.71 94.0775 449.177C94.3265 449.675 94.3872 450.677 94.375 451.834C94.3637 452.91 93.8713 453.639 93.6366 454.082C93.3722 454.582 92.6398 454.969 92.2329 455.241C91.9923 455.402 90.8496 456.05 89.2241 456.887C88.0726 457.481 86.926 457.435 85.7729 457.276C82.8807 456.879 82.6359 456.229 82.389 455.958C81.9649 455.492 81.601 454.19 81.55 452.451C81.5271 451.67 82.0904 451.253 82.4481 450.858C82.8959 450.364 84.0314 450.095 85.5549 449.652C87.1464 449.19 88.3231 449.156 88.8276 449.193C89.4179 449.236 89.7038 449.844 90.1473 450.618C90.5555 451.331 90.7402 452.086 90.8995 452.785C91.1337 453.813 91.6249 454.965 92.1778 455.998C92.9777 457.493 93.5475 457.975 93.967 458.812C94.0916 459.281 94.1403 459.652 94.2143 459.824C94.2394 459.922 94.2394 460.044 94.2394 460.17" stroke="#5F00FF" stroke-width="3" stroke-linecap="round"/>
<path d="M110.798 434.742C110.773 434.815 110.749 434.889 110.761 436.5C110.773 438.111 110.822 441.257 111.103 443.866C111.384 446.475 111.896 448.451 112.221 449.798C112.703 451.796 112.867 452.702 113.002 453.205C113.167 453.819 113.163 454.28 113.175 454.464C113.186 454.628 113.408 453.602 113.715 451.756C113.84 451.006 113.95 450.642 114.293 448.843C114.636 447.045 115.221 443.825 115.584 442.044C115.999 440.005 116.365 439.573 116.696 439.217C117.234 438.639 118.281 438.317 118.976 438.265C119.087 438.257 119.149 438.411 119.479 439.193C119.81 439.976 120.395 441.439 120.758 442.303C121.44 443.927 121.982 444.89 122.266 445.605C122.477 446.296 122.501 446.838 122.538 447.878C122.551 448.722 122.551 450.21 122.551 451.743" stroke="#5F00FF" stroke-width="3" stroke-linecap="round"/>
<path d="M131.938 437.033C131.938 437.107 131.938 437.18 132.059 438.827C132.181 440.475 132.425 443.695 132.575 445.476C132.725 447.256 132.774 447.5 132.799 447.967C132.917 450.161 132.972 451.1 132.985 451.518C132.99 451.693 133.021 451.79 133.034 451.511C133.046 451.232 133.046 450.574 133.132 449.234C133.217 447.895 133.388 445.895 133.537 444.535C133.686 443.175 133.808 442.517 133.956 441.958C134.224 440.945 134.548 440.337 134.733 439.981C134.923 439.614 135.188 439.082 135.581 438.54C136.257 437.61 137.699 436.912 138.513 436.652C138.711 436.591 138.906 436.517 139.056 436.468C139.205 436.418 139.303 436.393 139.403 436.516" stroke="#5F00FF" stroke-width="3" stroke-linecap="round"/>
<path d="M141.177 440.36C142.226 440.603 143.275 440.847 144.376 440.973C145.478 441.099 146.6 441.099 148.007 440.891C149.415 440.684 151.073 440.269 152.464 439.787C153.856 439.305 154.929 438.769 155.555 438.419C156.693 437.784 157.117 437.184 157.352 436.568C157.608 435.897 157.268 435.262 156.825 434.474C156.415 433.742 155.84 433.635 154.882 433.216C154.434 433.02 153.684 432.873 152.929 432.773C152.174 432.672 151.418 432.672 150.772 432.733C149.605 432.843 148.672 433.188 147.982 433.446C147.262 433.716 146.357 434.319 145.553 434.937C145.253 435.168 144.705 435.65 143.796 436.692C143.249 437.32 142.644 438.247 142.134 439.053C141.211 440.514 140.808 441.442 140.673 441.896C140.356 442.96 140.61 443.732 140.978 444.582C141.197 445.086 141.741 445.775 142.502 446.746C143.356 447.834 144.278 448.635 144.967 449.14C145.514 449.541 146.029 449.721 146.569 450.016C146.907 450.2 147.401 450.408 148.421 450.716C149.44 451.024 150.977 451.415 152.135 451.64C154.024 451.914 154.9 451.916 155.121 451.805C155.221 451.744 155.294 451.67 155.369 451.595" stroke="#5F00FF" stroke-width="3" stroke-linecap="round"/>
<path d="M160.691 432.229C160.716 432.229 160.74 432.229 161.46 432.241C162.18 432.253 163.595 432.278 164.873 432.18C166.15 432.083 167.248 431.864 167.947 431.751C168.91 431.595 169.387 431.613 169.878 431.576C170.564 431.564 171.307 431.612 171.91 431.711C172.171 431.76 172.342 431.809 172.444 431.933" stroke="#5F00FF" stroke-width="3" stroke-linecap="round"/>
<path d="M170.67 422.103C168.626 422.497 168.135 422.546 167.396 422.902C167.069 423.059 166.779 423.455 166.349 424.154C166.081 424.59 165.846 425.268 165.537 426.461C165.229 427.654 164.887 429.361 164.638 431.643C164.389 433.926 164.242 436.731 164.252 438.993C164.262 441.255 164.433 442.89 164.643 444.195C164.853 445.5 165.097 446.427 165.454 447.49C165.812 448.553 166.275 449.724 166.514 450.656C166.753 451.589 166.753 452.247 166.753 452.926" stroke="#5F00FF" stroke-width="3" stroke-linecap="round"/>
<path d="M177.914 434.668C177.963 434.668 178.012 434.668 178.964 434.412C179.916 434.156 181.77 433.644 182.798 433.368C183.969 433.053 184.416 432.945 185.42 432.711C186.132 432.576 187.254 432.405 188.21 432.317C189.166 432.229 189.923 432.229 190.776 432.303" stroke="#5F00FF" stroke-width="3" stroke-linecap="round"/>
<path d="M179.098 442.651C179.927 442.407 180.756 442.163 181.867 441.879C182.977 441.594 184.343 441.277 185.205 441.102C186.067 440.926 186.384 440.902 187.17 440.767C187.955 440.633 189.199 440.389 189.986 440.214C190.774 440.04 191.066 439.942 191.516 439.842" stroke="#5F00FF" stroke-width="3" stroke-linecap="round"/>
<path d="M199.719 420.55C199.622 422.648 199.498 424.363 199.388 425.787C199.35 427.504 199.374 428.532 199.423 428.68C199.448 428.754 199.473 428.827 199.645 428.903" stroke="#5F00FF" stroke-width="3" stroke-linecap="round"/>
<path d="M206.962 418.775C206.523 420.532 206.273 421.68 206.041 422.855C205.856 423.79 205.443 425.395 205.241 426.286C205.04 427.298 204.992 427.57 204.918 427.865C204.893 428.014 204.893 428.16 204.893 428.311" stroke="#5F00FF" stroke-width="3" stroke-linecap="round"/>
<path d="M222.339 426.094C220.68 425.069 219.606 424.493 219.017 424.419C217.425 424.219 216.675 424.565 215.984 424.701C215.276 424.841 214.459 425.352 214.036 425.808C213.738 426.13 213.764 426.805 213.825 427.42C213.875 427.921 214.744 428.577 215.765 429.353C216.328 429.78 216.915 429.985 217.627 430.366C218.928 431.062 219.503 431.389 220.695 432.335C221.443 432.93 221.918 433.557 222.238 433.951C222.854 434.71 223.471 435.577 223.73 436.022C224.018 436.517 223.965 437.348 223.879 437.919C223.816 438.34 223.572 438.658 223.325 439.052C223.132 439.361 222.662 439.644 222.17 439.939C221.792 440.166 220.965 440.578 219.858 441.193C218.692 441.841 217.932 441.739 217.082 441.74C215.543 441.494 214.26 441.247 213.693 441.185C213.496 441.173 213.228 441.173 212.951 441.173" stroke="#5F00FF" stroke-width="3" stroke-linecap="round"/>
<path d="M230.765 431.342C230.765 431.366 230.765 431.391 231.546 431.501C232.326 431.611 233.887 431.806 235.143 431.821C236.398 431.836 237.301 431.666 238.376 431.382C239.45 431.099 240.67 430.709 241.53 430.398C242.871 429.914 243.551 429.495 243.969 429.2C244.809 428.607 245.251 427.649 245.462 427.057C245.686 426.425 245.451 425.36 245.241 424.691C245.041 424.052 244.051 423.338 243.333 422.904C243.036 422.724 242.4 422.449 241.392 422.129C240.877 421.966 240.336 421.858 239.511 421.808C238.685 421.757 237.588 421.781 236.888 421.843C236.188 421.904 235.92 422.002 235.562 422.186C235.205 422.37 234.766 422.639 233.612 423.667C232.459 424.696 230.605 426.477 229.577 427.491C228.377 428.676 228.203 429.098 228.093 429.491C227.98 429.891 227.907 430.524 227.993 431.311C228.059 431.921 228.764 432.813 229.87 434.104C230.433 434.762 231.121 435.321 231.863 435.879C232.605 436.437 233.41 436.949 234.532 437.506C235.654 438.062 237.069 438.648 238.115 438.998C239.161 439.349 239.795 439.446 240.5 439.496C241.958 439.6 242.984 439.498 243.414 439.4C244.035 439.258 244.61 438.957 245.312 438.415C245.45 438.291 245.498 438.218 245.548 438.107C245.597 437.996 245.646 437.849 245.696 437.699" stroke="#5F00FF" stroke-width="3" stroke-linecap="round"/>
<path d="M252.128 422.546C252.128 422.57 252.128 422.594 251.969 424.119C251.81 425.644 251.493 428.669 251.33 430.91C251.167 433.151 251.167 434.517 251.142 435.258C251.118 435.998 251.069 436.071 251.044 436.048C251.019 436.024 251.019 435.902 251.263 434.779C251.507 433.655 251.995 431.532 252.453 429.842C252.912 428.151 253.326 426.956 253.662 426.084C253.998 425.212 254.242 424.7 254.55 424.216C255.165 423.253 256.114 422.402 257.122 421.615C258.01 420.921 258.753 420.698 259.159 420.575C260.141 420.277 261.265 420.525 261.797 420.709C262.372 420.909 262.574 421.999 262.831 423.274C263.004 424.132 263.211 425.427 263.397 426.337C263.685 427.744 263.929 428.554 264.088 429.279C264.29 430.195 264.57 430.872 264.631 431.253C264.767 432.249 264.67 433.775 264.546 434.567C264.521 434.716 264.497 434.838 264.472 435.112" stroke="#5F00FF" stroke-width="3" stroke-linecap="round"/>
<path d="M270.68 418.628C270.68 420.287 270.68 421.945 270.68 423.495C270.68 425.045 270.68 426.435 270.692 427.249C270.713 428.658 270.901 429.587 271.024 430.685C271.103 431.389 271.246 431.832 271.283 432.829C271.32 433.114 271.369 433.263 271.418 433.41C271.443 433.485 271.468 433.558 271.567 433.485" stroke="#5F00FF" stroke-width="3" stroke-linecap="round"/>
<path d="M270.605 411.68C270.654 411.46 270.703 411.241 270.728 411.079C270.753 410.917 270.753 410.82 270.605 410.793" stroke="#5F00FF" stroke-width="3" stroke-linecap="round"/>
<path d="M278.516 420.255C278.808 421.523 279.101 422.791 279.52 424.164C279.939 425.537 280.476 426.977 280.85 427.925C281.736 430.174 282.383 431.046 282.567 431.169C282.651 431.224 282.727 431.243 282.802 431.231C283.177 431.172 283.589 430.826 284.143 430.531C285.369 429.876 286.176 429.003 286.85 428.22C287.345 427.645 288.085 426.656 288.523 426.068C288.962 425.48 289.059 425.309 289.427 424.745C289.794 424.182 290.428 423.23 290.828 422.557C291.428 421.548 291.574 420.727 291.648 419.867C291.686 419.422 291.673 418.958 291.709 418.841C291.76 418.681 291.992 419.391 292.164 419.759C292.349 420.153 292.533 421.159 292.878 422.426C293.086 423.193 293.347 423.896 293.629 424.83C294.109 426.417 294.603 426.855 294.924 427.214C295.234 427.56 295.466 427.867 295.86 428.273C296.013 428.431 296.205 428.459 296.39 428.447C296.554 428.436 297.26 427.702 298.294 426.607C298.818 426.051 299.454 425.385 300.242 424.389C300.788 423.698 301.083 423.14 301.525 422.295C301.841 421.691 302.162 420.645 302.375 419.934C302.845 418.363 302.834 417.793 302.957 417.3C302.982 417.054 303.031 416.782 303.117 416.511C303.154 416.387 303.179 416.29 303.204 416.115" stroke="#5F00FF" stroke-width="3" stroke-linecap="round"/>
<path d="M310.521 415.375C310.619 415.327 311.743 414.96 313.442 414.43C314.625 414.062 315.594 414.29 316.088 414.488C316.633 414.705 317.22 415.004 317.764 415.288C318.257 415.546 318.7 415.94 319.144 416.286C319.587 416.631 319.834 417.123 320.117 417.591C320.417 418.086 320.672 418.699 321.421 420.199C321.766 420.889 321.954 421.336 322.163 421.731C322.386 422.151 322.397 422.911 322.471 424.015C322.594 425.846 322.447 427.078 322.361 427.287C322.186 427.713 321.955 428.111 321.623 428.642C321.325 429.116 319.944 430.152 319.036 430.614C318.646 430.813 317.699 430.824 316.218 430.542C315.259 430.36 313.953 429.35 313.332 428.769C313.122 428.572 312.742 427.995 312.225 427.122C311.799 426.402 311.607 425.654 311.459 424.77C311.133 422.82 311.679 422.35 311.913 421.956C312.028 421.761 312.123 421.585 312.27 421.426C312.805 420.845 313.944 421.19 314.989 421.632C315.378 421.796 315.864 422.174 316.846 422.75C317.441 423.1 318.218 423.595 319.632 424.651C321.047 425.708 323.071 427.318 324.309 428.318C325.547 429.318 325.938 429.659 326.163 429.872C326.389 430.084 326.437 430.157 326.488 430.381" stroke="#5F00FF" stroke-width="3" stroke-linecap="round"/>
<path d="M328.113 413.306C328.089 413.306 328.064 413.306 328.235 414.355C328.405 415.404 328.771 417.501 329.069 418.85C329.491 420.76 329.935 421.508 330.205 421.926C330.47 422.336 330.993 422.886 331.668 423.746C332.926 425.349 333.36 425.575 333.582 425.871C333.689 426.012 333.828 426.191 334.061 426.339C334.324 426.505 334.788 426.194 335.23 425.825C335.592 425.524 336.166 424.696 337.184 422.978C337.8 421.94 338.472 420.48 339.043 419.153C339.615 417.827 340.03 416.656 340.304 415.577C340.815 413.572 340.876 412.42 340.949 412.125C340.999 411.533 341.073 411.163 341.134 411.003C341.171 410.917 341.22 410.819 341.27 410.719" stroke="#5F00FF" stroke-width="3" stroke-linecap="round"/>
<path d="M349.771 415.597C350.991 416.085 351.887 416.41 352.526 416.545C353.348 416.719 354.52 416.706 355.664 416.682C356.349 416.667 356.815 416.534 357.466 416.375C358.474 416.128 359.182 415.648 359.587 415.353C360.611 414.609 360.881 413.876 361.264 413.308C361.41 413.092 361.376 412.717 361.327 412.323C361.254 411.73 360.689 411.362 360.22 411.003C359.797 410.68 359.235 410.302 357.748 409.613C357.184 409.351 356.258 409.192 354.906 409.008C353.613 408.831 352.779 408.969 352.423 409.03C351.478 409.193 350.416 409.731 349.798 410.126C349.297 410.446 348.911 410.963 348.283 412.118C348.016 412.609 347.9 413.643 347.752 415.167C347.614 416.588 347.775 417.663 347.922 418.303C348.102 419.082 348.611 419.83 349.546 421.1C349.872 421.543 350.408 421.902 351.096 422.37C351.763 422.822 352.478 423.135 353.081 423.406C353.997 423.817 354.82 424.171 355.799 424.306C356.535 424.368 357.754 424.417 358.822 424.369C359.889 424.321 360.767 424.175 361.672 424.024" stroke="#5F00FF" stroke-width="3" stroke-linecap="round"/>
<path d="M371.133 422.767C371.133 422.865 371.377 423.135 371.783 423.382C371.924 423.468 372.018 423.239 372.056 423.102C372.094 422.965 372.094 422.868 372.045 422.769C371.996 422.67 371.899 422.572 371.812 422.546C371.725 422.52 371.652 422.569 371.576 422.62" stroke="#5F00FF" stroke-width="3" stroke-linecap="round"/>
<path d="M390.425 406.358C389.011 405.87 387.596 405.382 386.452 405.119C385.309 404.855 384.48 404.831 383.918 404.855C383.083 404.891 382.105 405.369 380.801 406.057C379.684 406.647 378.898 407.512 378.148 408.506C377.73 409.061 377.375 409.817 377.113 410.499C376.629 411.757 376.578 412.785 376.578 413.522C376.578 414.266 376.848 414.807 377.033 415.151C377.212 415.486 377.561 416.013 378.346 416.835C378.821 417.333 379.521 417.926 380.263 418.533C381.005 419.14 381.786 419.725 382.322 420.1C383.108 420.649 383.867 420.894 384.788 421.103C385.674 421.304 386.602 421.265 387.438 421.203C388.083 421.156 388.966 420.848 389.963 420.479C390.858 420.147 391.873 419.617 392.862 419.233C393.134 419.122 393.332 419.072 393.541 419.047C393.652 419.023 393.774 418.974 394.047 418.776" stroke="#5F00FF" stroke-width="3" stroke-linecap="round"/>
<path d="M409.423 402.81C409.398 402.785 409.374 402.761 408.715 402.602C408.056 402.443 406.763 402.15 405.756 401.987C404.077 401.716 403.093 401.799 402.589 401.861C401.765 401.961 401.196 402.414 400.714 402.735C400.502 402.877 400.039 403.324 399.46 403.927C399.166 404.233 398.855 404.801 398.363 405.564C398.039 406.066 397.819 406.503 397.475 407.226C396.892 408.452 396.734 409.607 396.66 410.343C396.557 411.368 396.684 412.244 396.855 412.943C397.109 413.977 397.642 414.977 398.305 415.898C399.134 417.05 400.032 417.813 400.573 418.243C401.044 418.617 401.925 419.265 403.156 419.954C403.966 420.408 404.81 420.598 405.903 420.795C407.198 421.028 408.237 420.871 408.827 420.748C409.428 420.623 409.987 420.354 410.674 419.999C411.099 419.778 411.653 419.423 412.369 418.869C413.085 418.315 413.939 417.559 414.623 416.914C415.306 416.268 415.794 415.756 416.277 415.126C416.76 414.496 417.224 413.764 417.524 413.217C417.996 412.353 418.095 411.415 418.12 410.43C418.137 409.739 417.949 409.194 417.654 408.641C417.326 408.025 416.499 407.299 415.54 406.499C415.125 406.153 414.824 405.968 414.296 405.684C413.767 405.401 413.011 405.035 411.926 404.651C410.841 404.267 409.451 403.877 408.234 403.615C407.018 403.353 406.018 403.231 404.988 403.105" stroke="#5F00FF" stroke-width="3" stroke-linecap="round"/>
<path d="M422.062 400.963C422.087 403.06 422.111 405.158 422.319 407.007C422.527 408.856 422.917 410.393 423.155 411.258C423.534 412.639 423.86 413.353 424.119 413.81C424.171 413.903 424.23 413.97 424.267 413.947C424.304 413.924 424.329 413.802 424.402 412.178C424.476 410.554 424.598 407.432 424.722 405.579C424.845 403.727 424.967 403.239 425.128 402.744C425.45 401.749 425.782 401.161 425.954 400.976C426.092 400.829 426.274 400.692 426.545 400.63C427.08 400.508 427.605 401.257 428.229 402.064C428.728 402.709 429.512 403.896 430.207 405.035C430.902 406.175 431.463 407.248 431.838 408.143C432.212 409.037 432.383 409.72 432.507 410.316C432.868 412.041 432.928 412.785 432.953 413.353C432.957 413.451 433.149 412.963 433.577 411.254C433.972 409.676 434.566 406.617 435.015 404.742C435.464 402.866 435.708 402.256 435.919 401.808C436.264 401.073 436.891 400.351 437.751 399.466C439.124 398.053 440.069 397.933 440.626 397.882C440.87 397.86 441.083 398.079 441.353 398.373C441.839 398.903 442.264 399.897 442.768 401.43C443.082 402.386 443.296 403.768 443.459 404.753C443.713 406.291 443.793 407.047 443.916 407.403C444.113 408.253 444.409 408.993 444.582 409.902C444.607 410.271 444.607 410.783 444.755 411.311" stroke="#5F00FF" stroke-width="3" stroke-linecap="round"/>
<path d="M448.895 390.54C449.239 393.223 449.338 394.06 449.399 394.665C449.436 395.171 449.486 396.638 449.596 397.463C449.657 397.513 449.755 397.537 450.077 397.562" stroke="#5F00FF" stroke-width="3" stroke-linecap="round"/>
<path d="M455.621 388.396C455.867 390.49 455.917 391.127 455.99 391.684C456.015 391.82 456.039 391.99 456.125 392.176C456.211 392.361 456.357 392.557 456.656 392.905" stroke="#5F00FF" stroke-width="3" stroke-linecap="round"/>
<path d="M467.521 396.01C468.887 396.449 469.884 396.748 470.888 397.03C471.603 397.23 472.722 397.58 474.02 397.926C475.318 398.273 476.757 398.615 477.62 398.852C478.483 399.088 478.727 399.21 478.865 399.31C479.246 399.584 479.078 400.417 478.857 401.205C478.523 402.396 477.281 402.956 476.18 403.63C475.304 404.165 473.762 405.059 472.872 405.597C471.775 406.261 471.319 406.578 470.534 407.093C469.261 408.046 468.409 408.747 468.237 408.956C468.139 409.067 468.017 409.189 467.891 409.389" stroke="#5F00FF" stroke-width="3" stroke-linecap="round"/>
<path d="M501.079 392.314C500.274 392.753 499.469 393.192 497.908 394.455C496.347 395.717 494.054 397.791 492.507 399.078C490.96 400.366 490.228 400.805 489.815 401.08C489.401 401.355 489.328 401.453 489.29 401.576C489.252 401.7 489.252 401.846 489.289 401.958C489.356 402.163 489.694 402.389 490.221 402.709C490.862 403.097 491.908 403.179 493.807 403.302C495.119 403.387 497.145 403.376 498.432 403.425C500.21 403.493 500.856 403.672 501.175 403.758C501.543 403.82 501.866 403.893 502.124 403.98C502.26 404.017 502.407 404.041 502.558 404.066" stroke="#5F00FF" stroke-width="3" stroke-linecap="round"/>
<path d="M516.898 383C516.264 385.098 515.629 387.196 514.766 390.52C513.903 393.845 512.829 398.333 512.228 401.768C511.626 405.202 511.528 407.446 511.466 408.675C511.305 410.323 511.182 410.669 511.12 410.853C511.083 410.94 511.035 411.013 510.984 411.236" stroke="#5F00FF" stroke-width="3" stroke-linecap="round"/>
<path d="M524.732 391.353C524.78 391.207 525.464 390.009 526.657 388.175C527.751 386.494 528.819 386.673 529.774 386.403C530.478 386.204 531.656 385.987 532.406 385.861C533.441 385.688 533.847 385.76 534.044 385.833C534.473 385.994 534.709 386.546 535.116 387.604C535.299 388.081 535.57 389.079 536.038 390.456C536.638 392.224 536.656 393.099 536.731 393.949C536.773 394.432 536.854 395.045 536.83 395.807C536.804 396.62 536.56 397.557 536.265 398.492C535.865 399.759 535.28 400.245 534.775 400.775C534.212 401.365 533.237 401.92 532.4 402.388C531.729 402.764 531.091 402.76 530.549 402.872C529.582 403.07 528.087 403.106 527.249 403.167C526.516 403.221 525.94 403.107 525.707 402.935C525.275 402.617 525.128 401.977 524.782 401.015C524.546 400.36 524.658 399.588 524.743 398.907C524.777 398.637 525.221 398.035 525.934 397.125C526.598 396.276 527.243 395.937 527.636 395.777C528.962 395.238 530.419 395.59 531.159 395.836C532.29 396.212 533.228 396.82 534.189 397.363C534.7 397.651 535.127 397.955 535.496 398.152C535.828 398.329 536.552 398.986 537.476 399.86C538.117 400.467 538.331 400.985 538.615 401.404C538.726 401.601 538.825 401.775 538.923 401.934C538.973 402.021 539.021 402.119 539.219 402.367" stroke="#5F00FF" stroke-width="3" stroke-linecap="round"/>
<path d="M544.395 384.7C545.663 385.261 546.931 385.822 548.06 386.343C549.19 386.864 550.141 387.327 551.448 388.042C552.755 388.756 554.39 389.707 555.475 390.307C557.028 391.165 557.747 391.499 558.055 391.757C558.177 391.86 558.192 391.943 558.192 392.017C558.193 392.091 558.168 392.164 556.619 393.312C555.07 394.459 551.996 396.679 550.242 397.993C548.488 399.308 548.147 399.649 547.788 400.057C547.429 400.465 547.063 400.928 546.862 401.203C546.662 401.479 546.637 401.552 546.612 401.627" stroke="#5F00FF" stroke-width="3" stroke-linecap="round"/>
</g>
<g opacity="0.25">
<path d="M17.2633 154.298C13.4866 156.939 12.1537 158.005 10.9538 158.952C9.8018 159.862 9.4456 161.34 9.25443 164.215C9.18697 165.229 9.50251 166.478 10.518 167.509C14.9728 172.031 19.0605 170.481 20.4788 170.578C20.8121 170.634 21.1404 170.688 21.1454 170.689C21.1503 170.69 20.822 170.636 20.4838 170.579" stroke="#5F00FF" stroke-width="3" stroke-linecap="round"/>
<path d="M26.6292 150.234C26.9367 154.873 27.654 160.798 28.5857 166.353C28.996 168.799 29.4017 169.808 29.5785 170.589C29.8977 171.999 29.4285 166.588 29.3799 165.249C29.3192 163.58 29.7112 161.597 30.2083 159.952C30.7643 158.112 33.0263 157.404 34.7491 156.701C35.5587 156.37 36.5892 156.085 37.6628 156.075C39.2171 156.061 39.4887 158.739 40.0738 160.05C40.6411 161.321 40.9726 163.345 41.118 164.938C41.159 165.387 40.8253 165.109 40.7119 164.749C40.5985 164.389 40.6367 163.957 40.7274 163.51C40.8182 163.063 40.9603 162.614 41.1068 162.152" stroke="#5F00FF" stroke-width="3" stroke-linecap="round"/>
<path d="M50.058 145.237C51.2318 153.333 52.0753 160.036 53.3164 163.821C53.8506 165.45 54.8795 166.212 55.4583 166.819C55.9358 167.32 57.4913 166.454 59.1787 165.22C59.9633 164.342 60.1814 163.659 60.2313 162.953C60.2266 162.576 60.1608 162.16 60.0931 161.732" stroke="#5F00FF" stroke-width="3" stroke-linecap="round"/>
<path d="M44.8864 155.419C45.0943 155.386 48.8341 153.409 55.0412 150.169C57.6156 148.888 59.0217 148.346 59.8937 147.99C60.7658 147.635 61.0612 147.481 61.9956 147.224" stroke="#5F00FF" stroke-width="3" stroke-linecap="round"/>
<path d="M67.7659 146.957C68.6536 152.571 69.341 156.918 69.7608 158.899C70.0746 160.379 70.8228 153.384 71.2443 150.934C71.5497 149.159 71.8832 147.817 72.0888 147.085C72.1815 146.755 72.5516 146.633 72.7886 146.754C74.2269 147.486 74.8211 149.387 76.1696 150.788C77.7154 152.394 79.1015 153.34 79.9708 154.386C80.4412 154.952 80.9801 157.011 81.3706 159.481C81.4803 160.175 81.5648 156.625 81.7494 154.066C81.9767 150.915 81.4385 148.353 81.3971 146.049C81.3841 145.325 81.7974 144.538 82.0316 143.957C82.2659 143.376 82.4245 143.031 82.6952 144.049C84.3651 150.327 84.7114 152.02 85.8713 153.934C86.5199 155.289 87.1345 156.481 87.8097 157.667C87.9133 157.975 87.9626 158.287 88.0134 158.608" stroke="#5F00FF" stroke-width="3" stroke-linecap="round"/>
<path d="M95.9502 137.334C96.454 139.172 96.8997 140.622 97.7325 144.868C98.4634 148.594 99.4805 155.574 100.204 159.138C100.927 162.701 101.239 162.652 101.591 162.49C102.326 162.054 103.016 161.619 103.664 161.301C104.015 161.138 104.415 160.968 105.456 160.693" stroke="#5F00FF" stroke-width="3" stroke-linecap="round"/>
<path d="M135.227 130.476C135.917 130.794 137.103 130.825 138.5 130.818C139.079 130.814 139.339 131.324 139.557 131.669C141.122 134.151 141.322 139.083 141.788 141.002C142.777 145.07 143.31 150.939 142.662 151.256C141.924 151.618 140.772 151.879 139.885 152.073C140.916 152.179 142.414 152.156 145.899 151.768C146.653 151.702 146.981 151.756 147.634 151.763" stroke="#5F00FF" stroke-width="3" stroke-linecap="round"/>
<path d="M158.31 135.545C161.225 132.93 163.634 133.192 165.478 133.28C166.734 133.339 168.085 134.103 169.319 134.766C171.116 135.734 171.376 137.883 172.168 141.841C172.338 142.688 172.196 143.03 172.029 143.327C171.013 145.132 168.797 146.693 167.6 147.634C166.252 148.694 164.826 149.471 163.227 150.265C162.444 150.654 161.283 150.897 160.008 150.992C159.101 151.06 158.4 150.387 157.82 149.782C156.736 148.65 156.822 146.555 156.688 144.694C156.636 143.977 157.013 143.719 157.304 143.51C158.634 142.556 160.644 142.176 162.125 141.669C162.483 141.547 162.782 141.406 163.107 141.406C164.522 141.407 165.874 143.274 166.884 144.517C167.949 145.827 169.007 147.409 169.525 148.62C169.679 148.92 169.936 149.199 170.146 149.491C170.355 149.782 170.508 150.077 170.981 150.332" stroke="#5F00FF" stroke-width="3" stroke-linecap="round"/>
<path d="M177.575 132.821C179.122 137.843 180.158 143.029 180.912 145.424C181.391 146.947 181.662 141.022 182.08 138.52C182.528 135.837 183.085 131.646 183.788 129.583C184.01 128.93 184.358 128.093 185.06 127.443C185.347 127.177 185.758 127.433 186.124 127.698C187.868 128.959 188.318 131.329 189.37 133.581C191.016 137.105 191.811 139.165 192.804 141.33C192.985 141.789 193.154 142.188 193.307 142.81C193.461 143.432 193.592 144.263 193.728 145.12" stroke="#5F00FF" stroke-width="3" stroke-linecap="round"/>
<path d="M210.668 125.65C208.739 126.275 204.696 127.989 203.469 129.097C201.185 131.158 203.198 134.891 203.735 138.305C204.009 140.051 206.204 140.344 207.697 140.595C209.854 140.959 211.655 138.1 213.984 134.769C214.985 133.339 214.534 131.719 214.212 130.694C214.103 130.347 213.709 130.549 213.53 130.792C212.651 131.982 213.064 133.983 213.094 135.539C213.187 140.373 214.257 148.328 213.712 148.952C212.759 150.041 210.912 149.615 209.532 149.403C208.715 149.317 207.837 149.24 207.054 149.042C206.702 148.883 206.445 148.604 206.08 147.687" stroke="#5F00FF" stroke-width="3" stroke-linecap="round"/>
<path d="M220.833 126.627L235.009 124.385" stroke="#5F00FF" stroke-width="3" stroke-linecap="round"/>
<path d="M223.935 131.948C227.148 131.869 229.478 131.717 232.255 131.546C234.247 131.286 235.753 131.154 236.51 131.196C236.939 131.183 237.459 131.101 237.995 131.016" stroke="#5F00FF" stroke-width="3" stroke-linecap="round"/>
<path d="M246.497 117.401C246.355 117.85 246.227 118.409 246.21 119.323C246.247 119.908 246.379 120.739 246.523 121.315C246.668 121.892 246.821 122.187 247.344 122.757" stroke="#5F00FF" stroke-width="3" stroke-linecap="round"/>
<path d="M253.079 114.1C254.207 115.84 254.941 117.032 255.258 117.679C255.591 118.43 255.92 119.137 256.321 119.984C256.57 120.536 256.91 121.335 257.624 122.423" stroke="#5F00FF" stroke-width="3" stroke-linecap="round"/>
<path d="M267.008 122.553C270.649 122.624 276.963 120.879 277.604 119.488C277.866 118.918 277.894 118.578 277.786 118.218C277.311 116.644 275.354 116.074 273.376 115.468C270.665 114.638 265.607 116.956 263.583 117.872C263.127 118.079 262.766 118.801 262.514 119.275C262.109 120.033 262.462 122.391 263.072 125.575C263.391 127.236 264.528 127.999 265.724 128.777C268.117 130.332 271.865 129.535 274.419 129.667C275.325 129.634 276.677 129.42 277.513 129.181C278.348 128.942 278.627 128.685 278.865 128.105" stroke="#5F00FF" stroke-width="3" stroke-linecap="round"/>
<path d="M286.573 115.585C289.94 122.582 290.446 124.433 290.88 126.145C291.054 126.832 291.548 128.666 291.889 130.821C291.979 131.391 291.916 128.954 292.209 124.024C292.365 121.388 292.512 119.818 293.011 117.857C293.443 116.158 293.97 114.744 294.647 113.236C294.788 112.923 295.188 112.931 295.486 113.097C296.928 113.902 297.666 115.652 298.47 116.981C299.418 118.548 300.377 119.853 300.945 121.057C301.098 121.677 301.302 122.293 301.617 123.261C301.778 123.933 301.942 124.972 302.062 125.728" stroke="#5F00FF" stroke-width="3" stroke-linecap="round"/>
<path d="M310.926 106.244C311.008 106.764 311.091 107.284 311.232 108.175C311.373 109.067 311.57 110.314 312.188 112.179" stroke="#5F00FF" stroke-width="3" stroke-linecap="round"/>
<path d="M317.309 101.683C317.955 103.073 318.458 104.188 318.791 104.941C319.109 105.59 319.436 106.294 319.844 107.514C320.082 108.336 320.383 109.567 321.423 111.365" stroke="#5F00FF" stroke-width="3" stroke-linecap="round"/>
<path d="M333.01 105.012C335.046 105.656 337.126 106.615 338.933 107.784C339.553 108.185 340.216 108.39 340.734 108.952C341.252 109.515 341.599 110.322 341.576 111.186C341.536 112.674 338.885 114.19 337.365 115.837C336.232 117.063 334.81 118.393 333.412 119.423C332.771 119.794 332.188 120.209 331.686 120.771C331.463 121.076 331.304 121.421 331.191 122.091" stroke="#5F00FF" stroke-width="3" stroke-linecap="round"/>
<path d="M12.7934 111.737C9.7789 113.072 8.3373 114.798 7.26055 116.535C5.87187 118.774 4.14604 120.311 3.14842 121.17C2.91291 121.372 3.09486 121.872 3.35309 122.158C4.58017 123.513 6.86212 123.97 8.59853 124.72C9.21552 125.212 10.0661 125.833 11.1174 126.366C11.5832 126.565 11.9115 126.62 12.8798 126.576" stroke="#5F00FF" stroke-width="3" stroke-linecap="round"/>
<path d="M27.0669 103.99C27.6916 107.941 28.1667 110.271 28.4564 111.083C28.5929 111.599 28.708 112.326 28.8521 112.901C28.9963 113.475 29.166 113.875 29.3408 114.286" stroke="#5F00FF" stroke-width="3" stroke-linecap="round"/>
<path d="M31.6652 124.897C31.2112 125.395 30.7572 125.893 30.7914 126.16C30.8256 126.428 31.3618 126.45 31.7611 126.228C32.1604 126.007 32.4065 125.542 32.5087 125.146C32.6108 124.751 32.5615 124.439 32.3801 124.303C32.1988 124.167 31.8869 124.216 31.5656 124.267" stroke="#5F00FF" stroke-width="3" stroke-linecap="round"/>
<path d="M42.2877 102.229C42.269 104.153 43.4157 108.708 44.5976 115.131C44.8432 118.389 45.3302 120.795 45.6118 121.555C45.7401 122.019 45.8387 122.642 45.9403 123.285" stroke="#5F00FF" stroke-width="3" stroke-linecap="round"/>
<path d="M45.5257 122.705C48.3906 122.465 50.5459 122.557 52.68 121.044C56.6286 118.245 55.9972 115.456 56.188 114.243C56.5683 111.823 55.0561 108.075 54.3491 106.677C53.2089 104.423 50.9667 103.982 49.2586 103.39C47.5473 102.798 46.5026 102.318 45.3565 102.176C44.5552 102.193 43.3077 102.39 42.0225 102.593" stroke="#5F00FF" stroke-width="3" stroke-linecap="round"/>
<path d="M68.6837 99.6693C64.085 106.628 62.9699 110.46 63.3198 113.745C63.6591 116.93 70.5635 116.376 72.3544 116.47C73.0445 116.507 74.0829 116.252 74.725 115.831C76.8541 114.434 76.7231 111.753 77.0234 109.875C77.3599 107.77 75.6831 105.789 74.6827 103.893C73.6431 101.924 71.51 101.166 70.1066 100.469C69.7649 100.36 69.4366 100.306 68.8516 100.343C68.2667 100.381 67.435 100.513 66.5782 100.648" stroke="#5F00FF" stroke-width="3" stroke-linecap="round"/>
<path d="M99.4895 96.4121C98.2146 95.109 94.7992 95.2164 92.1046 95.9105C89.0419 96.6994 86.9 97.1081 86.686 97.7861C86.1795 99.3903 85.5934 101.076 85.2822 102.529C85.0001 103.845 85.6078 108.682 86.7494 111.501C87.2294 112.686 89.646 112.493 91.1565 113.172C92.4009 113.732 94.823 113.295 96.5788 112.749C96.8893 112.653 97.1988 112.596 97.3868 112.407C97.5748 112.217 97.6294 111.889 97.7971 111.591C97.9647 111.293 98.2437 111.036 98.5312 110.771" stroke="#5F00FF" stroke-width="3" stroke-linecap="round"/>
<path d="M104.979 98.4504C104.813 97.4045 104.789 95.9037 105.23 94.2727C105.337 93.879 105.385 93.5491 105.553 93.2514C106.646 91.3104 110.724 91.9428 112.619 92.021C114.811 92.1114 119.062 91.7028 121.379 91.9258C121.736 91.9601 122.049 92.0894 122.251 92.3255C122.453 92.5615 122.518 92.9774 122.525 93.3557C122.531 93.7341 122.477 94.0624 122.47 94.7157" stroke="#5F00FF" stroke-width="3" stroke-linecap="round"/>
<path d="M113.565 93.5399C113.697 94.3715 113.828 95.2032 114.285 97.7545C114.742 100.306 115.52 104.552 116.321 108.926" stroke="#5F00FF" stroke-width="3" stroke-linecap="round"/>
<path d="M129.166 90.1049C129.689 92.0629 130.343 93.4641 131.118 94.6349C131.498 95.2102 132.12 95.8762 133.177 96.4612C134.298 97.0807 136.023 96.7701 137.632 96.4091C139.958 95.8873 141.474 93.1183 142.26 91.5909C142.931 90.2899 142.673 88.4082 142.669 87.0042C142.668 86.8519 142.27 87.1674 142.115 87.568C141.382 89.4689 141.533 91.3717 141.167 93.1506C140.677 95.5308 139.703 96.8275 138.791 98.5329C138.068 99.8841 137.88 101.636 137.752 103.216C137.921 104.633 138.002 105.818 137.961 106.575C137.974 107.004 138.056 107.524 138.14 108.059" stroke="#5F00FF" stroke-width="3" stroke-linecap="round"/>
<path d="M131.427 108.475C133.227 108.404 135.027 108.332 137.046 108.123C139.065 107.913 141.248 107.568 143.497 107.212" stroke="#5F00FF" stroke-width="3" stroke-linecap="round"/>
<path d="M111.995 112.193C112.203 112.16 113.662 111.93 115.857 111.529C116.996 111.189 117.7 110.862 118.513 110.572C118.927 110.451 119.343 110.386 119.771 110.318" stroke="#5F00FF" stroke-width="3" stroke-linecap="round"/>
<path d="M151.218 86.617C152.616 94.7847 153.334 96.6086 153.901 98.8292C154.114 99.4979 154.437 100.193 154.636 100.759C154.835 101.324 154.901 101.74 154.969 102.169" stroke="#5F00FF" stroke-width="3" stroke-linecap="round"/>
<path d="M152.743 86.0535C153.682 85.9051 158.231 86.2512 160.437 87.4152C161.897 88.1859 162.464 89.6794 162.669 90.2912C163.077 91.5101 161.206 92.568 160.086 93.6606C158.982 94.8603 157.135 95.3688 155.712 96.2897C155.489 96.5946 155.33 96.9394 155.216 97.6096" stroke="#5F00FF" stroke-width="3" stroke-linecap="round"/>
<path d="M152.267 105.503C152.475 105.47 152.682 105.437 154.245 105.19C155.807 104.943 158.718 104.483 162.397 104.224" stroke="#5F00FF" stroke-width="3" stroke-linecap="round"/>
<path d="M171.214 84.4236C172.014 88.1332 173.1 94.3064 174.197 100.912C174.588 103.261 174.775 103.551 175.026 103.782C176.232 104.893 178.524 104.146 180.309 103.867C181.776 103.638 182.819 102.718 184.317 102.318C185.652 101.961 186.901 101.317 188.031 100.978C188.347 98.8407 187.985 95.8757 187.977 94.8049C187.931 94.1664 187.799 93.3348 187.664 92.4779" stroke="#5F00FF" stroke-width="3" stroke-linecap="round"/>
<path d="M174.1 90.4255C177.459 90.1074 179.606 89.8777 180.293 90.142C180.692 90.2953 180.68 91.1996 180.698 91.3146C180.634 90.9098 180.396 90.0788 180.106 89.2674C179.97 88.7513 179.855 88.0236 179.736 87.2739" stroke="#5F00FF" stroke-width="3" stroke-linecap="round"/>
<path d="M170.45 81.6382C175.004 79.9494 180.301 79.3249 181.695 79.2675C182.35 79.2406 183.014 79.435 183.676 79.5451C184.009 79.6006 184.337 79.6552 184.63 80.4631C184.922 81.2709 185.169 82.8302 185.423 84.4368" stroke="#5F00FF" stroke-width="3" stroke-linecap="round"/>
<path d="M212.63 72.7088C214.503 79.8166 216.355 84.7063 216.986 87.6675C217.49 90.0307 218.031 91.222 218.389 92.4585C218.572 93.0881 218.885 93.8865 218.594 94.7398C218.432 95.2137 217.388 95.2048 217.176 95.2917C215.694 95.8979 220.972 94.8545 221.291 94.4827C222.059 93.5885 218.977 92.3834 217.403 89.9377C216.341 88.2871 216.556 85.9789 216.788 84.3811C217.01 82.8452 218.247 81.727 219.444 80.7821C220.667 79.8166 222.367 79.8872 223.756 79.8275C225.375 79.7578 226.129 81.869 226.644 83.402C227.167 84.957 228.119 86.2879 228.968 91.9529C229.134 93.0564 228.358 93.1473 228.714 93.091C229.07 93.0347 230.317 92.8374 230.883 92.5881C231.449 92.3387 231.296 92.0433 230.458 91.5235" stroke="#5F00FF" stroke-width="3" stroke-linecap="round"/>
<path d="M240.899 71.79C241.009 75.1823 241.806 81.6079 243.083 88.6712C243.518 91.0771 243.932 91.0071 244.256 91.009C245.62 91.017 248.787 91.2079 250.963 90.5425C251.263 90.3869 251.559 90.2336 251.782 89.9303C252.005 89.627 252.147 89.1783 252.509 88.0362" stroke="#5F00FF" stroke-width="3" stroke-linecap="round"/>
<path d="M234.93 76.9315C235.674 76.9203 236.418 76.9092 238.049 76.7062C239.68 76.5032 242.175 76.1087 244.746 75.7022" stroke="#5F00FF" stroke-width="3" stroke-linecap="round"/>
<path d="M256.088 73.9089C256.88 78.9209 258.187 85.8342 258.504 88.1573C258.566 88.6117 258.136 88.8644 258.512 88.9148C258.888 88.9651 259.928 88.8007 260.381 88.1962C262.188 85.7876 259.938 83.9621 259.158 82.4193C258.371 80.8623 258.664 79.3169 258.774 78.6553C259.15 76.395 261.606 74.1147 262.289 73.6839C262.66 73.4494 263.212 73.4281 263.617 73.5772C265.225 74.1698 265.663 75.9401 266.022 77.1766C266.421 78.5516 267.804 84.7008 267.085 87.6157C267.023 87.865 268.5 87.1222 269.762 86.9227C270.39 86.8234 267.77 86.4885 266.692 85.4757C265.424 84.2853 266.14 81.6898 266.149 80.0207C266.159 78.1199 266.445 76.7982 266.666 75.47C266.721 75.1367 266.776 74.8084 266.952 74.5627C267.7 73.5175 269.213 73.2347 270.516 73.2935C271.994 73.3602 272.884 75.3342 273.912 77.0542C274.968 78.8227 274.697 80.6499 274.85 81.2699C275.197 82.6789 273.73 84.0286 273.349 85.3819C273.15 86.0905 272.865 86.7516 272.911 87.3885C272.934 87.7123 273.269 87.9762 273.869 88.0459C274.469 88.1156 275.405 87.9677 275.419 87.9655C275.433 87.9632 274.498 88.1112 274.043 88.0232C273.589 87.9353 273.643 87.607 273.751 87.2655C274.017 86.5792 274.339 85.8793 274.538 85.0971C274.578 84.6596 274.496 84.1398 274.992 83.1896" stroke="#5F00FF" stroke-width="3" stroke-linecap="round"/>
<path d="M280.242 63.3082C281.714 62.4296 284.076 62.4823 286.447 62.4335C286.888 62.4245 287.232 62.6291 287.483 63.1786C288.658 65.7439 287.686 67.504 287.979 71.0483C288.797 80.9718 290.609 83.29 291.05 85.7017C291.27 86.9055 288.262 85.3982 286.191 85.5627C285.706 85.6012 285.377 85.5316 284.74 85.5774C284.103 85.6232 283.168 85.7712 284.869 85.5022C286.57 85.2332 290.936 84.5427 295.434 83.8314" stroke="#5F00FF" stroke-width="3" stroke-linecap="round"/>
<path d="M301.35 66.1052C301.973 66.0066 305.676 67.1259 311.328 68.8686C316.327 70.41 318.857 70.0077 319.835 70.3891C321.426 71.0103 317.697 72.7744 315.221 74.7739C309.628 78.248 306.893 79.9656 304.052 81.7646C303.457 82.1298 303.074 82.4035 302.415 83.0503" stroke="#5F00FF" stroke-width="3" stroke-linecap="round"/>
</g>
<g opacity="0.25">
<path d="M417.837 92.9781L417.848 92.9815C418.584 93.2973 418.713 93.9943 418.733 94.1055C418.767 94.3005 418.764 94.4553 418.759 94.5052C418.748 94.6203 418.72 94.7096 418.714 94.7363L418.646 94.9607C418.628 95.007 418.596 95.0692 418.569 95.1334C418.514 95.2642 418.431 95.452 418.326 95.6964C418.112 96.194 417.788 96.9402 417.359 97.9261L416.075 100.88L414.788 103.846C413.961 105.743 413.233 107.807 412.621 110.047L411.678 113.496L410.731 116.956C410.173 118.998 410.195 120.985 410.772 122.942L412.742 129.633C413.385 131.811 414.151 133.968 415.036 136.103L416.398 139.379L417.756 142.666C418.64 144.799 419.636 146.878 420.744 148.905L422.445 152.026L424.15 155.136C425.265 157.177 427.054 160.199 429.525 164.214L433.238 170.244L433.253 170.273L433.258 170.299L433.308 170.375C433.717 171.095 433.469 172.013 432.751 172.423C432.031 172.832 431.113 172.585 430.703 171.866L430.68 171.822L426.968 165.792C424.488 161.764 422.668 158.679 421.514 156.568L418.104 150.348C416.945 148.227 415.911 146.045 414.985 143.812L413.624 140.537L412.266 137.25C411.341 135.018 410.54 132.76 409.867 130.478L407.897 123.787C407.159 121.283 407.147 118.734 407.847 116.17L408.782 112.707L409.726 109.258C410.372 106.893 411.141 104.678 412.032 102.634L413.327 99.6834L414.611 96.7292C415.039 95.7476 415.36 95.012 415.571 94.5219C415.675 94.2796 415.748 94.0945 415.797 93.9779L415.838 93.8803C415.836 93.8853 415.819 93.934 415.804 93.9925C415.799 94.0116 415.781 94.1071 415.77 94.227C415.766 94.2763 415.751 94.4298 415.785 94.6233C415.805 94.7331 415.933 95.4097 416.651 95.7293L417.106 94.6672L415.807 93.8219L415.845 93.7355C415.942 93.5176 416.092 93.3435 416.264 93.2009L416.861 92.561L417.837 92.9781Z" fill="#5F00FF"/>
<path d="M451.004 61.1277C453.476 61.628 455.854 62.4196 458.13 63.5122L461.378 65.0805L464.629 66.6375C466.718 67.6403 468.873 68.4545 471.087 69.0893L474.522 70.0776L477.969 71.0693C480.232 71.7184 482.514 72.2883 484.809 72.7798L488.304 73.5292L491.788 74.2751C494.366 74.8273 496.426 76.1307 496.823 78.5988L497.587 83.2853C497.904 85.2514 497.415 87.4372 496.367 89.7597L494.885 93.0458L493.406 96.3208C492.445 98.4503 491.62 100.62 490.93 102.82L488.81 109.598C488.385 110.949 487.663 112.102 486.537 112.829C485.404 113.559 484.058 113.722 482.667 113.521L479.254 113.029L475.829 112.533C473.507 112.198 471.152 111.764 468.778 111.237L461.756 109.68C460.669 109.439 460.021 109.424 459.697 109.486L459.44 110.865L459.136 112.438C459.096 112.647 459.093 113.058 459.281 113.743C459.463 114.41 459.801 115.243 460.309 116.257L461.92 119.473L463.536 122.679C464.568 124.737 465.768 126.688 467.143 128.53L469.286 131.405L471.433 134.269C472.892 136.222 473.892 138.025 474.161 139.585L474.479 141.37L474.782 143.163C474.868 143.666 474.864 144.297 474.531 144.887C474.183 145.5 473.617 145.827 473.086 145.981C472.143 146.253 470.955 146.076 469.781 145.779L462.843 144.026C460.504 143.433 458.19 142.773 455.91 142.055L452.535 140.987L449.146 139.927C447.157 139.302 446.149 139.634 445.57 140.218L443.861 141.943L442.139 143.675C441.221 144.6 440.381 146.075 439.688 148.223L437.48 155.048C436.775 157.234 435.975 160.628 435.08 165.267L433.744 172.246L433.707 172.369C433.535 173.177 432.747 173.693 431.938 173.524C431.13 173.352 430.602 172.561 430.772 171.752L430.792 171.685L432.143 164.699C433.042 160.032 433.862 156.49 434.625 154.125L436.833 147.3C437.608 144.899 438.642 142.943 440.01 141.563L441.733 139.831L443.441 138.107C445.146 136.387 447.534 136.275 450.047 137.066L453.436 138.126L456.811 139.194C459.036 139.894 461.292 140.535 463.575 141.114L467.045 141.99L470.51 142.877C471.017 143.006 471.421 143.07 471.729 143.098L471.52 141.885L471.206 140.088C471.063 139.26 470.429 137.938 469.03 136.065L466.883 133.201L464.74 130.326C463.258 128.342 461.965 126.239 460.853 124.023L459.238 120.818L457.637 117.605C457.075 116.485 456.65 115.46 456.397 114.537C456.148 113.628 456.025 112.706 456.187 111.866L456.502 110.297L456.806 108.723C456.914 108.169 457.18 107.658 457.628 107.258C458.061 106.872 458.58 106.66 459.076 106.557C460.026 106.36 461.179 106.482 462.407 106.755L469.428 108.312C471.731 108.823 474.005 109.239 476.248 109.563L483.098 110.554C483.99 110.683 484.548 110.54 484.911 110.306C485.28 110.068 485.664 109.603 485.948 108.697L488.068 101.919C488.795 99.6018 489.661 97.3176 490.672 95.0789L493.629 88.5291C494.552 86.4839 494.814 84.9227 494.628 83.7627L493.864 79.0762C493.758 78.4171 493.238 77.6522 491.16 77.2069L487.676 76.461L484.181 75.7117C481.82 75.206 479.474 74.6223 477.146 73.9548L470.253 71.9714C467.878 71.2898 465.563 70.4155 463.324 69.3403L460.087 67.7754L456.836 66.2184C454.783 65.2327 452.639 64.5209 450.409 64.0697L446.881 63.3472L443.35 62.636C440.956 62.1516 438.604 61.5645 436.293 60.8723L432.891 59.8572L431.892 59.5557L433.3 60.9354C434.703 62.3118 436.016 64.0989 437.237 66.2618L438.998 69.3888L440.751 72.5011C441.899 74.5362 443.162 76.5379 444.536 78.4917L446.635 81.4756L448.744 84.4628C450.275 86.6405 451.25 89.0496 451.674 91.6641L452.258 95.2436L452.839 98.8342C453.045 100.109 453.027 101.651 451.913 102.631C450.8 103.607 449.265 103.434 448.021 103.072L444.519 102.063L441.009 101.04C438.655 100.355 436.34 99.6253 434.066 98.8578L430.689 97.7158L427.301 96.5705C425.048 95.8102 423.057 95.1469 421.331 94.5719L418.741 93.7041L416.147 92.8475C415.871 92.7556 415.614 92.6782 415.388 92.606L415.385 93.1436L413.578 92.7206L413.485 92.7047C412.679 92.5193 412.168 91.7115 412.351 90.9056C412.364 90.8488 412.417 90.8012 412.436 90.7475L412.426 90.6588L412.538 90.2886C412.694 89.7754 413.064 89.4997 413.316 89.3729C413.547 89.2565 413.754 89.2171 413.856 89.2055C414.063 89.1824 414.248 89.2057 414.342 89.2176C414.556 89.245 414.808 89.3066 415.043 89.3682C415.533 89.4967 416.224 89.71 417.093 89.9993L419.687 90.8559L422.277 91.7237C424.007 92.3 426.004 92.9649 428.258 93.7257L431.646 94.871L435.022 96.013C437.257 96.7671 439.538 97.4873 441.853 98.1613L445.352 99.1811L448.855 100.19C449.346 100.333 449.67 100.368 449.857 100.358C449.877 100.357 449.894 100.35 449.909 100.349C449.911 100.338 449.916 100.328 449.919 100.315C449.951 100.136 449.96 99.8122 449.879 99.3116L449.295 95.7321L448.714 92.1415C448.363 89.9795 447.559 88.0018 446.287 86.1937L444.178 83.2065L442.083 80.2114C440.653 78.178 439.336 76.1004 438.139 73.9769L436.374 70.8612L434.624 67.7376C433.5 65.7449 432.353 64.2078 431.207 63.0823L429.288 61.2055L427.374 59.3175C427.038 58.9877 426.684 58.5954 426.47 58.1754C426.365 57.9687 426.195 57.5807 426.243 57.1031C426.302 56.5162 426.65 56.0585 427.088 55.8037C427.447 55.5972 427.816 55.5502 428.037 55.5394C428.282 55.5278 428.532 55.5535 428.758 55.5855C429.21 55.6501 429.751 55.7767 430.347 55.9554L433.747 56.9818L437.149 57.997C439.372 58.663 441.638 59.2272 443.945 59.694L447.476 60.4052L451.004 61.1277Z" fill="#5F00FF"/>
</g>
<g opacity="0.25">
<path d="M729.348 137.923C729.459 137.899 729.57 137.875 733.349 136.306C737.129 134.737 744.574 131.624 764.103 126.171C783.631 120.718 815.018 113.02 833.351 108.877C851.685 104.734 856.015 104.38 858.835 104.244C861.655 104.108 862.835 104.202 866.597 104.091C870.359 103.981 876.668 103.663 881.11 103.649C891.19 103.615 894.659 105.651 897.689 107.165C901.126 108.882 905.814 114.46 907.678 119.759C908.707 122.687 905.736 126.445 901.43 131.643C899.323 134.187 895.106 137.599 890.032 141.287C884.958 144.975 878.899 148.601 867.564 153.516C856.23 158.431 839.804 164.526 821.852 169.364C803.9 174.203 784.921 177.601 767.576 179.477C750.231 181.353 735.095 181.603 724.534 181.284C713.974 180.966 708.447 180.071 704.851 179.365C699.718 178.358 697.273 177.059 695.551 175.853C694.08 174.822 693.327 173.459 692.902 172.033C692.412 170.39 692.733 168.552 693.405 166.539C694.341 163.74 697.115 160.702 700.485 157.113C702.369 155.236 704.607 153.246 709.042 150.237C713.478 147.228 720.043 143.261 726.807 139.174" stroke="#5F00FF" stroke-width="3" stroke-linecap="round"/>
<path d="M752.08 142.476C751.903 142.417 749.844 143.239 746.507 145.03C744.008 146.372 743.179 148.996 742.202 151.039C741.23 153.068 741.037 155.113 741.11 156.64C741.202 158.549 742.989 159.982 744.593 161.395C745.351 162.064 746.375 162.511 748.293 163.132C749.658 163.574 751.916 163.929 753.537 164.142C756.083 164.475 757.625 164.148 758.677 163.837C760.471 163.307 761.869 161.956 762.838 160.899C763.682 159.978 763.922 158.661 764.25 157.649C764.339 157.058 764.399 156.49 764.458 156.045C764.488 155.836 764.517 155.66 764.548 155.478" stroke="#5F00FF" stroke-width="3" stroke-linecap="round"/>
<path d="M769.98 151.114C769.357 156.63 769.886 158.998 771.177 160.786C772.605 162.765 774.955 162.809 777.001 162.752C778.332 162.715 778.765 161.153 779.194 160.043C779.726 158.67 779.717 156.589 779.702 154.513C779.686 152.166 778.209 150.617 776.651 149.382C774.694 147.829 771.948 148.649 769.973 149.537C768.557 150.902 768.111 152.149 767.992 152.934C767.961 153.308 767.991 153.631 768.021 153.964" stroke="#5F00FF" stroke-width="3" stroke-linecap="round"/>
<path d="M786.277 146.216C786.63 150.86 786.87 153.869 787.18 155.377C787.908 158.923 788.473 159.365 788.636 159.368C788.814 159.37 788.887 158.782 789.359 156.556C789.832 154.331 790.625 150.334 791.181 147.981C791.884 145.002 792.539 144.288 792.939 144.021C793.292 143.786 793.667 143.723 794.096 143.796C794.704 143.9 795.387 144.579 796.157 145.526C797.047 146.62 797.791 148.902 798.532 151.556C798.982 154.259 799.101 155.382 799.175 156.468C799.191 156.838 799.191 157.396 799.28 157.793" stroke="#5F00FF" stroke-width="3" stroke-linecap="round"/>
<path d="M810.322 128.761C810.293 134.257 810.264 139.752 810.234 143.186C810.193 147.825 810.232 149.595 810.557 150.823C810.984 152.437 811.892 153.604 812.573 154.271C813.905 155.575 816.923 155.743 819.352 155.231C821.253 153.834 822.757 152.455 823.276 151.698C823.472 151.383 823.531 151.207 823.592 150.758" stroke="#5F00FF" stroke-width="3" stroke-linecap="round"/>
<path d="M801.506 143.366C801.77 143.308 802.035 143.249 803.876 142.91C805.716 142.571 809.125 141.954 811.029 141.592C813.764 140.933 814.447 140.636 814.817 140.459C814.982 140.34 815.099 140.164 815.221 139.804" stroke="#5F00FF" stroke-width="3" stroke-linecap="round"/>
<path d="M836.973 131.767C836.973 131.708 835.18 132.089 831.979 133.153C829.293 134.046 828.19 136.155 827.287 137.53C826.108 139.326 825.486 141.258 825.19 142.739C824.92 144.088 825.038 145.122 825.289 145.832C825.561 146.6 827.546 147.318 830.509 147.618C831.854 147.754 832.885 146.86 834.061 146.057C838.189 143.238 838.987 142.044 839.524 141.003C839.763 139.345 839.999 136.852 840.031 134.565C839.972 134.143 839.854 134.025 839.466 133.548" stroke="#5F00FF" stroke-width="3" stroke-linecap="round"/>
<path d="M838.754 132.746C838.754 132.805 838.754 132.864 839.298 134.408C839.841 135.952 840.929 138.979 841.665 140.905C842.754 143.567 843.5 144.882 844.225 145.89C844.569 146.339 844.863 146.662 845.344 147.263" stroke="#5F00FF" stroke-width="3" stroke-linecap="round"/>
<path d="M851.133 126.334C850.898 126.334 849.513 128.538 847.598 132.201C846.577 134.154 847.006 135.208 847.168 135.726C847.365 136.352 848.07 137.282 849.209 138.482C850.442 139.78 852.311 140.491 853.912 141.084C855.024 141.496 856.407 141.71 857.935 141.933C858.839 142.064 860.735 141.714 863.404 141.063C865.942 139.371 866.894 138.063 867.059 137.217C867.074 136.993 867.074 136.788 867.074 136.576" stroke="#5F00FF" stroke-width="3" stroke-linecap="round"/>
<path d="M865.471 112.709C866.97 116.294 868.468 119.88 869.814 122.594C871.159 125.308 872.305 127.041 873.542 128.581C875.921 131.542 877.669 132.952 878.393 133.411C880.488 134.319 883.084 134.497 884.468 134.144C884.558 133.995 884.588 133.819 884.618 133.459" stroke="#5F00FF" stroke-width="3" stroke-linecap="round"/>
<path d="M860.75 128.739C860.75 128.68 862.72 127.68 865.923 126.166C867.143 125.59 867.599 125.535 869.604 125.21C871.609 124.885 875.165 124.327 878.011 123.76C880.857 123.193 882.885 122.635 885.33 121.882" stroke="#5F00FF" stroke-width="3" stroke-linecap="round"/>
<path d="M726.956 166.196C724.239 164.072 722.515 162.732 721.196 161.972C718.641 160.503 716.592 159.81 716.118 159.616C715.12 159.21 714.039 158.539 713.511 158.011C713.265 157.766 712.918 157.591 712.735 157.38C712.662 157.295 712.821 157.156 712.969 157.1C713.66 156.839 714.609 156.995 716.14 156.803C717.556 156.625 718.366 156.642 719.871 156.75C720.846 156.819 721.399 156.946 721.979 157.094C722.116 157.129 722.249 157.082 722.182 157.074C721.032 156.937 719.533 156.94 718.727 156.907C717.442 156.855 716.147 156.893 715.243 156.725C714.589 156.603 714.066 156.567 713.782 156.514C713.648 156.489 713.525 156.591 713.391 156.711C712.104 157.861 711.921 161.626 711.643 162.993C711.388 164.254 711.438 165.114 711.389 165.63C711.272 166.873 710.936 163.002 710.842 160.986C710.777 160.152 710.714 159.436 710.708 158.776C710.719 158.613 710.734 158.474 710.722 158.2" stroke="#5F00FF" stroke-width="3" stroke-linecap="round"/>
</g>
<g opacity="0.25">
<path d="M551.693 64.499C550.18 64.8405 548.668 65.182 547.206 65.7116C545.744 66.2413 544.378 66.9486 542.881 67.8985C541.385 68.8483 539.799 70.0192 538.897 70.7321C537.782 71.6134 537.502 72.0127 537.158 72.356C536.243 73.2704 536.172 74.1541 536.108 75.4462C536.087 75.8803 536.243 76.1277 536.415 76.3365C536.619 76.5844 536.932 76.7929 537.593 77.0871C538.076 77.3019 538.889 77.5764 540.279 77.898C541.67 78.2195 543.621 78.561 545.212 78.7979C546.802 79.0348 547.973 79.1568 548.845 79.2196C549.716 79.2825 550.253 79.2825 550.578 79.2946C550.903 79.3068 551.001 79.3312 551.101 79.3564" stroke="#5F00FF" stroke-width="3" stroke-linecap="round"/>
<path d="M559.823 65.3864C561.384 63.7277 562.847 62.6781 563.955 62.3703C564.401 62.2463 564.623 62.2331 565.554 62.2084C566.484 62.1836 568.118 62.1592 569.155 62.171C570.584 62.1873 571.448 62.4771 572.248 62.8337C572.798 63.079 573.176 63.4624 573.52 63.9292C573.86 64.3891 574.111 65.7701 574.518 67.4569C574.72 68.2985 574.95 68.7105 575.184 69.1773C575.433 69.6749 575.494 70.6767 575.481 71.8339C575.47 72.9104 574.978 73.6386 574.743 74.0824C574.479 74.5824 573.746 74.9691 573.339 75.2411C573.099 75.4019 571.956 76.0497 570.331 76.8872C569.179 77.4805 568.032 77.4349 566.879 77.2764C563.987 76.8787 563.742 76.2286 563.495 75.9577C563.071 75.4923 562.707 74.19 562.656 72.4514C562.634 71.6705 563.197 71.2525 563.555 70.8578C564.002 70.3638 565.138 70.095 566.661 69.6522C568.253 69.1897 569.43 69.1562 569.934 69.1928C570.524 69.2356 570.81 69.8436 571.254 70.6183C571.662 71.3313 571.847 72.0856 572.006 72.7848C572.24 73.813 572.731 74.9654 573.284 75.9984C574.084 77.4928 574.654 77.9745 575.073 78.8116C575.198 79.2814 575.247 79.6517 575.321 79.8236C575.346 79.9222 575.346 80.0442 575.346 80.1699" stroke="#5F00FF" stroke-width="3" stroke-linecap="round"/>
<path d="M591.904 54.7422C591.88 54.8154 591.856 54.8885 591.867 56.4996C591.879 58.1106 591.928 61.2572 592.209 63.8662C592.49 66.4751 593.003 68.4509 593.328 69.798C593.809 71.7956 593.973 72.7018 594.109 73.2052C594.273 73.8185 594.27 74.28 594.282 74.4644C594.293 74.6282 594.514 73.6021 594.822 71.7561C594.947 71.0056 595.056 70.6418 595.399 68.8434C595.742 67.045 596.327 63.8251 596.69 62.0445C597.105 60.0046 597.471 59.5734 597.803 59.2168C598.34 58.6392 599.388 58.3168 600.083 58.2651C600.193 58.2569 600.255 58.4114 600.586 59.1935C600.916 59.9755 601.502 61.4391 601.864 62.3028C602.546 63.927 603.088 64.8895 603.373 65.6054C603.583 66.2962 603.608 66.838 603.645 67.8776C603.657 68.7221 603.657 70.2101 603.657 71.7431" stroke="#5F00FF" stroke-width="3" stroke-linecap="round"/>
<path d="M613.044 57.0334C613.044 57.1066 613.044 57.1798 613.166 58.8274C613.288 60.475 613.532 63.6948 613.682 65.4755C613.832 67.2562 613.881 67.5001 613.906 67.9673C614.024 70.1607 614.079 71.0999 614.091 71.5182C614.096 71.693 614.128 71.7902 614.14 71.5112C614.153 71.2322 614.153 70.5736 614.238 69.2342C614.323 67.8948 614.494 65.8946 614.643 64.5349C614.792 63.1752 614.914 62.5166 615.062 61.9578C615.331 60.9452 615.655 60.3368 615.839 59.9805C616.029 59.6138 616.294 59.0817 616.688 58.5402C617.364 57.6102 618.805 56.9122 619.62 56.6524C619.818 56.5907 620.013 56.5175 620.162 56.4676C620.311 56.4177 620.409 56.3933 620.51 56.516" stroke="#5F00FF" stroke-width="3" stroke-linecap="round"/>
<path d="M622.284 60.3595C623.333 60.6034 624.382 60.8474 625.483 60.973C626.584 61.0987 627.706 61.0987 629.114 60.8914C630.521 60.684 632.18 60.2693 633.571 59.7874C634.962 59.3055 636.035 58.7688 636.661 58.4192C637.799 57.7838 638.223 57.184 638.459 56.5676C638.715 55.8966 638.374 55.2622 637.932 54.4739C637.521 53.7423 636.946 53.6345 635.989 53.2162C635.54 53.0202 634.791 52.8732 634.035 52.7727C633.28 52.6721 632.524 52.6721 631.879 52.7331C630.711 52.8433 629.778 53.1881 629.089 53.4464C628.369 53.7164 627.464 54.319 626.66 54.937C626.359 55.1679 625.811 55.6495 624.903 56.6921C624.355 57.3202 623.75 58.247 623.241 59.0534C622.318 60.5139 621.915 61.4417 621.78 61.8959C621.463 62.9595 621.716 63.7316 622.085 64.5817C622.304 65.086 622.847 65.7754 623.608 66.746C624.462 67.8343 625.385 68.6353 626.073 69.1398C626.621 69.5409 627.136 69.7211 627.675 70.0157C628.013 70.2003 628.508 70.4078 629.527 70.7161C630.547 71.0243 632.084 71.4146 633.241 71.64C635.131 71.9142 636.006 71.9157 636.228 71.8052C636.327 71.7435 636.4 71.6703 636.476 71.5949" stroke="#5F00FF" stroke-width="3" stroke-linecap="round"/>
<path d="M641.798 52.2289C641.822 52.2289 641.847 52.2289 642.567 52.241C643.287 52.2532 644.701 52.2776 645.979 52.1804C647.257 52.0832 648.354 51.8637 649.054 51.7506C650.016 51.5951 650.493 51.6131 650.984 51.5762C651.67 51.5636 652.414 51.6124 653.017 51.7107C653.278 51.7602 653.449 51.809 653.551 51.9332" stroke="#5F00FF" stroke-width="3" stroke-linecap="round"/>
<path d="M651.777 42.1025C649.733 42.4965 649.241 42.546 648.503 42.9016C648.176 43.0588 647.886 43.4552 647.456 44.1541C647.188 44.5902 646.953 45.2677 646.644 46.4607C646.335 47.6537 645.993 49.3612 645.744 51.6434C645.495 53.9256 645.349 56.7307 645.359 58.993C645.369 61.2552 645.54 62.8895 645.75 64.1949C645.959 65.5003 646.203 66.4272 646.561 67.4901C646.918 68.5531 647.382 69.7239 647.62 70.6564C647.859 71.5888 647.859 72.2474 647.859 72.926" stroke="#5F00FF" stroke-width="3" stroke-linecap="round"/>
<path d="M659.021 54.6683C659.069 54.6683 659.118 54.6683 660.07 54.4122C661.022 54.156 662.876 53.6438 663.904 53.3677C665.075 53.0533 665.522 52.9445 666.527 52.7113C667.239 52.5757 668.361 52.4049 669.317 52.317C670.273 52.229 671.029 52.229 671.882 52.3029" stroke="#5F00FF" stroke-width="3" stroke-linecap="round"/>
<path d="M660.204 62.6506C661.033 62.4067 661.863 62.1628 662.973 61.8786C664.083 61.5944 665.449 61.2773 666.312 61.1017C667.174 60.9262 667.491 60.9018 668.276 60.7672C669.062 60.6327 670.306 60.3888 671.093 60.2143C671.88 60.0399 672.173 59.9423 672.622 59.8418" stroke="#5F00FF" stroke-width="3" stroke-linecap="round"/>
<path d="M680.826 40.55C680.728 42.6478 680.605 44.3627 680.494 45.7871C680.456 47.5042 680.481 48.5324 680.53 48.6798C680.555 48.7541 680.579 48.8273 680.752 48.9027" stroke="#5F00FF" stroke-width="3" stroke-linecap="round"/>
<path d="M688.069 38.7754C687.63 40.5317 687.379 41.6803 687.147 42.8549C686.962 43.7903 686.549 45.3954 686.348 46.2857C686.147 47.298 686.098 47.5701 686.024 47.865C685.999 48.0136 685.999 48.1599 685.999 48.3107" stroke="#5F00FF" stroke-width="3" stroke-linecap="round"/>
<path d="M703.445 46.0938C701.786 45.0693 700.712 44.4928 700.124 44.4189C698.532 44.219 697.782 44.5652 697.091 44.7012C696.383 44.8406 695.566 45.3517 695.143 45.8085C694.845 46.1303 694.871 46.8049 694.932 47.4199C694.981 47.9205 695.85 48.5774 696.872 49.3532C697.434 49.7803 698.021 49.9848 698.734 50.3659C700.035 51.0617 700.61 51.3892 701.801 52.3354C702.55 52.9299 703.025 53.5572 703.344 53.9508C703.961 54.7098 704.578 55.5774 704.836 56.0216C705.125 56.5171 705.071 57.3484 704.986 57.9191C704.922 58.3404 704.678 58.6583 704.432 59.0522C704.239 59.3611 703.768 59.6436 703.276 59.9389C702.898 60.1659 702.072 60.5779 700.964 61.1932C699.798 61.8413 699.038 61.7391 698.188 61.7399C696.65 61.4945 695.366 61.2468 694.799 61.1855C694.602 61.1729 694.334 61.1729 694.058 61.1729" stroke="#5F00FF" stroke-width="3" stroke-linecap="round"/>
<path d="M711.872 51.3418C711.872 51.3662 711.872 51.3906 712.652 51.5007C713.433 51.6109 714.994 51.806 716.249 51.8211C717.505 51.8363 718.407 51.6656 719.482 51.3825C720.557 51.0993 721.776 50.7091 722.637 50.3982C723.977 49.9136 724.657 49.4953 725.075 49.2004C725.915 48.6075 726.358 47.6489 726.568 47.0568C726.793 46.4246 726.557 45.3604 726.348 44.6911C726.148 44.0522 725.157 43.338 724.44 42.9042C724.142 42.7243 723.506 42.4488 722.499 42.1291C721.983 41.9656 721.442 41.8582 720.617 41.8076C719.792 41.757 718.694 41.7814 717.995 41.8427C717.295 41.9041 717.027 42.0016 716.669 42.186C716.311 42.3705 715.872 42.6388 714.719 43.6673C713.566 44.6959 711.712 46.4766 710.684 47.4915C709.484 48.6761 709.31 49.0977 709.199 49.4909C709.087 49.8911 709.013 50.5243 709.099 51.3115C709.165 51.9209 709.871 52.8135 710.976 54.1041C711.54 54.7624 712.228 55.3215 712.97 55.8792C713.711 56.4369 714.516 56.9492 715.638 57.5057C716.76 58.0623 718.175 58.6478 719.221 58.9981C720.267 59.3485 720.901 59.4461 721.606 59.4963C723.064 59.6003 724.09 59.4978 724.521 59.3995C725.141 59.2578 725.716 58.9567 726.418 58.4153C726.556 58.2907 726.605 58.2176 726.654 58.1067C726.704 57.9958 726.753 57.8495 726.803 57.6987" stroke="#5F00FF" stroke-width="3" stroke-linecap="round"/>
<path d="M733.234 42.5456C733.234 42.57 733.234 42.5944 733.075 44.1193C732.917 45.6442 732.6 48.6689 732.436 50.9101C732.273 53.1513 732.273 54.5173 732.249 55.2575C732.224 55.9978 732.176 56.071 732.15 56.0477C732.125 56.0244 732.125 55.9025 732.369 54.7786C732.613 53.6546 733.101 51.5325 733.56 49.8416C734.018 48.1508 734.433 46.9555 734.769 46.0837C735.104 45.2118 735.348 44.6996 735.657 44.2162C736.272 43.2529 737.22 42.4022 738.228 41.615C739.116 40.9212 739.86 40.6984 740.265 40.5754C741.248 40.2771 742.372 40.5247 742.903 40.7092C743.479 40.9089 743.68 41.9994 743.938 43.2741C744.111 44.1315 744.317 45.4269 744.503 46.3368C744.792 47.7445 745.036 48.5544 745.195 49.2788C745.396 50.1951 745.676 50.8717 745.738 51.2527C745.874 52.2487 745.776 53.7751 745.652 54.5672C745.628 54.7161 745.603 54.8381 745.578 55.1116" stroke="#5F00FF" stroke-width="3" stroke-linecap="round"/>
<path d="M751.786 38.6279C751.786 40.2866 751.786 41.9453 751.786 43.495C751.786 45.0447 751.786 46.4351 751.798 47.2489C751.819 48.6582 752.008 49.5869 752.131 50.6849C752.209 51.3892 752.352 51.8325 752.39 52.8285C752.426 53.1142 752.476 53.2628 752.525 53.4103C752.55 53.4845 752.574 53.5577 752.673 53.4853" stroke="#5F00FF" stroke-width="3" stroke-linecap="round"/>
<path d="M751.712 31.68C751.761 31.4604 751.809 31.2409 751.835 31.079C751.86 30.9171 751.86 30.8196 751.712 30.793" stroke="#5F00FF" stroke-width="3" stroke-linecap="round"/>
<path d="M759.622 40.2546C759.915 41.523 760.207 42.7914 760.627 44.1644C761.046 45.5375 761.582 46.9766 761.956 47.9253C762.843 50.1741 763.489 51.0458 763.674 51.1688C763.757 51.2244 763.834 51.2431 763.908 51.2313C764.283 51.1715 764.696 50.8262 765.249 50.5306C766.475 49.876 767.283 49.0034 767.957 48.2199C768.451 47.6448 769.191 46.6558 769.63 46.0678C770.068 45.4798 770.166 45.309 770.533 44.7454C770.9 44.1818 771.535 43.2305 771.934 42.5575C772.534 41.5484 772.68 40.7269 772.754 39.8669C772.792 39.4225 772.779 38.9581 772.816 38.8413C772.866 38.681 773.099 39.3905 773.271 39.759C773.455 40.1532 773.64 41.1586 773.984 42.4263C774.193 43.1932 774.454 43.8965 774.736 44.8304C775.216 46.4172 775.709 46.8554 776.031 47.2139C776.34 47.5598 776.573 47.8666 776.966 48.2731C777.119 48.431 777.312 48.4594 777.496 48.4472C777.66 48.4364 778.366 47.7025 779.4 46.6067C779.925 46.0507 780.561 45.3852 781.348 44.3888C781.894 43.6981 782.19 43.1396 782.631 42.2947C782.947 41.6908 783.268 40.6449 783.481 39.9342C783.952 38.363 783.941 37.7932 784.064 37.2998C784.089 37.054 784.137 36.782 784.224 36.5114C784.261 36.3872 784.285 36.2897 784.31 36.1152" stroke="#5F00FF" stroke-width="3" stroke-linecap="round"/>
<path d="M791.628 35.3755C791.726 35.3267 792.849 34.9601 794.548 34.4305C795.731 34.0618 796.7 34.2904 797.195 34.4877C797.739 34.705 798.326 35.0044 798.87 35.2883C799.364 35.5461 799.806 35.9402 800.25 36.2858C800.694 36.6313 800.94 37.1229 801.224 37.5912C801.524 38.0861 801.778 38.6988 802.528 40.199C802.872 40.8886 803.06 41.3362 803.269 41.7309C803.492 42.1513 803.503 42.9113 803.577 44.0146C803.7 45.8456 803.554 47.0781 803.468 47.2869C803.292 47.7128 803.061 48.1114 802.729 48.6418C802.432 49.1164 801.051 50.1515 800.142 50.6142C799.752 50.8129 798.805 50.8242 797.324 50.5422C796.365 50.3595 795.059 49.3503 794.438 48.7685C794.229 48.5723 793.848 47.9954 793.332 47.1224C792.905 46.4018 792.713 45.6537 792.565 44.77C792.239 42.82 792.785 42.3503 793.019 41.9556C793.134 41.7613 793.229 41.5853 793.376 41.4256C793.911 40.8446 795.05 41.1898 796.096 41.6318C796.484 41.7961 796.971 42.1737 797.952 42.7502C798.548 43.1 799.324 43.5951 800.739 44.6514C802.153 45.7076 804.178 47.3175 805.416 48.3176C806.654 49.3177 807.044 49.6592 807.27 49.8718C807.495 50.0843 807.544 50.1574 807.594 50.3807" stroke="#5F00FF" stroke-width="3" stroke-linecap="round"/>
<path d="M809.219 33.3059C809.195 33.3059 809.171 33.3059 809.341 34.3547C809.511 35.4036 809.877 37.5014 810.176 38.8504C810.598 40.7597 811.041 41.5084 811.312 41.9264C811.576 42.3362 812.099 42.8863 812.774 43.7463C814.033 45.3491 814.466 45.5746 814.689 45.8707C814.795 46.0123 814.935 46.1911 815.168 46.3389C815.43 46.5052 815.894 46.194 816.337 45.8252C816.699 45.5239 817.272 44.6957 818.291 42.9783C818.907 41.94 819.578 40.4802 820.15 39.1534C820.722 37.8266 821.136 36.6558 821.411 35.577C821.921 33.5724 821.982 32.4203 822.056 32.1254C822.105 31.5333 822.179 31.163 822.241 31.0033C822.278 30.9168 822.326 30.8193 822.377 30.7188" stroke="#5F00FF" stroke-width="3" stroke-linecap="round"/>
<path d="M830.878 35.5973C832.097 36.0851 832.994 36.4096 833.632 36.5449C834.455 36.7192 835.626 36.706 836.771 36.6816C837.456 36.667 837.922 36.5338 838.572 36.3749C839.581 36.1282 840.288 35.6475 840.693 35.3533C841.717 34.6094 841.987 33.8765 842.371 33.3077C842.516 33.0915 842.483 32.7167 842.434 32.3231C842.36 31.7301 841.795 31.3618 841.326 31.0033C840.903 30.68 840.342 30.3018 838.854 29.6126C838.29 29.3511 837.365 29.1924 836.013 29.0076C834.72 28.8309 833.885 28.9691 833.529 29.0305C832.584 29.1931 831.522 29.7312 830.904 30.1259C830.403 30.4458 830.017 30.9627 829.389 32.1184C829.122 32.6094 829.006 33.6429 828.858 35.1671C828.72 36.5879 828.881 37.6633 829.029 38.303C829.208 39.0819 829.717 39.8298 830.652 41.0997C830.979 41.5434 831.515 41.9024 832.203 42.3696C832.869 42.8219 833.584 43.1353 834.187 43.4059C835.103 43.8171 835.926 44.1709 836.905 44.3062C837.641 44.3683 838.861 44.4171 839.928 44.369C840.995 44.321 841.873 44.1746 842.778 44.0238" stroke="#5F00FF" stroke-width="3" stroke-linecap="round"/>
<path d="M852.239 42.7674C852.239 42.8649 852.483 43.1347 852.889 43.382C853.03 43.4676 853.125 43.239 853.162 43.1022C853.2 42.9655 853.2 42.8679 853.151 42.7688C853.103 42.6698 853.005 42.5722 852.918 42.5463C852.831 42.5205 852.758 42.5693 852.683 42.6195" stroke="#5F00FF" stroke-width="3" stroke-linecap="round"/>
<path d="M871.532 26.3579C870.117 25.8701 868.702 25.3822 867.559 25.1187C866.415 24.8552 865.586 24.8308 865.025 24.8548C864.19 24.8905 863.211 25.3689 861.907 26.0571C860.79 26.6469 860.004 27.5118 859.255 28.506C858.837 29.0609 858.481 29.8172 858.219 30.4991C857.736 31.757 857.685 32.785 857.685 33.5223C857.684 34.266 857.955 34.8074 858.139 35.1515C858.318 35.4859 858.667 36.013 859.452 36.8353C859.927 37.3331 860.628 37.926 861.37 38.5328C862.112 39.1397 862.892 39.7251 863.429 40.0999C864.214 40.649 864.973 40.8937 865.895 41.1029C866.78 41.3038 867.708 41.2648 868.544 41.2034C869.19 41.1561 870.072 40.8479 871.069 40.4787C871.965 40.1471 872.979 39.6172 873.968 39.2328C874.24 39.1219 874.438 39.0717 874.647 39.0473C874.758 39.0229 874.88 38.9741 875.154 38.776" stroke="#5F00FF" stroke-width="3" stroke-linecap="round"/>
<path d="M890.529 22.8098C890.505 22.7854 890.48 22.761 889.821 22.6021C889.162 22.4432 887.869 22.1505 886.862 21.9875C885.183 21.7159 884.2 21.7994 883.695 21.8607C882.872 21.9609 882.302 22.4136 881.821 22.7348C881.608 22.8769 881.145 23.3235 880.566 23.9267C880.272 24.2333 879.962 24.8012 879.47 25.564C879.145 26.0664 878.926 26.5035 878.582 27.2264C877.999 28.4525 877.84 29.6072 877.766 30.3435C877.664 31.3675 877.79 32.2439 877.962 32.9431C878.215 33.9774 878.749 34.9773 879.412 35.8983C880.24 37.0503 881.139 37.8128 881.68 38.243C882.15 38.6171 883.032 39.2645 884.262 39.9538C885.072 40.4078 885.917 40.598 887.009 40.795C888.305 41.0285 889.343 40.8707 889.933 40.748C890.535 40.6229 891.093 40.3541 891.78 39.9985C892.206 39.7782 892.76 39.4234 893.476 38.8694C894.192 38.3154 895.045 37.5593 895.729 36.9136C896.413 36.2679 896.901 35.7557 897.384 35.1259C897.867 34.4961 898.33 33.7643 898.63 33.2166C899.102 32.3533 899.202 31.4145 899.226 30.4303C899.244 29.7386 899.055 29.194 898.761 28.6411C898.433 28.0252 897.606 27.2988 896.646 26.499C896.231 26.1531 895.931 25.9676 895.402 25.6841C894.873 25.4006 894.117 25.0347 893.032 24.6511C891.948 24.2675 890.557 23.8772 889.341 23.6152C888.125 23.3531 887.124 23.2312 886.094 23.1055" stroke="#5F00FF" stroke-width="3" stroke-linecap="round"/>
<path d="M903.169 20.9625C903.193 23.0603 903.218 25.1581 903.425 27.0071C903.633 28.8562 904.023 30.3929 904.261 31.2577C904.641 32.6393 904.967 33.3525 905.225 33.8105C905.278 33.9034 905.336 33.9705 905.374 33.9472C905.411 33.9239 905.435 33.802 905.509 32.178C905.582 30.554 905.704 27.4318 905.828 25.5794C905.952 23.727 906.074 23.2392 906.234 22.7439C906.556 21.7494 906.888 21.1606 907.061 20.9762C907.199 20.8285 907.381 20.692 907.651 20.6303C908.186 20.5082 908.711 21.2567 909.335 22.0639C909.834 22.709 910.618 23.8956 911.314 25.0354C912.009 26.1752 912.57 27.2485 912.944 28.1429C913.319 29.0373 913.489 29.7202 913.614 30.316C913.974 32.041 914.035 32.7849 914.059 33.3525C914.063 33.4513 914.256 32.963 914.684 31.2537C915.079 29.6758 915.673 26.6172 916.121 24.7416C916.57 22.8659 916.814 22.2561 917.025 21.8078C917.371 21.0731 917.997 20.3513 918.857 19.4661C920.23 18.0531 921.175 17.9334 921.733 17.8824C921.976 17.8602 922.189 18.079 922.459 18.3729C922.946 18.9026 923.371 19.8974 923.874 21.4304C924.188 22.3863 924.402 23.7684 924.565 24.7526C924.819 26.2914 924.9 27.0467 925.023 27.4029C925.22 28.253 925.516 28.9929 925.689 29.9017C925.714 30.2709 925.714 30.7832 925.862 31.3109" stroke="#5F00FF" stroke-width="3" stroke-linecap="round"/>
<path d="M930.001 10.54C930.345 13.2232 930.444 14.06 930.506 14.665C930.543 15.1709 930.592 16.6382 930.702 17.4627C930.764 17.5126 930.861 17.537 931.184 17.5622" stroke="#5F00FF" stroke-width="3" stroke-linecap="round"/>
<path d="M936.728 8.39648C936.974 10.4898 937.023 11.127 937.097 11.6839C937.122 11.8196 937.146 11.9903 937.232 12.1759C937.317 12.3614 937.464 12.5565 937.762 12.9054" stroke="#5F00FF" stroke-width="3" stroke-linecap="round"/>
<path d="M948.628 16.0098C949.994 16.4488 950.99 16.7482 951.995 17.0298C952.709 17.23 953.829 17.5798 955.126 17.9264C956.424 18.2731 957.863 18.6146 958.726 18.8515C959.59 19.0884 959.834 19.2104 959.972 19.3098C960.352 19.5843 960.184 20.4167 959.963 21.2054C959.629 22.396 958.387 22.9565 957.286 23.6295C956.41 24.1651 954.868 25.0587 953.979 25.5968C952.882 26.2607 952.425 26.5784 951.64 27.0929C950.368 28.0464 949.516 28.7472 949.344 28.956C949.245 29.0672 949.123 29.1892 948.998 29.3888" stroke="#5F00FF" stroke-width="3" stroke-linecap="round"/>
<path d="M982.186 12.3136C981.381 12.7527 980.576 13.1917 979.015 14.4546C977.453 15.7175 975.161 17.7909 973.613 19.0785C972.066 20.3661 971.335 20.8052 970.921 21.0802C970.507 21.3551 970.434 21.4527 970.397 21.5762C970.359 21.6996 970.359 21.846 970.395 21.9579C970.462 22.1625 970.8 22.3892 971.328 22.7089C971.969 23.0971 973.014 23.1787 974.913 23.3018C976.225 23.3868 978.252 23.376 979.539 23.4252C981.316 23.4931 981.962 23.6717 982.282 23.7578C982.65 23.8195 982.973 23.8935 983.231 23.9796C983.367 24.0169 983.513 24.0413 983.664 24.0664" stroke="#5F00FF" stroke-width="3" stroke-linecap="round"/>
<path d="M998.004 3C997.37 5.09777 996.736 7.19554 995.872 10.5203C995.009 13.8451 993.936 18.3334 993.334 21.7676C992.732 25.2018 992.635 27.4459 992.572 28.6751C992.412 30.3235 992.288 30.6687 992.227 30.8531C992.19 30.9399 992.141 31.0131 992.091 31.2364" stroke="#5F00FF" stroke-width="3" stroke-linecap="round"/>
<path d="M1005.84 11.3532C1005.89 11.2069 1006.57 10.0094 1007.76 8.17515C1008.86 6.49411 1009.93 6.67278 1010.88 6.40298C1011.58 6.20407 1012.76 5.98683 1013.51 5.86117C1014.55 5.68759 1014.95 5.7599 1015.15 5.83345C1015.58 5.99421 1015.82 6.54564 1016.22 7.60377C1016.41 8.08085 1016.68 9.07878 1017.14 10.4562C1017.74 12.2238 1017.76 13.0991 1017.84 13.9492C1017.88 14.4319 1017.96 15.0454 1017.94 15.8071C1017.91 16.6205 1017.67 17.5571 1017.37 18.4918C1016.97 19.7589 1016.39 20.2454 1015.88 20.7751C1015.32 21.3653 1014.34 21.9204 1013.51 22.3883C1012.84 22.7637 1012.2 22.7601 1011.65 22.8717C1010.69 23.0704 1009.19 23.106 1008.35 23.1674C1007.62 23.2209 1007.05 23.1068 1006.81 22.9349C1006.38 22.6171 1006.23 21.9766 1005.89 21.0153C1005.65 20.3602 1005.76 19.5876 1005.85 18.9072C1005.88 18.6371 1006.33 18.0353 1007.04 17.1254C1007.7 16.2765 1008.35 15.9368 1008.74 15.7772C1010.07 15.2378 1011.53 15.5901 1012.27 15.8363C1013.4 16.212 1014.33 16.8201 1015.3 17.363C1015.81 17.6511 1016.23 17.9555 1016.6 18.1521C1016.93 18.3288 1017.66 18.9859 1018.58 19.86C1019.22 20.4668 1019.44 20.9846 1019.72 21.4045C1019.83 21.6011 1019.93 21.7748 1020.03 21.9345C1020.08 22.0209 1020.13 22.1185 1020.33 22.3669" stroke="#5F00FF" stroke-width="3" stroke-linecap="round"/>
<path d="M1025.5 4.7002C1026.77 5.26123 1028.04 5.82226 1029.17 6.343C1030.3 6.86375 1031.25 7.32721 1032.55 8.04162C1033.86 8.75603 1035.5 9.70734 1036.58 10.3072C1038.13 11.1651 1038.85 11.4991 1039.16 11.7574C1039.28 11.8596 1039.3 11.9426 1039.3 12.0169C1039.3 12.0912 1039.27 12.1643 1037.73 13.3119C1036.18 14.4595 1033.1 16.6792 1031.35 17.9935C1029.59 19.3077 1029.25 19.6492 1028.89 20.0569C1028.54 20.4645 1028.17 20.928 1027.97 21.2033C1027.77 21.4786 1027.74 21.5518 1027.72 21.6272" stroke="#5F00FF" stroke-width="3" stroke-linecap="round"/>
</g>
</svg>
