<svg width="968" height="480" viewBox="0 0 968 480" fill="none" xmlns="http://www.w3.org/2000/svg">
<g clip-path="url(#clip0_22_469)">
<rect width="968" height="480" fill="#5F00FF"/>
<path opacity="0.2" d="M1165.64 452.745L968.464 357.097C899.011 323.406 817.949 323.406 748.496 357.097L661.3 399.394C591.847 433.084 510.784 433.084 441.332 399.394L364.395 362.074C289.193 325.594 200.797 328.776 128.412 370.568L112.076 379.999C34.1065 425.015 -61.9554 425.015 -139.924 379.999L-272 303.745" stroke="white" stroke-width="4"/>
<path opacity="0.2" d="M1202.54 478.745L1005.36 383.097C935.907 349.406 854.844 349.406 785.391 383.097L698.195 425.394C628.742 459.084 547.679 459.084 478.227 425.394L401.29 388.074C326.088 351.594 237.692 354.776 165.307 396.568L148.971 405.999C71.0015 451.015 -25.0604 451.015 -103.029 405.999L-235.105 329.745" stroke="white" stroke-width="4"/>
<path opacity="0.2" d="M1239.43 504.745L1042.25 409.097C972.802 375.406 891.739 375.406 822.286 409.097L735.09 451.394C665.637 485.084 584.575 485.084 515.122 451.394L438.185 414.074C362.983 377.594 274.587 380.776 202.202 422.568L185.866 431.999C107.897 477.015 11.8347 477.015 -66.1344 431.999L-198.21 355.745" stroke="white" stroke-width="4"/>
<path opacity="0.2" d="M1276.33 530.745L1079.15 435.097C1009.7 401.406 928.634 401.406 859.181 435.097L771.985 477.394C702.532 511.084 621.47 511.084 552.017 477.394L475.08 440.074C399.878 403.594 311.482 406.776 239.097 448.568L222.761 457.999C144.792 503.015 48.7297 503.015 -29.2394 457.999L-161.315 381.745" stroke="white" stroke-width="4"/>
<path opacity="0.2" d="M1313.22 556.745L1116.04 461.097C1046.59 427.406 965.529 427.406 896.076 461.097L808.88 503.394C739.427 537.084 658.365 537.084 588.912 503.394L511.975 466.074C436.773 429.594 348.377 432.776 275.992 474.568L259.656 483.999C181.687 529.015 85.6247 529.015 7.65563 483.999L-124.42 407.745" stroke="white" stroke-width="4"/>
<path opacity="0.2" d="M1350.12 582.745L1152.94 487.097C1083.49 453.406 1002.42 453.406 932.971 487.097L845.775 529.394C776.322 563.084 695.26 563.084 625.807 529.394L548.871 492.074C473.668 455.594 385.272 458.776 312.887 500.568L296.551 509.999C218.582 555.015 122.52 555.015 44.5507 509.999L-87.5249 433.745" stroke="white" stroke-width="4"/>
<path opacity="0.2" d="M-87.5248 9L109.656 -86.6489C179.109 -120.339 260.171 -120.339 329.624 -86.6488L416.821 -44.3512C486.273 -10.661 567.336 -10.661 636.788 -44.3512L713.725 -81.6717C788.927 -118.151 877.324 -114.969 949.709 -73.1777L966.045 -63.7461C1044.01 -18.7307 1140.08 -18.7307 1218.04 -63.7461L1350.12 -140" stroke="white" stroke-width="4"/>
<path opacity="0.2" d="M-124.42 35L72.7611 -60.6489C142.214 -94.339 223.276 -94.339 292.729 -60.6488L379.926 -18.3512C449.378 15.339 530.441 15.339 599.893 -18.3512L676.83 -55.6717C752.032 -92.1509 840.429 -88.9692 912.814 -47.1777L929.15 -37.7461C1007.12 7.26933 1103.18 7.26932 1181.15 -37.7461L1313.23 -114" stroke="white" stroke-width="4"/>
<path opacity="0.2" d="M-161.315 61L35.866 -34.6489C105.319 -68.339 186.381 -68.339 255.834 -34.6488L343.031 7.64883C412.483 41.339 493.546 41.339 562.998 7.64884L639.935 -29.6717C715.137 -66.1509 803.534 -62.9692 875.919 -21.1777L892.255 -11.7461C970.224 33.2693 1066.29 33.2693 1144.25 -11.7461L1276.33 -88" stroke="white" stroke-width="4"/>
<path opacity="0.2" d="M-198.21 87L-1.02897 -8.64886C68.4236 -42.339 149.486 -42.339 218.939 -8.64881L306.136 33.6488C375.588 67.339 456.651 67.339 526.103 33.6488L603.04 -3.67167C678.242 -40.1509 766.639 -36.9692 839.024 4.82227L855.359 14.2539C933.329 59.2693 1029.39 59.2693 1107.36 14.2539L1239.44 -62" stroke="white" stroke-width="4"/>
<path opacity="0.2" d="M-235.105 113L-37.924 17.3511C31.5286 -16.339 112.591 -16.339 182.044 17.3512L269.241 59.6488C338.693 93.339 419.756 93.339 489.208 59.6488L566.145 22.3283C641.347 -14.1509 729.743 -10.9692 802.128 30.8223L818.464 40.2539C896.434 85.2693 992.495 85.2693 1070.46 40.2539L1202.54 -36" stroke="white" stroke-width="4"/>
<path opacity="0.2" d="M-272 139L-74.819 43.3511C-5.36647 9.66098 75.6961 9.66101 145.149 43.3512L232.345 85.6488C301.798 119.339 382.861 119.339 452.313 85.6488L529.25 48.3283C604.452 11.8491 692.848 15.0308 765.233 56.8223L781.569 66.2539C859.539 111.269 955.6 111.269 1033.57 66.2539L1165.65 -10" stroke="white" stroke-width="4"/>
</g>
<defs>
<clipPath id="clip0_22_469">
<rect width="968" height="480" fill="white"/>
</clipPath>
</defs>
</svg>
