<svg width="1288" height="228" viewBox="0 0 1288 228" fill="none" xmlns="http://www.w3.org/2000/svg">
<g clip-path="url(#clip0_121_48)">
<path d="M13.3451 235.181C-2.85615 235.181 -17.4895 232.411 -30.5551 226.871C-43.516 221.227 -54.2298 213.231 -62.6962 202.883C-71.0582 192.431 -76.4934 180.044 -79.002 165.725L-44.8226 160.551C-41.3733 174.348 -34.1611 185.114 -23.1861 192.849C-12.2111 200.479 0.593143 204.294 15.2265 204.294C24.3201 204.294 32.6821 202.883 40.3123 200.061C47.9426 197.134 54.0572 193.005 58.6563 187.675C63.3599 182.239 65.7117 175.759 65.7117 168.233C65.7117 164.157 64.98 160.551 63.5167 157.415C62.1579 154.279 60.2242 151.562 57.7156 149.262C55.3115 146.858 52.3326 144.82 48.7788 143.147C45.3295 141.37 41.5143 139.855 37.3334 138.601L-20.5207 121.511C-26.165 119.838 -31.9139 117.696 -37.7672 115.083C-43.6206 112.365 -49.0036 108.863 -53.9162 104.578C-58.7243 100.188 -62.644 94.805 -65.6752 88.429C-68.7064 81.9485 -70.222 74.1092 -70.222 64.9111C-70.222 51.0093 -66.6681 39.2504 -59.5605 29.6342C-52.3483 19.9134 -42.6276 12.5967 -30.3983 7.68407C-18.1689 2.66692 -4.47628 0.158338 10.6797 0.158338C25.9402 0.367383 39.5806 3.08501 51.6009 8.31123C63.7257 13.5374 73.76 21.0632 81.7039 30.8885C89.7522 40.6092 95.292 52.4204 98.3232 66.3221L63.2031 72.28C61.6352 63.8135 58.2905 56.5491 53.1688 50.4867C48.0471 44.3198 41.7757 39.6162 34.3544 36.376C26.9332 33.0312 18.8849 31.3065 10.2094 31.202C1.84743 30.993 -5.83509 32.2473 -12.8382 34.9649C-19.7368 37.6825 -25.2766 41.4976 -29.4575 46.4103C-33.534 51.3229 -35.5722 56.9672 -35.5722 63.3432C-35.5722 69.6146 -33.743 74.6841 -30.0847 78.5515C-26.4263 82.4188 -21.9318 85.5023 -16.6011 87.8018C-11.1658 89.9968 -5.78283 91.826 -0.452104 93.2894L41.253 105.048C46.4792 106.512 52.3849 108.498 58.9699 111.006C65.6594 113.41 72.0877 116.807 78.2546 121.197C84.526 125.587 89.7 131.441 93.7764 138.757C97.8529 145.97 99.8911 155.063 99.8911 166.038C99.8911 177.431 97.5916 187.466 92.9925 196.141C88.3934 204.712 82.0697 211.924 74.0213 217.778C66.0775 223.526 56.8794 227.864 46.427 230.791C35.9746 233.718 24.9473 235.181 13.3451 235.181ZM208.404 235.181C191.576 235.181 176.786 231.523 164.034 224.206C151.386 216.785 141.509 206.489 134.401 193.319C127.398 180.044 123.897 164.679 123.897 147.224C123.897 128.723 127.346 112.679 134.244 99.0904C141.248 85.5023 150.968 74.9976 163.407 67.5764C175.845 60.1552 190.322 56.4446 206.836 56.4446C224.083 56.4446 238.769 60.4688 250.893 68.5171C263.018 76.461 272.059 87.8018 278.017 102.54C284.08 117.278 286.484 134.785 285.23 155.063H252.461V143.147C252.252 123.497 248.489 108.968 241.173 99.5608C233.96 90.1536 222.933 85.45 208.091 85.45C191.68 85.45 179.347 90.624 171.089 100.972C162.832 111.32 158.703 126.267 158.703 145.813C158.703 164.418 162.832 178.842 171.089 189.086C179.347 199.225 191.262 204.294 206.836 204.294C217.08 204.294 225.912 201.994 233.333 197.395C240.859 192.692 246.712 186.002 250.893 177.327L283.035 187.518C276.449 202.674 266.467 214.433 253.088 222.795C239.709 231.052 224.815 235.181 208.404 235.181ZM148.042 155.063V129.507H268.924V155.063H148.042ZM434.657 230.477V147.224C434.657 140.639 434.082 133.897 432.932 126.998C431.887 119.995 429.796 113.515 426.66 107.557C423.629 101.599 419.292 96.7909 413.647 93.1326C408.107 89.4742 400.843 87.645 391.854 87.645C386.001 87.645 380.461 88.638 375.235 90.624C370.008 92.5054 365.409 95.5889 361.437 99.8744C357.57 104.16 354.487 109.804 352.187 116.807C349.992 123.81 348.895 132.329 348.895 142.363L328.512 134.681C328.512 119.316 331.387 105.78 337.136 94.0733C342.884 82.2621 351.142 73.0639 361.908 66.4789C372.674 59.8939 385.687 56.6014 400.948 56.6014C412.654 56.6014 422.48 58.4828 430.423 62.2457C438.367 66.0086 444.795 70.9734 449.708 77.1404C454.725 83.2028 458.54 89.8401 461.153 97.0522C463.767 104.264 465.543 111.32 466.484 118.218C467.425 125.117 467.895 131.179 467.895 136.406V230.477H434.657ZM315.656 230.477V61.1482H344.975V110.065H348.895V230.477H315.656ZM511.869 33.397V1.56942H544.637V33.397H511.869ZM511.869 230.477V61.1482H544.637V230.477H511.869ZM639.539 230.477L574.003 4.70514H608.339L655.845 175.445L703.351 4.86194L737.844 4.70514L785.351 175.445L832.857 4.70514H867.35L801.656 230.477H769.045L720.598 61.6185L672.151 230.477H639.539ZM927.389 235.181C914.846 235.181 904.341 232.881 895.875 228.282C887.409 223.579 880.98 217.412 876.59 209.782C872.305 202.047 870.162 193.58 870.162 184.382C870.162 175.811 871.678 168.285 874.709 161.805C877.74 155.324 882.235 149.837 888.193 145.342C894.15 140.743 901.467 137.033 910.143 134.211C917.668 132.016 926.187 130.082 935.699 128.409C945.21 126.737 955.192 125.169 965.645 123.706C976.202 122.243 986.654 120.779 997.002 119.316L985.086 125.901C985.295 112.626 982.473 102.801 976.62 96.4251C970.871 89.9446 960.941 86.7043 946.831 86.7043C937.946 86.7043 929.793 88.7948 922.372 92.9758C914.951 97.0522 909.777 103.846 906.85 113.358L876.277 103.951C880.458 89.422 888.402 77.872 900.108 69.3011C911.919 60.7301 927.598 56.4446 947.144 56.4446C962.3 56.4446 975.47 59.0577 986.654 64.2839C997.943 69.4056 1006.2 77.5585 1011.43 88.7426C1014.14 94.2823 1015.82 100.136 1016.44 106.303C1017.07 112.47 1017.38 119.107 1017.38 126.214V230.477H988.379V191.751L994.023 196.768C987.02 209.729 978.083 219.398 967.213 225.774C956.447 232.045 943.172 235.181 927.389 235.181ZM933.19 208.37C942.493 208.37 950.489 206.75 957.178 203.51C963.868 200.165 969.251 195.932 973.327 190.81C977.404 185.689 980.069 180.358 981.324 174.818C983.1 169.801 984.093 164.157 984.302 157.885C984.616 151.614 984.773 146.597 984.773 142.834L995.434 146.753C985.086 148.321 975.679 149.732 967.213 150.987C958.746 152.241 951.064 153.495 944.165 154.75C937.371 155.899 931.309 157.31 925.978 158.983C921.483 160.551 917.459 162.432 913.905 164.627C910.456 166.822 907.686 169.487 905.596 172.623C903.61 175.759 902.617 179.574 902.617 184.069C902.617 188.459 903.714 192.535 905.909 196.298C908.104 199.956 911.449 202.883 915.944 205.078C920.438 207.273 926.187 208.37 933.19 208.37ZM1097.75 230.477L1036.29 61.1482H1069.38L1114.37 189.399L1159.37 61.1482H1192.45L1130.99 230.477H1097.75ZM1289.68 235.181C1272.85 235.181 1258.06 231.523 1245.31 224.206C1232.66 216.785 1222.78 206.489 1215.67 193.319C1208.67 180.044 1205.17 164.679 1205.17 147.224C1205.17 128.723 1208.62 112.679 1215.52 99.0904C1222.52 85.5023 1232.24 74.9976 1244.68 67.5764C1257.12 60.1552 1271.6 56.4446 1288.11 56.4446C1305.36 56.4446 1320.04 60.4688 1332.17 68.5171C1344.29 76.461 1353.33 87.8018 1359.29 102.54C1365.35 117.278 1367.76 134.785 1366.5 155.063H1333.73V143.147C1333.53 123.497 1329.76 108.968 1322.45 99.5608C1315.23 90.1536 1304.21 85.45 1289.36 85.45C1272.95 85.45 1260.62 90.624 1252.36 100.972C1244.11 111.32 1239.98 126.267 1239.98 145.813C1239.98 164.418 1244.11 178.842 1252.36 189.086C1260.62 199.225 1272.54 204.294 1288.11 204.294C1298.35 204.294 1307.19 201.994 1314.61 197.395C1322.13 192.692 1327.99 186.002 1332.17 177.327L1364.31 187.518C1357.72 202.674 1347.74 214.433 1334.36 222.795C1320.98 231.052 1306.09 235.181 1289.68 235.181ZM1229.32 155.063V129.507H1350.2V155.063H1229.32Z" fill="#F7F2FF"/>
</g>
<defs>
<clipPath id="clip0_121_48">
<rect width="1288" height="228" fill="white"/>
</clipPath>
</defs>
</svg>
