<svg width="159" height="48" viewBox="0 0 159 48" fill="none" xmlns="http://www.w3.org/2000/svg">
<path fill-rule="evenodd" clip-rule="evenodd" d="M24 0C37.2548 0 48 10.7452 48 24C48 37.2548 37.2548 48 24 48C10.7452 48 0 37.2548 0 24C0 10.7452 10.7452 0 24 0ZM25.3359 16.5107C23.2458 10.3369 18.0961 9.03383 14.0498 9.47363C7.19235 10.2191 1.86987 15.7465 2.86133 25.9385C3.85294 36.1305 12.3788 43.8094 20.8613 44.9385C29.344 46.0674 35.9718 42.8238 40.8613 36.9385C44.0565 33.0926 44.8368 27.6047 44.9658 26.9385C45.2017 25.715 34.6697 38.4105 29.9521 35.1309C25.3203 31.9106 29.4499 27.072 36.5293 27.1113C36.6929 27.1122 36.7946 26.9286 36.7002 26.7949C34.6513 23.8932 32.3455 22.014 27.1807 22.5234C19.9465 23.237 19.2535 29.8588 13.2998 27.1182C7.38538 24.3954 10.188 15.985 25.1309 16.7734C25.271 16.7808 25.3809 16.6436 25.3359 16.5107Z" fill="#5F00FF"/>
<path d="M66.951 32.815C65.866 32.815 64.886 32.6295 64.011 32.2585C63.143 31.8805 62.4255 31.345 61.8585 30.652C61.2985 29.952 60.9345 29.1225 60.7665 28.1635L63.0555 27.817C63.2865 28.741 63.7695 29.462 64.5045 29.98C65.2395 30.491 66.097 30.7465 67.077 30.7465C67.686 30.7465 68.246 30.652 68.757 30.463C69.268 30.267 69.6775 29.9905 69.9855 29.6335C70.3005 29.2695 70.458 28.8355 70.458 28.3315C70.458 28.0585 70.409 27.817 70.311 27.607C70.22 27.397 70.0905 27.215 69.9225 27.061C69.7615 26.9 69.562 26.7635 69.324 26.6515C69.093 26.5325 68.8375 26.431 68.5575 26.347L64.683 25.2025C64.305 25.0905 63.92 24.947 63.528 24.772C63.136 24.59 62.7755 24.3555 62.4465 24.0685C62.1245 23.7745 61.862 23.414 61.659 22.987C61.456 22.553 61.3545 22.028 61.3545 21.412C61.3545 20.481 61.5925 19.6935 62.0685 19.0495C62.5515 18.3985 63.2025 17.9085 64.0215 17.5795C64.8405 17.2435 65.7575 17.0755 66.7725 17.0755C67.7945 17.0895 68.708 17.2715 69.513 17.6215C70.325 17.9715 70.997 18.4755 71.529 19.1335C72.068 19.7845 72.439 20.5755 72.642 21.5065L70.29 21.9055C70.185 21.3385 69.961 20.852 69.618 20.446C69.275 20.033 68.855 19.718 68.358 19.501C67.861 19.277 67.322 19.1615 66.741 19.1545C66.181 19.1405 65.6665 19.2245 65.1975 19.4065C64.7355 19.5885 64.3645 19.844 64.0845 20.173C63.8115 20.502 63.675 20.88 63.675 21.307C63.675 21.727 63.7975 22.0665 64.0425 22.3255C64.2875 22.5845 64.5885 22.791 64.9455 22.945C65.3095 23.092 65.67 23.2145 66.027 23.3125L68.82 24.1C69.17 24.198 69.5655 24.331 70.0065 24.499C70.4545 24.66 70.885 24.8875 71.298 25.1815C71.718 25.4755 72.0645 25.8675 72.3375 26.3575C72.6105 26.8405 72.747 27.4495 72.747 28.1845C72.747 28.9475 72.593 29.6195 72.285 30.2005C71.977 30.7745 71.5535 31.2575 71.0145 31.6495C70.4825 32.0345 69.8665 32.325 69.1665 32.521C68.4665 32.717 67.728 32.815 66.951 32.815ZM80.0141 32.815C78.8871 32.815 77.8966 32.57 77.0426 32.08C76.1956 31.583 75.5341 30.8935 75.0581 30.0115C74.5891 29.1225 74.3546 28.0935 74.3546 26.9245C74.3546 25.6855 74.5856 24.611 75.0476 23.701C75.5166 22.791 76.1676 22.0875 77.0006 21.5905C77.8336 21.0935 78.8031 20.845 79.9091 20.845C81.0641 20.845 82.0476 21.1145 82.8596 21.6535C83.6716 22.1855 84.2771 22.945 84.6761 23.932C85.0821 24.919 85.2431 26.0915 85.1591 27.4495H82.9646V26.6515C82.9506 25.3355 82.6986 24.3625 82.2086 23.7325C81.7256 23.1025 80.9871 22.7875 79.9931 22.7875C78.8941 22.7875 78.0681 23.134 77.5151 23.827C76.9621 24.52 76.6856 25.521 76.6856 26.83C76.6856 28.076 76.9621 29.042 77.5151 29.728C78.0681 30.407 78.8661 30.7465 79.9091 30.7465C80.5951 30.7465 81.1866 30.5925 81.6836 30.2845C82.1876 29.9695 82.5796 29.5215 82.8596 28.9405L85.0121 29.623C84.5711 30.638 83.9026 31.4255 83.0066 31.9855C82.1106 32.5385 81.1131 32.815 80.0141 32.815ZM75.9716 27.4495V25.738H84.0671V27.4495H75.9716ZM95.1663 32.5V26.9245C95.1663 26.4835 95.1278 26.032 95.0508 25.57C94.9808 25.101 94.8408 24.667 94.6308 24.268C94.4278 23.869 94.1373 23.547 93.7593 23.302C93.3883 23.057 92.9018 22.9345 92.2998 22.9345C91.9078 22.9345 91.5368 23.001 91.1868 23.134C90.8368 23.26 90.5288 23.4665 90.2628 23.7535C90.0038 24.0405 89.7973 24.4185 89.6433 24.8875C89.4963 25.3565 89.4228 25.927 89.4228 26.599L88.0578 26.0845C88.0578 25.0555 88.2503 24.149 88.6353 23.365C89.0203 22.574 89.5733 21.958 90.2943 21.517C91.0153 21.076 91.8868 20.8555 92.9088 20.8555C93.6928 20.8555 94.3508 20.9815 94.8828 21.2335C95.4148 21.4855 95.8453 21.818 96.1743 22.231C96.5103 22.637 96.7658 23.0815 96.9408 23.5645C97.1158 24.0475 97.2348 24.52 97.2978 24.982C97.3608 25.444 97.3923 25.85 97.3923 26.2V32.5H95.1663ZM87.1968 32.5V21.16H89.1603V24.436H89.4228V32.5H87.1968ZM100.337 19.3015V17.17H102.532V19.3015H100.337ZM100.337 32.5V21.16H102.532V32.5H100.337ZM108.887 32.5L104.498 17.38H106.798L109.979 28.8145L113.161 17.3905L115.471 17.38L118.652 28.8145L121.834 17.38H124.144L119.744 32.5H117.56L114.316 21.1915L111.071 32.5H108.887ZM128.165 32.815C127.325 32.815 126.621 32.661 126.054 32.353C125.487 32.038 125.057 31.625 124.763 31.114C124.476 30.596 124.332 30.029 124.332 29.413C124.332 28.839 124.434 28.335 124.637 27.901C124.84 27.467 125.141 27.0995 125.54 26.7985C125.939 26.4905 126.429 26.242 127.01 26.053C127.514 25.906 128.084 25.7765 128.721 25.6645C129.358 25.5525 130.027 25.4475 130.727 25.3495C131.434 25.2515 132.134 25.1535 132.827 25.0555L132.029 25.4965C132.043 24.6075 131.854 23.9495 131.462 23.5225C131.077 23.0885 130.412 22.8715 129.467 22.8715C128.872 22.8715 128.326 23.0115 127.829 23.2915C127.332 23.5645 126.985 24.0195 126.789 24.6565L124.742 24.0265C125.022 23.0535 125.554 22.28 126.338 21.706C127.129 21.132 128.179 20.845 129.488 20.845C130.503 20.845 131.385 21.02 132.134 21.37C132.89 21.713 133.443 22.259 133.793 23.008C133.975 23.379 134.087 23.771 134.129 24.184C134.171 24.597 134.192 25.0415 134.192 25.5175V32.5H132.249V29.9065L132.627 30.2425C132.158 31.1105 131.56 31.758 130.832 32.185C130.111 32.605 129.222 32.815 128.165 32.815ZM128.553 31.0195C129.176 31.0195 129.712 30.911 130.16 30.694C130.608 30.47 130.968 30.1865 131.241 29.8435C131.514 29.5005 131.693 29.1435 131.777 28.7725C131.896 28.4365 131.962 28.0585 131.976 27.6385C131.997 27.2185 132.008 26.8825 132.008 26.6305L132.722 26.893C132.029 26.998 131.399 27.0925 130.832 27.1765C130.265 27.2605 129.75 27.3445 129.288 27.4285C128.833 27.5055 128.427 27.6 128.07 27.712C127.769 27.817 127.5 27.943 127.262 28.09C127.031 28.237 126.845 28.4155 126.705 28.6255C126.572 28.8355 126.506 29.091 126.506 29.392C126.506 29.686 126.579 29.959 126.726 30.211C126.873 30.456 127.097 30.652 127.398 30.799C127.699 30.946 128.084 31.0195 128.553 31.0195ZM139.574 32.5L135.458 21.16H137.674L140.687 29.749L143.701 21.16H145.916L141.8 32.5H139.574ZM152.427 32.815C151.3 32.815 150.31 32.57 149.456 32.08C148.609 31.583 147.947 30.8935 147.471 30.0115C147.002 29.1225 146.768 28.0935 146.768 26.9245C146.768 25.6855 146.999 24.611 147.461 23.701C147.93 22.791 148.581 22.0875 149.414 21.5905C150.247 21.0935 151.216 20.845 152.322 20.845C153.477 20.845 154.461 21.1145 155.273 21.6535C156.085 22.1855 156.69 22.945 157.089 23.932C157.495 24.919 157.656 26.0915 157.572 27.4495H155.378V26.6515C155.364 25.3355 155.112 24.3625 154.622 23.7325C154.139 23.1025 153.4 22.7875 152.406 22.7875C151.307 22.7875 150.481 23.134 149.928 23.827C149.375 24.52 149.099 25.521 149.099 26.83C149.099 28.076 149.375 29.042 149.928 29.728C150.481 30.407 151.279 30.7465 152.322 30.7465C153.008 30.7465 153.6 30.5925 154.097 30.2845C154.601 29.9695 154.993 29.5215 155.273 28.9405L157.425 29.623C156.984 30.638 156.316 31.4255 155.42 31.9855C154.524 32.5385 153.526 32.815 152.427 32.815ZM148.385 27.4495V25.738H156.48V27.4495H148.385Z" fill="#5F00FF"/>
</svg>
