<svg width="496" height="32" viewBox="0 0 496 32" fill="none" xmlns="http://www.w3.org/2000/svg">
<path d="M8.69 9.184C8.99 9.304 9.14 9.472 9.14 9.688C9.14 9.904 8.99 10.18 8.69 10.516C8.558 10.504 8.366 10.498 8.114 10.498C7.562 10.498 7.034 10.576 6.53 10.732C6.026 10.876 5.504 11.104 4.964 11.416C4.712 11.572 4.496 11.77 4.316 12.01C4.184 12.154 4.118 12.322 4.118 12.514C4.118 12.838 4.298 13.15 4.658 13.45C5.006 13.81 5.576 14.464 6.368 15.412L6.782 15.844C7.37 16.48 7.832 17.02 8.168 17.464C8.516 17.908 8.81 18.418 9.05 18.994C9.146 19.246 9.194 19.474 9.194 19.678C9.194 20.194 8.996 20.668 8.6 21.1C8.144 21.604 7.616 21.97 7.016 22.198C6.416 22.438 5.738 22.588 4.982 22.648C4.886 22.66 4.772 22.672 4.64 22.684C4.508 22.696 4.358 22.702 4.19 22.702C4.082 22.702 3.92 22.69 3.704 22.666C3.44 22.678 3.164 22.63 2.876 22.522C2.588 22.426 2.324 22.282 2.084 22.09C1.628 21.706 1.4 21.28 1.4 20.812C1.4 20.416 1.568 20.014 1.904 19.606C2.072 19.63 2.168 19.684 2.192 19.768C2.228 19.84 2.234 19.924 2.21 20.02C2.198 20.116 2.192 20.194 2.192 20.254C2.192 20.29 2.204 20.344 2.228 20.416C2.696 20.632 3.254 20.74 3.902 20.74C4.622 20.74 5.3 20.62 5.936 20.38C6.584 20.128 6.98 19.822 7.124 19.462C7.208 19.222 7.004 18.802 6.512 18.202C6.02 17.59 5.468 16.996 4.856 16.42C4.28 15.904 3.758 15.394 3.29 14.89C3.026 14.602 2.816 14.272 2.66 13.9C2.516 13.516 2.444 13.12 2.444 12.712C2.444 12.16 2.582 11.638 2.858 11.146C3.146 10.654 3.572 10.252 4.136 9.94C5.216 9.328 6.32 9.022 7.448 9.022C7.604 9.022 7.826 9.034 8.114 9.058C8.378 9.082 8.57 9.124 8.69 9.184ZM15.7497 15.304C15.7497 15.352 15.7557 15.406 15.7677 15.466C15.7797 15.514 15.7917 15.562 15.8037 15.61C15.8997 15.622 16.0437 15.628 16.2357 15.628C17.0757 15.628 17.9397 15.448 18.8277 15.088C19.0797 14.992 19.2897 14.944 19.4577 14.944C19.7937 14.944 20.0697 15.1 20.2857 15.412C20.3937 15.58 20.4477 15.724 20.4477 15.844C20.4477 15.988 20.3697 16.138 20.2137 16.294C19.7337 16.738 19.2237 16.99 18.6837 17.05C18.2037 17.11 17.4837 17.212 16.5237 17.356L15.2637 17.536C15.0717 17.956 14.9757 18.364 14.9757 18.76C14.9757 19.336 15.1737 19.816 15.5697 20.2C15.9777 20.572 16.5297 20.77 17.2257 20.794C17.9337 20.806 18.8397 20.758 19.9437 20.65L20.2137 20.632C20.5137 20.632 20.7597 20.704 20.9517 20.848C21.1557 20.98 21.3477 21.22 21.5277 21.568C21.3957 21.856 21.2097 22.048 20.9697 22.144C20.7297 22.252 20.4177 22.33 20.0337 22.378C19.6377 22.426 19.1877 22.45 18.6837 22.45C17.5917 22.45 16.6077 22.276 15.7317 21.928C14.1837 21.328 13.1937 20.29 12.7617 18.814C12.7017 18.61 12.6717 18.394 12.6717 18.166C12.6717 17.926 12.6717 17.782 12.6717 17.734C12.6717 17.326 12.4737 17.026 12.0777 16.834C11.7537 16.654 11.5017 16.48 11.3217 16.312C11.1537 16.144 11.0457 15.892 10.9977 15.556L13.0317 15.43L13.9497 12.784C13.9737 12.7 13.9977 12.598 14.0217 12.478C14.0577 12.346 14.0937 12.244 14.1297 12.172C14.2377 11.932 14.2917 11.734 14.2917 11.578C14.2917 11.338 14.1777 11.128 13.9497 10.948C13.8657 10.888 13.7937 10.78 13.7337 10.624C13.6857 10.456 13.6377 10.324 13.5897 10.228L13.9857 10.102C14.1777 10.054 14.3157 10.012 14.3997 9.976C14.4477 9.952 14.5497 9.91 14.7057 9.85C14.8617 9.778 14.9517 9.7 14.9757 9.616C15.0597 9.412 15.1617 9.274 15.2817 9.202C15.4137 9.13 15.5697 9.094 15.7497 9.094C15.8697 9.094 16.0497 9.106 16.2897 9.13C16.3617 9.13 16.4337 9.148 16.5057 9.184C16.5897 9.208 16.6557 9.244 16.7037 9.292C16.9797 9.58 17.2857 9.772 17.6217 9.868C17.9577 9.964 18.3537 10.012 18.8097 10.012H19.5837H21.0957C22.1157 10.012 22.8777 10.024 23.3817 10.048C23.6457 10.06 23.9817 10.174 24.3897 10.39C24.4617 10.426 24.5157 10.498 24.5517 10.606C24.5997 10.702 24.6237 10.798 24.6237 10.894C24.6237 10.942 24.5817 11.002 24.4977 11.074C24.4137 11.134 24.3357 11.176 24.2637 11.2C23.4477 11.416 22.8297 11.542 22.4097 11.578C21.7617 11.638 20.7897 11.716 19.4937 11.812C19.1937 11.824 18.7137 11.854 18.0537 11.902C18.0057 11.902 17.9217 11.89 17.8017 11.866C17.6817 11.83 17.5917 11.812 17.5317 11.812C17.0877 11.812 16.8057 11.998 16.6857 12.37C16.3617 13.33 16.0557 14.284 15.7677 15.232L15.7497 15.304ZM28.6957 15.286C28.6717 15.214 28.6117 15.118 28.5157 14.998C28.4317 14.878 28.3597 14.776 28.2997 14.692C28.0837 15.316 27.9217 15.934 27.8137 16.546C27.7057 17.158 27.6517 17.68 27.6517 18.112C27.6517 18.544 27.7117 18.958 27.8317 19.354C27.9397 19.726 27.9937 20.134 27.9937 20.578C27.9937 20.854 27.9337 21.058 27.8137 21.19C27.6937 21.322 27.4957 21.43 27.2197 21.514C26.9677 21.586 26.6377 21.64 26.2297 21.676L25.6537 21.73C25.6297 21.682 25.5457 21.526 25.4017 21.262C25.2697 21.022 25.1797 20.848 25.1317 20.74C25.0837 20.62 25.0657 20.5 25.0777 20.38C25.1017 20.236 25.1137 20.116 25.1137 20.02C25.1257 19.912 25.1317 19.822 25.1317 19.75C25.1317 19.69 25.1377 19.582 25.1497 19.426C25.1617 19.27 25.1797 19.132 25.2037 19.012C25.3597 18.016 25.5517 17.104 25.7797 16.276C26.0197 15.448 26.3377 14.668 26.7337 13.936C26.7937 13.828 26.8477 13.732 26.8957 13.648C26.9437 13.564 26.9857 13.492 27.0217 13.432C27.0577 13.384 27.1537 13.216 27.3097 12.928C27.4417 12.688 27.6097 12.496 27.8137 12.352C28.0177 12.208 28.1977 12.088 28.3537 11.992C28.5097 11.884 28.7137 11.8 28.9657 11.74C29.0617 11.716 29.1397 11.704 29.1997 11.704C29.5117 11.716 29.7217 11.872 29.8297 12.172L31.6657 17.068C32.0137 18.004 32.3137 18.748 32.5657 19.3C32.6737 19.072 32.7517 18.85 32.7997 18.634C32.8597 18.418 32.9077 18.214 32.9437 18.022C33.3637 15.766 34.2937 13.558 35.7337 11.398C35.8537 11.278 36.0037 11.146 36.1837 11.002C36.3637 10.846 36.4957 10.732 36.5797 10.66C36.9157 10.924 37.0837 11.188 37.0837 11.452C37.0837 11.608 37.0297 11.806 36.9217 12.046C36.8617 12.19 36.7057 12.496 36.4537 12.964L36.0757 13.72C35.7037 14.488 35.4457 15.304 35.3017 16.168C35.1577 17.032 35.0497 18.034 34.9777 19.174C34.9537 19.498 34.9417 19.99 34.9417 20.65C34.9297 20.818 34.9237 21.064 34.9237 21.388C34.9237 21.784 34.8577 22.072 34.7257 22.252C34.6057 22.432 34.3597 22.582 33.9877 22.702C33.7117 22.774 33.3817 22.834 32.9977 22.882L32.4757 22.972C32.0317 22.492 31.6597 21.988 31.3597 21.46C31.0717 20.932 30.7357 20.236 30.3517 19.372C30.2077 19.012 29.9137 18.286 29.4697 17.194C29.0257 16.09 28.7677 15.454 28.6957 15.286ZM42.4406 13.396C42.5126 13.12 42.6206 12.598 42.7646 11.83L42.8366 11.452L42.4046 11.344C41.9966 11.236 41.6426 11.122 41.3426 11.002C41.2586 10.954 41.1806 10.87 41.1086 10.75C41.0366 10.63 41.0066 10.528 41.0186 10.444C41.0186 10.372 41.0666 10.294 41.1626 10.21C41.2706 10.114 41.3726 10.054 41.4686 10.03L41.8646 9.94C42.5366 9.772 43.0406 9.688 43.3766 9.688C43.4966 9.688 43.5866 9.694 43.6466 9.706C44.0546 9.73 44.5106 10.012 45.0146 10.552C45.0746 10.612 45.1046 10.72 45.1046 10.876C45.1046 11.056 45.0686 11.278 44.9966 11.542C44.8046 12.19 44.5046 13.162 44.0966 14.458L43.1786 17.374C43.1066 17.626 42.9746 18.202 42.7826 19.102L42.6386 19.75C42.8426 19.75 43.1246 19.738 43.4846 19.714C43.9406 19.69 44.2766 19.678 44.4926 19.678L44.7626 19.66C44.9426 19.66 45.0806 19.69 45.1766 19.75C45.2726 19.798 45.3506 19.876 45.4106 19.984C45.4826 20.08 45.5246 20.176 45.5366 20.272V20.29C45.5366 20.374 45.5066 20.47 45.4466 20.578C45.3866 20.674 45.3206 20.728 45.2486 20.74C45.0566 20.8 44.8826 20.86 44.7266 20.92C43.0586 21.484 41.7686 21.88 40.8566 22.108C40.7366 22.144 40.6166 22.162 40.4966 22.162C40.1126 22.162 39.7646 22.024 39.4526 21.748C39.1526 21.46 38.9606 21.112 38.8766 20.704C38.9846 20.572 39.0986 20.494 39.2186 20.47C39.3506 20.434 39.5486 20.416 39.8126 20.416C40.1486 20.416 40.3766 20.356 40.4966 20.236C40.6166 20.116 40.7306 19.864 40.8386 19.48L41.6486 16.438C41.9606 15.262 42.2246 14.248 42.4406 13.396ZM54.7656 15.466C54.7656 15.466 54.8316 15.664 54.9636 16.06L55.1976 16.744L56.1876 14.764C56.4756 14.14 56.7636 13.606 57.0516 13.162C57.3396 12.718 57.7236 12.214 58.2036 11.65C58.3476 11.482 58.5096 11.356 58.6896 11.272C58.8816 11.176 59.0736 11.128 59.2656 11.128C59.5296 11.128 59.7756 11.206 60.0036 11.362C60.2436 11.518 60.4236 11.74 60.5436 12.028C60.5796 12.124 60.6396 12.256 60.7236 12.424C60.8676 12.748 60.9696 13.018 61.0296 13.234C61.0896 13.438 61.1256 13.702 61.1376 14.026C61.1496 14.506 61.1976 15.124 61.2816 15.88L61.3716 16.924C61.6236 16.708 61.8216 16.492 61.9656 16.276C62.1096 16.048 62.2236 15.802 62.3076 15.538C62.4756 15.094 62.6616 14.548 62.8656 13.9L63.4056 12.28C63.5976 11.728 63.8376 11.284 64.1256 10.948C64.4256 10.612 64.8276 10.396 65.3316 10.3C65.4276 10.276 65.5356 10.264 65.6556 10.264C65.7516 10.264 65.8176 10.282 65.8536 10.318C65.8896 10.354 65.9256 10.42 65.9616 10.516C65.9976 10.6 66.0456 10.696 66.1056 10.804C66.2376 11.032 66.3036 11.236 66.3036 11.416C66.3036 11.668 66.1716 11.926 65.9076 12.19C65.5116 12.574 65.2056 12.994 64.9896 13.45C64.7856 13.906 64.5516 14.518 64.2876 15.286C64.1796 15.61 64.0056 16.18 63.7656 16.996C63.4416 18.172 63.1716 19.024 62.9556 19.552C62.8236 19.876 62.7036 20.104 62.5956 20.236C62.4996 20.356 62.3796 20.416 62.2356 20.416C62.0796 20.416 61.8156 20.314 61.4436 20.11C60.8316 19.774 60.3456 19.234 59.9856 18.49C59.6256 17.734 59.4096 16.948 59.3376 16.132L59.3196 15.736C59.2716 15.088 59.2236 14.524 59.1756 14.044C58.9236 14.332 58.6956 14.656 58.4916 15.016C58.2996 15.376 58.0716 15.82 57.8076 16.348C57.5916 16.804 57.4536 17.086 57.3936 17.194C57.1896 17.542 56.9196 18.166 56.5836 19.066C56.2596 19.906 56.0376 20.434 55.9176 20.65C55.7256 20.686 55.5456 20.704 55.3776 20.704C55.0176 20.704 54.7296 20.596 54.5136 20.38C54.2976 20.164 54.1176 19.816 53.9736 19.336C53.6976 18.436 53.4216 17.458 53.1456 16.402C52.8816 15.346 52.6836 14.404 52.5516 13.576C52.5156 13.336 52.4496 13.078 52.3536 12.802C52.2576 12.526 52.1976 12.352 52.1736 12.28L51.9936 11.758C51.8856 11.446 51.8316 11.218 51.8316 11.074C51.8316 10.942 51.8736 10.822 51.9576 10.714C52.0536 10.606 52.2096 10.474 52.4256 10.318C53.2656 10.558 53.7876 11.122 53.9916 12.01C54.0876 12.394 54.2196 12.97 54.3876 13.738L54.7656 15.466ZM76.9986 12.352C77.0706 12.868 77.1426 13.618 77.2146 14.602L77.2506 15.538C77.2506 17.278 77.4786 18.832 77.9346 20.2C77.9946 20.392 78.0246 20.638 78.0246 20.938C78.0246 21.106 78.0126 21.334 77.9886 21.622C77.9766 21.814 77.9046 21.964 77.7726 22.072C77.6406 22.192 77.4726 22.252 77.2686 22.252C77.2446 22.252 77.1786 22.24 77.0706 22.216C76.7706 22.144 76.5426 22.012 76.3866 21.82C76.2306 21.616 76.1526 21.37 76.1526 21.082C76.1526 20.986 76.1586 20.914 76.1706 20.866C76.1706 20.794 76.1706 20.692 76.1706 20.56C76.1706 20.344 76.1586 20.146 76.1346 19.966C76.0386 19.498 75.8886 18.874 75.6846 18.094C75.6126 17.77 75.4626 17.608 75.2346 17.608C75.1506 17.608 75.0546 17.626 74.9466 17.662C74.5746 17.77 74.2446 17.872 73.9566 17.968C73.6806 18.064 73.4346 18.142 73.2186 18.202L72.3546 18.454C71.8626 18.598 71.4066 18.712 70.9866 18.796C70.5426 18.892 70.2186 19.138 70.0146 19.534C69.8226 19.894 69.5466 20.38 69.1866 20.992C68.9586 21.4 68.6586 21.604 68.2866 21.604C68.1066 21.604 67.9266 21.562 67.7466 21.478C67.5786 21.382 67.4346 21.262 67.3146 21.118C67.1346 20.914 67.0446 20.716 67.0446 20.524C67.0446 20.392 67.0806 20.254 67.1526 20.11L68.3946 17.59C69.7626 14.806 70.5786 13.138 70.8426 12.586C71.5986 11.122 72.6246 10.114 73.9206 9.562C74.1966 9.43 74.4786 9.364 74.7666 9.364C75.1266 9.364 75.4566 9.46 75.7566 9.652C76.0686 9.832 76.3086 10.09 76.4766 10.426C76.7166 10.918 76.8906 11.56 76.9986 12.352ZM71.1846 16.906C72.8286 16.618 74.2266 16.384 75.3786 16.204C75.3546 15.052 75.3186 14.146 75.2706 13.486C75.2346 12.814 75.1506 12.142 75.0186 11.47C74.3826 11.542 73.9026 11.854 73.5786 12.406C73.0146 13.294 72.4746 14.212 71.9586 15.16C71.8746 15.316 71.7186 15.664 71.4906 16.204L71.1846 16.906ZM85.3097 21.658C85.2497 21.742 85.1597 21.88 85.0397 22.072C84.9197 22.276 84.7877 22.432 84.6437 22.54C84.4997 22.66 84.3257 22.732 84.1217 22.756C83.0657 22.3 82.4897 21.544 82.3937 20.488C82.3097 19.84 82.1477 18.82 81.9077 17.428C81.7277 16.372 81.4997 15.184 81.2237 13.864C81.1997 13.768 81.1277 13.654 81.0077 13.522C80.8997 13.39 80.8277 13.294 80.7917 13.234C80.7557 13.174 80.6897 13.06 80.5937 12.892C80.4977 12.712 80.4377 12.544 80.4137 12.388C80.4017 12.172 80.4497 11.998 80.5577 11.866C80.6657 11.734 80.8217 11.668 81.0257 11.668C81.0977 11.668 81.1577 11.674 81.2057 11.686C81.6737 11.794 82.0577 11.944 82.3577 12.136C82.6697 12.328 82.9037 12.622 83.0597 13.018C83.2997 13.642 83.4737 14.272 83.5817 14.908C83.6897 15.532 83.7977 16.36 83.9057 17.392L83.9597 17.878C83.9717 17.95 84.0017 18.16 84.0497 18.508L84.1217 18.94C84.4217 18.664 84.6797 18.382 84.8957 18.094C85.1237 17.794 85.3757 17.44 85.6517 17.032L85.9757 16.564L87.5777 14.278C88.7777 12.514 89.7377 11.146 90.4577 10.174C90.6017 9.982 90.7757 9.79 90.9797 9.598C91.1957 9.406 91.4057 9.22 91.6097 9.04C91.8737 8.824 92.0657 8.656 92.1857 8.536C92.3537 8.368 92.5037 8.284 92.6357 8.284C92.7197 8.284 92.8037 8.326 92.8877 8.41C92.9717 8.506 93.0437 8.62 93.1037 8.752C93.1637 8.884 93.1937 9.01 93.1937 9.13C93.1937 9.346 93.0737 9.622 92.8337 9.958L92.1857 10.858C91.8377 11.314 91.5377 11.728 91.2857 12.1C90.9257 12.652 90.6497 13.066 90.4577 13.342C89.9417 14.122 89.5157 14.776 89.1797 15.304C88.8557 15.832 88.5497 16.366 88.2617 16.906C87.5057 18.334 86.5217 19.918 85.3097 21.658ZM98.8739 15.124L99.5219 15.034C99.9899 14.962 100.308 14.92 100.476 14.908L100.908 14.872C101.052 14.86 101.232 14.848 101.448 14.836C101.664 14.824 101.91 14.818 102.186 14.818C102.45 14.818 102.642 14.824 102.762 14.836C103.182 14.872 103.488 15.01 103.68 15.25C103.884 15.49 104.004 15.85 104.04 16.33C103.992 16.33 103.92 16.324 103.824 16.312C103.728 16.3 103.65 16.288 103.59 16.276C103.254 16.216 102.948 16.186 102.672 16.186C102.348 16.186 102.036 16.228 101.736 16.312C100.968 16.552 99.9839 16.804 98.7839 17.068C98.5559 17.128 98.3759 17.224 98.2439 17.356C98.1239 17.476 98.0459 17.65 98.0099 17.878C97.9379 18.334 97.8479 18.79 97.7399 19.246C97.6559 19.666 97.5899 20.014 97.5419 20.29C97.5299 20.386 97.5239 20.512 97.5239 20.668C97.5239 20.812 97.5239 20.914 97.5239 20.974C97.7159 21.01 97.9139 21.028 98.1179 21.028C98.5139 21.028 98.9999 20.95 99.5759 20.794C100.632 20.542 101.694 20.272 102.762 19.984L104.742 19.48C105.366 19.324 105.858 19.186 106.218 19.066C106.998 18.85 107.562 18.7 107.91 18.616C108.054 18.592 108.162 18.58 108.234 18.58C108.534 18.58 108.732 18.7 108.828 18.94C108.864 19.024 108.882 19.108 108.882 19.192C108.882 19.336 108.834 19.474 108.738 19.606C108.642 19.738 108.51 19.846 108.342 19.93C108.114 20.026 107.802 20.128 107.406 20.236C106.254 20.572 105.234 20.89 104.346 21.19C102.618 21.742 101.334 22.132 100.494 22.36C100.158 22.456 99.6539 22.54 98.9819 22.612L98.3159 22.702C97.9079 22.75 97.5419 22.612 97.2179 22.288L96.8939 21.964C96.4979 21.592 96.1919 21.268 95.9759 20.992C95.8199 20.788 95.7539 20.506 95.7779 20.146C95.8139 19.726 95.8919 19.084 96.0119 18.22L96.0839 17.644L96.1379 17.104C95.7779 16.996 95.4959 16.864 95.2919 16.708C95.0999 16.54 94.9979 16.276 94.9859 15.916C95.3699 15.868 95.6579 15.844 95.8499 15.844C96.0659 15.832 96.2399 15.778 96.3719 15.682C96.5039 15.586 96.6059 15.43 96.6779 15.214C96.8099 14.782 97.0319 14.146 97.3439 13.306C97.4399 12.994 97.5599 12.646 97.7039 12.262C97.7639 12.07 97.8059 11.83 97.8299 11.542C97.8299 11.326 97.8779 11.158 97.9739 11.038C98.0819 10.906 98.2499 10.804 98.4779 10.732C99.5699 10.396 100.992 10.138 102.744 9.958C103.32 9.898 103.89 9.88 104.454 9.904C105.246 9.904 105.834 10.204 106.218 10.804C106.326 10.948 106.38 11.14 106.38 11.38C106.38 11.488 106.368 11.566 106.344 11.614C106.272 11.782 106.164 11.926 106.02 12.046C105.888 12.154 105.72 12.208 105.516 12.208L104.814 12.226C104.478 12.25 104.232 12.262 104.076 12.262C103.74 12.262 103.512 12.202 103.392 12.082C103.224 11.914 103.014 11.83 102.762 11.83C102.69 11.83 102.57 11.842 102.402 11.866L100.62 12.28L99.8999 12.46L98.8739 15.124ZM110.142 15.232C110.166 15.136 110.238 15.046 110.358 14.962C110.478 14.866 110.562 14.8 110.61 14.764C110.85 14.788 111.114 14.92 111.402 15.16C111.702 15.388 111.954 15.652 112.158 15.952C112.374 16.252 112.482 16.51 112.482 16.726C112.482 16.978 112.416 17.176 112.284 17.32C112.152 17.464 111.978 17.542 111.762 17.554C111.606 17.566 111.468 17.542 111.348 17.482C111.048 17.338 110.766 17.062 110.502 16.654C110.238 16.234 110.106 15.85 110.106 15.502C110.106 15.37 110.118 15.28 110.142 15.232ZM110.628 19.066C111.228 19.462 111.684 19.756 111.996 19.948C112.152 20.056 112.266 20.188 112.338 20.344C112.41 20.488 112.446 20.638 112.446 20.794C112.446 21.01 112.374 21.172 112.23 21.28C112.038 21.436 111.84 21.514 111.636 21.514C111.384 21.514 111.162 21.418 110.97 21.226C110.442 20.698 110.028 20.206 109.728 19.75C109.68 19.678 109.656 19.588 109.656 19.48C109.656 19.384 109.662 19.282 109.674 19.174C109.698 19.066 109.71 18.964 109.71 18.868L110.016 18.67L110.628 19.066ZM119.256 16.474C119.244 16.39 119.238 16.252 119.238 16.06C119.238 15.592 119.286 15.136 119.382 14.692C119.478 14.248 119.616 13.762 119.796 13.234C119.976 12.742 120.318 12.25 120.822 11.758C121.326 11.266 121.89 10.864 122.514 10.552C123.138 10.228 123.702 10.066 124.206 10.066C124.722 10.066 125.226 10.258 125.718 10.642C126.21 11.014 126.522 11.44 126.654 11.92C126.678 12.064 126.69 12.16 126.69 12.208C126.69 12.388 126.636 12.526 126.528 12.622C126.432 12.706 126.3 12.748 126.132 12.748C126 12.748 125.898 12.742 125.826 12.73C125.79 12.73 125.736 12.706 125.664 12.658C125.316 12.466 124.98 12.37 124.656 12.37C124.044 12.37 123.438 12.688 122.838 13.324C121.818 14.392 121.308 15.664 121.308 17.14C121.308 17.668 121.362 18.178 121.47 18.67C121.59 19.222 121.8 19.63 122.1 19.894C122.412 20.146 122.826 20.272 123.342 20.272C123.522 20.272 123.72 20.254 123.936 20.218C124.692 20.122 125.388 19.894 126.024 19.534C126.66 19.162 127.362 18.67 128.13 18.058C128.31 17.914 128.628 17.614 129.084 17.158L129.444 16.78C129.6 16.624 129.732 16.516 129.84 16.456C129.96 16.384 130.068 16.348 130.164 16.348C130.32 16.348 130.512 16.426 130.74 16.582C130.992 16.762 131.118 16.99 131.118 17.266C131.118 17.458 131.052 17.638 130.92 17.806C130.872 17.89 130.74 18.088 130.524 18.4C130.308 18.7 130.098 18.97 129.894 19.21C129.69 19.45 129.486 19.654 129.282 19.822C128.178 20.794 127.026 21.448 125.826 21.784C125.298 21.928 124.77 22 124.242 22C123.27 22 122.406 21.754 121.65 21.262C120.906 20.77 120.324 20.128 119.904 19.336C119.484 18.532 119.268 17.698 119.256 16.834V16.474ZM132.807 20.182C132.831 20.014 132.843 19.768 132.843 19.444L132.825 18.382L132.609 15.25L132.591 14.98C132.591 14.344 132.861 14.026 133.401 14.026C133.533 14.026 133.647 14.074 133.743 14.17C133.851 14.266 133.947 14.314 134.031 14.314C134.211 14.314 134.367 14.236 134.499 14.08C134.643 13.912 134.793 13.744 134.949 13.576C135.201 13.312 135.495 13.102 135.831 12.946C136.179 12.79 136.527 12.712 136.875 12.712C137.211 12.712 137.481 12.754 137.685 12.838C137.745 12.862 137.811 12.916 137.883 13C137.967 13.072 138.009 13.132 138.009 13.18C138.009 13.228 137.973 13.3 137.901 13.396C137.841 13.48 137.787 13.528 137.739 13.54C137.271 13.636 136.863 13.834 136.515 14.134C136.179 14.434 135.957 14.71 135.849 14.962C135.753 15.202 135.609 15.652 135.417 16.312C135.309 16.684 135.225 17.068 135.165 17.464C135.117 17.848 135.099 18.34 135.111 18.94C135.099 19 135.093 19.084 135.093 19.192C135.093 19.348 135.105 19.558 135.129 19.822C135.153 20.11 135.165 20.314 135.165 20.434C135.165 21.034 135.099 21.376 134.967 21.46C134.775 21.556 134.523 21.604 134.211 21.604C133.959 21.604 133.755 21.574 133.599 21.514C133.059 21.31 132.789 20.938 132.789 20.398C132.789 20.302 132.795 20.23 132.807 20.182ZM141.697 19.192C141.577 19.264 141.403 19.3 141.175 19.3C141.091 19.3 140.989 19.294 140.869 19.282C140.749 19.27 140.647 19.27 140.563 19.282C140.659 19.678 140.887 20.002 141.247 20.254C141.607 20.494 142.009 20.614 142.453 20.614C142.837 20.614 143.179 20.53 143.479 20.362C143.923 20.134 144.307 19.864 144.631 19.552C144.859 19.324 145.075 19.21 145.279 19.21C145.411 19.21 145.525 19.276 145.621 19.408C145.717 19.564 145.765 19.756 145.765 19.984C145.765 20.224 145.717 20.41 145.621 20.542C145.309 21.022 144.901 21.352 144.397 21.532C143.905 21.712 143.329 21.802 142.669 21.802C141.985 21.802 141.325 21.652 140.689 21.352C140.053 21.052 139.507 20.644 139.051 20.128C138.607 19.6 138.313 19.018 138.169 18.382C138.073 18.01 138.025 17.644 138.025 17.284C138.025 16.72 138.181 16.264 138.493 15.916C138.817 15.568 139.333 15.238 140.041 14.926C140.689 14.65 141.289 14.512 141.841 14.512C142.237 14.512 142.621 14.572 142.993 14.692C144.145 15.052 144.721 15.544 144.721 16.168C144.721 16.564 144.487 17.044 144.019 17.608C143.791 17.872 143.521 18.106 143.209 18.31C142.897 18.514 142.591 18.7 142.291 18.868C142.003 19.024 141.805 19.132 141.697 19.192ZM142.453 15.862C142.441 15.802 142.393 15.754 142.309 15.718C142.237 15.67 142.195 15.64 142.183 15.628C141.859 15.604 141.529 15.7 141.193 15.916C140.857 16.12 140.575 16.384 140.347 16.708C140.131 17.032 140.023 17.344 140.023 17.644L140.041 17.788C140.053 17.836 140.113 17.896 140.221 17.968C140.341 18.04 140.413 18.064 140.437 18.04C141.289 17.404 141.931 16.894 142.363 16.51C142.435 16.438 142.471 16.306 142.471 16.114C142.471 15.994 142.465 15.91 142.453 15.862ZM150.945 14.008C151.497 14.008 151.947 14.17 152.295 14.494C152.655 14.806 152.901 15.226 153.033 15.754C153.105 16.042 153.129 16.366 153.105 16.726C153.093 16.93 153.081 17.218 153.069 17.59C153.057 17.902 153.015 18.364 152.943 18.976C152.871 19.576 152.829 20.026 152.817 20.326C152.805 20.542 152.799 20.86 152.799 21.28L152.817 22.738C152.589 22.834 152.385 22.882 152.205 22.882C152.025 22.882 151.839 22.822 151.647 22.702C151.515 22.606 151.425 22.546 151.377 22.522C151.341 22.498 151.287 22.396 151.215 22.216L151.071 21.874L150.981 21.46C150.309 21.604 149.913 21.688 149.793 21.712C149.625 21.724 149.493 21.73 149.397 21.73C148.953 21.73 148.521 21.622 148.101 21.406C147.693 21.19 147.363 20.89 147.111 20.506C146.871 20.122 146.745 19.708 146.733 19.264C146.721 18.844 146.871 18.508 147.183 18.256C147.843 17.728 148.485 17.464 149.109 17.464C149.421 17.464 149.751 17.536 150.099 17.68C150.279 17.752 150.663 17.914 151.251 18.166L151.323 17.662C151.395 17.23 151.431 16.882 151.431 16.618C151.431 16.222 151.341 15.85 151.161 15.502C150.981 15.442 150.849 15.424 150.765 15.448C150.453 15.496 150.141 15.562 149.829 15.646C149.517 15.718 149.091 15.754 148.551 15.754C148.407 15.754 148.263 15.7 148.119 15.592C147.975 15.472 147.909 15.34 147.921 15.196C147.957 15.004 148.065 14.788 148.245 14.548C148.353 14.416 148.503 14.338 148.695 14.314C148.923 14.278 149.109 14.254 149.253 14.242C149.997 14.086 150.561 14.008 150.945 14.008ZM149.415 20.254C149.703 20.17 149.943 20.074 150.135 19.966C150.327 19.846 150.495 19.672 150.639 19.444C150.207 19.108 149.877 18.874 149.649 18.742C149.421 18.61 149.199 18.544 148.983 18.544C148.899 18.544 148.797 18.562 148.677 18.598C148.557 18.634 148.467 18.688 148.407 18.76C148.299 18.892 148.245 19.078 148.245 19.318C148.245 19.534 148.287 19.72 148.371 19.876C148.467 20.008 148.587 20.11 148.731 20.182C148.875 20.254 149.025 20.29 149.181 20.29C149.229 20.29 149.307 20.278 149.415 20.254ZM154.727 15.286C154.643 15.19 154.583 15.088 154.547 14.98C154.523 14.872 154.499 14.722 154.475 14.53C154.583 14.278 154.781 14.152 155.069 14.152C155.213 14.176 155.315 14.188 155.375 14.188C155.615 14.188 155.765 14.116 155.825 13.972C155.885 13.828 155.915 13.66 155.915 13.468C155.915 13.276 155.915 13.126 155.915 13.018L155.969 11.938C155.981 11.698 155.993 11.404 156.005 11.056C156.029 10.696 156.053 10.282 156.077 9.814C156.089 9.562 156.149 9.376 156.257 9.256C156.377 9.136 156.539 9.076 156.743 9.076C156.887 9.076 157.001 9.088 157.085 9.112C157.577 9.22 157.907 9.376 158.075 9.58C158.243 9.784 158.357 10.09 158.417 10.498C158.429 10.582 158.417 10.756 158.381 11.02L158.057 13.828C158.045 13.9 158.027 13.99 158.003 14.098C157.979 14.194 157.967 14.266 157.967 14.314C157.967 14.422 158.027 14.494 158.147 14.53C158.267 14.566 158.489 14.578 158.813 14.566C159.365 14.446 159.785 14.368 160.073 14.332C160.133 14.32 160.229 14.314 160.361 14.314C160.505 14.314 160.601 14.332 160.649 14.368C160.697 14.392 160.733 14.464 160.757 14.584C160.793 14.692 160.811 14.818 160.811 14.962C160.811 15.094 160.793 15.214 160.757 15.322C160.733 15.43 160.697 15.49 160.649 15.502C160.325 15.598 159.941 15.676 159.497 15.736C158.969 15.832 158.579 15.916 158.327 15.988C158.195 16.024 158.063 16.114 157.931 16.258C157.799 16.402 157.727 16.534 157.715 16.654C157.691 17.242 157.673 17.842 157.661 18.454C157.649 18.922 157.667 19.39 157.715 19.858C157.751 20.254 157.829 20.542 157.949 20.722C158.069 20.89 158.249 20.974 158.489 20.974C158.681 20.974 158.957 20.908 159.317 20.776C159.509 20.692 159.677 20.65 159.821 20.65C160.049 20.65 160.211 20.776 160.307 21.028C160.343 21.112 160.361 21.196 160.361 21.28C160.361 21.436 160.301 21.562 160.181 21.658C160.073 21.754 159.923 21.838 159.731 21.91C159.371 22.042 159.005 22.114 158.633 22.126C158.129 22.126 157.655 22.006 157.211 21.766C156.767 21.514 156.413 21.166 156.149 20.722C155.897 20.278 155.789 19.768 155.825 19.192C155.837 18.964 155.843 18.604 155.843 18.112C155.843 17.332 155.813 16.54 155.753 15.736C155.741 15.664 155.699 15.616 155.627 15.592C155.555 15.556 155.435 15.52 155.267 15.484C154.991 15.436 154.811 15.37 154.727 15.286ZM165.147 19.192C165.027 19.264 164.853 19.3 164.625 19.3C164.541 19.3 164.439 19.294 164.319 19.282C164.199 19.27 164.097 19.27 164.013 19.282C164.109 19.678 164.337 20.002 164.697 20.254C165.057 20.494 165.459 20.614 165.903 20.614C166.287 20.614 166.629 20.53 166.929 20.362C167.373 20.134 167.757 19.864 168.081 19.552C168.309 19.324 168.525 19.21 168.729 19.21C168.861 19.21 168.975 19.276 169.071 19.408C169.167 19.564 169.215 19.756 169.215 19.984C169.215 20.224 169.167 20.41 169.071 20.542C168.759 21.022 168.351 21.352 167.847 21.532C167.355 21.712 166.779 21.802 166.119 21.802C165.435 21.802 164.775 21.652 164.139 21.352C163.503 21.052 162.957 20.644 162.501 20.128C162.057 19.6 161.763 19.018 161.619 18.382C161.523 18.01 161.475 17.644 161.475 17.284C161.475 16.72 161.631 16.264 161.943 15.916C162.267 15.568 162.783 15.238 163.491 14.926C164.139 14.65 164.739 14.512 165.291 14.512C165.687 14.512 166.071 14.572 166.443 14.692C167.595 15.052 168.171 15.544 168.171 16.168C168.171 16.564 167.937 17.044 167.469 17.608C167.241 17.872 166.971 18.106 166.659 18.31C166.347 18.514 166.041 18.7 165.741 18.868C165.453 19.024 165.255 19.132 165.147 19.192ZM165.903 15.862C165.891 15.802 165.843 15.754 165.759 15.718C165.687 15.67 165.645 15.64 165.633 15.628C165.309 15.604 164.979 15.7 164.643 15.916C164.307 16.12 164.025 16.384 163.797 16.708C163.581 17.032 163.473 17.344 163.473 17.644L163.491 17.788C163.503 17.836 163.563 17.896 163.671 17.968C163.791 18.04 163.863 18.064 163.887 18.04C164.739 17.404 165.381 16.894 165.813 16.51C165.885 16.438 165.921 16.306 165.921 16.114C165.921 15.994 165.915 15.91 165.903 15.862ZM178.211 20.56C178.031 20.596 177.857 20.614 177.689 20.614C177.293 20.614 176.921 20.512 176.573 20.308C176.225 20.104 175.865 19.804 175.493 19.408L175.313 19.876C175.145 20.356 175.061 20.59 175.061 20.578C174.929 21.034 174.665 21.4 174.269 21.676C173.873 21.94 173.435 22.072 172.955 22.072C172.619 22.072 172.295 22.006 171.983 21.874C171.671 21.73 171.395 21.526 171.155 21.262C170.579 20.614 170.291 19.924 170.291 19.192C170.291 18.388 170.633 17.554 171.317 16.69C171.617 16.318 171.959 16.066 172.343 15.934C172.739 15.802 173.201 15.736 173.729 15.736C173.981 15.736 174.161 15.682 174.269 15.574C174.377 15.466 174.419 15.274 174.395 14.998C174.275 13.798 174.215 12.7 174.215 11.704C174.215 11.428 174.263 11.038 174.359 10.534C174.407 10.294 174.521 10.102 174.701 9.958C174.881 9.802 175.097 9.724 175.349 9.724C175.433 9.724 175.493 9.73 175.529 9.742C176.105 9.85 176.393 10.198 176.393 10.786L176.429 11.92C176.477 14.176 176.549 15.862 176.645 16.978C176.669 17.302 176.741 17.614 176.861 17.914C176.993 18.214 177.185 18.622 177.437 19.138C177.497 19.258 177.665 19.378 177.941 19.498C177.977 19.522 178.037 19.552 178.121 19.588C178.217 19.624 178.289 19.666 178.337 19.714C178.445 19.786 178.547 19.888 178.643 20.02C178.739 20.14 178.805 20.224 178.841 20.272C178.757 20.308 178.649 20.362 178.517 20.434C178.397 20.494 178.295 20.536 178.211 20.56ZM173.261 17.032C172.961 17.224 172.715 17.53 172.523 17.95C172.331 18.358 172.235 18.784 172.235 19.228C172.235 19.864 172.445 20.368 172.865 20.74C173.249 20.092 173.543 19.498 173.747 18.958C173.951 18.406 174.053 17.842 174.053 17.266C174.053 17.014 173.933 16.888 173.693 16.888C173.561 16.888 173.417 16.936 173.261 17.032ZM187.862 16.348C187.862 16.78 187.88 17.062 187.916 17.194C187.964 17.326 188.072 17.392 188.24 17.392C188.396 17.392 188.642 17.356 188.978 17.284H189.392C190.076 17.284 190.496 17.434 190.652 17.734C190.712 17.758 190.772 17.824 190.832 17.932C190.892 18.028 190.934 18.094 190.958 18.13C190.91 18.166 190.838 18.226 190.742 18.31C190.646 18.382 190.556 18.424 190.472 18.436C190.196 18.496 189.782 18.574 189.23 18.67C189.122 18.682 188.93 18.712 188.654 18.76C188.222 18.844 188.006 19.096 188.006 19.516C188.006 19.576 188.018 19.69 188.042 19.858C188.186 20.506 188.306 21.076 188.402 21.568C188.498 22.048 188.576 22.45 188.636 22.774L188.96 24.358C189.08 24.934 189.14 25.378 189.14 25.69C189.14 25.918 189.086 26.086 188.978 26.194C188.87 26.314 188.66 26.374 188.348 26.374C188.084 26.374 187.886 26.308 187.754 26.176C187.622 26.044 187.526 25.834 187.466 25.546C187.358 24.994 187.172 24.166 186.908 23.062L186.332 20.074C186.308 19.378 185.966 19.03 185.306 19.03C185.09 19.03 184.94 18.994 184.856 18.922C184.784 18.862 184.718 18.796 184.658 18.724C184.598 18.64 184.568 18.562 184.568 18.49C184.568 18.43 184.604 18.364 184.676 18.292C184.76 18.208 184.838 18.16 184.91 18.148C185.342 18.088 185.63 17.968 185.774 17.788C185.93 17.608 186.014 17.326 186.026 16.942L186.062 15.79C186.074 15.286 186.092 14.77 186.116 14.242C186.14 13.714 186.182 13.246 186.242 12.838C186.29 12.49 186.44 12.238 186.692 12.082C186.944 11.914 187.292 11.83 187.736 11.83C187.928 11.83 188.078 11.836 188.186 11.848C188.438 11.872 188.726 11.992 189.05 12.208C189.374 12.412 189.548 12.634 189.572 12.874C189.692 13.558 189.44 13.93 188.816 13.99C188.408 13.906 188.168 13.954 188.096 14.134C188.024 14.314 187.976 14.536 187.952 14.8C187.952 14.956 187.94 15.178 187.916 15.466C187.88 15.754 187.862 16.048 187.862 16.348ZM198.304 15.898C198.412 16.114 198.508 16.36 198.592 16.636C198.688 16.9 198.754 17.074 198.79 17.158L198.952 17.626C198.808 18.31 198.664 18.874 198.52 19.318C198.376 19.75 198.166 20.158 197.89 20.542C197.614 20.914 197.236 21.22 196.756 21.46C196.312 21.688 195.838 21.802 195.334 21.802C194.782 21.802 194.248 21.676 193.732 21.424C193.228 21.172 192.802 20.824 192.454 20.38C192.106 19.924 191.902 19.414 191.842 18.85C191.818 18.562 191.806 18.34 191.806 18.184C191.806 17.764 191.866 17.38 191.986 17.032C192.118 16.684 192.346 16.366 192.67 16.078C192.766 15.994 192.874 15.832 192.994 15.592C193.102 15.376 193.204 15.214 193.3 15.106C193.804 14.566 194.404 14.296 195.1 14.296C195.448 14.296 195.856 14.374 196.324 14.53C196.384 14.554 196.582 14.626 196.918 14.746C197.266 14.866 197.554 15.022 197.782 15.214C198.01 15.406 198.184 15.634 198.304 15.898ZM195.172 15.304C194.728 15.664 194.41 16.096 194.218 16.6C194.038 17.092 193.876 17.758 193.732 18.598C193.756 18.694 193.81 18.898 193.894 19.21C193.978 19.522 194.08 19.81 194.2 20.074C194.332 20.398 194.566 20.56 194.902 20.56C194.962 20.56 195.076 20.548 195.244 20.524C195.616 20.452 195.94 20.242 196.216 19.894C196.504 19.534 196.726 19.114 196.882 18.634C197.038 18.154 197.116 17.71 197.116 17.302C197.116 16.498 196.786 15.82 196.126 15.268C195.958 15.136 195.808 15.07 195.676 15.07C195.532 15.07 195.364 15.148 195.172 15.304ZM201.186 20.182C201.21 20.014 201.222 19.768 201.222 19.444L201.204 18.382L200.988 15.25L200.97 14.98C200.97 14.344 201.24 14.026 201.78 14.026C201.912 14.026 202.026 14.074 202.122 14.17C202.23 14.266 202.326 14.314 202.41 14.314C202.59 14.314 202.746 14.236 202.878 14.08C203.022 13.912 203.172 13.744 203.328 13.576C203.58 13.312 203.874 13.102 204.21 12.946C204.558 12.79 204.906 12.712 205.254 12.712C205.59 12.712 205.86 12.754 206.064 12.838C206.124 12.862 206.19 12.916 206.262 13C206.346 13.072 206.388 13.132 206.388 13.18C206.388 13.228 206.352 13.3 206.28 13.396C206.22 13.48 206.166 13.528 206.118 13.54C205.65 13.636 205.242 13.834 204.894 14.134C204.558 14.434 204.336 14.71 204.228 14.962C204.132 15.202 203.988 15.652 203.796 16.312C203.688 16.684 203.604 17.068 203.544 17.464C203.496 17.848 203.478 18.34 203.49 18.94C203.478 19 203.472 19.084 203.472 19.192C203.472 19.348 203.484 19.558 203.508 19.822C203.532 20.11 203.544 20.314 203.544 20.434C203.544 21.034 203.478 21.376 203.346 21.46C203.154 21.556 202.902 21.604 202.59 21.604C202.338 21.604 202.134 21.574 201.978 21.514C201.438 21.31 201.168 20.938 201.168 20.398C201.168 20.302 201.174 20.23 201.186 20.182ZM214.018 16.348C214.018 16.78 214.036 17.062 214.072 17.194C214.12 17.326 214.228 17.392 214.396 17.392C214.552 17.392 214.798 17.356 215.134 17.284H215.548C216.232 17.284 216.652 17.434 216.808 17.734C216.868 17.758 216.928 17.824 216.988 17.932C217.048 18.028 217.09 18.094 217.114 18.13C217.066 18.166 216.994 18.226 216.898 18.31C216.802 18.382 216.712 18.424 216.628 18.436C216.352 18.496 215.938 18.574 215.386 18.67C215.278 18.682 215.086 18.712 214.81 18.76C214.378 18.844 214.162 19.096 214.162 19.516C214.162 19.576 214.174 19.69 214.198 19.858C214.342 20.506 214.462 21.076 214.558 21.568C214.654 22.048 214.732 22.45 214.792 22.774L215.116 24.358C215.236 24.934 215.296 25.378 215.296 25.69C215.296 25.918 215.242 26.086 215.134 26.194C215.026 26.314 214.816 26.374 214.504 26.374C214.24 26.374 214.042 26.308 213.91 26.176C213.778 26.044 213.682 25.834 213.622 25.546C213.514 24.994 213.328 24.166 213.064 23.062L212.488 20.074C212.464 19.378 212.122 19.03 211.462 19.03C211.246 19.03 211.096 18.994 211.012 18.922C210.94 18.862 210.874 18.796 210.814 18.724C210.754 18.64 210.724 18.562 210.724 18.49C210.724 18.43 210.76 18.364 210.832 18.292C210.916 18.208 210.994 18.16 211.066 18.148C211.498 18.088 211.786 17.968 211.93 17.788C212.086 17.608 212.17 17.326 212.182 16.942L212.218 15.79C212.23 15.286 212.248 14.77 212.272 14.242C212.296 13.714 212.338 13.246 212.398 12.838C212.446 12.49 212.596 12.238 212.848 12.082C213.1 11.914 213.448 11.83 213.892 11.83C214.084 11.83 214.234 11.836 214.342 11.848C214.594 11.872 214.882 11.992 215.206 12.208C215.53 12.412 215.704 12.634 215.728 12.874C215.848 13.558 215.596 13.93 214.972 13.99C214.564 13.906 214.324 13.954 214.252 14.134C214.18 14.314 214.132 14.536 214.108 14.8C214.108 14.956 214.096 15.178 214.072 15.466C214.036 15.754 214.018 16.048 214.018 16.348ZM222.08 20.794C221.708 21.022 221.282 21.136 220.802 21.136C220.274 21.136 219.764 21.004 219.272 20.74C218.792 20.464 218.408 20.074 218.12 19.57C217.832 19.066 217.712 18.49 217.76 17.842L217.85 17.41C217.922 16.978 217.982 16.66 218.03 16.456C218.138 16.012 218.354 15.7 218.678 15.52C219.002 15.34 219.434 15.196 219.974 15.088C220.322 15.016 220.664 14.98 221 14.98C222.056 14.98 222.944 15.334 223.664 16.042C224.048 16.426 224.24 16.894 224.24 17.446C224.24 17.986 224.042 18.568 223.646 19.192C223.19 19.9 222.668 20.434 222.08 20.794ZM220.568 15.898C220.376 16.366 220.172 16.948 219.956 17.644L219.776 18.184L219.902 18.238C219.902 18.322 219.902 18.454 219.902 18.634C219.914 18.802 219.938 18.946 219.974 19.066C220.106 19.438 220.256 19.666 220.424 19.75C220.496 19.786 220.598 19.768 220.73 19.696C220.874 19.624 221 19.54 221.108 19.444C221.276 19.3 221.546 19 221.918 18.544C222.194 18.232 222.332 17.86 222.332 17.428C222.332 17.056 222.224 16.72 222.008 16.42C221.804 16.12 221.516 15.916 221.144 15.808C221.108 15.796 221.042 15.79 220.946 15.79C220.718 15.79 220.592 15.826 220.568 15.898ZM229.388 20.236C229.784 19.564 229.982 18.73 229.982 17.734C229.982 17.434 229.958 16.978 229.91 16.366V15.16V14.512C229.91 14.128 230.048 13.936 230.324 13.936C230.42 13.936 230.516 13.954 230.612 13.99C231.224 14.254 231.572 14.536 231.656 14.836C231.956 15.82 232.106 16.786 232.106 17.734C232.106 18.778 231.914 19.78 231.53 20.74C231.326 21.244 231.008 21.622 230.576 21.874C230.156 22.126 229.688 22.252 229.172 22.252C228.536 22.252 227.978 22.096 227.498 21.784C226.67 21.256 226.184 20.5 226.04 19.516C225.98 19.024 225.926 18.646 225.878 18.382C225.758 17.674 225.68 17.122 225.644 16.726C225.632 16.45 225.728 16.228 225.932 16.06C226.136 15.88 226.382 15.79 226.67 15.79C226.778 15.79 226.886 15.808 226.994 15.844C227.438 16 227.744 16.222 227.912 16.51C228.08 16.798 228.158 17.188 228.146 17.68C228.122 18.064 228.11 18.352 228.11 18.544C228.11 19.228 228.248 19.792 228.524 20.236C228.572 20.332 228.638 20.422 228.722 20.506C228.806 20.59 228.86 20.626 228.884 20.614C228.98 20.602 229.07 20.56 229.154 20.488C229.25 20.416 229.328 20.332 229.388 20.236ZM237.448 16.078C237.448 16.102 237.46 16.138 237.484 16.186C237.52 16.234 237.55 16.276 237.574 16.312L238.15 15.484C238.366 15.172 238.636 14.986 238.96 14.926C239.296 14.854 239.578 14.908 239.806 15.088C240.37 15.532 240.76 16.03 240.976 16.582L241.318 17.446L241.93 20.65C241.99 20.986 242.104 21.358 242.272 21.766C242.368 22.03 242.434 22.228 242.47 22.36L242.632 22.972C242.32 23.068 242.062 23.116 241.858 23.116C241.114 23.116 240.67 22.78 240.526 22.108C240.394 21.436 240.238 20.638 240.058 19.714L239.878 18.778C239.59 17.902 239.278 17.47 238.942 17.482C238.606 17.482 238.36 17.614 238.204 17.878C237.976 18.25 237.844 18.652 237.808 19.084C237.784 19.504 237.772 20.062 237.772 20.758C237.712 21.022 237.622 21.208 237.502 21.316C237.382 21.412 237.196 21.46 236.944 21.46C236.368 21.46 236.062 21.178 236.026 20.614C235.978 19.942 235.954 19.186 235.954 18.346C235.954 18.106 235.93 17.896 235.882 17.716C235.834 17.536 235.726 17.446 235.558 17.446C235.486 17.446 235.39 17.452 235.27 17.464C235.162 17.476 235.078 17.476 235.018 17.464C234.802 17.416 234.616 17.374 234.46 17.338C234.304 17.302 234.16 17.248 234.028 17.176C233.908 17.092 233.86 16.954 233.884 16.762C233.92 16.558 233.986 16.366 234.082 16.186C234.166 16.066 234.256 15.952 234.352 15.844C234.46 15.724 234.598 15.592 234.766 15.448C235.21 15.064 235.69 14.866 236.206 14.854C236.59 14.842 236.866 14.962 237.034 15.214C237.214 15.466 237.352 15.754 237.448 16.078ZM251.099 19.894C251.123 20.098 251.213 20.362 251.369 20.686C251.393 20.746 251.417 20.812 251.441 20.884C251.477 20.956 251.513 21.04 251.549 21.136C251.141 21.364 250.817 21.478 250.577 21.478C250.397 21.478 250.229 21.424 250.073 21.316C249.917 21.196 249.743 21.01 249.551 20.758C249.407 20.59 249.287 20.506 249.191 20.506C249.095 20.506 248.993 20.584 248.885 20.74C248.645 21.1 248.345 21.37 247.985 21.55C247.637 21.73 247.265 21.82 246.869 21.82C246.425 21.82 245.993 21.718 245.573 21.514C245.165 21.298 244.847 21.01 244.619 20.65C244.379 20.278 244.259 19.726 244.259 18.994C244.259 18.466 244.331 17.932 244.475 17.392C244.619 16.852 244.823 16.408 245.087 16.06C245.375 15.664 245.717 15.352 246.113 15.124C246.509 14.884 246.947 14.764 247.427 14.764C247.583 14.764 247.703 14.77 247.787 14.782C247.823 14.794 247.877 14.8 247.949 14.8C248.225 14.8 248.363 14.668 248.363 14.404L248.345 14.26C248.177 12.88 248.027 11.866 247.895 11.218C247.883 11.158 247.865 11.062 247.841 10.93C247.817 10.798 247.805 10.69 247.805 10.606C247.805 10.438 247.841 10.294 247.913 10.174C247.985 10.042 248.111 9.934 248.291 9.85C248.363 9.814 248.447 9.796 248.543 9.796C248.795 9.796 249.059 9.88 249.335 10.048C249.611 10.204 249.773 10.384 249.821 10.588C250.001 11.332 250.169 12.298 250.325 13.486L250.649 16.222C250.841 17.854 250.991 19.078 251.099 19.894ZM246.293 17.644C246.089 18.232 245.987 18.772 245.987 19.264C245.987 19.948 246.227 20.452 246.707 20.776C246.899 20.668 247.049 20.548 247.157 20.416C247.277 20.272 247.415 20.068 247.571 19.804L247.769 19.462C248.045 19.066 248.225 18.622 248.309 18.13C248.405 17.638 248.465 17.014 248.489 16.258C248.501 16.15 248.477 16.03 248.417 15.898C248.369 15.754 248.315 15.676 248.255 15.664C248.159 15.64 247.997 15.67 247.769 15.754C247.541 15.826 247.397 15.904 247.337 15.988C247.061 16.312 246.839 16.594 246.671 16.834C246.515 17.074 246.389 17.344 246.293 17.644ZM256.623 19.192C256.503 19.264 256.329 19.3 256.101 19.3C256.017 19.3 255.915 19.294 255.795 19.282C255.675 19.27 255.573 19.27 255.489 19.282C255.585 19.678 255.813 20.002 256.173 20.254C256.533 20.494 256.935 20.614 257.379 20.614C257.763 20.614 258.105 20.53 258.405 20.362C258.849 20.134 259.233 19.864 259.557 19.552C259.785 19.324 260.001 19.21 260.205 19.21C260.337 19.21 260.451 19.276 260.547 19.408C260.643 19.564 260.691 19.756 260.691 19.984C260.691 20.224 260.643 20.41 260.547 20.542C260.235 21.022 259.827 21.352 259.323 21.532C258.831 21.712 258.255 21.802 257.595 21.802C256.911 21.802 256.251 21.652 255.615 21.352C254.979 21.052 254.433 20.644 253.977 20.128C253.533 19.6 253.239 19.018 253.095 18.382C252.999 18.01 252.951 17.644 252.951 17.284C252.951 16.72 253.107 16.264 253.419 15.916C253.743 15.568 254.259 15.238 254.967 14.926C255.615 14.65 256.215 14.512 256.767 14.512C257.163 14.512 257.547 14.572 257.919 14.692C259.071 15.052 259.647 15.544 259.647 16.168C259.647 16.564 259.413 17.044 258.945 17.608C258.717 17.872 258.447 18.106 258.135 18.31C257.823 18.514 257.517 18.7 257.217 18.868C256.929 19.024 256.731 19.132 256.623 19.192ZM257.379 15.862C257.367 15.802 257.319 15.754 257.235 15.718C257.163 15.67 257.121 15.64 257.109 15.628C256.785 15.604 256.455 15.7 256.119 15.916C255.783 16.12 255.501 16.384 255.273 16.708C255.057 17.032 254.949 17.344 254.949 17.644L254.967 17.788C254.979 17.836 255.039 17.896 255.147 17.968C255.267 18.04 255.339 18.064 255.363 18.04C256.215 17.404 256.857 16.894 257.289 16.51C257.361 16.438 257.397 16.306 257.397 16.114C257.397 15.994 257.391 15.91 257.379 15.862ZM262.199 20.182C262.223 20.014 262.235 19.768 262.235 19.444L262.217 18.382L262.001 15.25L261.983 14.98C261.983 14.344 262.253 14.026 262.793 14.026C262.925 14.026 263.039 14.074 263.135 14.17C263.243 14.266 263.339 14.314 263.423 14.314C263.603 14.314 263.759 14.236 263.891 14.08C264.035 13.912 264.185 13.744 264.341 13.576C264.593 13.312 264.887 13.102 265.223 12.946C265.571 12.79 265.919 12.712 266.267 12.712C266.603 12.712 266.873 12.754 267.077 12.838C267.137 12.862 267.203 12.916 267.275 13C267.359 13.072 267.401 13.132 267.401 13.18C267.401 13.228 267.365 13.3 267.293 13.396C267.233 13.48 267.179 13.528 267.131 13.54C266.663 13.636 266.255 13.834 265.907 14.134C265.571 14.434 265.349 14.71 265.241 14.962C265.145 15.202 265.001 15.652 264.809 16.312C264.701 16.684 264.617 17.068 264.557 17.464C264.509 17.848 264.491 18.34 264.503 18.94C264.491 19 264.485 19.084 264.485 19.192C264.485 19.348 264.497 19.558 264.521 19.822C264.545 20.11 264.557 20.314 264.557 20.434C264.557 21.034 264.491 21.376 264.359 21.46C264.167 21.556 263.915 21.604 263.603 21.604C263.351 21.604 263.147 21.574 262.991 21.514C262.451 21.31 262.181 20.938 262.181 20.398C262.181 20.302 262.187 20.23 262.199 20.182ZM269.344 22.396C268.336 22.396 267.694 21.964 267.418 21.1C267.514 21.1 267.64 21.106 267.796 21.118C267.964 21.118 268.102 21.13 268.21 21.154C268.378 21.178 268.498 21.19 268.57 21.19C269.11 21.19 269.56 20.95 269.92 20.47C270.172 20.122 270.298 19.768 270.298 19.408C270.298 19.168 270.238 18.934 270.118 18.706C269.854 18.238 269.53 17.722 269.146 17.158C268.894 16.786 268.666 16.432 268.462 16.096C268.222 15.712 268.102 15.286 268.102 14.818C268.102 14.386 268.222 14.008 268.462 13.684C268.714 13.348 269.08 13.138 269.56 13.054L270.136 12.946C270.76 12.826 271.228 12.766 271.54 12.766C272.056 12.766 272.512 12.886 272.908 13.126C272.992 13.186 273.076 13.294 273.16 13.45C273.256 13.594 273.328 13.708 273.376 13.792C273.292 13.828 273.172 13.888 273.016 13.972C272.872 14.044 272.746 14.086 272.638 14.098C272.47 14.122 272.218 14.134 271.882 14.134C271.558 14.134 271.312 14.14 271.144 14.152C270.76 14.188 270.454 14.32 270.226 14.548C270.01 14.764 269.902 15.028 269.902 15.34C269.902 15.58 269.974 15.826 270.118 16.078C270.442 16.618 270.892 17.236 271.468 17.932C271.9 18.472 272.116 19.03 272.116 19.606C272.116 19.918 272.044 20.248 271.9 20.596C271.408 21.796 270.556 22.396 269.344 22.396ZM275.119 19.192C275.155 19.132 275.287 19.09 275.515 19.066C275.887 19.03 276.259 19.054 276.631 19.138C277.003 19.21 277.171 19.342 277.135 19.534C277.051 19.978 276.901 20.452 276.685 20.956C276.637 21.076 276.577 21.25 276.505 21.478C275.977 23.134 275.095 24.556 273.859 25.744C273.823 25.672 273.697 25.582 273.481 25.474C273.265 25.366 273.163 25.3 273.175 25.276C273.391 24.844 273.589 24.196 273.769 23.332L274.363 21.388C274.387 21.316 274.417 21.166 274.453 20.938C274.489 20.698 274.561 20.428 274.669 20.128C274.777 19.816 274.927 19.504 275.119 19.192ZM285.97 15.124C285.982 15.34 286.018 15.586 286.078 15.862L286.15 16.222L286.564 15.934C286.972 15.646 287.29 15.442 287.518 15.322C288.07 15.022 288.634 14.872 289.21 14.872C289.93 14.872 290.53 15.118 291.01 15.61C291.502 16.09 291.748 16.762 291.748 17.626C291.748 18.346 291.562 19.012 291.19 19.624C290.83 20.236 290.332 20.77 289.696 21.226C289 21.742 288.286 22 287.554 22C286.918 22 286.288 21.796 285.664 21.388C285.508 21.316 285.364 21.238 285.232 21.154C284.956 20.986 284.728 20.764 284.548 20.488C284.368 20.2 284.278 19.828 284.278 19.372C284.278 19.132 284.296 18.868 284.332 18.58C284.344 18.472 284.326 18.31 284.278 18.094C284.278 18.058 284.266 17.998 284.242 17.914C284.23 17.83 284.224 17.758 284.224 17.698L284.08 13.576C284.044 13.156 283.972 12.742 283.864 12.334C283.84 12.262 283.828 12.16 283.828 12.028C283.828 11.74 283.924 11.5 284.116 11.308C284.308 11.116 284.56 11.02 284.872 11.02C285.256 11.02 285.526 11.146 285.682 11.398C285.838 11.65 285.916 11.968 285.916 12.352L285.934 13.27C285.934 13.69 285.946 14.308 285.97 15.124ZM288.814 16.366C287.038 17.11 286.198 18.58 286.294 20.776C286.462 20.896 286.624 20.956 286.78 20.956C286.888 20.956 287.002 20.932 287.122 20.884C287.242 20.824 287.344 20.77 287.428 20.722C287.524 20.662 287.608 20.614 287.68 20.578C288.244 20.278 288.718 19.804 289.102 19.156C289.498 18.496 289.696 17.854 289.696 17.23C289.696 17.002 289.672 16.81 289.624 16.654C289.54 16.342 289.408 16.186 289.228 16.186C289.144 16.222 289.006 16.282 288.814 16.366ZM293.224 27.076C293.308 27.052 293.416 27.016 293.548 26.968C293.68 26.932 293.794 26.908 293.89 26.896C294.754 26.872 295.384 26.692 295.78 26.356C296.188 26.02 296.446 25.426 296.554 24.574C296.662 23.722 296.77 22.444 296.878 20.74L296.95 19.588C296.962 19.312 296.908 19.102 296.788 18.958C296.68 18.802 296.476 18.706 296.176 18.67C295.528 18.598 294.964 18.346 294.484 17.914C294.016 17.482 293.692 16.936 293.512 16.276C293.452 16.072 293.386 15.832 293.314 15.556C293.17 15.028 293.068 14.632 293.008 14.368V14.332C293.008 14.26 293.032 14.182 293.08 14.098C293.128 14.002 293.176 13.936 293.224 13.9C293.416 13.768 293.638 13.702 293.89 13.702C294.226 13.702 294.526 13.822 294.79 14.062C295.054 14.29 295.204 14.578 295.24 14.926C295.3 15.466 295.402 16.054 295.546 16.69C295.606 16.942 295.72 17.068 295.888 17.068C296.02 17.068 296.134 17.002 296.23 16.87C296.542 16.474 296.782 16.09 296.95 15.718C297.154 15.262 297.454 15.034 297.85 15.034C297.958 15.034 298.036 15.04 298.084 15.052C298.708 15.172 299.008 15.556 298.984 16.204L298.93 17.878C298.882 19.366 298.828 20.476 298.768 21.208L298.714 21.928C298.642 22.912 298.57 23.674 298.498 24.214C298.438 24.766 298.336 25.318 298.192 25.87C298.012 26.566 297.682 27.082 297.202 27.418C296.722 27.766 296.158 27.94 295.51 27.94C294.994 27.94 294.478 27.838 293.962 27.634C293.854 27.586 293.728 27.52 293.584 27.436C293.44 27.364 293.332 27.304 293.26 27.256L293.224 27.076ZM309.033 19.876C308.889 20.464 308.649 20.92 308.313 21.244C307.977 21.568 307.581 21.73 307.125 21.73C306.537 21.73 305.949 21.478 305.361 20.974C305.817 20.734 306.105 20.59 306.225 20.542C306.537 20.398 306.783 20.2 306.963 19.948C307.155 19.696 307.251 19.414 307.251 19.102C307.251 18.994 307.245 18.91 307.233 18.85C307.197 18.586 307.137 18.304 307.053 18.004C306.969 17.692 306.915 17.488 306.891 17.392C306.831 17.188 306.753 16.882 306.657 16.474C306.585 16.174 306.519 15.868 306.459 15.556C306.399 15.244 306.369 14.968 306.369 14.728C306.369 14.332 306.453 13.972 306.621 13.648C306.801 13.312 307.101 12.994 307.521 12.694C307.701 12.562 307.905 12.448 308.133 12.352C308.373 12.256 308.601 12.202 308.817 12.19C308.973 12.166 309.147 12.196 309.339 12.28C309.543 12.364 309.669 12.466 309.717 12.586C309.765 12.694 309.747 12.85 309.663 13.054C309.579 13.246 309.477 13.39 309.357 13.486C308.661 14.002 308.337 14.578 308.385 15.214C308.409 15.574 308.505 16.102 308.673 16.798C308.793 17.242 308.877 17.626 308.925 17.95C308.937 18.046 308.967 18.238 309.015 18.526C309.075 18.814 309.105 19.078 309.105 19.318C309.105 19.534 309.081 19.72 309.033 19.876ZM315.473 20.794C315.101 21.022 314.675 21.136 314.195 21.136C313.667 21.136 313.157 21.004 312.665 20.74C312.185 20.464 311.801 20.074 311.513 19.57C311.225 19.066 311.105 18.49 311.153 17.842L311.243 17.41C311.315 16.978 311.375 16.66 311.423 16.456C311.531 16.012 311.747 15.7 312.071 15.52C312.395 15.34 312.827 15.196 313.367 15.088C313.715 15.016 314.057 14.98 314.393 14.98C315.449 14.98 316.337 15.334 317.057 16.042C317.441 16.426 317.633 16.894 317.633 17.446C317.633 17.986 317.435 18.568 317.039 19.192C316.583 19.9 316.061 20.434 315.473 20.794ZM313.961 15.898C313.769 16.366 313.565 16.948 313.349 17.644L313.169 18.184L313.295 18.238C313.295 18.322 313.295 18.454 313.295 18.634C313.307 18.802 313.331 18.946 313.367 19.066C313.499 19.438 313.649 19.666 313.817 19.75C313.889 19.786 313.991 19.768 314.123 19.696C314.267 19.624 314.393 19.54 314.501 19.444C314.669 19.3 314.939 19 315.311 18.544C315.587 18.232 315.725 17.86 315.725 17.428C315.725 17.056 315.617 16.72 315.401 16.42C315.197 16.12 314.909 15.916 314.537 15.808C314.501 15.796 314.435 15.79 314.339 15.79C314.111 15.79 313.985 15.826 313.961 15.898ZM328.055 17.302C328.031 16.846 327.839 16.51 327.479 16.294C327.191 16.366 326.957 16.456 326.777 16.564C326.597 16.672 326.465 16.78 326.381 16.888C326.297 16.984 326.147 17.176 325.931 17.464C325.859 17.56 325.781 17.692 325.697 17.86C325.625 18.028 325.583 18.13 325.571 18.166C325.535 18.25 325.517 18.34 325.517 18.436C325.517 18.508 325.529 18.622 325.553 18.778C325.589 18.922 325.601 19.036 325.589 19.12C325.577 19.3 325.583 19.582 325.607 19.966L325.625 20.524C325.625 20.692 325.619 20.818 325.607 20.902C325.583 21.094 325.523 21.262 325.427 21.406C325.331 21.55 325.199 21.622 325.031 21.622C324.971 21.622 324.893 21.604 324.797 21.568C324.713 21.544 324.575 21.502 324.383 21.442C324.191 21.382 324.041 21.292 323.933 21.172C323.825 21.04 323.771 20.854 323.771 20.614C323.771 19.99 323.711 19.054 323.591 17.806C323.567 17.674 323.543 17.452 323.519 17.14C323.507 17.008 323.447 16.906 323.339 16.834C323.231 16.762 323.099 16.726 322.943 16.726C322.691 16.726 322.499 16.792 322.367 16.924C321.815 17.236 321.413 17.59 321.161 17.986C320.909 18.382 320.783 18.892 320.783 19.516L320.801 20.128C320.801 20.524 320.699 20.89 320.495 21.226C320.435 21.334 320.309 21.43 320.117 21.514C319.937 21.586 319.781 21.61 319.649 21.586C319.529 21.574 319.403 21.496 319.271 21.352C319.151 21.196 319.091 21.058 319.091 20.938C319.055 19.93 319.037 18.928 319.037 17.932C319.037 17.032 319.049 16.36 319.073 15.916C319.085 15.688 319.163 15.508 319.307 15.376C319.451 15.244 319.625 15.178 319.829 15.178C320.093 15.178 320.327 15.274 320.531 15.466C320.639 15.67 320.729 15.82 320.801 15.916C320.873 16 320.951 16.042 321.035 16.042C321.107 16.042 321.191 16.006 321.287 15.934C321.383 15.85 321.515 15.718 321.683 15.538C322.079 15.106 322.493 14.89 322.925 14.89C323.393 14.89 323.957 15.124 324.617 15.592C324.665 15.628 324.731 15.682 324.815 15.754C324.899 15.814 324.971 15.844 325.031 15.844C325.115 15.844 325.247 15.748 325.427 15.556C326.099 14.932 326.951 14.59 327.983 14.53C328.307 14.518 328.631 14.644 328.955 14.908C329.291 15.16 329.501 15.466 329.585 15.826C329.729 16.438 329.831 17.158 329.891 17.986C329.963 19.234 329.993 20.17 329.981 20.794C329.969 21.082 329.891 21.31 329.747 21.478C329.603 21.634 329.417 21.712 329.189 21.712C329.009 21.712 328.817 21.658 328.613 21.55C328.529 21.514 328.451 21.448 328.379 21.352C328.307 21.256 328.271 21.172 328.271 21.1L328.163 19.192C328.151 18.988 328.139 18.73 328.127 18.418C328.115 18.094 328.091 17.722 328.055 17.302ZM334.013 14.98C334.121 14.968 334.211 14.968 334.283 14.98C334.355 14.98 334.421 14.98 334.481 14.98C334.565 14.968 334.691 14.962 334.859 14.962C335.675 14.962 336.479 15.196 337.271 15.664C337.619 15.88 337.793 16.108 337.793 16.348C337.793 16.612 337.613 16.846 337.253 17.05C336.953 17.23 336.641 17.44 336.317 17.68C335.741 18.064 335.249 18.364 334.841 18.58C334.445 18.796 334.007 18.946 333.527 19.03C333.455 19.054 333.377 19.12 333.293 19.228C333.221 19.324 333.191 19.396 333.203 19.444C333.227 19.516 333.269 19.666 333.329 19.894C333.389 20.11 333.455 20.296 333.527 20.452C333.611 20.596 333.707 20.716 333.815 20.812C333.935 20.908 334.115 20.956 334.355 20.956C334.595 20.956 334.817 20.92 335.021 20.848C335.741 20.512 336.425 20.092 337.073 19.588C337.265 19.456 337.433 19.39 337.577 19.39C337.757 19.39 337.949 19.486 338.153 19.678C338.297 19.81 338.369 19.948 338.369 20.092C338.369 20.248 338.255 20.44 338.027 20.668C337.007 21.664 335.921 22.162 334.769 22.162C334.457 22.162 334.073 22.102 333.617 21.982C332.849 21.79 332.261 21.364 331.853 20.704C331.445 20.044 331.241 19.288 331.241 18.436C331.241 18.172 331.259 17.92 331.295 17.68C331.307 17.596 331.331 17.422 331.367 17.158C331.415 16.882 331.487 16.654 331.583 16.474C332.039 15.574 332.849 15.076 334.013 14.98ZM335.057 16.276C334.841 16.204 334.649 16.168 334.481 16.168C334.205 16.168 333.989 16.252 333.833 16.42C333.677 16.588 333.551 16.84 333.455 17.176C333.743 17.212 334.049 17.14 334.373 16.96C334.709 16.768 334.937 16.54 335.057 16.276ZM343.563 20.794C343.191 21.022 342.765 21.136 342.285 21.136C341.757 21.136 341.247 21.004 340.755 20.74C340.275 20.464 339.891 20.074 339.603 19.57C339.315 19.066 339.195 18.49 339.243 17.842L339.333 17.41C339.405 16.978 339.465 16.66 339.513 16.456C339.621 16.012 339.837 15.7 340.161 15.52C340.485 15.34 340.917 15.196 341.457 15.088C341.805 15.016 342.147 14.98 342.483 14.98C343.539 14.98 344.427 15.334 345.147 16.042C345.531 16.426 345.723 16.894 345.723 17.446C345.723 17.986 345.525 18.568 345.129 19.192C344.673 19.9 344.151 20.434 343.563 20.794ZM342.051 15.898C341.859 16.366 341.655 16.948 341.439 17.644L341.259 18.184L341.385 18.238C341.385 18.322 341.385 18.454 341.385 18.634C341.397 18.802 341.421 18.946 341.457 19.066C341.589 19.438 341.739 19.666 341.907 19.75C341.979 19.786 342.081 19.768 342.213 19.696C342.357 19.624 342.483 19.54 342.591 19.444C342.759 19.3 343.029 19 343.401 18.544C343.677 18.232 343.815 17.86 343.815 17.428C343.815 17.056 343.707 16.72 343.491 16.42C343.287 16.12 342.999 15.916 342.627 15.808C342.591 15.796 342.525 15.79 342.429 15.79C342.201 15.79 342.075 15.826 342.051 15.898ZM350.511 16.078C350.511 16.102 350.523 16.138 350.547 16.186C350.583 16.234 350.613 16.276 350.637 16.312L351.213 15.484C351.429 15.172 351.699 14.986 352.023 14.926C352.359 14.854 352.641 14.908 352.869 15.088C353.433 15.532 353.823 16.03 354.039 16.582L354.381 17.446L354.993 20.65C355.053 20.986 355.167 21.358 355.335 21.766C355.431 22.03 355.497 22.228 355.533 22.36L355.695 22.972C355.383 23.068 355.125 23.116 354.921 23.116C354.177 23.116 353.733 22.78 353.589 22.108C353.457 21.436 353.301 20.638 353.121 19.714L352.941 18.778C352.653 17.902 352.341 17.47 352.005 17.482C351.669 17.482 351.423 17.614 351.267 17.878C351.039 18.25 350.907 18.652 350.871 19.084C350.847 19.504 350.835 20.062 350.835 20.758C350.775 21.022 350.685 21.208 350.565 21.316C350.445 21.412 350.259 21.46 350.007 21.46C349.431 21.46 349.125 21.178 349.089 20.614C349.041 19.942 349.017 19.186 349.017 18.346C349.017 18.106 348.993 17.896 348.945 17.716C348.897 17.536 348.789 17.446 348.621 17.446C348.549 17.446 348.453 17.452 348.333 17.464C348.225 17.476 348.141 17.476 348.081 17.464C347.865 17.416 347.679 17.374 347.523 17.338C347.367 17.302 347.223 17.248 347.091 17.176C346.971 17.092 346.923 16.954 346.947 16.762C346.983 16.558 347.049 16.366 347.145 16.186C347.229 16.066 347.319 15.952 347.415 15.844C347.523 15.724 347.661 15.592 347.829 15.448C348.273 15.064 348.753 14.866 349.269 14.854C349.653 14.842 349.929 14.962 350.097 15.214C350.277 15.466 350.415 15.754 350.511 16.078ZM359.554 14.98C359.662 14.968 359.752 14.968 359.824 14.98C359.896 14.98 359.962 14.98 360.022 14.98C360.106 14.968 360.232 14.962 360.4 14.962C361.216 14.962 362.02 15.196 362.812 15.664C363.16 15.88 363.334 16.108 363.334 16.348C363.334 16.612 363.154 16.846 362.794 17.05C362.494 17.23 362.182 17.44 361.858 17.68C361.282 18.064 360.79 18.364 360.382 18.58C359.986 18.796 359.548 18.946 359.068 19.03C358.996 19.054 358.918 19.12 358.834 19.228C358.762 19.324 358.732 19.396 358.744 19.444C358.768 19.516 358.81 19.666 358.87 19.894C358.93 20.11 358.996 20.296 359.068 20.452C359.152 20.596 359.248 20.716 359.356 20.812C359.476 20.908 359.656 20.956 359.896 20.956C360.136 20.956 360.358 20.92 360.562 20.848C361.282 20.512 361.966 20.092 362.614 19.588C362.806 19.456 362.974 19.39 363.118 19.39C363.298 19.39 363.49 19.486 363.694 19.678C363.838 19.81 363.91 19.948 363.91 20.092C363.91 20.248 363.796 20.44 363.568 20.668C362.548 21.664 361.462 22.162 360.31 22.162C359.998 22.162 359.614 22.102 359.158 21.982C358.39 21.79 357.802 21.364 357.394 20.704C356.986 20.044 356.782 19.288 356.782 18.436C356.782 18.172 356.8 17.92 356.836 17.68C356.848 17.596 356.872 17.422 356.908 17.158C356.956 16.882 357.028 16.654 357.124 16.474C357.58 15.574 358.39 15.076 359.554 14.98ZM360.598 16.276C360.382 16.204 360.19 16.168 360.022 16.168C359.746 16.168 359.53 16.252 359.374 16.42C359.218 16.588 359.092 16.84 358.996 17.176C359.284 17.212 359.59 17.14 359.914 16.96C360.25 16.768 360.478 16.54 360.598 16.276ZM375.224 19.966C375.2 19.942 375.068 19.786 374.828 19.498C374.432 20.422 374.15 21.04 373.982 21.352C373.718 21.892 373.364 22.162 372.92 22.162C372.716 22.162 372.47 22.096 372.182 21.964C371.702 21.724 371.318 21.4 371.03 20.992C370.742 20.584 370.514 20.092 370.346 19.516C370.106 18.7 369.89 17.848 369.698 16.96C369.674 16.84 369.662 16.756 369.662 16.708C369.662 16.42 369.806 16.192 370.094 16.024C370.298 15.916 370.478 15.862 370.634 15.862C370.79 15.862 370.97 15.916 371.174 16.024C371.498 16.192 371.732 16.39 371.876 16.618C372.032 16.834 372.116 17.122 372.128 17.482C372.14 17.746 372.224 18.124 372.38 18.616C372.536 19.096 372.632 19.348 372.668 19.372C372.704 19.324 372.77 19.246 372.866 19.138C372.962 19.03 373.034 18.928 373.082 18.832L373.406 18.166C373.694 17.566 373.934 17.128 374.126 16.852C374.27 16.636 374.438 16.474 374.63 16.366C374.834 16.258 375.044 16.204 375.26 16.204C375.644 16.204 376.004 16.372 376.34 16.708C376.436 16.816 376.526 17.044 376.61 17.392C376.646 17.56 376.688 17.782 376.736 18.058C376.82 18.598 376.922 19.036 377.042 19.372C377.114 19.576 377.234 19.678 377.402 19.678C377.558 19.678 377.696 19.582 377.816 19.39C378.104 18.886 378.416 18.274 378.752 17.554C378.956 17.086 379.16 16.678 379.364 16.33C379.568 15.982 379.898 15.544 380.354 15.016C380.474 14.872 380.636 14.752 380.84 14.656C381.044 14.548 381.23 14.5 381.398 14.512C381.518 14.524 381.614 14.632 381.686 14.836C381.758 15.04 381.794 15.268 381.794 15.52C381.794 15.64 381.782 15.772 381.758 15.916C381.698 16.204 381.62 16.462 381.524 16.69C381.428 16.918 381.29 17.23 381.11 17.626C380.894 18.094 380.756 18.4 380.696 18.544L380.462 18.904C380.018 19.588 379.688 20.068 379.472 20.344C379.16 20.728 378.764 21.088 378.284 21.424C378.104 21.556 377.912 21.622 377.708 21.622C377.54 21.622 377.378 21.592 377.222 21.532C377.066 21.46 376.916 21.382 376.772 21.298C376.628 21.202 376.52 21.13 376.448 21.082C376.196 20.938 375.884 20.668 375.512 20.272C375.392 20.128 375.296 20.026 375.224 19.966ZM384.793 17.536C384.793 17.62 384.805 17.818 384.829 18.13C384.901 18.094 385.027 18.04 385.207 17.968C385.387 17.884 385.543 17.824 385.675 17.788C385.807 17.752 385.933 17.734 386.053 17.734C386.557 17.734 387.031 17.95 387.475 18.382C387.919 18.814 388.231 19.39 388.411 20.11C388.531 20.554 388.651 21.244 388.771 22.18C388.795 22.372 388.807 22.51 388.807 22.594C388.807 23.002 388.639 23.236 388.303 23.296C388.087 23.344 387.871 23.272 387.655 23.08C387.451 22.888 387.319 22.654 387.259 22.378C387.067 21.49 386.869 20.674 386.665 19.93C386.641 19.834 386.593 19.738 386.521 19.642C386.449 19.534 386.383 19.474 386.323 19.462H386.305C386.245 19.462 386.173 19.504 386.089 19.588C386.017 19.66 385.963 19.744 385.927 19.84C385.771 20.224 385.627 20.632 385.495 21.064L385.369 21.442C385.357 21.478 385.321 21.586 385.261 21.766C385.213 21.946 385.141 22.078 385.045 22.162C384.949 22.246 384.823 22.282 384.667 22.27C384.319 22.234 384.025 22.108 383.785 21.892C383.545 21.664 383.413 21.394 383.389 21.082C383.113 17.422 382.885 14.62 382.705 12.676C382.681 12.34 382.723 12.112 382.831 11.992C382.939 11.86 383.143 11.794 383.443 11.794C384.247 11.794 384.667 12.31 384.703 13.342C384.739 14.182 384.757 15.022 384.757 15.862L384.793 17.536ZM394.557 20.794C394.185 21.022 393.759 21.136 393.279 21.136C392.751 21.136 392.241 21.004 391.749 20.74C391.269 20.464 390.885 20.074 390.597 19.57C390.309 19.066 390.189 18.49 390.237 17.842L390.327 17.41C390.399 16.978 390.459 16.66 390.507 16.456C390.615 16.012 390.831 15.7 391.155 15.52C391.479 15.34 391.911 15.196 392.451 15.088C392.799 15.016 393.141 14.98 393.477 14.98C394.533 14.98 395.421 15.334 396.141 16.042C396.525 16.426 396.717 16.894 396.717 17.446C396.717 17.986 396.519 18.568 396.123 19.192C395.667 19.9 395.145 20.434 394.557 20.794ZM393.045 15.898C392.853 16.366 392.649 16.948 392.433 17.644L392.253 18.184L392.379 18.238C392.379 18.322 392.379 18.454 392.379 18.634C392.391 18.802 392.415 18.946 392.451 19.066C392.583 19.438 392.733 19.666 392.901 19.75C392.973 19.786 393.075 19.768 393.207 19.696C393.351 19.624 393.477 19.54 393.585 19.444C393.753 19.3 394.023 19 394.395 18.544C394.671 18.232 394.809 17.86 394.809 17.428C394.809 17.056 394.701 16.72 394.485 16.42C394.281 16.12 393.993 15.916 393.621 15.808C393.585 15.796 393.519 15.79 393.423 15.79C393.195 15.79 393.069 15.826 393.045 15.898ZM400.173 8.608C400.389 8.752 400.569 8.95 400.713 9.202C400.869 9.454 400.947 9.712 400.947 9.976C400.947 10.096 400.929 10.222 400.893 10.354C400.425 11.77 399.975 12.958 399.543 13.918C399.423 14.194 399.261 14.422 399.057 14.602C398.865 14.77 398.619 14.848 398.319 14.836C398.307 14.8 398.271 14.698 398.211 14.53C398.151 14.362 398.121 14.224 398.121 14.116C398.121 14.008 398.175 13.804 398.283 13.504C398.739 12.244 398.949 11.044 398.913 9.904C398.901 9.592 398.991 9.238 399.183 8.842C399.231 8.734 399.309 8.65 399.417 8.59C399.525 8.518 399.639 8.482 399.759 8.482C399.891 8.482 400.029 8.524 400.173 8.608ZM404.274 22.396C403.266 22.396 402.624 21.964 402.348 21.1C402.444 21.1 402.57 21.106 402.726 21.118C402.894 21.118 403.032 21.13 403.14 21.154C403.308 21.178 403.428 21.19 403.5 21.19C404.04 21.19 404.49 20.95 404.85 20.47C405.102 20.122 405.228 19.768 405.228 19.408C405.228 19.168 405.168 18.934 405.048 18.706C404.784 18.238 404.46 17.722 404.076 17.158C403.824 16.786 403.596 16.432 403.392 16.096C403.152 15.712 403.032 15.286 403.032 14.818C403.032 14.386 403.152 14.008 403.392 13.684C403.644 13.348 404.01 13.138 404.49 13.054L405.066 12.946C405.69 12.826 406.158 12.766 406.47 12.766C406.986 12.766 407.442 12.886 407.838 13.126C407.922 13.186 408.006 13.294 408.09 13.45C408.186 13.594 408.258 13.708 408.306 13.792C408.222 13.828 408.102 13.888 407.946 13.972C407.802 14.044 407.676 14.086 407.568 14.098C407.4 14.122 407.148 14.134 406.812 14.134C406.488 14.134 406.242 14.14 406.074 14.152C405.69 14.188 405.384 14.32 405.156 14.548C404.94 14.764 404.832 15.028 404.832 15.34C404.832 15.58 404.904 15.826 405.048 16.078C405.372 16.618 405.822 17.236 406.398 17.932C406.83 18.472 407.046 19.03 407.046 19.606C407.046 19.918 406.974 20.248 406.83 20.596C406.338 21.796 405.486 22.396 404.274 22.396ZM415.503 15.124C415.515 15.34 415.551 15.586 415.611 15.862L415.683 16.222L416.097 15.934C416.505 15.646 416.823 15.442 417.051 15.322C417.603 15.022 418.167 14.872 418.743 14.872C419.463 14.872 420.063 15.118 420.543 15.61C421.035 16.09 421.281 16.762 421.281 17.626C421.281 18.346 421.095 19.012 420.723 19.624C420.363 20.236 419.865 20.77 419.229 21.226C418.533 21.742 417.819 22 417.087 22C416.451 22 415.821 21.796 415.197 21.388C415.041 21.316 414.897 21.238 414.765 21.154C414.489 20.986 414.261 20.764 414.081 20.488C413.901 20.2 413.811 19.828 413.811 19.372C413.811 19.132 413.829 18.868 413.865 18.58C413.877 18.472 413.859 18.31 413.811 18.094C413.811 18.058 413.799 17.998 413.775 17.914C413.763 17.83 413.757 17.758 413.757 17.698L413.613 13.576C413.577 13.156 413.505 12.742 413.397 12.334C413.373 12.262 413.361 12.16 413.361 12.028C413.361 11.74 413.457 11.5 413.649 11.308C413.841 11.116 414.093 11.02 414.405 11.02C414.789 11.02 415.059 11.146 415.215 11.398C415.371 11.65 415.449 11.968 415.449 12.352L415.467 13.27C415.467 13.69 415.479 14.308 415.503 15.124ZM418.347 16.366C416.571 17.11 415.731 18.58 415.827 20.776C415.995 20.896 416.157 20.956 416.313 20.956C416.421 20.956 416.535 20.932 416.655 20.884C416.775 20.824 416.877 20.77 416.961 20.722C417.057 20.662 417.141 20.614 417.213 20.578C417.777 20.278 418.251 19.804 418.635 19.156C419.031 18.496 419.229 17.854 419.229 17.23C419.229 17.002 419.205 16.81 419.157 16.654C419.073 16.342 418.941 16.186 418.761 16.186C418.677 16.222 418.539 16.282 418.347 16.366ZM426.358 19.192C426.238 19.264 426.064 19.3 425.836 19.3C425.752 19.3 425.65 19.294 425.53 19.282C425.41 19.27 425.308 19.27 425.224 19.282C425.32 19.678 425.548 20.002 425.908 20.254C426.268 20.494 426.67 20.614 427.114 20.614C427.498 20.614 427.84 20.53 428.14 20.362C428.584 20.134 428.968 19.864 429.292 19.552C429.52 19.324 429.736 19.21 429.94 19.21C430.072 19.21 430.186 19.276 430.282 19.408C430.378 19.564 430.426 19.756 430.426 19.984C430.426 20.224 430.378 20.41 430.282 20.542C429.97 21.022 429.562 21.352 429.058 21.532C428.566 21.712 427.99 21.802 427.33 21.802C426.646 21.802 425.986 21.652 425.35 21.352C424.714 21.052 424.168 20.644 423.712 20.128C423.268 19.6 422.974 19.018 422.83 18.382C422.734 18.01 422.686 17.644 422.686 17.284C422.686 16.72 422.842 16.264 423.154 15.916C423.478 15.568 423.994 15.238 424.702 14.926C425.35 14.65 425.95 14.512 426.502 14.512C426.898 14.512 427.282 14.572 427.654 14.692C428.806 15.052 429.382 15.544 429.382 16.168C429.382 16.564 429.148 17.044 428.68 17.608C428.452 17.872 428.182 18.106 427.87 18.31C427.558 18.514 427.252 18.7 426.952 18.868C426.664 19.024 426.466 19.132 426.358 19.192ZM427.114 15.862C427.102 15.802 427.054 15.754 426.97 15.718C426.898 15.67 426.856 15.64 426.844 15.628C426.52 15.604 426.19 15.7 425.854 15.916C425.518 16.12 425.236 16.384 425.008 16.708C424.792 17.032 424.684 17.344 424.684 17.644L424.702 17.788C424.714 17.836 424.774 17.896 424.882 17.968C425.002 18.04 425.074 18.064 425.098 18.04C425.95 17.404 426.592 16.894 427.024 16.51C427.096 16.438 427.132 16.306 427.132 16.114C427.132 15.994 427.126 15.91 427.114 15.862ZM433.189 14.98C433.297 14.968 433.387 14.968 433.459 14.98C433.531 14.98 433.597 14.98 433.657 14.98C433.741 14.968 433.867 14.962 434.035 14.962C434.851 14.962 435.655 15.196 436.447 15.664C436.795 15.88 436.969 16.108 436.969 16.348C436.969 16.612 436.789 16.846 436.429 17.05C436.129 17.23 435.817 17.44 435.493 17.68C434.917 18.064 434.425 18.364 434.017 18.58C433.621 18.796 433.183 18.946 432.703 19.03C432.631 19.054 432.553 19.12 432.469 19.228C432.397 19.324 432.367 19.396 432.379 19.444C432.403 19.516 432.445 19.666 432.505 19.894C432.565 20.11 432.631 20.296 432.703 20.452C432.787 20.596 432.883 20.716 432.991 20.812C433.111 20.908 433.291 20.956 433.531 20.956C433.771 20.956 433.993 20.92 434.197 20.848C434.917 20.512 435.601 20.092 436.249 19.588C436.441 19.456 436.609 19.39 436.753 19.39C436.933 19.39 437.125 19.486 437.329 19.678C437.473 19.81 437.545 19.948 437.545 20.092C437.545 20.248 437.431 20.44 437.203 20.668C436.183 21.664 435.097 22.162 433.945 22.162C433.633 22.162 433.249 22.102 432.793 21.982C432.025 21.79 431.437 21.364 431.029 20.704C430.621 20.044 430.417 19.288 430.417 18.436C430.417 18.172 430.435 17.92 430.471 17.68C430.483 17.596 430.507 17.422 430.543 17.158C430.591 16.882 430.663 16.654 430.759 16.474C431.215 15.574 432.025 15.076 433.189 14.98ZM434.233 16.276C434.017 16.204 433.825 16.168 433.657 16.168C433.381 16.168 433.165 16.252 433.009 16.42C432.853 16.588 432.727 16.84 432.631 17.176C432.919 17.212 433.225 17.14 433.549 16.96C433.885 16.768 434.113 16.54 434.233 16.276ZM441.676 15.214C441.676 15.286 441.664 15.382 441.64 15.502C441.616 15.61 441.61 15.682 441.622 15.718C442.45 15.538 443.152 15.448 443.728 15.448C444.628 15.448 445.306 15.88 445.762 16.744C446.134 17.476 446.32 18.286 446.32 19.174C446.32 19.402 446.296 19.732 446.248 20.164C446.212 20.452 446.098 20.686 445.906 20.866C445.714 21.034 445.486 21.118 445.222 21.118C444.946 21.118 444.748 21.07 444.628 20.974C444.52 20.866 444.454 20.746 444.43 20.614C444.418 20.482 444.412 20.272 444.412 19.984L444.394 19.606C444.37 18.886 444.322 18.262 444.25 17.734C444.214 17.518 444.13 17.368 443.998 17.284C443.878 17.188 443.716 17.14 443.512 17.14C443.32 17.14 443.092 17.17 442.828 17.23C442.42 17.338 442.144 17.422 442 17.482C441.868 17.542 441.67 17.668 441.406 17.86C441.322 17.92 441.262 18.04 441.226 18.22C441.19 18.4 441.172 18.502 441.172 18.526C441.016 19.294 440.848 20.212 440.668 21.28C440.656 21.328 440.632 21.442 440.596 21.622C440.56 21.802 440.488 21.928 440.38 22C440.284 22.084 440.14 22.114 439.948 22.09C439.192 21.994 438.808 21.676 438.796 21.136C438.784 20.44 438.838 19.618 438.958 18.67C439.042 17.986 439.12 17.434 439.192 17.014C439.216 16.822 439.246 16.588 439.282 16.312C439.33 16.036 439.372 15.718 439.408 15.358C439.444 15.082 439.48 14.878 439.516 14.746C439.552 14.614 439.636 14.506 439.768 14.422C439.9 14.326 440.104 14.278 440.38 14.278C440.728 14.278 441.016 14.356 441.244 14.512C441.472 14.668 441.616 14.89 441.676 15.178V15.214ZM456.681 12.982C456.741 12.958 456.873 12.94 457.077 12.928C457.293 12.904 457.485 12.892 457.653 12.892C457.989 12.892 458.295 13.102 458.571 13.522L458.337 13.702C458.061 13.906 457.665 14.062 457.149 14.17C456.693 14.398 456.351 14.59 456.123 14.746C455.907 14.902 455.745 15.076 455.637 15.268C455.541 15.46 455.493 15.706 455.493 16.006C455.493 16.15 455.529 16.522 455.601 17.122L455.691 17.878C455.787 18.802 455.871 19.48 455.943 19.912C455.967 20.068 456.015 20.254 456.087 20.47C456.171 20.674 456.255 20.794 456.339 20.83C456.423 20.866 456.591 20.806 456.843 20.65C457.323 20.074 457.635 19.672 457.779 19.444C457.815 19.384 457.875 19.282 457.959 19.138C458.043 18.994 458.127 18.886 458.211 18.814C458.295 18.73 458.397 18.688 458.517 18.688C458.541 18.688 458.601 18.7 458.697 18.724C458.889 18.784 459.039 18.874 459.147 18.994C459.267 19.114 459.327 19.288 459.327 19.516C459.327 19.624 459.321 19.702 459.309 19.75C459.237 20.23 459.069 20.662 458.805 21.046C458.541 21.43 458.193 21.808 457.761 22.18C457.593 22.336 457.317 22.414 456.933 22.414C456.513 22.414 456.099 22.318 455.691 22.126C455.283 21.946 455.007 21.706 454.863 21.406C454.491 20.602 454.143 19.576 453.819 18.328C453.735 17.98 453.669 17.428 453.621 16.672L453.567 16.006C453.543 15.73 453.543 15.52 453.567 15.376C453.591 15.22 453.357 15.124 452.865 15.088C452.685 15.076 452.595 14.956 452.595 14.728C452.715 14.344 452.901 14.116 453.153 14.044C453.393 13.972 453.543 13.822 453.603 13.594C453.663 13.354 453.711 13.108 453.747 12.856C453.855 12.076 453.879 11.206 453.819 10.246C453.795 9.79 453.933 9.526 454.233 9.454L454.395 9.472C454.455 9.484 454.593 9.508 454.809 9.544C455.025 9.568 455.217 9.622 455.385 9.706C455.805 9.934 456.015 10.336 456.015 10.912C456.015 11.152 455.967 11.464 455.871 11.848C455.859 11.908 455.841 11.962 455.817 12.01C455.793 12.058 455.775 12.112 455.763 12.172C455.727 12.352 455.709 12.502 455.709 12.622C455.601 12.982 455.685 13.162 455.961 13.162C456.057 13.162 456.297 13.102 456.681 12.982ZM463.155 12.388C463.167 13.552 463.197 14.512 463.245 15.268C463.305 16.012 463.437 16.804 463.641 17.644C464.145 17.464 464.607 17.374 465.027 17.374C465.735 17.374 466.347 17.584 466.863 18.004C467.379 18.424 467.727 18.946 467.907 19.57C468.051 20.026 468.123 20.638 468.123 21.406L468.105 22.81C468.105 22.894 468.057 22.99 467.961 23.098C467.865 23.206 467.769 23.272 467.673 23.296C467.637 23.308 467.583 23.314 467.511 23.314C467.235 23.314 466.947 23.176 466.647 22.9C466.347 22.636 466.191 22.372 466.179 22.108L466.143 21.172C466.143 20.956 466.131 20.644 466.107 20.236C466.083 19.816 466.035 19.516 465.963 19.336C465.891 19.132 465.801 18.976 465.693 18.868C465.585 18.76 465.465 18.706 465.333 18.706C465.237 18.706 465.129 18.748 465.009 18.832C464.901 18.916 464.805 19.03 464.721 19.174C464.469 19.57 464.139 20.35 463.731 21.514C463.599 21.934 463.365 22.144 463.029 22.144C462.993 22.144 462.915 22.132 462.795 22.108C462.723 22.084 462.585 22.048 462.381 22C462.177 21.94 462.015 21.85 461.895 21.73C461.787 21.61 461.733 21.436 461.733 21.208C461.733 18.94 461.595 17.062 461.319 15.574C461.187 14.83 461.121 13.972 461.121 13V11.794V11.164C461.121 10.996 461.211 10.852 461.391 10.732C461.571 10.612 461.775 10.552 462.003 10.552C462.195 10.552 462.357 10.594 462.489 10.678C462.729 10.822 462.897 11.002 462.993 11.218C463.101 11.434 463.155 11.704 463.155 12.028V12.388ZM472.588 19.192C472.468 19.264 472.294 19.3 472.066 19.3C471.982 19.3 471.88 19.294 471.76 19.282C471.64 19.27 471.538 19.27 471.454 19.282C471.55 19.678 471.778 20.002 472.138 20.254C472.498 20.494 472.9 20.614 473.344 20.614C473.728 20.614 474.07 20.53 474.37 20.362C474.814 20.134 475.198 19.864 475.522 19.552C475.75 19.324 475.966 19.21 476.17 19.21C476.302 19.21 476.416 19.276 476.512 19.408C476.608 19.564 476.656 19.756 476.656 19.984C476.656 20.224 476.608 20.41 476.512 20.542C476.2 21.022 475.792 21.352 475.288 21.532C474.796 21.712 474.22 21.802 473.56 21.802C472.876 21.802 472.216 21.652 471.58 21.352C470.944 21.052 470.398 20.644 469.942 20.128C469.498 19.6 469.204 19.018 469.06 18.382C468.964 18.01 468.916 17.644 468.916 17.284C468.916 16.72 469.072 16.264 469.384 15.916C469.708 15.568 470.224 15.238 470.932 14.926C471.58 14.65 472.18 14.512 472.732 14.512C473.128 14.512 473.512 14.572 473.884 14.692C475.036 15.052 475.612 15.544 475.612 16.168C475.612 16.564 475.378 17.044 474.91 17.608C474.682 17.872 474.412 18.106 474.1 18.31C473.788 18.514 473.482 18.7 473.182 18.868C472.894 19.024 472.696 19.132 472.588 19.192ZM473.344 15.862C473.332 15.802 473.284 15.754 473.2 15.718C473.128 15.67 473.086 15.64 473.074 15.628C472.75 15.604 472.42 15.7 472.084 15.916C471.748 16.12 471.466 16.384 471.238 16.708C471.022 17.032 470.914 17.344 470.914 17.644L470.932 17.788C470.944 17.836 471.004 17.896 471.112 17.968C471.232 18.04 471.304 18.064 471.328 18.04C472.18 17.404 472.822 16.894 473.254 16.51C473.326 16.438 473.362 16.306 473.362 16.114C473.362 15.994 473.356 15.91 473.344 15.862ZM478.164 20.182C478.188 20.014 478.2 19.768 478.2 19.444L478.182 18.382L477.966 15.25L477.948 14.98C477.948 14.344 478.218 14.026 478.758 14.026C478.89 14.026 479.004 14.074 479.1 14.17C479.208 14.266 479.304 14.314 479.388 14.314C479.568 14.314 479.724 14.236 479.856 14.08C480 13.912 480.15 13.744 480.306 13.576C480.558 13.312 480.852 13.102 481.188 12.946C481.536 12.79 481.884 12.712 482.232 12.712C482.568 12.712 482.838 12.754 483.042 12.838C483.102 12.862 483.168 12.916 483.24 13C483.324 13.072 483.366 13.132 483.366 13.18C483.366 13.228 483.33 13.3 483.258 13.396C483.198 13.48 483.144 13.528 483.096 13.54C482.628 13.636 482.22 13.834 481.872 14.134C481.536 14.434 481.314 14.71 481.206 14.962C481.11 15.202 480.966 15.652 480.774 16.312C480.666 16.684 480.582 17.068 480.522 17.464C480.474 17.848 480.456 18.34 480.468 18.94C480.456 19 480.45 19.084 480.45 19.192C480.45 19.348 480.462 19.558 480.486 19.822C480.51 20.11 480.522 20.314 480.522 20.434C480.522 21.034 480.456 21.376 480.324 21.46C480.132 21.556 479.88 21.604 479.568 21.604C479.316 21.604 479.112 21.574 478.956 21.514C478.416 21.31 478.146 20.938 478.146 20.398C478.146 20.302 478.152 20.23 478.164 20.182ZM486.011 14.98C486.119 14.968 486.209 14.968 486.281 14.98C486.353 14.98 486.419 14.98 486.479 14.98C486.563 14.968 486.689 14.962 486.857 14.962C487.673 14.962 488.477 15.196 489.269 15.664C489.617 15.88 489.791 16.108 489.791 16.348C489.791 16.612 489.611 16.846 489.251 17.05C488.951 17.23 488.639 17.44 488.315 17.68C487.739 18.064 487.247 18.364 486.839 18.58C486.443 18.796 486.005 18.946 485.525 19.03C485.453 19.054 485.375 19.12 485.291 19.228C485.219 19.324 485.189 19.396 485.201 19.444C485.225 19.516 485.267 19.666 485.327 19.894C485.387 20.11 485.453 20.296 485.525 20.452C485.609 20.596 485.705 20.716 485.813 20.812C485.933 20.908 486.113 20.956 486.353 20.956C486.593 20.956 486.815 20.92 487.019 20.848C487.739 20.512 488.423 20.092 489.071 19.588C489.263 19.456 489.431 19.39 489.575 19.39C489.755 19.39 489.947 19.486 490.151 19.678C490.295 19.81 490.367 19.948 490.367 20.092C490.367 20.248 490.253 20.44 490.025 20.668C489.005 21.664 487.919 22.162 486.767 22.162C486.455 22.162 486.071 22.102 485.615 21.982C484.847 21.79 484.259 21.364 483.851 20.704C483.443 20.044 483.239 19.288 483.239 18.436C483.239 18.172 483.257 17.92 483.293 17.68C483.305 17.596 483.329 17.422 483.365 17.158C483.413 16.882 483.485 16.654 483.581 16.474C484.037 15.574 484.847 15.076 486.011 14.98ZM487.055 16.276C486.839 16.204 486.647 16.168 486.479 16.168C486.203 16.168 485.987 16.252 485.831 16.42C485.675 16.588 485.549 16.84 485.453 17.176C485.741 17.212 486.047 17.14 486.371 16.96C486.707 16.768 486.935 16.54 487.055 16.276ZM493.815 21.712C493.743 21.952 493.605 22.162 493.401 22.342C493.209 22.522 493.011 22.612 492.807 22.612C492.531 22.6 492.261 22.468 491.997 22.216C491.745 21.964 491.619 21.688 491.619 21.388C491.619 21.244 491.661 21.118 491.745 21.01C491.841 20.902 491.973 20.794 492.141 20.686C492.249 20.614 492.303 20.578 492.303 20.578C492.327 20.554 492.381 20.5 492.465 20.416C492.549 20.332 492.627 20.272 492.699 20.236C492.783 20.188 492.861 20.164 492.933 20.164C493.041 20.164 493.155 20.206 493.275 20.29C493.431 20.386 493.563 20.56 493.671 20.812C493.791 21.052 493.851 21.28 493.851 21.496C493.851 21.544 493.839 21.616 493.815 21.712Z" fill="#1E1E1E"/>
</svg>
